<?xml version="1.0" encoding="UTF-8" standalone="no"?>
<svg
   width="64"
   height="64"
   version="1.1"
   id="svg6"
   sodipodi:docname="disney.svg"
   inkscape:version="1.4.2 (ebf0e940d0, 2025-05-08)"
   xmlns:inkscape="http://www.inkscape.org/namespaces/inkscape"
   xmlns:sodipodi="http://sodipodi.sourceforge.net/DTD/sodipodi-0.dtd"
   xmlns="http://www.w3.org/2000/svg"
   xmlns:svg="http://www.w3.org/2000/svg">
  <sodipodi:namedview
     id="namedview6"
     pagecolor="#505050"
     bordercolor="#eeeeee"
     borderopacity="1"
     inkscape:showpageshadow="0"
     inkscape:pageopacity="0"
     inkscape:pagecheckerboard="0"
     inkscape:deskcolor="#505050"
     inkscape:zoom="4.1929222"
     inkscape:cx="72.980127"
     inkscape:cy="16.098558"
     inkscape:window-width="1920"
     inkscape:window-height="996"
     inkscape:window-x="0"
     inkscape:window-y="0"
     inkscape:window-maximized="1"
     inkscape:current-layer="svg6" />
  <defs
     id="defs3">
    <filter
       id="c"
       width="1.8821373"
       height="1.8821382"
       x="-0.44106865"
       y="-0.44106911"
       style="color-interpolation-filters:sRGB">
      <feGaussianBlur
         stdDeviation="1.994"
         id="feGaussianBlur1" />
    </filter>
    <filter
       id="b"
       width="1.3361903"
       height="1.4157052"
       x="-0.16809515"
       y="-0.20785261"
       style="color-interpolation-filters:sRGB">
      <feGaussianBlur
         stdDeviation="1.994"
         id="feGaussianBlur2" />
    </filter>
    <linearGradient
       id="a"
       x1="7.937"
       x2="7.937"
       y1="15.081"
       y2="1.852"
       gradientTransform="scale(3.7796)"
       gradientUnits="userSpaceOnUse">
      <stop
         offset="0"
         stop-color="#0e71de"
         style="stop-color:#1a619e;stop-opacity:1"
         id="stop2" />
      <stop
         offset="1"
         stop-color="#25c9ff"
         style="stop-color:#3e94e0;stop-opacity:1"
         id="stop3" />
    </linearGradient>
    <filter
       id="filter1057"
       x="-0.026999999"
       y="-0.026999999"
       width="1.054"
       height="1.054"
       color-interpolation-filters="sRGB">
      <feGaussianBlur
         stdDeviation="0.61875"
         id="feGaussianBlur1-3" />
    </filter>
    <linearGradient
       id="linearGradient1053"
       x1="-127"
       x2="-72"
       y1="60"
       y2="5"
       gradientTransform="translate(131.5,-0.51000061)"
       gradientUnits="userSpaceOnUse">
      <stop
         stop-color="#32d7ff"
         offset="0"
         id="stop1" />
      <stop
         stop-color="#329bff"
         offset="1"
         id="stop2-6" />
    </linearGradient>
  </defs>
  <rect
     x="4.4999995"
     y="4.4999995"
     width="55"
     height="55"
     ry="15"
     fill="#141414"
     filter="url(#filter1057)"
     opacity="0.3"
     stroke-linecap="round"
     stroke-width="2.7444"
     id="rect12" />
  <rect
     x="4.5"
     y="4.5"
     width="55"
     height="55"
     ry="15"
     fill="url(#linearGradient1053)"
     stroke-linecap="round"
     stroke-width="2.7444"
     id="rect13"
     style="fill:url(#linearGradient1053)" />
  <path
     d="M39.416 35.428c-.154 1.97-.911 5.281-6.274 6.917-3.54 1.066-6.884.553-8.706.09-.04.724-.122 1.033-.236 1.155-.155.154-1.31.822-1.945-.122-.285-.448-.431-1.262-.513-1.986-4.1-1.888-5.988-4.605-6.062-4.727-.09-.09-1.025-1.066-.09-2.262.88-1.083 3.752-2.165 6.34-2.604.09-2.214.35-3.882.659-4.647.374-.887.846-.09 1.253.513.342.448.545 2.376.561 3.914 1.693-.081 2.694.04 4.581.382 2.458.448 4.101 1.701 3.955 3.125-.106 1.4-1.391 1.977-1.88 2.018-.512.04-1.31-.325-1.31-.325-.545-.26-.04-.489.619-.773.716-.35.553-.708.553-.708-.269-.782-3.458-1.327-6.632-1.327-.016 1.75.074 4.655.114 6.347 2.222.423 3.882.342 3.882.342s8.104-.228 8.348-5.403c.252-5.183-8.08-10.155-14.24-11.734-6.151-1.61-9.634-.488-9.935-.333-.325.162-.024.211-.024.211s.333.049.91.244c.611.196.14.513.14.513-1.05.334-2.23.122-2.458-.358s.154-.911.594-1.53c.44-.65.92-.626.92-.626 7.608-2.637 16.876 2.132 16.876 2.132 8.682 4.402 10.163 9.56 10 11.562m-22.962-.267c-.862.423-.268 1.033-.268 1.033 1.62 1.742 3.613 2.832 5.509 3.507.22-3.002.187-4.06.211-5.574-2.962.204-4.67.676-5.452 1.034"
     style="fill:#000;fill-opacity:1;stroke:none;stroke-width:.0813709;filter:url(#b);opacity:.15"
     id="path3" />
  <path
     d="M37.632 34.977c-.154 1.97-.911 5.281-6.274 6.917-3.54 1.066-6.884.553-8.706.09-.04.724-.122 1.033-.236 1.155-.155.154-1.31.822-1.945-.122-.285-.448-.431-1.262-.513-1.986-4.1-1.888-5.988-4.605-6.062-4.727-.09-.09-1.025-1.066-.09-2.262.88-1.083 3.752-2.165 6.34-2.604.09-2.214.35-3.882.659-4.647.374-.887.846-.09 1.253.513.342.448.545 2.376.561 3.914 1.693-.081 2.694.04 4.581.382 2.458.448 4.101 1.701 3.955 3.125-.106 1.4-1.391 1.977-1.88 2.018-.512.04-1.31-.325-1.31-.325-.545-.26-.04-.489.619-.773.716-.35.553-.708.553-.708-.269-.782-3.458-1.327-6.632-1.327-.016 1.75.074 4.655.114 6.347 2.222.423 3.882.342 3.882.342s8.104-.228 8.348-5.403c.252-5.183-8.08-10.155-14.24-11.734-6.151-1.61-9.634-.488-9.935-.333-.325.162-.024.211-.024.211s.333.049.91.244c.611.196.14.513.14.513-1.05.334-2.23.122-2.458-.358s.154-.911.594-1.53c.44-.65.92-.626.92-.626 7.608-2.637 16.876 2.132 16.876 2.132 8.682 4.402 10.163 9.56 10 11.562M14.67 34.71c-.862.423-.268 1.033-.268 1.033 1.62 1.742 3.613 2.832 5.509 3.507.22-3.002.187-4.06.211-5.574-2.962.204-4.67.676-5.452 1.034"
     style="fill:#fff;fill-opacity:1;stroke:none;stroke-width:.0813709"
     transform="translate(1.784)"
     id="path4" />
  <path
     fill="#01147c"
     d="M53.044 32.051v.902a.353.353 0 0 1-.356.355h-4.295c0 .225.007.423.007.608 0 1.331-.055 2.417-.184 3.639a.354.354 0 0 1-.349.32h-.928a.33.33 0 0 1-.328-.368 32 32 0 0 0 .191-3.591c0-.192 0-.39-.006-.608h-4.247a.353.353 0 0 1-.355-.355v-.902c0-.198.157-.355.355-.355h4.185a31.5 31.5 0 0 0-.553-4.316.3.3 0 0 1 .061-.246.29.29 0 0 1 .226-.109h1.004c.157 0 .286.11.32.267.28 1.481.458 2.922.547 4.404h4.349c.191 0 .355.163.355.355"
     style="fill:#000;fill-opacity:1;stroke-width:.068279;filter:url(#c);opacity:.15"
     id="path5" />
  <path
     fill="#01147c"
     d="M51.26 31.6v.902a.353.353 0 0 1-.356.355h-4.295c0 .225.007.423.007.608 0 1.331-.055 2.417-.184 3.639a.354.354 0 0 1-.349.32h-.928a.33.33 0 0 1-.328-.368 32 32 0 0 0 .191-3.591c0-.192 0-.39-.006-.608h-4.247a.353.353 0 0 1-.355-.355V31.6c0-.198.157-.355.355-.355h4.185a31.5 31.5 0 0 0-.553-4.316.3.3 0 0 1 .061-.246.29.29 0 0 1 .226-.109h1.004c.157 0 .286.11.32.267.28 1.481.458 2.922.547 4.404h4.349c.191 0 .355.163.355.355"
     style="fill:#fff;fill-opacity:1;stroke-width:.068279"
     transform="translate(1.784)"
     id="path6" />
</svg>
