<?xml version="1.0" encoding="UTF-8" standalone="no"?>
<svg
   width="64"
   height="64"
   version="1.1"
   id="svg3"
   sodipodi:docname="distributor-logo-neon.svg"
   inkscape:version="1.4.2 (ebf0e940d0, 2025-05-08)"
   xmlns:inkscape="http://www.inkscape.org/namespaces/inkscape"
   xmlns:sodipodi="http://sodipodi.sourceforge.net/DTD/sodipodi-0.dtd"
   xmlns="http://www.w3.org/2000/svg"
   xmlns:svg="http://www.w3.org/2000/svg">
  <sodipodi:namedview
     id="namedview3"
     pagecolor="#505050"
     bordercolor="#eeeeee"
     borderopacity="1"
     inkscape:showpageshadow="0"
     inkscape:pageopacity="0"
     inkscape:pagecheckerboard="0"
     inkscape:deskcolor="#505050"
     inkscape:zoom="4.2315921"
     inkscape:cx="50.571982"
     inkscape:cy="16.542237"
     inkscape:window-width="1920"
     inkscape:window-height="1003"
     inkscape:window-x="0"
     inkscape:window-y="0"
     inkscape:window-maximized="1"
     inkscape:current-layer="svg3" />
  <defs
     id="defs2">
    <linearGradient
       id="a"
       x1="7.937"
       x2="7.937"
       y1="15.081"
       y2="1.852"
       gradientTransform="scale(3.7796)"
       gradientUnits="userSpaceOnUse">
      <stop
         offset="0"
         stop-color="#0e71de"
         id="stop1" />
      <stop
         offset="1"
         stop-color="#25c9ff"
         id="stop2" />
    </linearGradient>
    <filter
       id="b"
       width="1.294"
       height="1.294"
       x="-0.14699999"
       y="-0.14699999"
       style="color-interpolation-filters:sRGB">
      <feGaussianBlur
         stdDeviation="2.205"
         id="feGaussianBlur2" />
    </filter>
    <filter
       id="filter1057"
       x="-0.026999999"
       y="-0.026999999"
       width="1.054"
       height="1.054"
       color-interpolation-filters="sRGB">
      <feGaussianBlur
         stdDeviation="0.61875"
         id="feGaussianBlur1" />
    </filter>
    <linearGradient
       id="linearGradient1053"
       x1="-127"
       x2="-72"
       y1="60"
       y2="5"
       gradientTransform="translate(131.4999,-0.50845981)"
       gradientUnits="userSpaceOnUse">
      <stop
         stop-color="#2e55e7"
         offset="0"
         id="stop1-3" />
      <stop
         stop-color="#0d7eef"
         offset="1"
         id="stop2-6" />
    </linearGradient>
  </defs>
  <rect
     x="4.4999995"
     y="4.4999995"
     width="55"
     height="55"
     ry="15"
     fill="#141414"
     filter="url(#filter1057)"
     opacity="0.3"
     stroke-linecap="round"
     stroke-width="2.7444"
     id="rect3" />
  <rect
     x="4.4995003"
     y="4.4995003"
     width="55.000999"
     height="55.000999"
     ry="15"
     fill="url(#linearGradient1053)"
     stroke-linecap="round"
     stroke-width="2.7444"
     id="rect4-7"
     style="fill:url(#linearGradient1053)" />
  <path
     d="M24 7a2 2 0 0 0-1.785 1.098 17 17 0 0 0-8.895 3.693 2 2 0 0 0-.605-.105 2 2 0 0 0-1.444.586 2 2 0 0 0-.484 2.043 17 17 0 0 0-3.673 8.895A2 2 0 0 0 6 25a2 2 0 0 0 1.098 1.786 17 17 0 0 0 3.693 8.894 2 2 0 0 0 .48 2.05 2 2 0 0 0 2.044.483 17 17 0 0 0 8.894 3.672A2 2 0 0 0 24 43a2 2 0 0 0 1.785-1.097 17 17 0 0 0 8.895-3.694 2 2 0 0 0 2.049-.48 2 2 0 0 0 .484-2.043 17 17 0 0 0 3.672-8.895 2 2 0 0 0 1.115-1.79 2 2 0 0 0-1.098-1.786 17 17 0 0 0-3.693-8.895 2 2 0 0 0-.48-2.049 2 2 0 0 0-1.444-.585 2 2 0 0 0-.6.101 17 17 0 0 0-8.894-3.672A2 2 0 0 0 23.999 7zm0 1a1 1 0 0 1 1 1 1 1 0 0 1-1 1 1 1 0 0 1-1-1 1 1 0 0 1 1-1m1.67 2.1a15 15 0 0 1 7.685 3.193A2 2 0 0 0 33.9 15.1a2 2 0 0 0 1.82.543 15 15 0 0 1 3.169 7.695 2 2 0 0 0-.89 1.662 2 2 0 0 0 .901 1.67 15 15 0 0 1-3.191 7.683 2 2 0 0 0-.366-.039 2 2 0 0 0-1.443.586 2 2 0 0 0-.543 1.82 15 15 0 0 1-7.695 3.169 2 2 0 0 0-1.662-.89 2 2 0 0 0-1.67.9 15 15 0 0 1-7.685-3.192A2 2 0 0 0 14.1 34.9a2 2 0 0 0-1.444-.586 2 2 0 0 0-.38.04 15 15 0 0 1-3.165-7.692A2 2 0 0 0 10 25a2 2 0 0 0-.9-1.67 15 15 0 0 1 3.193-7.685A2 2 0 0 0 14.1 15.1a2 2 0 0 0 .543-1.821 15 15 0 0 1 7.695-3.168A2 2 0 0 0 24 11a2 2 0 0 0 1.67-.9zM24 12a2 2 0 0 0-1.81 1.152A12 12 0 0 0 12 25a12 12 0 0 0 10.193 11.855A2 2 0 0 0 24 38a2 2 0 0 0 1.809-1.152A12 12 0 0 0 35.999 25a12 12 0 0 0-10.192-11.855A2 2 0 0 0 24 12m-11.3.685a1 1 0 0 1 .692.293 1 1 0 0 1 0 1.414 1 1 0 0 1-1.414 0 1 1 0 0 1 0-1.414 1 1 0 0 1 .723-.293m22.599 0a1 1 0 0 1 .723.293 1 1 0 0 1 0 1.414 1 1 0 0 1-1.415 0 1 1 0 0 1 0-1.414 1 1 0 0 1 .692-.293m-11.3.314a1 1 0 0 1 1 1 1 1 0 0 1-1 1 1 1 0 0 1-1-1 1 1 0 0 1 1-1m-1.644 2.139a2 2 0 0 0 1.644.86 2 2 0 0 0 1.637-.853A10 10 0 0 1 34 24.999a10 10 0 0 1-8.355 9.86A2 2 0 0 0 24 34a2 2 0 0 0-1.637.854A10 10 0 0 1 14 24.999a10 10 0 0 1 8.355-9.861zM24 19.998a5 5 0 0 0-5 5 5 5 0 0 0 5 5 5 5 0 0 0 5-5 5 5 0 0 0-5-5m-16 4a1 1 0 0 1 1 1 1 1 0 0 1-1 1 1 1 0 0 1-1-1 1 1 0 0 1 1-1m32 0a1 1 0 0 1 1 1 1 1 0 0 1-1 1 1 1 0 0 1-1-1 1 1 0 0 1 1-1m-16 11a1 1 0 0 1 1 1 1 1 0 0 1-1 1 1 1 0 0 1-1-1 1 1 0 0 1 1-1m-11.328.315a1 1 0 0 1 .721.293 1 1 0 0 1 0 1.414 1 1 0 0 1-1.414 0 1 1 0 0 1 0-1.414 1 1 0 0 1 .693-.293m22.656 0a1 1 0 0 1 .694.293 1 1 0 0 1 0 1.414 1 1 0 0 1-1.414 0 1 1 0 0 1 0-1.414 1 1 0 0 1 .72-.293M24 40a1 1 0 0 1 1 1 1 1 0 0 1-1 1 1 1 0 0 1-1-1 1 1 0 0 1 1-1"
     opacity=".2"
     style="filter:url(#b)"
     transform="matrix(1.16664 0 0 1.16664 4.001 4)"
     id="path2" />
  <path
     fill="#fff"
     d="M32 11a2.33 2.33 0 0 0-2.082 1.281 19.83 19.83 0 0 0-10.377 4.309 2.3 2.3 0 0 0-.706-.123 2.33 2.33 0 0 0-1.685.683 2.33 2.33 0 0 0-.564 2.383 19.83 19.83 0 0 0-4.284 10.378 2.33 2.33 0 0 0-1.3 2.089 2.33 2.33 0 0 0 1.28 2.082A19.83 19.83 0 0 0 16.59 44.46a2.33 2.33 0 0 0 .56 2.39 2.33 2.33 0 0 0 2.384.565 19.83 19.83 0 0 0 10.377 4.284 2.33 2.33 0 0 0 2.09 1.3 2.33 2.33 0 0 0 2.082-1.28A19.83 19.83 0 0 0 44.46 47.41a2.33 2.33 0 0 0 2.39-.56 2.33 2.33 0 0 0 .565-2.383A19.83 19.83 0 0 0 51.7 34.089 2.33 2.33 0 0 0 53 32a2.33 2.33 0 0 0-1.281-2.082 19.83 19.83 0 0 0-4.308-10.378 2.33 2.33 0 0 0-.56-2.39 2.33 2.33 0 0 0-1.685-.683 2.3 2.3 0 0 0-.699.118 19.83 19.83 0 0 0-10.377-4.283A2.33 2.33 0 0 0 32 11m0 1.167a1.167 1.167 0 0 1 1.167 1.167 1.167 1.167 0 0 1-1.166 1.166 1.167 1.167 0 0 1-1.167-1.166A1.167 1.167 0 0 1 32 12.167m1.949 2.45a17.5 17.5 0 0 1 8.965 3.725 2.33 2.33 0 0 0 .636 2.108 2.33 2.33 0 0 0 2.125.634 17.5 17.5 0 0 1 3.696 8.977A2.33 2.33 0 0 0 48.333 32a2.33 2.33 0 0 0 1.05 1.948 17.5 17.5 0 0 1-3.722 8.965 2.3 2.3 0 0 0-.426-.047 2.33 2.33 0 0 0-1.685.684 2.33 2.33 0 0 0-.633 2.124 17.5 17.5 0 0 1-8.977 3.696A2.33 2.33 0 0 0 32 48.333a2.33 2.33 0 0 0-1.948 1.05 17.5 17.5 0 0 1-8.965-3.725 2.33 2.33 0 0 0-.636-2.108 2.33 2.33 0 0 0-1.685-.684 2.3 2.3 0 0 0-.442.048 17.5 17.5 0 0 1-3.693-8.975A2.33 2.33 0 0 0 15.668 32a2.33 2.33 0 0 0-1.05-1.948 17.5 17.5 0 0 1 3.725-8.966 2.33 2.33 0 0 0 2.108-.636 2.33 2.33 0 0 0 .633-2.124 17.5 17.5 0 0 1 8.978-3.696A2.33 2.33 0 0 0 32 15.667a2.33 2.33 0 0 0 1.948-1.05M32 16.834a2.33 2.33 0 0 0-2.11 1.344A14 14 0 0 0 18 32a14 14 0 0 0 11.891 13.83 2.33 2.33 0 0 0 2.109 1.336 2.33 2.33 0 0 0 2.11-1.344A14 14 0 0 0 46.001 32a14 14 0 0 0-11.892-13.83A2.33 2.33 0 0 0 32 16.834m-13.182.8a1.17 1.17 0 0 1 .807.342 1.167 1.167 0 0 1 0 1.65 1.167 1.167 0 0 1-1.65 0 1.167 1.167 0 0 1 0-1.65 1.17 1.17 0 0 1 .843-.342m26.363 0a1.17 1.17 0 0 1 .843.342 1.167 1.167 0 0 1 0 1.65 1.167 1.167 0 0 1-1.65 0 1.167 1.167 0 0 1 0-1.65 1.17 1.17 0 0 1 .807-.342M32.001 18a1.167 1.167 0 0 1 1.166 1.167 1.167 1.167 0 0 1-1.166 1.167 1.167 1.167 0 0 1-1.167-1.167A1.167 1.167 0 0 1 32 18m-1.92 2.496a2.33 2.33 0 0 0 1.92 1.004 2.33 2.33 0 0 0 1.91-.996A11.666 11.666 0 0 1 43.666 32a11.666 11.666 0 0 1-9.747 11.504A2.33 2.33 0 0 0 32 42.5a2.33 2.33 0 0 0-1.91.996A11.666 11.666 0 0 1 20.335 32a11.666 11.666 0 0 1 9.747-11.504m1.92 5.67A5.833 5.833 0 0 0 26.167 32a5.833 5.833 0 0 0 5.834 5.833A5.833 5.833 0 0 0 37.834 32 5.833 5.833 0 0 0 32 26.167m-18.667 4.667A1.167 1.167 0 0 1 14.501 32a1.167 1.167 0 0 1-1.167 1.167A1.167 1.167 0 0 1 12.168 32a1.167 1.167 0 0 1 1.166-1.167m37.333 0A1.167 1.167 0 0 1 51.833 32a1.167 1.167 0 0 1-1.166 1.167A1.167 1.167 0 0 1 49.5 32a1.167 1.167 0 0 1 1.167-1.167M32 43.666a1.167 1.167 0 0 1 1.166 1.167A1.167 1.167 0 0 1 32.001 46a1.167 1.167 0 0 1-1.167-1.167A1.167 1.167 0 0 1 32 43.666m-13.216.367a1.17 1.17 0 0 1 .841.342 1.167 1.167 0 0 1 0 1.65 1.167 1.167 0 0 1-1.65 0 1.167 1.167 0 0 1 0-1.65 1.17 1.17 0 0 1 .809-.342m26.431 0a1.17 1.17 0 0 1 .809.342 1.167 1.167 0 0 1 0 1.65 1.167 1.167 0 0 1-1.65 0 1.167 1.167 0 0 1 0-1.65 1.17 1.17 0 0 1 .841-.342M32.001 49.5a1.167 1.167 0 0 1 1.166 1.166 1.167 1.167 0 0 1-1.166 1.167 1.167 1.167 0 0 1-1.167-1.167A1.167 1.167 0 0 1 32 49.5"
     id="path3" />
</svg>
