<?xml version="1.0" encoding="UTF-8" standalone="no"?>
<svg
   width="64"
   height="64"
   version="1.1"
   id="svg5"
   sodipodi:docname="distributor-logo-kaos.svg"
   xml:space="preserve"
   inkscape:version="1.4.2 (ebf0e940d0, 2025-05-08)"
   xmlns:inkscape="http://www.inkscape.org/namespaces/inkscape"
   xmlns:sodipodi="http://sodipodi.sourceforge.net/DTD/sodipodi-0.dtd"
   xmlns="http://www.w3.org/2000/svg"
   xmlns:svg="http://www.w3.org/2000/svg"><sodipodi:namedview
     id="namedview5"
     pagecolor="#505050"
     bordercolor="#eeeeee"
     borderopacity="1"
     inkscape:showpageshadow="0"
     inkscape:pageopacity="0"
     inkscape:pagecheckerboard="0"
     inkscape:deskcolor="#505050"
     inkscape:zoom="4.2315921"
     inkscape:cx="70.895301"
     inkscape:cy="14.651696"
     inkscape:window-width="1920"
     inkscape:window-height="1003"
     inkscape:window-x="0"
     inkscape:window-y="0"
     inkscape:window-maximized="1"
     inkscape:current-layer="svg5" /><defs
     id="defs2"><linearGradient
       id="a"
       x1="7.937"
       x2="7.937"
       y1="15.081"
       y2="1.852"
       gradientTransform="scale(3.7796)"
       gradientUnits="userSpaceOnUse"><stop
         offset="0"
         stop-color="#0e71de"
         id="stop1" /><stop
         offset="1"
         stop-color="#25c9ff"
         id="stop2" /></linearGradient><filter
       id="b"
       width="1.2684935"
       height="1.3249816"
       x="-0.13424675"
       y="-0.16249078"
       style="color-interpolation-filters:sRGB"><feGaussianBlur
         stdDeviation="2.573"
         id="feGaussianBlur2" /></filter><filter
       id="filter1057-3"
       x="-0.026999999"
       y="-0.026999999"
       width="1.054"
       height="1.054"
       color-interpolation-filters="sRGB"><feGaussianBlur
         stdDeviation="0.61875"
         id="feGaussianBlur1" /></filter><linearGradient
       id="linearGradient1053-6"
       x1="-127"
       x2="-72"
       y1="60"
       y2="5"
       gradientTransform="matrix(1.0000071,0,0,1.0000071,131.50181,-0.51062308)"
       gradientUnits="userSpaceOnUse"><stop
         stop-color="#32507d"
         offset="0"
         id="stop1-3"
         style="stop-color:#124364;stop-opacity:1" /><stop
         stop-color="#2878b9"
         stop-opacity=".99608"
         offset="1"
         id="stop2-6"
         style="stop-color:#1d6fa5;stop-opacity:1" /></linearGradient><filter
       id="filter1461"
       x="-1.1209366"
       y="-1.1841229"
       width="3.2418732"
       height="3.3682458"
       color-interpolation-filters="sRGB"><feGaussianBlur
         stdDeviation="0.39452985"
         id="feGaussianBlur2-7" /></filter><filter
       id="filter3"
       x="-1.1209366"
       y="-1.1841229"
       width="3.2418733"
       height="3.3682458"
       color-interpolation-filters="sRGB"><feGaussianBlur
         stdDeviation="0.39452985"
         id="feGaussianBlur3" /></filter><filter
       id="filter4"
       x="-1.1209366"
       y="-1.1841229"
       width="3.2418733"
       height="3.3682458"
       color-interpolation-filters="sRGB"><feGaussianBlur
         stdDeviation="0.39452985"
         id="feGaussianBlur4" /></filter><filter
       id="filter5"
       x="-1.1209366"
       y="-1.1841229"
       width="3.2418733"
       height="3.3682458"
       color-interpolation-filters="sRGB"><feGaussianBlur
         stdDeviation="0.39452985"
         id="feGaussianBlur5" /></filter><filter
       id="filter6"
       x="-1.1209366"
       y="-1.1841229"
       width="3.2418733"
       height="3.3682458"
       color-interpolation-filters="sRGB"><feGaussianBlur
         stdDeviation="0.39452985"
         id="feGaussianBlur6" /></filter><filter
       id="filter7"
       x="-1.1209366"
       y="-1.1841229"
       width="3.2418733"
       height="3.3682458"
       color-interpolation-filters="sRGB"><feGaussianBlur
         stdDeviation="0.39452985"
         id="feGaussianBlur7" /></filter><filter
       id="filter8"
       x="-1.1209366"
       y="-1.1841229"
       width="3.2418733"
       height="3.3682458"
       color-interpolation-filters="sRGB"><feGaussianBlur
         stdDeviation="0.39452985"
         id="feGaussianBlur8" /></filter><filter
       id="filter9"
       x="-1.1209366"
       y="-1.1841229"
       width="3.2418733"
       height="3.3682458"
       color-interpolation-filters="sRGB"><feGaussianBlur
         stdDeviation="0.39452985"
         id="feGaussianBlur9" /></filter><linearGradient
       id="linearGradient910"
       x1="4.1297998"
       x2="13.323"
       y1="16.329"
       y2="4.3843002"
       gradientTransform="matrix(3.779602,0,0,3.779602,141.71556,54.855494)"
       gradientUnits="userSpaceOnUse"><stop
         stop-color="#2878b4"
         offset="0"
         id="stop3" /><stop
         stop-color="#14a5ff"
         offset="1"
         id="stop4" /></linearGradient><linearGradient
       id="linearGradient914"
       x1="27.040001"
       x2="24.839001"
       y1="16.621"
       y2="17.990999"
       gradientTransform="matrix(0.3447,0,0,0.3447,1.1784,3.4728)"
       gradientUnits="userSpaceOnUse"><stop
         stop-color="#fcfcfc"
         offset="0"
         id="stop5" /><stop
         stop-color="#c7c7c7"
         offset="1"
         id="stop6" /></linearGradient><linearGradient
       id="linearGradient916"
       x1="3.783"
       x2="19.573999"
       y1="23.643999"
       y2="22.495001"
       gradientTransform="matrix(0.3447,0,0,0.3447,1.1784,3.4728)"
       gradientUnits="userSpaceOnUse"><stop
         stop-color="#2980b9"
         offset="0"
         id="stop7" /><stop
         stop-color="#34495e"
         offset="1"
         id="stop8" /></linearGradient></defs><rect
     transform="matrix(1.0000071,0,0,1.0000071,-2.2781468e-4,-2.2781468e-4)"
     x="4.5"
     y="4.5"
     width="55"
     height="55"
     ry="15"
     fill="#141414"
     filter="url(#filter1057-3)"
     opacity="0.3"
     stroke-linecap="round"
     stroke-width="2.7444"
     id="rect8" /><rect
     x="4.4996166"
     y="4.4996166"
     width="55.000767"
     height="55.000767"
     ry="15.000106"
     fill="url(#linearGradient1053-6)"
     stroke-linecap="round"
     stroke-width="2.74441"
     id="rect9"
     style="fill:url(#linearGradient1053-6)" /><path
     d="M42.239 14c-.68.016-1.39.093-2.117.238-10.408 2.08-17.057 17.76-19.813 26.563 7.418-12.372 13.513-14.674 24.918-21.258 4.894-2.825 1.767-5.658-2.988-5.543m-23.797 2c-1.657-.002-4.014 1.927-5.437 4.898-4.526 9.45 4.022 23.814 9.402 31.102-5.455-13.052-3.666-19.216-2.137-32.07.328-2.758-.539-3.928-1.828-3.93m14.395 18.113c-2.053-.087-4.032.198-5.864.973-5.46 2.311-7.78 7.905-1.394 7.512 13.023-.802 19.329-2.286 32.148 4.203-5.707-4.92-15.994-12.308-24.89-12.688"
     style="opacity:.2;filter:url(#b)"
     id="path2" /><path
     d="M57.727 45.8c-7.024-6.054-20.983-15.846-30.753-11.712-5.46 2.31-7.78 7.902-1.395 7.509 13.023-.802 19.329-2.285 32.148 4.203"
     style="fill:#3eb9ff"
     id="path3" /><path
     d="M20.308 39.8c2.755-8.802 9.405-24.482 19.813-26.562 5.816-1.162 10.7 2.076 5.108 5.304C33.823 25.126 27.726 27.43 20.308 39.8"
     style="fill:#007ae0"
     id="path4" /><path
     d="M22.407 51c-5.38-7.288-13.929-21.651-9.403-31.101 2.53-5.282 8.014-7.272 7.264-.97C18.74 31.783 16.951 37.948 22.407 51"
     style="fill:#0055b2"
     id="path5" /></svg>
