<?xml version="1.0" encoding="UTF-8" standalone="no"?>
<svg
   width="64"
   height="64"
   version="1"
   id="svg8"
   sodipodi:docname="distributor-logo-puppy-linux.svg"
   inkscape:version="1.4.2 (ebf0e940d0, 2025-05-08)"
   xmlns:inkscape="http://www.inkscape.org/namespaces/inkscape"
   xmlns:sodipodi="http://sodipodi.sourceforge.net/DTD/sodipodi-0.dtd"
   xmlns:xlink="http://www.w3.org/1999/xlink"
   xmlns="http://www.w3.org/2000/svg"
   xmlns:svg="http://www.w3.org/2000/svg">
  <sodipodi:namedview
     id="namedview8"
     pagecolor="#505050"
     bordercolor="#eeeeee"
     borderopacity="1"
     inkscape:showpageshadow="0"
     inkscape:pageopacity="0"
     inkscape:pagecheckerboard="0"
     inkscape:deskcolor="#505050"
     inkscape:zoom="5.984375"
     inkscape:cx="39.603133"
     inkscape:cy="26.736292"
     inkscape:window-width="1920"
     inkscape:window-height="1003"
     inkscape:window-x="0"
     inkscape:window-y="0"
     inkscape:window-maximized="1"
     inkscape:current-layer="svg8" />
  <defs
     id="defs4">
    <filter
       id="c"
       width="1.3578975"
       height="1.5488"
       x="-0.17894874"
       y="-0.2744"
       style="color-interpolation-filters:sRGB">
      <feGaussianBlur
         stdDeviation="3.43"
         id="feGaussianBlur1" />
    </filter>
    <filter
       id="b"
       width="1.294"
       height="1.294"
       x="-0.147"
       y="-0.147"
       style="color-interpolation-filters:sRGB">
      <feGaussianBlur
         stdDeviation="3.43"
         id="feGaussianBlur2" />
    </filter>
    <filter
       id="d"
       width="1.1910757"
       height="1.6370036"
       x="-0.095537857"
       y="-0.31850182"
       style="color-interpolation-filters:sRGB">
      <feGaussianBlur
         stdDeviation="2.07"
         id="feGaussianBlur3" />
    </filter>
    <linearGradient
       id="a"
       x1="7.937"
       x2="7.937"
       y1="15.081"
       y2="1.852"
       gradientTransform="scale(3.7796)"
       gradientUnits="userSpaceOnUse">
      <stop
         offset="0"
         stop-color="#0e71de"
         id="stop3" />
      <stop
         offset="1"
         stop-color="#25c9ff"
         id="stop4" />
    </linearGradient>
    <filter
       inkscape:collect="always"
       style="color-interpolation-filters:sRGB"
       id="filter1057"
       x="-0.026999999"
       width="1.054"
       y="-0.026999999"
       height="1.054">
      <feGaussianBlur
         inkscape:collect="always"
         stdDeviation="0.61875"
         id="feGaussianBlur1059" />
    </filter>
    <radialGradient
       inkscape:collect="always"
       xlink:href="#linearGradient37376"
       id="radialGradient37378"
       cx="8.4665003"
       cy="8.4665003"
       fx="8.4665003"
       fy="8.4665003"
       r="7.276"
       gradientUnits="userSpaceOnUse"
       gradientTransform="translate(12.832135,-4.0151978)" />
    <linearGradient
       inkscape:collect="always"
       id="linearGradient37376">
      <stop
         style="stop-color:#5e6a76;stop-opacity:1;"
         offset="0"
         id="stop37372" />
      <stop
         style="stop-color:#1d2123;stop-opacity:1;"
         offset="1"
         id="stop37374" />
    </linearGradient>
  </defs>
  <g
     id="g536"
     transform="matrix(3.779602,0,0,3.779602,-48.500363,15.17585)">
    <rect
       ry="15"
       y="4.4999995"
       x="4.4999995"
       height="55"
       width="55"
       id="rect1055"
       style="opacity:0.3;fill:#141414;fill-opacity:1;stroke-width:2.74436;stroke-linecap:round;filter:url(#filter1057)"
       transform="matrix(0.26457812,0,0,0.26457812,12.832135,-4.0151978)" />
    <rect
       x="14.022635"
       y="-2.8246975"
       width="14.552"
       height="14.552"
       ry="3.9686999"
       stroke-linecap="round"
       stroke-width="0.72611"
       id="rect36685"
       style="fill:url(#radialGradient37378);fill-opacity:1" />
  </g>
  <g
     transform="matrix(.75 0 0 .75 8 7.625)"
     id="g8">
    <circle
       cx="32"
       cy="33"
       r="28"
       style="opacity:.2;filter:url(#b)"
       id="circle4" />
    <circle
       cx="32"
       cy="32"
       r="28"
       style="fill:#ccc"
       id="circle5" />
    <path
       d="M49 21a5 5 0 1 0 .002 10.002A5 5 0 0 0 49 21m-31 2c-5.522 0-10 4.478-10 10s4.478 10 10 10 10-4.478 10-10-4.478-10-10-10m2 6c2.208 0 4 1.792 4 4s-1.792 4-4 4-4-1.792-4-4 1.792-4 4-4m24.934 4c-.125 0-.241.024-.352.063l-14.105 4-.079.023h-.004l-.007.004h-.004c-.407.14-.7.517-.7.96 0 .423.265.787.641.942h.008l8.68 4.766v.035c0 1.465-.668 2.795-1.75 3.762-1.104.985-2.635 1.594-4.332 1.594a6.7 6.7 0 0 1-2.993-.684 5.8 5.8 0 0 1-2.199-1.879.96.96 0 0 0-.789-.406.935.935 0 0 0-.95.922c0 .205.072.393.188.547a7.7 7.7 0 0 0 2.89 2.453A8.7 8.7 0 0 0 32.93 51c2.186 0 4.17-.797 5.613-2.086 1.048-.936 1.812-2.13 2.16-3.469 1.416 1.141 3.28 1.828 5.313 1.828 2.186 0 4.174-.793 5.617-2.082C53.096 43.885 54 42.074 54 40.071a6 6 0 0 0-.008-.301v-.016a.94.94 0 0 0-.949-.926.94.94 0 0 0-.95.926v.023l.005.043q.004.101.004.25c0 1.466-.672 2.795-1.754 3.762-1.103.985-2.635 1.594-4.332 1.594-1.63 0-3.108-.563-4.203-1.485a6 6 0 0 1-.625-.613l4.652-8.797a1 1 0 0 0 .145-.511c0-.564-.472-1.02-1.051-1.02"
       style="opacity:.1;fill-rule:evenodd;filter:url(#c)"
       id="path5" />
    <path
       d="M16.96 7a16 16 0 0 0-4.405.61c-2.55.721-4.213 1.819-4.5 2.191a.7.7 0 0 1-.157.145c-.87.587-1.322 2.505-1.527 4.808-.249 2.792-.509 5.13-.289 7.465q.001.011.004.024c.007.106.02.24.027.355 1.149-1.275 2.568-1.943 3.719-2.86 3.84-3.055 6.778-2.362 9.902-1.378 2.005.631 3.756 1.185 5.004.289.712-.512 1.066-1.275 1.137-2.168.068-.852-.106-1.422-.469-2.418-.372-1.022-.942-2.068-1.644-3.05-1.7-2.381-3.353-3.781-5.653-3.966q-.584-.045-1.148-.047m30.728 0q-.288.001-.57.004c-1.406.01-2.72.067-3.821.16h-.012c-.163.023-.338.052-.508.075 5.353 1.88 6.136 6.314 8.324 10.054 1.416 2.296 1.46 3.952 3.215 3.68.796-.123 1.448-.515 1.97-1.078.765-.829 1.257-2.034 1.51-3.352.261-1.354.263-2.814.044-4.117-.24-1.424-.73-2.632-1.426-3.242-1.317-.891-3.147-1.806-6.406-2.035-1.372-.097-.979-.145-2.32-.149"
       style="opacity:.2;fill-rule:evenodd;filter:url(#d)"
       id="path6" />
    <path
       d="M47.687 6q-.288 0-.57.003a50 50 0 0 0-3.82.16l-.01.002c-.164.022-.339.051-.508.074 5.353 1.88 6.135 6.313 8.324 10.053 1.415 2.295 1.456 3.95 3.212 3.679.795-.123 1.45-.512 1.97-1.075.766-.83 1.259-2.036 1.512-3.354.261-1.355.263-2.815.044-4.118-.24-1.424-.732-2.63-1.427-3.241-1.318-.891-3.145-1.806-6.405-2.036-1.372-.097-.98-.144-2.322-.147M16.961 6a16 16 0 0 0-4.405.608c-2.55.721-4.214 1.82-4.502 2.193a.7.7 0 0 1-.155.143c-.87.588-1.322 2.506-1.527 4.81-.249 2.79-.509 5.128-.29 7.464l.003.024c.007.106.02.243.029.357 1.148-1.275 2.567-1.946 3.719-2.862 3.84-3.055 6.78-2.36 9.903-1.376 2.005.632 3.755 1.183 5.003.287.712-.512 1.065-1.273 1.137-2.167.068-.851-.108-1.422-.47-2.418-.372-1.022-.941-2.068-1.643-3.051-1.7-2.38-3.352-3.78-5.652-3.965A15 15 0 0 0 16.961 6"
       style="fill:#e4e4e4;fill-rule:evenodd"
       id="path7" />
    <path
       d="M49 20a5 5 0 1 0 .002 10.002A5 5 0 0 0 49 20M18 22c-5.522 0-10 4.478-10 10s4.478 10 10 10 10-4.478 10-10-4.478-10-10-10m2 6c2.208 0 4 1.792 4 4s-1.792 4-4 4-4-1.792-4-4 1.792-4 4-4M44.934 32q-.187.002-.354.062l-14.102 4-.08.023-.005.002-.008.002-.002.001c-.406.14-.698.517-.698.96 0 .423.263.785.639.94l.008.002 8.68 4.764v.037c0 1.465-.67 2.796-1.752 3.763-1.103.985-2.635 1.594-4.332 1.594a6.7 6.7 0 0 1-2.99-.687 5.8 5.8 0 0 1-2.177-1.842q-.011-.018-.024-.035a.96.96 0 0 0-.787-.408.937.937 0 0 0-.95.924.9.9 0 0 0 .186.547 7.7 7.7 0 0 0 2.891 2.452 8.7 8.7 0 0 0 3.851.899c2.187 0 4.174-.798 5.616-2.087 1.049-.936 1.81-2.13 2.157-3.468 1.416 1.14 3.283 1.83 5.316 1.83 2.187 0 4.173-.796 5.616-2.084C53.096 42.884 54 41.074 54 39.07c0-.085-.002-.189-.008-.301v-.017a.937.937 0 0 0-.95-.924.937.937 0 0 0-.95.924v.025q.001.021.004.042.004.101.004.25c0 1.466-.669 2.797-1.751 3.763-1.103.986-2.635 1.594-4.332 1.594-1.63 0-3.11-.562-4.205-1.484a6 6 0 0 1-.626-.614l4.655-8.797a1 1 0 0 0 .142-.512c0-.563-.47-1.02-1.049-1.02"
       style="fill:#3f3f3f;fill-rule:evenodd"
       id="path8" />
  </g>
</svg>
