<?xml version="1.0" encoding="UTF-8" standalone="no"?>
<svg
   width="64"
   height="64"
   version="1"
   id="svg6"
   sodipodi:docname="distributor-logo-linux-lite.svg"
   inkscape:version="1.4.2 (ebf0e940d0, 2025-05-08)"
   xmlns:inkscape="http://www.inkscape.org/namespaces/inkscape"
   xmlns:sodipodi="http://sodipodi.sourceforge.net/DTD/sodipodi-0.dtd"
   xmlns="http://www.w3.org/2000/svg"
   xmlns:svg="http://www.w3.org/2000/svg">
  <sodipodi:namedview
     id="namedview6"
     pagecolor="#505050"
     bordercolor="#eeeeee"
     borderopacity="1"
     inkscape:showpageshadow="0"
     inkscape:pageopacity="0"
     inkscape:pagecheckerboard="0"
     inkscape:deskcolor="#505050"
     inkscape:zoom="4.2315921"
     inkscape:cx="74.440066"
     inkscape:cy="-8.0348008"
     inkscape:window-width="1920"
     inkscape:window-height="1003"
     inkscape:window-x="0"
     inkscape:window-y="0"
     inkscape:window-maximized="1"
     inkscape:current-layer="svg6" />
  <defs
     id="defs3">
    <filter
       id="c"
       width="1.7910932"
       height="1.2388861"
       x="-0.3955466"
       y="-0.11944306"
       style="color-interpolation-filters:sRGB">
      <feGaussianBlur
         stdDeviation="2.091"
         id="feGaussianBlur1" />
    </filter>
    <filter
       id="b"
       width="1.4948625"
       height="1.2258252"
       x="-0.24743123"
       y="-0.11291259"
       style="color-interpolation-filters:sRGB">
      <feGaussianBlur
         stdDeviation="2.091"
         id="feGaussianBlur2" />
    </filter>
    <linearGradient
       id="a"
       x1="7.937"
       x2="7.937"
       y1="15.081"
       y2="1.852"
       gradientTransform="scale(3.7796)"
       gradientUnits="userSpaceOnUse">
      <stop
         offset="0"
         stop-color="#0e71de"
         id="stop2" />
      <stop
         offset="1"
         stop-color="#25c9ff"
         id="stop3" />
    </linearGradient>
    <filter
       id="filter1057"
       x="-0.026999999"
       y="-0.026999999"
       width="1.054"
       height="1.054"
       color-interpolation-filters="sRGB">
      <feGaussianBlur
         stdDeviation="0.61875"
         id="feGaussianBlur880" />
    </filter>
    <linearGradient
       id="linearGradient1053"
       x1="-127"
       x2="-72"
       y1="60"
       y2="5"
       gradientTransform="translate(203.93,-0.054156)"
       gradientUnits="userSpaceOnUse">
      <stop
         stop-color="#1d2123"
         offset="0"
         id="stop883" />
      <stop
         stop-color="#33393e"
         stop-opacity=".99608"
         offset="1"
         id="stop885" />
    </linearGradient>
  </defs>
  <g
     transform="translate(-72.440002)"
     id="g896">
    <rect
       x="76.934998"
       y="4.9558001"
       width="55"
       height="55"
       ry="15"
       fill="#141414"
       filter="url(#filter1057)"
       opacity="0.3"
       stroke-linecap="round"
       stroke-width="2.7444"
       id="rect890" />
    <rect
       x="76.934998"
       y="4.9558001"
       width="55"
       height="55"
       ry="15"
       fill="url(#linearGradient1053)"
       stroke-linecap="round"
       stroke-width="2.7444"
       id="rect892"
       style="fill:url(#linearGradient1053)" />
    <circle
       cx="104.44"
       cy="32"
       r="30.000999"
       fill-opacity="0"
       stroke-width="1.5715"
       id="circle894" />
  </g>
  <path
     d="M36.88 9c-3.476 2.102-7.047 4.058-10.447 6.28a1378 1378 0 0 0-3.624 17.903c1.311 1.665 2.75 3.225 4.107 4.851-1.326-.423-2.992-1.377-4.456-1.968a536 536 0 0 0 3.614 12.725c1.68-.145 3.349-.413 5.029-.563-1.206 1.242-2.509 2.388-3.722 3.623 2.121-.882 4.207-1.846 6.32-2.746.407.665-.797 3.048-.96 4.34.927-1.5 1.81-3.028 2.69-4.557l.811-.381s-.237-.238 0 0c1.843.29 3.681.641 5.523.92-1.657-.814-3.342-1.57-4.999-2.384 1.657-.687 3.423-1.208 5.115-1.848-1.664-.016-3.329.03-4.994.011.27-.594 2.279-1.641 3.15-2.453-1.217-1.412-2.586-2.684-3.811-4.089 2.118-6.936 4.34-13.84 6.516-20.759-1.951-2.97-3.857-5.971-5.861-8.905"
     style="opacity:.2;filter:url(#b)"
     id="path3" />
  <path
     d="M36.88 8c-3.476 2.102-7.047 4.058-10.447 6.28a1378 1378 0 0 0-3.624 17.903c1.311 1.665 2.75 3.225 4.107 4.851-1.326-.423-2.992-1.377-4.456-1.968a536 536 0 0 0 3.614 12.725c1.68-.145 3.349-.413 5.029-.563-1.206 1.242-2.509 2.388-3.722 3.623 2.121-.882 4.207-1.846 6.32-2.746.407.665-.797 3.048-.96 4.34.927-1.5 1.81-3.028 2.69-4.557l.811-.381s-.237-.238 0 0c1.843.29 3.681.641 5.523.92-1.657-.814-3.342-1.57-4.999-2.384 1.657-.687 3.423-1.208 5.115-1.848-1.664-.016-3.329.03-4.994.011.27-.594 2.279-1.641 3.15-2.453-1.217-1.412-2.586-2.684-3.811-4.089 2.118-6.936 4.34-13.84 6.516-20.759-1.951-2.97-3.857-5.971-5.861-8.905"
     style="fill:#ffc107"
     id="path4" />
  <path
     d="M35.192 14.985c-2.929 7.874-4.779 17.39-5.228 26.187-.106 1.226-.077.978.723 1.94 3.97 4.778 7.93 9.832 11.92 13.888v-.28c-3.816-5.231-7.63-9.642-11.446-14.293-.334-.4-.425-.407-.397-.892.507-8.817 2.49-18.58 4.428-26.55"
     style="opacity:.2;filter:url(#c)"
     id="path5" />
  <path
     d="M35.192 13.985c-2.929 7.874-4.779 17.39-5.228 26.187-.106 1.226-.077.978.723 1.94 3.97 4.778 7.93 9.832 11.92 13.888v-.28c-3.816-5.231-7.63-9.642-11.446-14.293-.334-.4-.425-.407-.397-.892.507-8.817 2.49-18.58 4.428-26.55"
     style="fill:#fff"
     id="path6" />
</svg>
