<?xml version="1.0" encoding="UTF-8" standalone="no"?>
<svg
   width="64"
   height="64"
   version="1.1"
   id="svg3"
   sodipodi:docname="distributor-logo-alpine.svg"
   inkscape:version="1.4.2 (ebf0e940d0, 2025-05-08)"
   xmlns:inkscape="http://www.inkscape.org/namespaces/inkscape"
   xmlns:sodipodi="http://sodipodi.sourceforge.net/DTD/sodipodi-0.dtd"
   xmlns="http://www.w3.org/2000/svg"
   xmlns:svg="http://www.w3.org/2000/svg">
  <sodipodi:namedview
     id="namedview3"
     pagecolor="#505050"
     bordercolor="#eeeeee"
     borderopacity="1"
     inkscape:showpageshadow="0"
     inkscape:pageopacity="0"
     inkscape:pagecheckerboard="0"
     inkscape:deskcolor="#505050"
     inkscape:zoom="5.9296875"
     inkscape:cx="45.027668"
     inkscape:cy="30.102767"
     inkscape:window-width="1920"
     inkscape:window-height="996"
     inkscape:window-x="0"
     inkscape:window-y="0"
     inkscape:window-maximized="1"
     inkscape:current-layer="svg3" />
  <defs
     id="defs2">
    <linearGradient
       id="a"
       x1="7.937"
       x2="7.937"
       y1="15.081"
       y2="1.852"
       gradientTransform="scale(3.7796)"
       gradientUnits="userSpaceOnUse">
      <stop
         offset="0"
         stop-color="#0e71de"
         id="stop1" />
      <stop
         offset="1"
         stop-color="#25c9ff"
         id="stop2" />
    </linearGradient>
    <filter
       id="b"
       width="1.20256"
       height="1.5361882"
       x="-0.10128"
       y="-0.26809412"
       style="color-interpolation-filters:sRGB">
      <feGaussianBlur
         stdDeviation="1.899"
         id="feGaussianBlur2" />
    </filter>
    <filter
       id="filter1057-3"
       x="-0.026999999"
       y="-0.026999999"
       width="1.054"
       height="1.054"
       color-interpolation-filters="sRGB">
      <feGaussianBlur
         stdDeviation="0.61875"
         id="feGaussianBlur1" />
    </filter>
    <linearGradient
       id="linearGradient1053-6"
       x1="-127"
       x2="-72"
       y1="60"
       y2="5"
       gradientTransform="matrix(1.0000071,0,0,1.0000071,131.5018,-0.51062413)"
       gradientUnits="userSpaceOnUse">
      <stop
         stop-color="#32507d"
         offset="0"
         id="stop1-3" />
      <stop
         stop-color="#2878b9"
         stop-opacity=".99608"
         offset="1"
         id="stop2-6" />
    </linearGradient>
  </defs>
  <rect
     transform="matrix(1.0000071,0,0,1.0000071,-2.2781468e-4,-2.2781468e-4)"
     x="4.5"
     y="4.5"
     width="55"
     height="55"
     ry="15"
     fill="#141414"
     filter="url(#filter1057-3)"
     opacity="0.3"
     stroke-linecap="round"
     stroke-width="2.7444"
     id="rect8" />
  <rect
     x="4.4996166"
     y="4.4996166"
     width="55.000767"
     height="55.000767"
     ry="15.000106"
     fill="url(#linearGradient1053-6)"
     stroke-linecap="round"
     stroke-width="2.74441"
     id="rect9"
     style="fill:url(#linearGradient1053-6)" />
  <path
     d="M26 23 10 40h7l9-10 8 10h7l-5-5 4-3 8 8h7L40 25l-7 6Zm-2 12-4 5h4Z"
     style="opacity:.2;filter:url(#b)"
     id="path2" />
  <path
     d="M26 22 10 39h7l9-10 8 10h7l-5-5 4-3 8 8h7L40 24l-7 6Zm-2 12-4 5h4Z"
     style="fill:#fff"
     id="path3" />
</svg>
