<?xml version="1.0" encoding="UTF-8" standalone="no"?>
<svg
   width="64"
   height="64"
   version="1.1"
   id="svg2"
   sodipodi:docname="distributor-logo-steamos.svg"
   inkscape:version="1.4.2 (ebf0e940d0, 2025-05-08)"
   xmlns:inkscape="http://www.inkscape.org/namespaces/inkscape"
   xmlns:sodipodi="http://sodipodi.sourceforge.net/DTD/sodipodi-0.dtd"
   xmlns="http://www.w3.org/2000/svg"
   xmlns:svg="http://www.w3.org/2000/svg">
  <sodipodi:namedview
     id="namedview2"
     pagecolor="#505050"
     bordercolor="#eeeeee"
     borderopacity="1"
     inkscape:showpageshadow="0"
     inkscape:pageopacity="0"
     inkscape:pagecheckerboard="0"
     inkscape:deskcolor="#505050"
     inkscape:zoom="4.2315921"
     inkscape:cx="65.459995"
     inkscape:cy="-6.3805771"
     inkscape:window-width="1920"
     inkscape:window-height="1003"
     inkscape:window-x="0"
     inkscape:window-y="0"
     inkscape:window-maximized="1"
     inkscape:current-layer="svg2" />
  <defs
     id="defs2">
    <linearGradient
       id="a"
       x1="7.937"
       x2="7.937"
       y1="15.081"
       y2="1.852"
       gradientTransform="scale(3.7796)"
       gradientUnits="userSpaceOnUse">
      <stop
         offset="0"
         stop-color="#0e71de"
         id="stop1" />
      <stop
         offset="1"
         stop-color="#25c9ff"
         id="stop2" />
    </linearGradient>
    <filter
       id="filter1057-2"
       x="-0.026999999"
       y="-0.026999999"
       width="1.054"
       height="1.054"
       color-interpolation-filters="sRGB">
      <feGaussianBlur
         stdDeviation="0.61875"
         id="feGaussianBlur1" />
    </filter>
    <linearGradient
       id="linearGradient1053"
       x1="-127"
       x2="-72"
       y1="60"
       y2="5"
       gradientTransform="translate(67.499999,-64.510001)"
       gradientUnits="userSpaceOnUse">
      <stop
         stop-color="#1d2123"
         offset="0"
         id="stop1-3" />
      <stop
         stop-color="#33393e"
         stop-opacity=".99608"
         offset="1"
         id="stop2-6" />
    </linearGradient>
    <linearGradient
       id="linearGradient1948"
       x1="404.23001"
       x2="404.23001"
       y1="537.38"
       y2="507.84"
       gradientTransform="matrix(1.2144,0,0,1.2144,-466.32,-604.341)"
       gradientUnits="userSpaceOnUse">
      <stop
         stop-color="#d8d8d8"
         offset="0"
         id="stop3" />
      <stop
         stop-color="#fff"
         offset="1"
         id="stop4" />
    </linearGradient>
  </defs>
  <rect
     x="4.5000005"
     y="4.5"
     width="55"
     height="55"
     ry="15"
     fill="#141414"
     filter="url(#filter1057-2)"
     opacity="0.3"
     stroke-linecap="round"
     stroke-width="2.7444"
     id="rect4" />
  <rect
     x="-59.5"
     y="-59.5"
     width="55"
     height="55"
     ry="15"
     fill="url(#linearGradient1053)"
     stroke-linecap="round"
     stroke-width="2.7444"
     id="rect5"
     style="fill:url(#linearGradient1053)"
     transform="scale(-1)" />
  <circle
     cx="32"
     cy="32"
     r="30.000999"
     fill-opacity="0"
     stroke-width="1.5715"
     id="circle5" />
  <path
     d="m 4.496,38.490999 11.872,4.1204 c 0.70532,3.2418 3.5947,5.6798 7.0428,5.6798 3.7349,0 6.8184,-2.8635 7.1753,-6.5071 l 9.2489,-6.767 c 5.3331,0 9.6626,-4.315 9.6626,-9.6466 0,-5.3346 -4.329,-9.6626 -9.6626,-9.6626 -5.3043,0 -9.6091,4.2792 -9.6572,9.5724 l -6.0192,8.6232 c -0.24514,-0.02453 -0.49606,-0.03753 -0.74776,-0.03753 -1.3449,0 -2.6009,0.36781 -3.6805,1.013 l -15.233,-5.3838 m 35.337,-10.605 c 3.5733,0 6.4806,2.9072 6.4806,6.4806 -1.2e-5,3.5735 -2.9073,6.4647 -6.4806,6.4647 -3.5733,0 -6.4753,-2.8912 -6.4753,-6.4647 0,-3.5734 2.902,-6.4806 6.4753,-6.4806 z m 0.02672,1.2727 c -2.8557,0 -5.1707,2.3202 -5.1707,5.176 0,2.8557 2.315,5.1759 5.1707,5.1759 2.8558,0 5.176,-2.3202 5.176,-5.1759 0,-2.8558 -2.3202,-5.176 -5.176,-5.176 z m -16.451,15.613 c 2.9397,0 5.3033,2.3636 5.3033,5.3034 -2.5e-5,2.9396 -2.3636,5.3032 -5.3033,5.3032 -2.0448,0 -3.8078,-1.1412 -4.6934,-2.8266 0.87208,0.35193 1.7435,0.70092 2.6145,1.0553 2.1614,0.86858 4.6254,-0.17684 5.4942,-2.3387 0.86879,-2.1614 -0.18753,-4.6151 -2.3494,-5.4835 l -2.2115,-0.88567 c 0.36803,-0.07954 0.75259,-0.12746 1.1455,-0.12746 z"
     fill="url(#linearGradient1948)"
     stroke-width="1.2144"
     id="path5"
     style="fill:url(#linearGradient1948)" />
</svg>
