<?xml version="1.0" encoding="UTF-8" standalone="no"?>
<svg
   width="64"
   height="64"
   version="1.1"
   id="svg2"
   sodipodi:docname="doublecmd.svg"
   inkscape:version="1.4.2 (ebf0e940d0, 2025-05-08)"
   xmlns:inkscape="http://www.inkscape.org/namespaces/inkscape"
   xmlns:sodipodi="http://sodipodi.sourceforge.net/DTD/sodipodi-0.dtd"
   xmlns:xlink="http://www.w3.org/1999/xlink"
   xmlns="http://www.w3.org/2000/svg"
   xmlns:svg="http://www.w3.org/2000/svg">
  <sodipodi:namedview
     id="namedview2"
     pagecolor="#505050"
     bordercolor="#eeeeee"
     borderopacity="1"
     inkscape:showpageshadow="0"
     inkscape:pageopacity="0"
     inkscape:pagecheckerboard="0"
     inkscape:deskcolor="#505050"
     inkscape:zoom="5.984375"
     inkscape:cx="41.274151"
     inkscape:cy="41.775457"
     inkscape:window-width="1920"
     inkscape:window-height="1003"
     inkscape:window-x="0"
     inkscape:window-y="0"
     inkscape:window-maximized="1"
     inkscape:current-layer="svg2" />
  <defs
     id="defs2">
    <linearGradient
       id="a"
       x1="7.937"
       x2="7.937"
       y1="15.081"
       y2="1.852"
       gradientTransform="matrix(3.7796,0,0,3.7796,-4.8613171,-20.483051)"
       gradientUnits="userSpaceOnUse">
      <stop
         offset="0"
         stop-color="#b81e31"
         id="stop1" />
      <stop
         offset="1"
         stop-color="#ff5c5c"
         id="stop2" />
    </linearGradient>
    <filter
       id="filter1057-3"
       x="-0.026999999"
       y="-0.026999999"
       width="1.054"
       height="1.054"
       color-interpolation-filters="sRGB">
      <feGaussianBlur
         stdDeviation="0.61875"
         id="feGaussianBlur979" />
    </filter>
    <linearGradient
       inkscape:collect="always"
       xlink:href="#linearGradient1121"
       id="linearGradient1123"
       x1="59.5"
       y1="4.5"
       x2="4.5"
       y2="59.5"
       gradientUnits="userSpaceOnUse" />
    <linearGradient
       inkscape:collect="always"
       id="linearGradient1121">
      <stop
         style="stop-color:#f83f3f;stop-opacity:1"
         offset="0"
         id="stop1117" />
      <stop
         style="stop-color:#df2a2a;stop-opacity:1"
         offset="1"
         id="stop1119" />
    </linearGradient>
  </defs>
  <rect
     x="4.4999995"
     y="4.4999995"
     width="55"
     height="55"
     ry="15"
     fill="#141414"
     filter="url(#filter1057)"
     opacity="0.3"
     stroke-linecap="round"
     stroke-width="2.7444"
     id="rect989"
     style="filter:url(#filter1057-3)" />
  <path
     id="rect1109"
     style="fill:url(#linearGradient1123);fill-opacity:1;stroke-width:0.5;stroke-linecap:round;paint-order:stroke fill markers"
     d="m 19.5,4.5 c -8.31,0 -15,6.69 -15,15 v 25 c 0,8.31 6.69,15 15,15 h 25 c 8.31,0 15,-6.69 15,-15 v -25 c 0,-8.31 -6.69,-15 -15,-15 z" />
  <path
     id="path2"
     style="paint-order:stroke fill markers;fill:#ffffff;fill-opacity:1"
     d="M 13 16 A 16 16 0 0 0 4.5332031 18.490234 C 4.511241 18.823797 4.5 19.160691 4.5 19.5 L 4.5 23.591797 A 12 12 0 0 1 13 20 A 12 12 0 0 1 25 32 A 12 12 0 0 1 13 44 A 12 12 0 0 1 4.5 40.40625 L 4.5 44.5 C 4.5 44.839309 4.511241 45.176203 4.5332031 45.509766 A 16 16 0 0 0 13 48 A 16 16 0 0 0 29 32 A 16 16 0 0 0 13 16 z M 51 16 A 16 16 0 0 0 35 32 A 16 16 0 0 0 51 48 A 16 16 0 0 0 59.466797 45.509766 C 59.488759 45.176203 59.5 44.839309 59.5 44.5 L 59.5 40.408203 A 12 12 0 0 1 51 44 A 12 12 0 0 1 39 32 A 12 12 0 0 1 51 20 A 12 12 0 0 1 59.5 23.539062 L 59.5 19.5 C 59.5 19.140239 59.487557 18.782965 59.462891 18.429688 A 16 16 0 0 0 51 16 z " />
</svg>
