<?xml version="1.0" encoding="UTF-8" standalone="no"?>
<svg
   xml:space="preserve"
   width="64"
   height="64"
   version="1.1"
   id="svg5"
   sodipodi:docname="dungeon-keeper.svg"
   inkscape:version="1.4.2 (ebf0e940d0, 2025-05-08)"
   xmlns:inkscape="http://www.inkscape.org/namespaces/inkscape"
   xmlns:sodipodi="http://sodipodi.sourceforge.net/DTD/sodipodi-0.dtd"
   xmlns:xlink="http://www.w3.org/1999/xlink"
   xmlns="http://www.w3.org/2000/svg"
   xmlns:svg="http://www.w3.org/2000/svg"><sodipodi:namedview
     id="namedview5"
     pagecolor="#505050"
     bordercolor="#eeeeee"
     borderopacity="1"
     inkscape:showpageshadow="0"
     inkscape:pageopacity="0"
     inkscape:pagecheckerboard="0"
     inkscape:deskcolor="#505050"
     inkscape:zoom="8.4631843"
     inkscape:cx="44.782199"
     inkscape:cy="12.288519"
     inkscape:window-width="1920"
     inkscape:window-height="1003"
     inkscape:window-x="0"
     inkscape:window-y="0"
     inkscape:window-maximized="1"
     inkscape:current-layer="svg5" /><defs
     id="defs4"><linearGradient
       id="a"><stop
         offset="0"
         style="stop-color:#9a0000;stop-opacity:1"
         id="stop1" /><stop
         offset="1"
         style="stop-color:#c60202;stop-opacity:1"
         id="stop2" /></linearGradient><linearGradient
       id="b"
       x1="7.937"
       x2="7.937"
       y1="15.081"
       y2="1.852"
       gradientTransform="scale(3.7796)"
       gradientUnits="userSpaceOnUse"><stop
         offset="0"
         stop-color="#f1efeb"
         style="stop-color:#ffb235;stop-opacity:1"
         id="stop3" /><stop
         offset="1"
         stop-color="#fdfcfc"
         style="stop-color:#bacb45;stop-opacity:1"
         id="stop4" /></linearGradient><linearGradient
       xlink:href="#a"
       id="c"
       x1="248.903"
       x2="248.903"
       y1="-391.929"
       y2="378.323"
       gradientTransform="translate(7.868 30.632)scale(.07146)"
       gradientUnits="userSpaceOnUse" /><filter
       inkscape:collect="always"
       style="color-interpolation-filters:sRGB"
       id="filter1057"
       x="-0.026999999"
       width="1.054"
       y="-0.026999999"
       height="1.054"><feGaussianBlur
         inkscape:collect="always"
         stdDeviation="0.61875"
         id="feGaussianBlur1059" /></filter><radialGradient
       inkscape:collect="always"
       xlink:href="#linearGradient37376"
       id="radialGradient37378"
       cx="8.3971157"
       cy="10.829184"
       fx="8.3971157"
       fy="10.829184"
       r="7.276"
       gradientUnits="userSpaceOnUse"
       gradientTransform="matrix(2.7447736,0,0,4.3196816,8.6895715,-5.8486199)" /><linearGradient
       inkscape:collect="always"
       id="linearGradient37376"><stop
         style="stop-color:#434e55;stop-opacity:1;"
         offset="0"
         id="stop37372" /><stop
         style="stop-color:#1d2123;stop-opacity:1;"
         offset="1"
         id="stop37374" /></linearGradient></defs><rect
     ry="15"
     y="4.4999995"
     x="4.4999995"
     height="55"
     width="55"
     id="rect1055"
     style="opacity:0.3;fill:#141414;fill-opacity:1;stroke-width:2.74436;stroke-linecap:round;filter:url(#filter1057)" /><rect
     x="4.4996166"
     y="4.4996166"
     width="55.000767"
     height="55.000767"
     ry="15.000106"
     stroke-linecap="round"
     stroke-width="2.74441"
     id="rect36685"
     style="fill:url(#radialGradient37378);fill-opacity:1" /><rect
     width="16.863"
     height="31.953"
     x="23.624"
     y="19.655"
     ry="6.648"
     style="fill:#fff;stroke-width:.3;stroke-linecap:round;stroke-linejoin:round;fill-opacity:1"
     id="rect5" /><path
     d="M31.289 57.56c-3.324-3.56-8.768-9.148-9.598-9.85l-.344-.291-.621.086c-.56.079-1.45.292-3.437.827-.37.1-.687.166-.705.148s.24-.445.573-.948a30.7 30.7 0 0 0 4.058-8.99c.901-3.38 1.565-8.245 1.795-13.158l.085-1.796-.165-.277c-.09-.152-.976-1.676-1.967-3.385C15.014 9.664 10.813 2.145 10.95 2.007c.08-.08 1.098.893 5.224 4.986 6.958 6.903 8.83 8.715 9.427 9.13l.28.194h12.245l.298-.207c.52-.36 2.828-2.587 8.161-7.874 5.04-4.997 6.396-6.304 6.466-6.234.082.082-1.064 2.242-3.273 6.168a1220 1220 0 0 1-8.112 14.143l-.751 1.28.084 1.718c.193 3.962.608 7.587 1.23 10.73.873 4.418 2.34 8.062 4.624 11.488.335.502.592.928.573.948s-.338-.046-.708-.145c-1.987-.534-2.877-.748-3.436-.827l-.62-.086-.795.742c-.747.698-4.94 4.987-8.36 8.55-.84.875-1.529 1.587-1.533 1.584zm2.126-7.09c1.088-.225 1.595-.514 3.103-1.774 1.217-1.015 3.26-3.01 3.288-3.208.137-.962-1.15-8.845-1.739-10.644-.222-.679-.357-.79-.478-.393-.238.773-.416 3.012-.591 7.45-.047 1.179-.106 2.185-.132 2.236-.027.05-.088-.207-.136-.572-.349-2.636-1.042-6.487-1.337-7.418-.187-.594-.414-.905-.485-.665-.158.533-.38 2.87-.653 6.883-.097 1.435-.216 3.168-.264 3.852-.049.713-.109 1.186-.14 1.108-.117-.298-.676-4.497-1.098-8.247-.297-2.638-.433-3.288-.689-3.288-.277 0-.81 3.309-1.824 11.312-.024.187-.067.355-.095.373-.072.045-.115-.418-.32-3.502-.396-5.935-.55-7.844-.67-8.291-.139-.522-.35-.191-.654 1.02-.258 1.034-.48 2.235-.962 5.234-.434 2.692-.423 2.699-.539-.321-.18-4.715-.443-7.397-.725-7.397-.116 0-.354.629-.566 1.496-.573 2.337-1.495 8.152-1.495 9.43v.483l1.054 1.034c1.87 1.836 3.278 3.004 4.132 3.428.92.457 2.789.634 4.015.381m-.664-16.862c.923-.24 1.742-.88 2.127-1.663.207-.42.234-.543.232-1.048-.003-.472-.038-.65-.2-1.002-.46-.995-1.598-1.72-1.938-1.235-.175.25-.137.476.116.687.652.545.844.77.925 1.086.306 1.18-.746 2.226-2.138 2.126-1.221-.088-2.046-.94-1.922-1.985.058-.485.122-.581.694-1.038.53-.423.598-.576.388-.876-.162-.23-.497-.205-.962.073-.753.452-1.173 1.249-1.176 2.235-.002.506.025.63.232 1.05.384.779 1.151 1.349 2.14 1.588.552.134.975.134 1.482.002m-3.499-7.276c.491-.229.544-.306.433-.63-.225-.65-1.454-2.007-2.065-2.277-.346-.153-.58-.117-.861.132-.362.321-.52 1.235-.303 1.753.136.326.574.725 1.074.977a1.97 1.97 0 0 0 1.722.045m7.031-.04c.464-.24.994-.765 1.079-1.07.15-.538.035-1.266-.249-1.58a1.4 1.4 0 0 0-.369-.251c-.241-.115-.26-.113-.628.067-.633.31-1.598 1.341-1.943 2.077-.092.197-.168.395-.168.442s.2.185.446.31c.409.206.492.223.983.195.37-.02.633-.08.85-.19z"
     style="fill:url(#c);stroke-width:.0714633"
     id="path5" /></svg>
