<?xml version="1.0" encoding="UTF-8" standalone="no"?>
<svg
   width="64"
   height="64"
   version="1.1"
   id="svg8"
   sodipodi:docname="dying-light.svg"
   inkscape:version="1.4.2 (ebf0e940d0, 2025-05-08)"
   xmlns:inkscape="http://www.inkscape.org/namespaces/inkscape"
   xmlns:sodipodi="http://sodipodi.sourceforge.net/DTD/sodipodi-0.dtd"
   xmlns="http://www.w3.org/2000/svg"
   xmlns:svg="http://www.w3.org/2000/svg">
  <sodipodi:namedview
     id="namedview8"
     pagecolor="#505050"
     bordercolor="#eeeeee"
     borderopacity="1"
     inkscape:showpageshadow="0"
     inkscape:pageopacity="0"
     inkscape:pagecheckerboard="0"
     inkscape:deskcolor="#505050"
     inkscape:zoom="4.2315921"
     inkscape:cx="20.795955"
     inkscape:cy="9.6890246"
     inkscape:window-width="1920"
     inkscape:window-height="1003"
     inkscape:window-x="0"
     inkscape:window-y="0"
     inkscape:window-maximized="1"
     inkscape:current-layer="svg8" />
  <defs
     id="defs5">
    <linearGradient
       id="b"
       x1="7.937"
       x2="7.937"
       y1="15.081"
       y2="1.852"
       gradientTransform="matrix(3.7796,0,0,3.7796,-9.9945068e-4,-27.971)"
       gradientUnits="userSpaceOnUse">
      <stop
         offset="0"
         stop-color="#eceaea"
         id="stop1" />
      <stop
         offset=".998"
         stop-color="#fefbec"
         id="stop2" />
    </linearGradient>
    <linearGradient
       id="e"
       x1="16.902"
       x2="16.902"
       y1="44.899"
       y2="16.833"
       gradientTransform="translate(0.08486915,1.5600147)"
       gradientUnits="userSpaceOnUse">
      <stop
         offset="0"
         stop-color="#f55b00"
         id="stop3" />
      <stop
         offset="1"
         stop-color="#f8d644"
         id="stop4" />
    </linearGradient>
    <filter
       id="a"
       width="1.0959966"
       height="1.0959966"
       x="-0.047998287"
       y="-0.047998287"
       color-interpolation-filters="sRGB">
      <feGaussianBlur
         stdDeviation="1.12"
         id="feGaussianBlur4" />
    </filter>
    <filter
       id="d"
       width="1.225752"
       height="1.2071282"
       x="-0.11287602"
       y="-0.10356411"
       color-interpolation-filters="sRGB">
      <feGaussianBlur
         stdDeviation="1.411"
         id="feGaussianBlur5" />
    </filter>
    <filter
       id="filter1057"
       x="-0.026999999"
       y="-0.026999999"
       width="1.054"
       height="1.054"
       color-interpolation-filters="sRGB">
      <feGaussianBlur
         stdDeviation="0.61875"
         id="feGaussianBlur1" />
    </filter>
    <linearGradient
       id="linearGradient1053"
       x1="-127"
       x2="-72"
       y1="60"
       y2="5"
       gradientTransform="translate(131.5,-0.51000013)"
       gradientUnits="userSpaceOnUse">
      <stop
         stop-color="#dee0e2"
         offset="0"
         id="stop1-3" />
      <stop
         stop-color="#f1f3f5"
         stop-opacity=".99608"
         offset="1"
         id="stop2-6" />
    </linearGradient>
  </defs>
  <rect
     x="4.4999995"
     y="4.4999995"
     width="55"
     height="55"
     ry="15"
     fill="#141414"
     filter="url(#filter1057)"
     opacity="0.3"
     stroke-linecap="round"
     stroke-width="2.7444"
     id="rect2" />
  <rect
     x="4.5"
     y="4.5"
     width="55"
     height="55"
     ry="15"
     fill="url(#linearGradient1053)"
     stroke-linecap="round"
     stroke-width="2.7444"
     id="rect3"
     style="fill:url(#linearGradient1053)" />
  <path
     fill="url(#e)"
     d="m 35.044869,15.659015 c -0.06,0.069 -0.042,0.59 0.008,1.107 0.012,-0.368 0.012,-0.736 0.029,-1.104 q -0.02,-0.021 -0.037,-0.003 m 0.008,1.107 c -0.112,3.559 0.028,7.119 0.203,10.674 0.153,6.434 -0.08,11.573 0.082,18.006 1.037,0.05 2.394,-0.1 3.057,0.203 0.307,-0.101 0.447,2.395 0.885,1.023 -0.071,-0.67 -0.248,-1.047 -0.563,-0.902 1.572,-1.329 0.358,3.105 0.863,2.527 0.167,-1.711 -0.196,-3.456 0.166,-5.146 0.557,1.227 0.598,2.637 0.588,3.994 0.097,-0.471 0.2,-0.971 0.196,-1.133 0.2,-0.765 1.865,-0.672 1.85,0.182 0.149,-1.087 -0.123,-0.32 0.898,-0.666 0.604,-0.259 1.793,-0.325 1.869,0.226 0.196,-0.477 0.198,1.04 0.408,-0.086 0.849,-0.178 1.747,-0.654 1.348,-1.853 -0.18,-1.403 0.249,-2.783 -1.565,-2.301 -1.626,0.036 -3.274,-0.146 -4.885,0.055 -0.896,0.923 -0.658,-0.064 -0.986,-0.403 -1.43,0.654 -0.552,-1.812 -0.246,-2.398 -0.13,-6.647 -0.017,-12.002 -0.053,-18.654 0.17,-0.782 -0.542,-0.861 -0.736,-1.471 -0.236,1.162 -2.65,0.82 -2.131,-0.576 -0.583,0.027 -0.647,-2.124 -0.805,-0.375 -0.205,0.624 -0.368,-0.154 -0.443,-0.926 m 3.379,1.877 a 1.2,1.2 0 0 0 -0.035,-0.559 c -0.037,0.235 -0.013,0.409 0.035,0.559 m 1.902,28.502 c -0.145,0.707 -0.278,1.34 -0.004,0.605 q 0.004,-0.3 0.004,-0.605 m -21.566,-28.793 c -2.027,0.061 -1.382,2.38 -1.361,3.74 0.034,2.692 0.055,5.39 -0.065,8.076 -0.165,2.155 0.18,4.335 -0.035,6.5 0.045,1.589 -0.071,2.754 0.055,4.227 0.02,0.987 0.123,2.285 -0.063,3.103 0.059,-0.673 -0.416,-3.041 -0.242,-1.404 -0.187,1.003 0.08,2.44 0.844,2.822 0.097,0.686 0.24,1.298 0.482,0.678 0.853,0.517 0.764,-1.727 1.266,-0.279 0.35,-0.438 1.574,-0.867 1.523,0.199 0.946,-1.299 3.057,-0.695 4.543,-0.783 0.522,0.178 2.796,-1.276 3.653,-2.248 2.098,-2.602 1.582,-5.963 1.562,-8.992 -0.016,-3.762 0.315,-7.562 -0.355,-11.291 -0.868,-3.133 -4.768,-4.626 -8.02,-4.235 -1.12,0.028 -2.23,-0.036 -3.346,-0.095 a 3,3 0 0 0 -0.441,-0.018 m 6.947,26.879 c -0.023,0.247 0.102,0.02 0,0 m -2.836,-23.354 q 0.159,0.007 0.342,0.043 c 2.305,-0.103 4.23,2.12 3.543,4.159 -0.108,0.704 0.127,2.081 -0.268,1.363 -0.155,-0.492 0.436,-1.647 -0.197,-1.893 -0.137,1.885 -0.08,3.796 0.289,5.66 0.086,1.285 -0.44,2.227 -0.433,3.586 -0.244,1.514 0.45,2.825 0.023,4.157 -0.281,1.111 -0.136,-1.404 -0.232,-1.844 -0.335,-1.592 -0.587,1.029 -0.053,1.56 0.187,0.681 -0.456,0.044 -0.328,0.918 0.032,0.561 -0.166,1.999 -0.27,0.752 -0.298,0.265 -0.597,0.656 -0.625,0.795 -1.096,0.43 -2.498,0.752 -3.03,-0.357 -0.41,-1.544 -0.035,-3.078 -0.171,-4.623 0.5,-0.062 0.114,-1.842 0.006,-0.856 -0.124,-1.225 0.462,-2.078 0.545,-2.879 -0.244,-0.306 -0.492,-2.086 -0.213,-2.677 -0.016,-0.875 0.408,-2.282 -0.088,-2.467 0.288,-0.943 -0.305,-2.17 0.027,-2.848 0.104,0.963 0.21,1.017 0.264,-0.043 -0.533,-0.485 -0.715,-2.572 0.869,-2.506"
     id="path8"
     style="fill:url(#e)" />
</svg>
