<?xml version="1.0" encoding="UTF-8" standalone="no"?>
<svg
   width="64"
   height="64"
   viewBox="0 0 16.933 16.933"
   version="1.1"
   id="svg10"
   sodipodi:docname="dynamic-wallpaper.svg"
   xml:space="preserve"
   inkscape:version="1.4.2 (ebf0e940d0, 2025-05-08)"
   xmlns:inkscape="http://www.inkscape.org/namespaces/inkscape"
   xmlns:sodipodi="http://sodipodi.sourceforge.net/DTD/sodipodi-0.dtd"
   xmlns:xlink="http://www.w3.org/1999/xlink"
   xmlns="http://www.w3.org/2000/svg"
   xmlns:svg="http://www.w3.org/2000/svg"><sodipodi:namedview
     id="namedview10"
     pagecolor="#505050"
     bordercolor="#eeeeee"
     borderopacity="1"
     inkscape:showpageshadow="0"
     inkscape:pageopacity="0"
     inkscape:pagecheckerboard="0"
     inkscape:deskcolor="#505050"
     inkscape:zoom="4.2315921"
     inkscape:cx="59.552053"
     inkscape:cy="37.57451"
     inkscape:window-width="1920"
     inkscape:window-height="1003"
     inkscape:window-x="0"
     inkscape:window-y="0"
     inkscape:window-maximized="1"
     inkscape:current-layer="svg10" /><defs
     id="defs7"><linearGradient
       id="linearGradient9"
       inkscape:collect="always"><stop
         style="stop-color:#2b1782;stop-opacity:1"
         offset="0"
         id="stop9" /><stop
         style="stop-color:#db65be;stop-opacity:1"
         offset="1"
         id="stop10" /></linearGradient><linearGradient
       id="linearGradient4"
       inkscape:collect="always"><stop
         style="stop-color:#f3905f;stop-opacity:1"
         offset="0"
         id="stop7" /><stop
         style="stop-color:#ffbb05;stop-opacity:1"
         offset="1"
         id="stop8" /></linearGradient><linearGradient
       id="linearGradient14"
       x1="-127"
       x2="-72"
       y1="60"
       y2="5"
       gradientTransform="matrix(0.26457812,0,0,0.26457812,14.641578,-0.27353613)"
       gradientUnits="userSpaceOnUse"><stop
         stop-color="#dee0e2"
         offset="0"
         id="stop13"
         style="stop-color:#f39060;stop-opacity:1" /><stop
         stop-color="#f1f3f5"
         stop-opacity=".99608"
         offset="1"
         id="stop14"
         style="stop-color:#ffbc02;stop-opacity:1" /></linearGradient><linearGradient
       id="d"
       x1="-896.07"
       x2="-895.11"
       y1="-476.09"
       y2="-475.27"
       gradientTransform="matrix(-7.6995 13.034 9.0054 11.144 -2599.3 16982)"
       gradientUnits="userSpaceOnUse"><stop
         offset="0"
         stop-color="#251480"
         id="stop1" /><stop
         offset="1"
         stop-color="#e96bc3"
         id="stop2" /></linearGradient><linearGradient
       id="c"
       x1="-895.8"
       x2="-895.14"
       y1="-475.97"
       y2="-475.37"
       gradientTransform="matrix(8.2643 -13.07 -9.0299 -11.961 3110.4 -17384)"
       gradientUnits="userSpaceOnUse"><stop
         offset="0"
         stop-color="#ffbe00"
         id="stop3" /><stop
         offset="1"
         stop-color="#f39060"
         id="stop4" /></linearGradient><linearGradient
       id="a"
       x1="7.937"
       x2="7.937"
       y1="15.081"
       y2="1.852"
       gradientTransform="translate(.002 .002)scale(.99977)"
       gradientUnits="userSpaceOnUse"><stop
         offset="0"
         stop-color="#767574"
         id="stop5" /><stop
         offset="1"
         stop-color="#d1e7ee"
         id="stop6" /></linearGradient><linearGradient
       xlink:href="#a"
       id="b"
       x1="7.937"
       x2="7.937"
       y1="15.081"
       y2="1.852"
       gradientTransform="translate(.002 .002)scale(.99977)"
       gradientUnits="userSpaceOnUse" /><clipPath
       id="g"><rect
         width="14.814"
         height="14.814"
         x="1.06"
         y="1.052"
         fill="url(#b)"
         rx="3.439"
         ry="3.439"
         id="rect6" /></clipPath><clipPath
       id="e"><rect
         width="14.814"
         height="14.814"
         x="1.06"
         y="1.052"
         fill="url(#b)"
         rx="3.439"
         ry="3.439"
         id="rect7" /></clipPath><filter
       id="f"
       width="1.2097997"
       height="1.4899027"
       x="-0.10489987"
       y="-0.24495134"
       color-interpolation-filters="sRGB"><feGaussianBlur
         stdDeviation=".553"
         id="feGaussianBlur7" /></filter><filter
       id="filter1057"
       x="-0.026999999"
       y="-0.026999999"
       width="1.054"
       height="1.054"
       color-interpolation-filters="sRGB"><feGaussianBlur
         stdDeviation="0.61875"
         id="feGaussianBlur1" /></filter><linearGradient
       id="linearGradient1053"
       x1="-96.114731"
       x2="-96.114731"
       y1="5.0104203"
       y2="60.009998"
       gradientTransform="matrix(0.26457812,0,0,0.26457812,34.792023,-0.13493464)"
       gradientUnits="userSpaceOnUse"
       xlink:href="#linearGradient14"><stop
         stop-color="#dee0e2"
         offset="0"
         id="stop1-3"
         style="stop-color:#251480;stop-opacity:1" /><stop
         stop-color="#f1f3f5"
         stop-opacity=".99608"
         offset="1"
         id="stop2-6"
         style="stop-color:#e067c0;stop-opacity:1" /></linearGradient><linearGradient
       inkscape:collect="always"
       xlink:href="#linearGradient4"
       id="linearGradient8"
       x1="5.1594071"
       y1="1.190713"
       x2="5.1594071"
       y2="15.742398"
       gradientUnits="userSpaceOnUse" /><linearGradient
       inkscape:collect="always"
       xlink:href="#linearGradient9"
       id="linearGradient10"
       x1="11.77386"
       y1="1.190713"
       x2="11.77386"
       y2="15.742398"
       gradientUnits="userSpaceOnUse" /></defs><rect
     x="4.4999995"
     y="4.4999995"
     width="55"
     height="55"
     ry="15"
     fill="#141414"
     filter="url(#filter1057)"
     opacity="0.3"
     stroke-linecap="round"
     stroke-width="2.7444"
     id="rect2"
     transform="scale(0.26457812)" /><path
     id="rect3"
     style="fill:url(#linearGradient10);fill-opacity:1"
     d="m 8.040828,15.742509 h 3.733032 c 2.198644,0 3.968672,-1.770027 3.968672,-3.968672 V 5.1593848 c 0,-2.1986442 -1.770028,-3.9686718 -3.968672,-3.9686718 H 9.362169 Z" /><path
     id="path13"
     style="fill:url(#linearGradient8);fill-opacity:1"
     d="M 8.040828,15.742509 9.362169,1.190713 H 5.159407 c -2.198644,0 -3.968672,1.7700276 -3.968672,3.9686718 v 6.6144522 c 0,2.198645 1.770028,3.968672 3.968672,3.968672 z" /><path
     d="m14.793 9.925-.033-.017c-.24.035-.48 0-.72-.052a1.92 1.92 0 0 1-1.34-2.349 1.9 1.9 0 0 1 .327-.651V6.82l-.035-.017a1.98 1.98 0 0 0-1.698 1.44 2.02 2.02 0 0 0 .189 1.51 1.92 1.92 0 0 0 1.2.925c.173.053.361.069.533.069a1.98 1.98 0 0 0 1.576-.788zm-10.733.206a.24.24 0 0 0-.291.068l-.257.463a.24.24 0 0 0 .068.29.25.25 0 0 0 .104.036.24.24 0 0 0 .188-.103l.257-.462c.07-.104.035-.242-.07-.292zM2.74 7.816l.463.257c.035.017.07.035.103.035a.24.24 0 0 0 .189-.104.24.24 0 0 0-.069-.292l-.463-.256a.24.24 0 0 0-.29.069c-.052.102-.018.24.068.29zm2.881-.394c.034.016.068.035.103.035a.24.24 0 0 0 .189-.105l.256-.461a.24.24 0 0 0-.067-.292.24.24 0 0 0-.292.068l-.258.463c-.068.12-.034.24.07.29zm1.303 2.314L6.46 9.48a.24.24 0 0 0-.29.068.24.24 0 0 0 .068.29l.464.257a.2.2 0 0 0 .102.035.24.24 0 0 0 .189-.102c.068-.103.034-.223-.07-.292zm-3.43-.171c-.05-.103-.188-.137-.29-.07l-.446.241c-.103.052-.137.19-.07.292.035.068.104.103.19.103a.2.2 0 0 0 .102-.035l.463-.256c.07-.052.103-.189.052-.275zm.275-2.212c.035.069.103.103.19.103a.2.2 0 0 0 .1-.035c.105-.05.138-.188.07-.291l-.257-.463c-.05-.103-.188-.138-.291-.068-.104.052-.138.188-.07.292zm2.418.652c.035.07.102.102.188.102.035 0 .07-.017.103-.034l.463-.256c.103-.052.137-.19.07-.292a.203.203 0 0 0-.292-.07l-.464.257c-.086.053-.12.19-.068.292zm-.274 2.194a.2.2 0 0 0-.292-.068c-.103.05-.137.188-.07.292l.258.462c.035.068.104.103.189.103.035 0 .069-.018.104-.035.102-.05.136-.188.067-.291zM3.289 8.776a.2.2 0 0 0-.206-.205h-.737a.2.2 0 0 0-.205.205.2.2 0 0 0 .205.205h.737a.21.21 0 0 0 .206-.205m1.544-1.56a.2.2 0 0 0 .205-.206v-.737a.2.2 0 0 0-.205-.206.2.2 0 0 0-.207.206v.737a.21.21 0 0 0 .207.206M7.336 8.57h-.738a.2.2 0 0 0-.205.205.2.2 0 0 0 .205.205h.738a.2.2 0 0 0 .205-.205c.017-.12-.085-.205-.205-.205M4.85 10.336a.2.2 0 0 0-.206.207v.736a.2.2 0 0 0 .206.206.2.2 0 0 0 .205-.206v-.736a.21.21 0 0 0-.205-.207m0-2.691a1.14 1.14 0 0 0-1.133 1.131c0 .618.515 1.132 1.133 1.132a1.14 1.14 0 0 0 1.13-1.132 1.14 1.14 0 0 0-1.13-1.13z"
     clip-path="url(#e)"
     filter="url(#f)"
     opacity=".15"
     id="path9" /><path
     fill="#fff"
     d="m14.793 9.925-.033-.017c-.24.035-.48 0-.72-.052a1.92 1.92 0 0 1-1.34-2.349 1.9 1.9 0 0 1 .327-.651V6.82l-.035-.017a1.98 1.98 0 0 0-1.698 1.44 2.02 2.02 0 0 0 .189 1.51 1.92 1.92 0 0 0 1.2.925c.173.053.361.069.533.069a1.98 1.98 0 0 0 1.576-.788zm-10.733.206a.24.24 0 0 0-.291.068l-.257.463a.24.24 0 0 0 .068.29.25.25 0 0 0 .104.036.24.24 0 0 0 .188-.103l.257-.462c.07-.104.035-.242-.07-.292zM2.74 7.816l.463.257c.035.017.07.035.103.035a.24.24 0 0 0 .189-.104.24.24 0 0 0-.069-.292l-.463-.256a.24.24 0 0 0-.29.069c-.052.102-.018.24.068.29zm2.881-.394c.034.016.068.035.103.035a.24.24 0 0 0 .189-.105l.256-.461a.24.24 0 0 0-.067-.292.24.24 0 0 0-.292.068l-.258.463c-.068.12-.034.24.07.29zm1.303 2.314L6.46 9.48a.24.24 0 0 0-.29.068.24.24 0 0 0 .068.29l.464.257a.2.2 0 0 0 .102.035.24.24 0 0 0 .189-.102c.068-.103.034-.223-.07-.292zm-3.43-.171c-.05-.103-.188-.137-.29-.07l-.446.241c-.103.052-.137.19-.07.292.035.068.104.103.19.103a.2.2 0 0 0 .102-.035l.463-.256c.07-.052.103-.189.052-.275zm.275-2.212c.035.069.103.103.19.103a.2.2 0 0 0 .1-.035c.105-.05.138-.188.07-.291l-.257-.463c-.05-.103-.188-.138-.291-.068-.104.052-.138.188-.07.292zm2.418.652c.035.07.102.102.188.102.035 0 .07-.017.103-.034l.463-.256c.103-.052.137-.19.07-.292a.203.203 0 0 0-.292-.07l-.464.257c-.086.053-.12.19-.068.292zm-.274 2.194a.2.2 0 0 0-.292-.068c-.103.05-.137.188-.07.292l.258.462c.035.068.104.103.189.103.035 0 .069-.018.104-.035.102-.05.136-.188.067-.291zM3.289 8.776a.2.2 0 0 0-.206-.205h-.737a.2.2 0 0 0-.205.205.2.2 0 0 0 .205.205h.737a.21.21 0 0 0 .206-.205m1.544-1.56a.2.2 0 0 0 .205-.206v-.737a.2.2 0 0 0-.205-.206.2.2 0 0 0-.207.206v.737a.21.21 0 0 0 .207.206M7.336 8.57h-.738a.2.2 0 0 0-.205.205.2.2 0 0 0 .205.205h.738a.2.2 0 0 0 .205-.205c.017-.12-.085-.205-.205-.205M4.85 10.336a.2.2 0 0 0-.206.207v.736a.2.2 0 0 0 .206.206.2.2 0 0 0 .205-.206v-.736a.21.21 0 0 0-.205-.207m0-2.691a1.14 1.14 0 0 0-1.133 1.131c0 .618.515 1.132 1.133 1.132a1.14 1.14 0 0 0 1.13-1.132 1.14 1.14 0 0 0-1.13-1.13z"
     clip-path="url(#g)"
     id="path10" /></svg>
