<?xml version="1.0" encoding="UTF-8" standalone="no"?>
<svg
   xml:space="preserve"
   width="64"
   height="64"
   version="1.1"
   id="svg2"
   sodipodi:docname="enter-the-gungeon.svg"
   inkscape:version="1.4.2 (ebf0e940d0, 2025-05-08)"
   xmlns:inkscape="http://www.inkscape.org/namespaces/inkscape"
   xmlns:sodipodi="http://sodipodi.sourceforge.net/DTD/sodipodi-0.dtd"
   xmlns="http://www.w3.org/2000/svg"
   xmlns:svg="http://www.w3.org/2000/svg"><sodipodi:namedview
     id="namedview2"
     pagecolor="#505050"
     bordercolor="#eeeeee"
     borderopacity="1"
     inkscape:showpageshadow="0"
     inkscape:pageopacity="0"
     inkscape:pagecheckerboard="0"
     inkscape:deskcolor="#505050"
     inkscape:zoom="4.2315921"
     inkscape:cx="-19.850684"
     inkscape:cy="12.997472"
     inkscape:window-width="1920"
     inkscape:window-height="1003"
     inkscape:window-x="0"
     inkscape:window-y="0"
     inkscape:window-maximized="1"
     inkscape:current-layer="svg2" /><defs
     id="defs2"><linearGradient
       id="a"
       x1="7.937"
       x2="7.937"
       y1="15.081"
       y2="1.852"
       gradientTransform="scale(3.7796)"
       gradientUnits="userSpaceOnUse"><stop
         offset="0"
         stop-color="#6c6c6c"
         style="stop-color:#5e6b6e;stop-opacity:1"
         id="stop1" /><stop
         offset="1"
         stop-color="#363636"
         style="stop-color:#101f24;stop-opacity:1"
         id="stop2" /></linearGradient><filter
       id="filter2076"
       x="-0.048000001"
       y="-0.048000001"
       width="1.096"
       height="1.096"
       color-interpolation-filters="sRGB"><feGaussianBlur
         stdDeviation="1.1"
         id="feGaussianBlur161" /></filter><linearGradient
       id="linearGradient2070"
       x1="145"
       x2="200"
       y1="59"
       y2="4"
       gradientTransform="translate(-140.5,0.49999961)"
       gradientUnits="userSpaceOnUse"><stop
         stop-color="#ffc841"
         offset="0"
         id="stop154" /><stop
         stop-color="#ffbe37"
         offset=".4925"
         id="stop156" /><stop
         stop-color="#ffc841"
         offset="1"
         id="stop158" /></linearGradient></defs><rect
     x="4.5000014"
     y="4.5000014"
     width="55"
     height="55"
     rx="13.002"
     ry="13.002"
     filter="url(#filter2076)"
     opacity="0.3"
     id="rect170" /><rect
     x="4.5"
     y="4.5"
     width="55"
     height="55"
     rx="13.002"
     ry="13.002"
     fill="url(#linearGradient2070)"
     id="rect172"
     style="fill:url(#linearGradient2070)" /><path
     d="M29.918 52.233c-1.774-.634-3.17-1.899-3.474-3.147l-.142-.583h11.7l-.321.795c-.432 1.068-1.997 2.476-3.215 2.89-1.187.405-3.477.428-4.548.045m-14.493-.328c-1.806-.432-3.509-2.11-3.819-3.763-.38-2.023.57-4.15 2.341-5.245.885-.547 1.241-.64 2.43-.634 2.896.017 4.888 1.999 4.888 4.864a4.81 4.81 0 0 1-3.833 4.75c-1.163.25-1.086.248-2.007.028m31.254 0c-1.992-.4-3.53-2.006-3.922-4.092-.417-2.225 1.404-4.92 3.685-5.453 3.129-.73 6.057 1.583 6.035 4.767-.022 3.084-2.806 5.379-5.798 4.778"
     style="fill:#000"
     id="path2" /></svg>
