<?xml version="1.0" encoding="UTF-8" standalone="no"?>
<svg
   width="64"
   height="64"
   version="1.1"
   id="svg3"
   sodipodi:docname="ente_auth.svg"
   inkscape:version="1.4.2 (ebf0e940d0, 2025-05-08)"
   xmlns:inkscape="http://www.inkscape.org/namespaces/inkscape"
   xmlns:sodipodi="http://sodipodi.sourceforge.net/DTD/sodipodi-0.dtd"
   xmlns="http://www.w3.org/2000/svg"
   xmlns:svg="http://www.w3.org/2000/svg">
  <sodipodi:namedview
     id="namedview3"
     pagecolor="#505050"
     bordercolor="#eeeeee"
     borderopacity="1"
     inkscape:showpageshadow="0"
     inkscape:pageopacity="0"
     inkscape:pagecheckerboard="0"
     inkscape:deskcolor="#505050"
     inkscape:zoom="4.2315921"
     inkscape:cx="30.721297"
     inkscape:cy="22.450179"
     inkscape:window-width="1920"
     inkscape:window-height="1003"
     inkscape:window-x="0"
     inkscape:window-y="0"
     inkscape:window-maximized="1"
     inkscape:current-layer="svg3" />
  <defs
     id="defs2">
    <linearGradient
       id="a"
       x1="7.937"
       x2="7.937"
       y1="15.081"
       y2="1.852"
       gradientTransform="matrix(3.7796,0,0,3.7796,-5e-4,-19.518)"
       gradientUnits="userSpaceOnUse">
      <stop
         offset="0"
         stop-color="#0e71de"
         style="stop-color:#c658f8;stop-opacity:1"
         id="stop1" />
      <stop
         offset="1"
         stop-color="#25c9ff"
         style="stop-color:#fc86fe;stop-opacity:1"
         id="stop2" />
    </linearGradient>
    <filter
       id="b"
       width="1.3270513"
       height="1.2669092"
       x="-0.16352566"
       y="-0.13345458"
       style="color-interpolation-filters:sRGB">
      <feGaussianBlur
         stdDeviation="2.115"
         id="feGaussianBlur2" />
    </filter>
    <filter
       id="filter1057"
       x="-0.026999999"
       y="-0.026999999"
       width="1.054"
       height="1.054"
       color-interpolation-filters="sRGB">
      <feGaussianBlur
         stdDeviation="0.61875"
         id="feGaussianBlur1" />
    </filter>
    <linearGradient
       id="linearGradient1053"
       x1="-127"
       x2="-72"
       y1="60"
       y2="5"
       gradientTransform="matrix(1.0000071,0,0,1.0000071,131.49954,-0.51035953)"
       gradientUnits="userSpaceOnUse">
      <stop
         stop-color="#8926f7"
         offset="0"
         id="stop1-3" />
      <stop
         stop-color="#ba7dff"
         offset="1"
         id="stop2-6" />
    </linearGradient>
  </defs>
  <rect
     transform="matrix(1.0000071,0,0,1.0000071,-2.2781468e-4,-2.2781468e-4)"
     x="4.5"
     y="4.5"
     width="55"
     height="55"
     ry="15"
     fill="#141414"
     filter="url(#filter1057)"
     opacity="0.3"
     stroke-linecap="round"
     stroke-width="2.7444"
     id="rect2-5" />
  <rect
     x="4.4996166"
     y="4.4996166"
     width="55.000767"
     height="55.000767"
     ry="15.000106"
     fill="url(#linearGradient1053)"
     stroke-linecap="round"
     stroke-width="2.74437"
     id="rect3"
     style="fill:url(#linearGradient1053)" />
  <path
     fill="#fff"
     d="m32.01 14.205-15.531 6.903v6.165c0 4.545.03 6.382.111 6.987.682 5.03 2.712 9.121 6.253 12.6 2.43 2.388 5.603 4.356 8.335 5.17.38.114.736.208.79.21.482.023 2.883-.918 4.206-1.647 5.514-3.041 9.518-8.24 10.823-14.05.51-2.277.522-2.48.523-9.232v-6.213l-7.755-3.447ZM32 25.187a.657.612 0 0 1 .233.044c2.42.12 4.368 1.958 4.368 4.239v1.223h1.315c.726 0 1.315.548 1.315 1.224v7.341c0 .676-.589 1.224-1.315 1.224H26.083c-.726 0-1.315-.548-1.315-1.224v-7.341c0-.676.589-1.224 1.315-1.224h1.315V29.47c0-2.359 2.067-4.283 4.601-4.283zm0 1.224c-1.824 0-3.287 1.362-3.287 3.059v1.223h6.574V29.47c0-1.697-1.464-3.06-3.287-3.06"
     style="fill:#000;filter:url(#b);opacity:.15"
     id="path2" />
  <path
     fill="#fff"
     d="m32.01 12.982-15.531 6.903v6.165c0 4.545.03 6.382.111 6.987.682 5.03 2.712 9.121 6.253 12.6 2.43 2.388 5.603 4.356 8.335 5.17.38.114.736.208.79.21.482.023 2.883-.918 4.206-1.647 5.514-3.041 9.518-8.24 10.823-14.05.51-2.277.522-2.48.523-9.232v-6.213l-7.755-3.447zM32 23.964a.657.612 0 0 1 .233.044c2.42.12 4.368 1.958 4.368 4.239v1.223h1.315c.726 0 1.315.548 1.315 1.224v7.341c0 .676-.589 1.224-1.315 1.224H26.083c-.726 0-1.315-.548-1.315-1.224v-7.341c0-.676.589-1.224 1.315-1.224h1.315v-1.223c0-2.359 2.067-4.283 4.601-4.283zm0 1.224c-1.824 0-3.287 1.362-3.287 3.059v1.223h6.574v-1.223c0-1.697-1.464-3.06-3.287-3.06"
     id="path3" />
</svg>
