<?xml version="1.0" encoding="UTF-8" standalone="no"?>
<svg
   xml:space="preserve"
   width="64"
   height="64"
   version="1.1"
   id="svg5"
   sodipodi:docname="eudic.svg"
   inkscape:version="1.4.2 (ebf0e940d0, 2025-05-08)"
   xmlns:inkscape="http://www.inkscape.org/namespaces/inkscape"
   xmlns:sodipodi="http://sodipodi.sourceforge.net/DTD/sodipodi-0.dtd"
   xmlns="http://www.w3.org/2000/svg"
   xmlns:svg="http://www.w3.org/2000/svg"><sodipodi:namedview
     id="namedview5"
     pagecolor="#505050"
     bordercolor="#eeeeee"
     borderopacity="1"
     inkscape:showpageshadow="0"
     inkscape:pageopacity="0"
     inkscape:pagecheckerboard="0"
     inkscape:deskcolor="#505050"
     inkscape:zoom="5.984375"
     inkscape:cx="28.574412"
     inkscape:cy="29.577023"
     inkscape:window-width="1920"
     inkscape:window-height="1003"
     inkscape:window-x="0"
     inkscape:window-y="0"
     inkscape:window-maximized="1"
     inkscape:current-layer="svg5" /><defs
     id="defs2"><linearGradient
       id="a"
       x1="7.937"
       x2="7.937"
       y1="15.081"
       y2="1.852"
       gradientTransform="matrix(3.7796,0,0,3.7796,1.742168,-21.899029)"
       gradientUnits="userSpaceOnUse"><stop
         offset="0"
         stop-color="#0e71de"
         id="stop1" /><stop
         offset="1"
         stop-color="#25c9ff"
         id="stop2" /></linearGradient><filter
       id="filter1057"
       x="-0.026999999"
       y="-0.026999999"
       width="1.054"
       height="1.054"
       color-interpolation-filters="sRGB"><feGaussianBlur
         stdDeviation="0.61875"
         id="feGaussianBlur1" /></filter><linearGradient
       id="linearGradient1053"
       x1="-127"
       x2="-72"
       y1="60"
       y2="5"
       gradientTransform="translate(131.5,0.4749999)"
       gradientUnits="userSpaceOnUse"><stop
         stop-color="#32d7ff"
         offset="0"
         id="stop1-3" /><stop
         stop-color="#329bff"
         offset="1"
         id="stop2-6" /></linearGradient></defs><rect
     x="4.4999995"
     y="5.4850001"
     width="55"
     height="55"
     ry="15"
     fill="#141414"
     filter="url(#filter1057)"
     opacity="0.3"
     stroke-linecap="round"
     stroke-width="2.7444"
     id="rect12" /><rect
     x="4.5"
     y="5.4850001"
     width="55"
     height="55"
     ry="15"
     fill="url(#linearGradient1053)"
     stroke-linecap="round"
     stroke-width="2.7444"
     id="rect13"
     style="fill:url(#linearGradient1053)" /><g
     id="g5"
     transform="translate(-66.236324,-7.2716084)"><g
       id="g6"
       transform="translate(76.579595,9.4971495)"><rect
         style="opacity:1;fill:#dceeff;fill-opacity:1;stroke:none;stroke-width:6.49471;stroke-linejoin:round;stroke-dasharray:none;stroke-opacity:1"
         id="rect6"
         width="11.774817"
         height="8.2824383"
         x="46.518383"
         y="11.472251"
         rx="4.1412191"
         ry="4.1412191"
         transform="rotate(30)" /><circle
         style="opacity:0.2;fill:none;fill-opacity:1;stroke:#000000;stroke-width:5.00022;stroke-linejoin:round;stroke-dasharray:none;stroke-opacity:1"
         id="circle6"
         cx="20.920406"
         cy="32.546066"
         r="14.999891" /><circle
         style="opacity:1;fill:none;fill-opacity:1;stroke:#e2f1ff;stroke-width:5.00022;stroke-linejoin:round;stroke-dasharray:none;stroke-opacity:1"
         id="path5-6"
         cx="21.000002"
         cy="31.002851"
         r="14.999891" /></g><path
       d="m 97.507904,45.238684 -1.152967,-2.96262 h -3.793413 l -1.139715,2.96262 h -1.219687 l 3.739946,-9.611261 h 1.085791 l 3.726695,9.611261 z m -2.587435,-6.930143 c -0.02681,-0.07159 -0.07145,-0.201225 -0.133896,-0.388893 -0.06245,-0.187667 -0.124909,-0.379752 -0.187364,-0.576255 -0.05392,-0.205642 -0.09871,-0.362082 -0.134353,-0.469321 -0.06245,0.277236 -0.134048,0.549903 -0.214782,0.817999 -0.08012,0.258957 -0.147148,0.464447 -0.201072,0.61647 l -1.085334,2.895442 h 3.029339 z m 7.707931,-0.37564 c 0.87588,0 1.52373,0.192237 1.94354,0.576712 0.42012,0.38417 0.63018,0.996222 0.63018,1.836157 v 4.892913 h -0.85775 l -0.22804,-1.019072 h -0.0535 c -0.31288,0.393311 -0.64358,0.683799 -0.99211,0.871467 -0.33969,0.187668 -0.81343,0.281501 -1.42121,0.281501 -0.65197,0 -1.19258,-0.169693 -1.62184,-0.509079 -0.428951,-0.348525 -0.643428,-0.889288 -0.643428,-1.622289 0,-0.71472 0.281501,-1.264318 0.844508,-1.648793 0.563,-0.393005 1.4299,-0.607483 2.60068,-0.643432 l 1.22015,-0.04021 V 40.48013 c 0,-0.598953 -0.12963,-1.014502 -0.38889,-1.246649 -0.25926,-0.232147 -0.62576,-0.348373 -1.0995,-0.348678 -0.37534,0 -0.7327,0.05804 -1.07208,0.17411 -0.3397,0.107239 -0.65699,0.232452 -0.9519,0.37564 l -0.36193,-0.884721 c 0.31288,-0.169997 0.6838,-0.313033 1.11275,-0.429106 0.42896,-0.124909 0.87573,-0.187363 1.34033,-0.187363 m 0.34868,3.834085 c -0.89386,0.03565 -1.51505,0.178527 -1.86357,0.428649 -0.33939,0.250427 -0.50908,0.603522 -0.50908,1.059286 0,0.402145 0.12064,0.697051 0.36193,0.884718 0.25012,0.187668 0.56726,0.281501 0.95143,0.281501 0.60779,0 1.11276,-0.165427 1.5149,-0.496282 0.40215,-0.339386 0.60322,-0.857605 0.60322,-1.554656 v -0.643431 z"
       style="fill:#e2f1ff;fill-opacity:1;stroke-width:0.456982"
       id="path2-7"
       sodipodi:nodetypes="ccccccccccscccccccccscccccscscccssccccccccscscscc" /></g></svg>
