<?xml version="1.0" encoding="UTF-8" standalone="no"?>
<svg
   width="64"
   height="64"
   version="1.1"
   id="svg84"
   sodipodi:docname="eyedropper.svg"
   inkscape:version="1.4.2 (ebf0e940d0, 2025-05-08)"
   xmlns:inkscape="http://www.inkscape.org/namespaces/inkscape"
   xmlns:sodipodi="http://sodipodi.sourceforge.net/DTD/sodipodi-0.dtd"
   xmlns:xlink="http://www.w3.org/1999/xlink"
   xmlns="http://www.w3.org/2000/svg"
   xmlns:svg="http://www.w3.org/2000/svg">
  <sodipodi:namedview
     id="namedview84"
     pagecolor="#505050"
     bordercolor="#eeeeee"
     borderopacity="1"
     inkscape:showpageshadow="0"
     inkscape:pageopacity="0"
     inkscape:pagecheckerboard="0"
     inkscape:deskcolor="#505050"
     inkscape:zoom="2.9921875"
     inkscape:cx="14.370757"
     inkscape:cy="37.096606"
     inkscape:window-width="1920"
     inkscape:window-height="1003"
     inkscape:window-x="0"
     inkscape:window-y="0"
     inkscape:window-maximized="1"
     inkscape:current-layer="svg84" />
  <defs
     id="defs60">
    <linearGradient
       id="b">
      <stop
         offset="0"
         style="stop-color:#74717b;stop-opacity:1"
         id="stop1" />
      <stop
         offset="1"
         style="stop-color:#9d9d9f;stop-opacity:1"
         id="stop2" />
    </linearGradient>
    <linearGradient
       id="e"
       x1="7.937"
       x2="7.937"
       y1="15.081"
       y2="1.852"
       gradientTransform="scale(3.7796)"
       gradientUnits="userSpaceOnUse">
      <stop
         offset="0"
         stop-color="#f54800"
         id="stop3" />
      <stop
         offset="1"
         stop-color="#ffb200"
         id="stop4" />
    </linearGradient>
    <linearGradient
       id="h"
       x1="16"
       x2="128"
       y1="74"
       y2="74"
       gradientTransform="matrix(1 0 0 .76924 -44 4.077)"
       gradientUnits="userSpaceOnUse">
      <stop
         offset="0"
         stop-color="#63452c"
         id="stop5" />
      <stop
         offset=".036"
         stop-color="#865e3c"
         id="stop6" />
      <stop
         offset=".071"
         stop-color="#63452c"
         id="stop7" />
      <stop
         offset=".929"
         stop-color="#63452c"
         id="stop8" />
      <stop
         offset=".964"
         stop-color="#865e3c"
         id="stop9" />
      <stop
         offset="1"
         stop-color="#63452c"
         id="stop10" />
    </linearGradient>
    <linearGradient
       id="j"
       x1="23"
       x2="23"
       y1="238"
       y2="222"
       gradientTransform="rotate(90 184 149)scale(1.5)"
       gradientUnits="userSpaceOnUse">
      <stop
         offset="0"
         stop-color="#2ec27e"
         id="stop11" />
      <stop
         offset=".5"
         stop-color="#8ff0a4"
         id="stop12" />
      <stop
         offset="1"
         stop-color="#2ec27e"
         id="stop13" />
    </linearGradient>
    <linearGradient
       id="o"
       x1="15"
       x2="33"
       y1="58"
       y2="58"
       gradientTransform="translate(-36 -35)"
       gradientUnits="userSpaceOnUse">
      <stop
         offset="0"
         stop-color="#2ec27e"
         id="stop14" />
      <stop
         offset=".5"
         stop-color="#57e389"
         id="stop15" />
      <stop
         offset="1"
         stop-color="#2ec27e"
         id="stop16" />
    </linearGradient>
    <linearGradient
       id="q"
       x1="46"
       x2="46"
       y1="232"
       y2="228"
       gradientTransform="matrix(0 -1.1875 -2 0 448 108.5)"
       gradientUnits="userSpaceOnUse">
      <stop
         offset="0"
         stop-color="#9a9996"
         id="stop17" />
      <stop
         offset=".5"
         stop-color="#fff"
         id="stop18" />
      <stop
         offset="1"
         stop-color="#c0bfbc"
         id="stop19" />
    </linearGradient>
    <linearGradient
       xlink:href="#a"
       id="w"
       x1="81"
       x2="81"
       y1="47"
       y2="65"
       gradientTransform="matrix(1.5 0 0 1.55556 -98 -94.11)" />
    <linearGradient
       id="a"
       gradientUnits="userSpaceOnUse">
      <stop
         offset="0"
         stop-color="#c0bfbc"
         id="stop20" />
      <stop
         offset=".5"
         stop-color="#deddda"
         id="stop21" />
      <stop
         offset="1"
         stop-color="#9a9996"
         id="stop22" />
    </linearGradient>
    <linearGradient
       xlink:href="#a"
       id="x"
       x1="92"
       x2="104"
       y1="244"
       y2="244"
       gradientTransform="matrix(.83333 0 0 .82143 -26.667 -178.429)" />
    <linearGradient
       id="i"
       x1="16"
       x2="128"
       y1="74"
       y2="74"
       gradientTransform="matrix(1 0 0 .76924 -26.998 22.296)"
       gradientUnits="userSpaceOnUse">
      <stop
         offset="0"
         stop-color="#3d3846"
         id="stop23" />
      <stop
         offset=".036"
         stop-color="#5e5c64"
         id="stop24" />
      <stop
         offset=".071"
         stop-color="#3d3846"
         id="stop25" />
      <stop
         offset=".929"
         stop-color="#3d3846"
         id="stop26" />
      <stop
         offset=".964"
         stop-color="#5e5c64"
         id="stop27" />
      <stop
         offset="1"
         stop-color="#3d3846"
         id="stop28" />
    </linearGradient>
    <linearGradient
       id="k"
       x1="84"
       x2="104"
       y1="258"
       y2="258"
       gradientTransform="rotate(-90 -23.89 155.109)"
       gradientUnits="userSpaceOnUse">
      <stop
         offset="0"
         stop-color="#46a2ed"
         id="stop29" />
      <stop
         offset="1"
         stop-color="#41c6f1"
         id="stop30" />
    </linearGradient>
    <linearGradient
       id="n"
       x1="50"
       x2="70"
       y1="258"
       y2="258"
       gradientTransform="rotate(-90 -57.89 155.109)"
       gradientUnits="userSpaceOnUse">
      <stop
         offset="0"
         stop-color="#c9c8c5"
         id="stop31" />
      <stop
         offset="1"
         stop-color="#f6f5f4"
         id="stop32" />
    </linearGradient>
    <linearGradient
       id="p"
       x1="84"
       x2="104"
       y1="258"
       y2="258"
       gradientTransform="rotate(-90 -5.89 173.109)"
       gradientUnits="userSpaceOnUse">
      <stop
         offset="0"
         stop-color="#e5a50a"
         id="stop33" />
      <stop
         offset="1"
         stop-color="#f6d32d"
         id="stop34" />
    </linearGradient>
    <linearGradient
       id="r"
       x1="50"
       x2="70"
       y1="258"
       y2="258"
       gradientTransform="rotate(-90 -39.89 173.109)"
       gradientUnits="userSpaceOnUse">
      <stop
         offset="0"
         stop-color="#576ce3"
         id="stop35" />
      <stop
         offset="0"
         stop-color="#bb34b1"
         id="stop36" />
      <stop
         offset="1"
         stop-color="#e31f9e"
         id="stop37" />
    </linearGradient>
    <linearGradient
       id="z"
       x1="72.062"
       x2="40.97"
       y1="230.291"
       y2="310.562"
       gradientTransform="matrix(.59942 -.89267 .96545 .47336 -261.508 3.23)"
       gradientUnits="userSpaceOnUse">
      <stop
         offset="0"
         stop-color="#1ebef1"
         id="stop38" />
      <stop
         offset="1"
         stop-color="#2509e8"
         id="stop39" />
    </linearGradient>
    <linearGradient
       id="B"
       x1="16"
       x2="30"
       y1="86"
       y2="86"
       gradientTransform="rotate(-15 -101.733 169.572)"
       gradientUnits="userSpaceOnUse">
      <stop
         offset="0"
         stop-color="#f6f5f4"
         stop-opacity=".502"
         id="stop40" />
      <stop
         offset="1"
         stop-color="#fff"
         stop-opacity="0"
         id="stop41" />
    </linearGradient>
    <linearGradient
       id="D"
       x1="-2.958"
       x2="62.958"
       y1="42"
       y2="42"
       gradientTransform="rotate(-15 -101.733 169.572)"
       gradientUnits="userSpaceOnUse">
      <stop
         offset="0"
         stop-color="#241f31"
         id="stop42" />
      <stop
         offset=".288"
         stop-color="#77767b"
         id="stop43" />
      <stop
         offset=".652"
         stop-color="#2f2840"
         id="stop44" />
      <stop
         offset="1"
         stop-color="#241f31"
         id="stop45" />
    </linearGradient>
    <linearGradient
       id="F"
       x1="4"
       x2="56"
       y1="38.5"
       y2="38.5"
       gradientTransform="rotate(-15 -101.733 169.572)"
       gradientUnits="userSpaceOnUse">
      <stop
         offset="0"
         stop-color="#fff"
         stop-opacity="0"
         id="stop46" />
      <stop
         offset=".3"
         stop-color="#fff"
         stop-opacity=".263"
         id="stop47" />
      <stop
         offset="1"
         stop-color="#fff"
         stop-opacity="0"
         id="stop48" />
    </linearGradient>
    <linearGradient
       xlink:href="#b"
       id="f"
       x1="32.001"
       x2="32.001"
       y1="3.969"
       y2="59.971"
       gradientUnits="userSpaceOnUse"
       gradientTransform="translate(-96.083551)" />
    <clipPath
       id="c">
      <path
         d="M20 10h8v25h-8zm0 0"
         id="path48" />
    </clipPath>
    <clipPath
       id="y">
      <path
         d="M24 10c-6.629 0-12 5.371-12 12v22c0 2.21 1.79 4 4 4a2 2 0 0 1 2 2v7a2 2 0 0 1-2 2c-2.21 0-4 1.79-4 4v2h24v-2c0-2.21-1.79-4-4-4a2 2 0 0 1-2-2v-7a2 2 0 0 1 2-2c2.21 0 4-1.79 4-4V22c0-6.629-5.371-12-12-12m0 0"
         id="path49" />
    </clipPath>
    <clipPath
       id="A">
      <path
         d="M12 10h4v31h-4zm0 0"
         id="path50" />
    </clipPath>
    <clipPath
       id="v">
      <path
         d="M24 10c-6.629 0-12 5.371-12 12v22c0 2.21 1.79 4 4 4a2 2 0 0 1 2 2v7a2 2 0 0 1-2 2c-2.21 0-4 1.79-4 4v2h24v-2c0-2.21-1.79-4-4-4a2 2 0 0 1-2-2v-7a2 2 0 0 1 2-2c2.21 0 4-1.79 4-4V22c0-6.629-5.371-12-12-12m0 0"
         id="path51" />
    </clipPath>
    <clipPath
       id="s">
      <path
         d="M0 0h192v152H0z"
         id="path52" />
    </clipPath>
    <radialGradient
       id="l"
       cx="24"
       cy="53"
       r="14"
       gradientTransform="translate(-36 -35)"
       gradientUnits="userSpaceOnUse">
      <stop
         offset="0"
         stop-color="#26a269"
         id="stop52" />
      <stop
         offset=".7"
         stop-color="#26a269"
         stop-opacity=".478"
         id="stop53" />
      <stop
         offset="1"
         stop-color="#26a269"
         stop-opacity="0"
         id="stop54" />
    </radialGradient>
    <radialGradient
       id="C"
       cx="26"
       cy="190.167"
       r="14"
       gradientTransform="matrix(.96593 -.25882 .44369 1.65587 -128.106 -321.921)"
       gradientUnits="userSpaceOnUse">
      <stop
         offset="0"
         stop-color="#5e5c64"
         id="stop55" />
      <stop
         offset="1"
         stop-color="#241f31"
         id="stop56" />
    </radialGradient>
    <radialGradient
       id="E"
       cx="30"
       cy="186"
       r="14"
       gradientTransform="matrix(1.14893 -.30786 .25882 .96593 -97.362 -185.22)"
       gradientUnits="userSpaceOnUse">
      <stop
         offset="0"
         stop-color="#9a9996"
         stop-opacity="0"
         id="stop57" />
      <stop
         offset=".779"
         stop-color="#9a9996"
         stop-opacity="0"
         id="stop58" />
      <stop
         offset="1"
         stop-color="#77767b"
         id="stop59" />
    </radialGradient>
    <filter
       id="d"
       width="1"
       height="1"
       x="0"
       y="0">
      <feColorMatrix
         in="SourceGraphic"
         values="0 0 0 0 1 0 0 0 0 1 0 0 0 0 1 0 0 0 1 0"
         id="feColorMatrix59" />
    </filter>
    <filter
       id="u"
       width="1.2420333"
       height="1.1084602"
       x="-0.12101664"
       y="-0.0542301"
       style="color-interpolation-filters:sRGB">
      <feGaussianBlur
         stdDeviation="2.792"
         id="feGaussianBlur59" />
    </filter>
    <filter
       id="g"
       width="1.1341597"
       height="1.1700054"
       x="-0.067079866"
       y="-0.085002687"
       style="color-interpolation-filters:sRGB">
      <feGaussianBlur
         stdDeviation="1.186"
         id="feGaussianBlur60" />
    </filter>
    <mask
       id="t">
      <g
         filter="url(#c)"
         style="filter:url(#d)"
         id="g60">
        <path
           fill-opacity=".3"
           d="M0 0h128v128H0z"
           id="path60" />
      </g>
    </mask>
    <filter
       id="filter1057-7"
       x="-0.026999999"
       y="-0.026999999"
       width="1.054"
       height="1.054"
       color-interpolation-filters="sRGB">
      <feGaussianBlur
         stdDeviation="0.61875"
         id="feGaussianBlur1" />
    </filter>
    <linearGradient
       id="linearGradient1053-5"
       x1="-127"
       x2="-72"
       y1="60"
       y2="5"
       gradientTransform="matrix(1.0000071,0,0,1.0000071,131.50104,-0.51066142)"
       gradientUnits="userSpaceOnUse">
      <stop
         stop-color="#323741"
         offset="0"
         id="stop1-3" />
      <stop
         stop-color="#465064"
         offset="1"
         id="stop2-6" />
    </linearGradient>
  </defs>
  <rect
     transform="matrix(1.0000071,0,0,1.0000071,-2.2781468e-4,-2.2781468e-4)"
     x="4.5"
     y="4.5"
     width="55"
     height="55"
     ry="15"
     fill="#141414"
     filter="url(#filter1057-7)"
     opacity="0.3"
     stroke-linecap="round"
     stroke-width="2.7444"
     id="rect2" />
  <rect
     x="4.4996166"
     y="4.4996166"
     width="55.000767"
     height="55.000767"
     ry="15.000106"
     fill="url(#linearGradient1053-5)"
     stroke-linecap="round"
     stroke-width="2.74441"
     id="rect3"
     style="fill:#ffffff;fill-opacity:0.50196081" />
  <path
     fill="#5e5c64"
     d="M13.798 16.662H50.17c1.674 0 3.031 1.5 3.031 3.349V46.8c0 1.849-1.357 3.348-3.031 3.348H13.798c-1.674 0-3.03-1.5-3.03-3.348V20.01c0-1.849 1.356-3.348 3.03-3.348m0 0"
     style="stroke-width:.398232;fill:#000;fill-opacity:1;filter:url(#g);opacity:.50026129"
     id="path61" />
  <path
     fill="url(#h)"
     d="M-2.998 59.22h96a8 8 0 0 1 8 8v24a8 8 0 0 1-8 8h-96a8 8 0 0 1-8-8v-24a8 8 0 0 1 8-8m0 0"
     style="fill:url(#i)"
     transform="translate(14.758 12.375)scale(.38316)"
     id="path62" />
  <path
     fill="#5e5c64"
     d="M13.61 16.674h36.783a3.065 3.065 0 0 1 3.065 3.065V44.26a3.065 3.065 0 0 1-3.065 3.065H13.609a3.065 3.065 0 0 1-3.065-3.065V19.74a3.065 3.065 0 0 1 3.065-3.065zm0 0"
     id="path63" />
  <path
     fill="url(#j)"
     d="M79.002 19.22c7.73 0 14 6.27 14 14s-6.27 14-14 14-14-6.27-14-14 6.27-14 14-14m0 0"
     style="fill:url(#k)"
     transform="translate(14.758 12.375)scale(.38316)"
     id="path64" />
  <path
     fill="url(#l)"
     d="M45.002 19.22c7.73 0 14 6.27 14 14s-6.27 14-14 14-14-6.27-14-14 6.27-14 14-14m0 0"
     style="fill:url(#n)"
     transform="translate(14.758 12.375)scale(.38316)"
     id="path65" />
  <path
     fill="url(#o)"
     d="M79.002 55.22c7.73 0 14 6.27 14 14s-6.27 14-14 14-14-6.27-14-14 6.27-14 14-14m0 0"
     style="fill:url(#p)"
     transform="translate(14.758 12.375)scale(.38316)"
     id="path66" />
  <path
     fill="url(#q)"
     d="M45.002 55.22c7.73 0 14 6.27 14 14s-6.27 14-14 14-14-6.27-14-14 6.27-14 14-14m0 0"
     style="fill:url(#r)"
     transform="translate(14.758 12.375)scale(.38316)"
     id="path67" />
  <g
     clip-path="url(#s)"
     mask="url(#t)"
     transform="translate(4.414 -.185)scale(.38316)"
     id="g68">
    <path
       d="M72 52c-7.73 0-14 6.27-14 14q.045.756.172 1.5A13.997 13.997 0 0 1 72 55a14 14 0 0 1 13.871 12.148q.088-.573.129-1.148c0-7.73-6.27-14-14-14m34 0c-7.73 0-14 6.27-14 14q.045.756.172 1.5A13.997 13.997 0 0 1 106 55a14 14 0 0 1 13.871 12.148q.088-.573.129-1.148c0-7.73-6.27-14-14-14M72 88c-7.73 0-14 6.27-14 14q.045.756.172 1.5A13.997 13.997 0 0 1 72 91a14 14 0 0 1 13.871 12.148q.088-.573.129-1.148c0-7.73-6.27-14-14-14m34 0c-7.73 0-14 6.27-14 14q.045.756.172 1.5A13.997 13.997 0 0 1 106 91a14 14 0 0 1 13.871 12.148q.088-.573.129-1.148c0-7.73-6.27-14-14-14m0 0"
       id="path68" />
  </g>
  <g
     style="opacity:.498471;fill:#000;fill-opacity:1;filter:url(#u)"
     transform="translate(14.4 16.42)scale(.38316)"
     id="g74">
    <path
       fill="#fff"
       fill-opacity=".6"
       d="m-19.994 19.739 14.39 53.707c.914 3.41 4.15 7.655 6.728 10.062 3.366 3.143 5.683 6.736 7.979 11.257l10.263-2.75c-.273-5.063-.063-9.334 1.28-13.738 1.03-3.373 1.71-8.667.796-12.078L7.052 12.492Zm0 0"
       style="display:inline;fill:#000;fill-opacity:1"
       id="path69" />
    <path
       fill="url(#v)"
       d="M-18.377-28.317c7.467-2 15.146 2.432 17.146 9.9L3.946.9c2 7.467-2.433 15.146-9.9 17.146s-15.145-2.432-17.146-9.9l-5.177-19.318c-2-7.467 2.433-15.145 9.9-17.146zm0 0"
       style="fill:#000;fill-opacity:1"
       id="path70" />
    <path
       fill="url(#a)"
       d="M-31.276 12.41 13.157.502a3 3 0 0 1 3.674 2.122l1.553 5.795a3 3 0 0 1-2.122 3.675L-28.17 24a3 3 0 0 1-3.674-2.121l-1.553-5.796a3 3 0 0 1 2.121-3.674zm0 0"
       style="fill:#000;fill-opacity:1"
       id="path71" />
    <path
       fill-opacity=".149"
       d="m-32.362 19.947.518 1.932A2.996 2.996 0 0 0-28.17 24l44.432-11.905a2.996 2.996 0 0 0 2.122-3.675l-.518-1.932a2.996 2.996 0 0 1-2.121 3.675l-44.433 11.905a2.996 2.996 0 0 1-3.674-2.12zm0 0"
       style="fill:#000;fill-opacity:1"
       id="path72" />
    <path
       fill="url(#w)"
       d="M-28.277-11.17c-2-7.468 2.433-15.146 9.9-17.147s15.146 2.432 17.146 9.9"
       style="fill:#000;fill-opacity:1"
       id="path73" />
    <path
       fill="url(#x)"
       d="m-32.88 18.015-.517-1.932a2.996 2.996 0 0 1 2.121-3.674L13.157.503a2.996 2.996 0 0 1 3.674 2.122l.518 1.932a2.996 2.996 0 0 0-3.675-2.122l-44.432 11.906a2.996 2.996 0 0 0-2.122 3.674m0 0"
       style="fill:#000;fill-opacity:1"
       id="path74" />
  </g>
  <path
     fill="#fff"
     fill-opacity=".6"
     d="m6.74 23.982 5.513 20.579c.35 1.306 1.59 2.933 2.578 3.855 1.29 1.204 2.177 2.58 3.057 4.313l3.932-1.054c-.104-1.94-.024-3.576.491-5.263.394-1.293.655-3.321.305-4.628l-5.514-20.578Zm0 0"
     id="path75" />
  <path
     fill="url(#y)"
     d="M4.625 31.826c-2.731 1.14-2.914 4.052-3.405 6.748-.909 5.21-4.399 1.15-7.821 2.095-.67.184-1.285.717-1.834 1.442-.386.492-.717 1.127-.989 1.624L-1.74 72.41c.519 1.935 3.508 6.226 5.595 8.174 2.993 2.793 5.162 6.026 7.152 9.528l4.384-1.174c-.028-4.029.234-7.913 1.429-11.828.833-2.73 1.277-7.941.759-9.877L7.956 31.338c-1.236-.07-2.266.146-3.33.488zm0 0"
     style="fill:url(#z)"
     transform="translate(14.4 16.42)scale(.38316)"
     id="path76" />
  <path
     fill="url(#A)"
     d="m-19.994 19.739 14.39 53.707c.914 3.41 4.15 7.655 6.728 10.062 3.366 3.143 5.683 6.736 7.979 11.257l10.263-2.75c-.273-5.063-.063-9.334 1.28-13.738 1.03-3.373 1.71-8.667.796-12.078L7.052 12.492Zm0 0"
     style="fill:url(#B)"
     transform="translate(14.4 16.42)scale(.38316)"
     id="path77" />
  <path
     fill="none"
     stroke="#fff"
     stroke-linecap="round"
     stroke-opacity=".141"
     stroke-width="6.131"
     d="M15.371 44.354 10.097 24.67"
     id="path78" />
  <path
     fill="none"
     stroke="#fff"
     stroke-linecap="round"
     stroke-opacity=".302"
     stroke-width="1.533"
     d="M15.173 43.614 9.898 23.929"
     id="path79" />
  <path
     fill="url(#v)"
     d="M-18.377-28.317c7.467-2 15.146 2.432 17.146 9.9L3.946.9c2 7.467-2.433 15.146-9.9 17.146s-15.145-2.432-17.146-9.9l-5.177-19.318c-2-7.467 2.433-15.145 9.9-17.146zm0 0"
     style="fill:url(#C)"
     transform="translate(14.4 16.42)scale(.38316)"
     id="path80" />
  <path
     fill="url(#a)"
     d="M-31.276 12.41 13.157.502a3 3 0 0 1 3.674 2.122l1.553 5.795a3 3 0 0 1-2.122 3.675L-28.17 24a3 3 0 0 1-3.674-2.121l-1.553-5.796a3 3 0 0 1 2.121-3.674zm0 0"
     style="fill:url(#D)"
     transform="translate(14.4 16.42)scale(.38316)"
     id="path81" />
  <path
     fill-opacity=".149"
     d="m2 24.062.199.74c.164.615.793.978 1.407.813l17.025-4.562c.615-.164.978-.793.813-1.408l-.198-.74a1.15 1.15 0 0 1-.813 1.408L3.408 24.875A1.15 1.15 0 0 1 2 24.062m0 0"
     id="path82" />
  <path
     fill="url(#w)"
     d="M-28.277-11.17c-2-7.468 2.433-15.146 9.9-17.147s15.146 2.432 17.146 9.9"
     style="fill:url(#E)"
     transform="translate(14.4 16.42)scale(.38316)"
     id="path83" />
  <path
     fill="url(#x)"
     d="m-32.88 18.015-.517-1.932a2.996 2.996 0 0 1 2.121-3.674L13.157.503a2.996 2.996 0 0 1 3.674 2.122l.518 1.932a2.996 2.996 0 0 0-3.675-2.122l-44.432 11.906a2.996 2.996 0 0 0-2.122 3.674m0 0"
     style="fill:url(#F)"
     transform="translate(14.4 16.42)scale(.38316)"
     id="path84" />
</svg>
