<?xml version="1.0" encoding="UTF-8" standalone="no"?>
<svg
   xml:space="preserve"
   width="64"
   height="64"
   version="1.1"
   id="svg7"
   sodipodi:docname="fallout4.svg"
   inkscape:version="1.4.2 (ebf0e940d0, 2025-05-08)"
   xmlns:inkscape="http://www.inkscape.org/namespaces/inkscape"
   xmlns:sodipodi="http://sodipodi.sourceforge.net/DTD/sodipodi-0.dtd"
   xmlns="http://www.w3.org/2000/svg"
   xmlns:svg="http://www.w3.org/2000/svg"><defs
     id="defs7"><filter
       id="filter1057"
       x="-0.026999999"
       y="-0.026999999"
       width="1.054"
       height="1.054"
       color-interpolation-filters="sRGB"><feGaussianBlur
         stdDeviation="0.61875"
         id="feGaussianBlur2" /></filter><linearGradient
       id="linearGradient1053"
       x1="-127"
       x2="-72"
       y1="60"
       y2="5"
       gradientTransform="matrix(1.0000071,0,0,1.0000071,129.42553,-18.795742)"
       gradientUnits="userSpaceOnUse"><stop
         stop-color="#32d7ff"
         offset="0"
         id="stop3" /><stop
         stop-color="#329bff"
         offset="1"
         id="stop4" /></linearGradient><filter
       id="filter1057-9"
       x="-0.026999999"
       y="-0.026999999"
       width="1.054"
       height="1.054"
       color-interpolation-filters="sRGB"><feGaussianBlur
         stdDeviation="0.61875"
         id="feGaussianBlur1-1" /></filter><linearGradient
       id="linearGradient1053-2"
       x1="-127"
       x2="-72"
       y1="60"
       y2="5"
       gradientTransform="translate(212.4849,-37.52346)"
       gradientUnits="userSpaceOnUse"><stop
         stop-color="#2e55e7"
         offset="0"
         id="stop1-3-7" /><stop
         stop-color="#0d7eef"
         offset="1"
         id="stop2-6-0" /></linearGradient></defs><sodipodi:namedview
     id="namedview7"
     pagecolor="#505050"
     bordercolor="#eeeeee"
     borderopacity="1"
     inkscape:showpageshadow="0"
     inkscape:pageopacity="0"
     inkscape:pagecheckerboard="0"
     inkscape:deskcolor="#505050"
     inkscape:zoom="4.2315921"
     inkscape:cx="4.7263535"
     inkscape:cy="26.940215"
     inkscape:window-width="1920"
     inkscape:window-height="1003"
     inkscape:window-x="0"
     inkscape:window-y="0"
     inkscape:window-maximized="1"
     inkscape:current-layer="svg7" /><g
     id="g1"
     transform="translate(-80.985001,37.014999)"><rect
       x="85.485001"
       y="-32.514999"
       width="55"
       height="55"
       ry="15"
       fill="#141414"
       filter="url(#filter1057)"
       opacity="0.3"
       stroke-linecap="round"
       stroke-width="2.7444"
       id="rect3-9"
       style="filter:url(#filter1057-9)" /><rect
       x="85.484497"
       y="-32.515499"
       width="55.000999"
       height="55.000999"
       ry="15"
       fill="url(#linearGradient1053)"
       stroke-linecap="round"
       stroke-width="2.7444"
       id="rect4-7"
       style="fill:url(#linearGradient1053-2)" /></g><path
     id="path1"
     style="fill:#f9ef84;fill-opacity:1;stroke-width:2;stroke-linecap:round;stroke-linejoin:round;paint-order:stroke fill markers"
     d="M 32.197266 4.5 L 4.5 36.367188 L 4.5 38.693359 L 30.5 39 L 22.058594 59.5 L 35.871094 59.5 L 59.5 27.693359 L 59.5 25 L 34.5 25 L 44.75 4.5019531 C 44.667195 4.5006191 44.583135 4.5 44.5 4.5 L 32.197266 4.5 z " /><path
     d="M19.969 13.023c-2.193.329-4.192 2.478-4.282 4.702-.035.867.504 1.811.383 2.628-.175 1.17-1.053 2.027-.898 3.319.13 1.082 1.229 2.374 1.156 3.378-.057.788-.669 1.678-.923 2.43-.495 1.468-.798 3.024-.945 4.565-.46 4.835 1.07 10.071 4.546 13.548 1.313 1.313 2.962 1.945 4.39 3.043.55.423.788 1.154 1.288 1.64 1.108 1.078 2.5 1.548 3.998 1.763 3.335.478 7.413-1.277 9.252-4.09.656-1.003.605-2.546 1.319-3.399.8-.957 2.186-2.79 3.271-3.374.915-.492 1.853-.323 2.73-1.085 1.35-1.172 2.847-4.526.715-5.695 2.65-3.45 4.573-10.204 2.784-14.384-.675-1.577-1.548-3.213-2.786-4.42-.562-.548-1.345-.832-1.862-1.407-.947-1.053-1.236-2.635-2.425-3.487-1.046-.75-2.45-.493-3.594-.994-1.456-.638-2.271-2.253-4.01-2.36-1.778-.111-2.611 1.89-3.878 2.711-1.453.942-3.444.15-4.974.875-1.474.698-2.28 2.718-3.872 3.08-2.596.593-1.621-1.651-1.383-2.987m26.554 19.362h-.139c-.631-2.435-1.849-4.267-3.872-5.809V26.3c2.257-1.412 3.633-4.81.276-6.01-1.848-.66-3.382 1.125-5.117.71-1.634-.392-2.232-3.033-3.872-3.688-1.622-.649-3.242 1.679-4.84 1.752-1.116.05-1.854-1.269-3.043-1.094-2.784.41-3.764 5.004-6.915 4.41-3.136-.59-2.846-6.013-.83-7.56.085 1.826 1.979 2.796 3.596 2.05 1.17-.542 2.056-1.73 3.042-2.538.449-.368.958-.773 1.522-.943 1.254-.378 2.652.946 3.734.437 1.488-.702 1.978-3.31 3.734-3.532 1.546-.195 2.72 1.683 4.01 2.229 1.067.45 2.34.587 3.32 1.21 1.266.803 1.721 2.17 2.617 3.288.509.634 1.238 1.044 1.763 1.672 1.36 1.625 2.307 3.836 2.511 5.947.258 2.66-.69 5.263-1.497 7.745m-.692.968h-.138c-.782-1.652-1.513-3.205-2.779-4.564-.444-.477-1.273-1.56-1.785-.691 1.689.787 3.139 3.037 3.872 4.702.29.66.79 1.373.415 2.074-.89-1.88-2.011-4.408-4.149-5.117.141.907.977 1.304 1.555 1.949 1.02 1.138 2.3 2.862 2.456 4.413l-.968-.277c.291.637.818 1.121 1.041 1.798.525 1.588-.4 3.386-1.871 4.094-.734.352-1.83.098-2.418.653-1.013.954-1.696 2.28-2.705 3.262-1.267 1.235-2.81 2.061-4.143 3.194 1.078.234 2.064-.29 3.042-.692-.353 3.428-6.565 5.712-9.404 4.288V52.3c.924-.04 2.215-.175 2.904-.83-1.48.012-2.852.036-4.287-.418-9.2-2.913-12.612-13.546-9.727-22.125.6-1.781 1.483-3.955 2.747-5.375.638-.717 1.797-.82 2.554-1.447 1.135-.94 2.035-2.783 3.458-3.309 1.165-.43 2.215.844 3.32.978 1.565.19 2.842-1.094 4.425-.731 1.662.381 2.292 2.02 3.734 2.57 1.865.709 4.233-1.584 5.9.276.84.936.756 2.274-.106 3.153-.316.323-1.485.831-1.241 1.39.338.772 1.618 1.359 2.211 1.955 1.313 1.319 2.049 3.116 2.087 4.966M18.724 22.98l-1.66 2.905h-.276c-.226-.668-1.329-3.946.283-3.907.58.014 1.149.741 1.653 1.002m1.245 1.522c.515.39 2.453.562 2.959.055.35-.352.264-1.332-.347-1.336-.455-.004-.974.423-1.367.623-.42.213-.839.42-1.245.658m12.585.415 3.458 1.936c-.04-1.72-2.723-5.026-3.458-1.936m-11.88 2.91c-1.134.58-1.044 4.079.387 3.419 1.202-.555 1.04-4.146-.386-3.419m4.826 8.707c-.097-.895-1.166-1.753-.992-2.628.386-1.928 3.095-3.672 2.651-5.808-1.227.709-1.956 2.787-2.927 3.872-.47.525-1.209 1.094-1.41 1.798-.427 1.487 1.378 3.006 2.678 2.766m7.192-8.026c-1.308.278-1.386 3.895-.002 3.604 1.32-.277 1.365-3.894.002-3.604m10.925 6.366c-.096-.943-.632-1.835-1.385-2.415-.218-.168-.722-.543-.99-.258-.234.25.152.573.316.721.668.602 1.272 1.55 2.06 1.952m-2.628-.691.83 1.798h.553c-.023-.931-.404-1.647-1.383-1.798m-9.958 2.49c.036.447.272 1.075.012 1.482-.386.602-1.59.692-2.225.85-2.267.568-4.318.906-6.638.433-1.297-.265-2.886-.34-2.905-1.936-2.07 1.23-1.416 2.571-.415 4.287h.139c.55-1.179 1.25-.333 2.074.157 2.793 1.663 5.197 1.744 8.16.476.91-.39 2.343-1.64 3.313-1.622.772.015.549 1.176.698 1.68h.138c.333-.774.954-2.193.78-3.041-.207-1.013-2.239-2.369-3.131-2.767m0 2.397c.565-.085 1.73.243 1.158 1.023-.445.607-1.599.84-2.265 1.123-2.666 1.133-5.444 1.476-8.16.255-.6-.27-2.818-.837-2.634-1.736.16-.787 2.143.017 2.635.119 3.458.716 5.92-.284 9.266-.784m-8.022 5.21c.43.829 2.179 1.666 2.957.759.412-.48-.154-.846-.606-.843-.322.002-.644.074-.968.082-.46.011-.922.002-1.383.002"
     style="fill:#10100e;stroke:none"
     id="path2" /><path
     d="M46.523 32.385h-.139c-.631-2.435-1.849-4.267-3.872-5.809V26.3c2.257-1.412 3.633-4.81.276-6.01-1.848-.66-3.382 1.125-5.117.71-1.634-.392-2.232-3.033-3.872-3.688-1.622-.649-3.242 1.679-4.84 1.752-1.116.05-1.854-1.269-3.043-1.094-2.784.41-3.764 5.004-6.915 4.41-3.136-.59-2.846-6.013-.83-7.56.085 1.826 1.979 2.796 3.596 2.05 1.17-.542 2.056-1.73 3.042-2.538.449-.368.958-.773 1.522-.943 1.254-.378 2.652.946 3.734.437 1.488-.702 1.978-3.31 3.734-3.532 1.546-.195 2.72 1.683 4.01 2.229 1.067.45 2.34.587 3.32 1.21 1.266.803 1.721 2.17 2.617 3.288.509.634 1.238 1.044 1.763 1.672 1.36 1.625 2.307 3.836 2.511 5.947.258 2.66-.69 5.263-1.497 7.745m-.692.968h-.138c-.782-1.652-1.513-3.205-2.779-4.564-.444-.477-1.273-1.56-1.785-.691 1.689.787 3.139 3.037 3.872 4.702.29.66.79 1.373.415 2.074-.89-1.88-2.011-4.408-4.149-5.117.141.907.977 1.304 1.555 1.949 1.02 1.138 2.3 2.862 2.456 4.413l-.968-.277c.291.637.818 1.121 1.041 1.798.525 1.588-.4 3.386-1.871 4.094-.734.352-1.83.098-2.418.653-1.013.954-1.696 2.28-2.705 3.262-1.267 1.235-2.81 2.061-4.143 3.194 1.078.234 2.064-.29 3.042-.692-.353 3.428-6.565 5.712-9.404 4.288V52.3c.924-.04 2.215-.175 2.904-.83-1.48.012-2.852.036-4.287-.418-9.2-2.913-12.612-13.546-9.727-22.125.6-1.781 1.483-3.955 2.747-5.375.638-.717 1.797-.82 2.554-1.447 1.135-.94 2.035-2.783 3.458-3.309 1.165-.43 2.215.844 3.32.978 1.565.19 2.842-1.094 4.425-.731 1.662.381 2.292 2.02 3.734 2.57 1.865.709 4.233-1.584 5.9.276.84.936.756 2.274-.106 3.153-.316.323-1.485.831-1.241 1.39.338.772 1.618 1.359 2.211 1.955 1.313 1.319 2.049 3.116 2.087 4.966M18.724 22.98l-1.66 2.905h-.276c-.226-.668-1.329-3.946.283-3.907.58.014 1.149.741 1.653 1.002m1.245 1.522c.515.39 2.453.562 2.959.055.35-.352.264-1.332-.347-1.336-.455-.004-.974.423-1.367.623-.42.213-.839.42-1.245.658m12.585.415 3.458 1.936c-.04-1.72-2.723-5.026-3.458-1.936m-11.88 2.91c-1.134.58-1.044 4.079.387 3.419 1.202-.555 1.04-4.146-.386-3.419m4.826 8.707c-.097-.895-1.166-1.753-.992-2.628.386-1.928 3.095-3.672 2.651-5.808-1.227.709-1.956 2.787-2.927 3.872-.47.525-1.209 1.094-1.41 1.798-.427 1.487 1.378 3.006 2.678 2.766m7.192-8.026c-1.308.278-1.386 3.895-.002 3.604 1.32-.277 1.365-3.894.002-3.604m10.925 6.366c-.096-.943-.632-1.835-1.385-2.415-.218-.168-.722-.543-.99-.258-.234.25.152.573.316.721.668.602 1.272 1.55 2.06 1.952m-2.628-.691.83 1.798h.553c-.023-.931-.404-1.647-1.383-1.798m-9.958 2.49c.036.447.272 1.075.012 1.482-.386.602-1.59.692-2.225.85-2.267.568-4.318.906-6.638.433-1.297-.265-2.886-.34-2.905-1.936-2.07 1.23-1.416 2.571-.415 4.287h.139c.55-1.179 1.25-.333 2.074.157 2.793 1.663 5.197 1.744 8.16.476.91-.39 2.343-1.64 3.313-1.622.772.015.549 1.176.698 1.68h.138c.333-.774.954-2.193.78-3.041-.207-1.013-2.239-2.369-3.131-2.767m0 2.397c.565-.085 1.73.243 1.158 1.023-.445.607-1.599.84-2.265 1.123-2.666 1.133-5.444 1.476-8.16.255-.6-.27-2.818-.837-2.634-1.736.16-.787 2.143.017 2.635.119 3.458.716 5.92-.284 9.266-.784m-8.022 5.21c.43.829 2.179 1.666 2.957.759.412-.48-.154-.846-.606-.843-.322.002-.644.074-.968.082-.46.011-.922.002-1.383.002"
     style="fill:#faecd9;stroke:none;fill-opacity:1"
     id="path3" /><path
     d="M46.523 32.385h-.139c-.631-2.435-1.849-4.267-3.872-5.809V26.3c2.257-1.412 3.633-4.81.276-6.01-1.848-.66-3.382 1.125-5.117.71-1.634-.392-2.232-3.033-3.872-3.688-1.622-.649-3.242 1.679-4.84 1.752-1.116.05-1.854-1.269-3.043-1.094-2.784.41-3.764 5.004-6.915 4.41-3.136-.59-2.846-6.013-.83-7.56.085 1.826 1.979 2.796 3.596 2.05 1.17-.542 2.056-1.73 3.042-2.538.449-.368.958-.773 1.522-.943 1.254-.378 2.652.946 3.734.437 1.488-.702 1.978-3.31 3.734-3.532 1.546-.195 2.72 1.683 4.01 2.229 1.067.45 2.34.587 3.32 1.21 1.266.803 1.721 2.17 2.617 3.288.509.634 1.238 1.044 1.763 1.672 1.36 1.625 2.307 3.836 2.511 5.947.258 2.66-.69 5.263-1.497 7.745M18.724 22.98l-1.66 2.905h-.276c-.226-.668-1.329-3.946.283-3.907.58.014 1.149.741 1.653 1.002"
     style="fill:#f9ef84;fill-opacity:1;stroke:none"
     id="path4" /><path
     d="M31.033 39.069c.565-.085 1.73.243 1.158 1.023-.445.607-1.599.84-2.265 1.123-2.666 1.133-5.444 1.476-8.16.255-.6-.27-2.818-.837-2.634-1.736.16-.787 2.143.017 2.635.119 3.458.716 5.92-.284 9.266-.784"
     style="fill:#fff;stroke:none"
     id="path5" /><path
     d="M34.084 10.281a2 2 0 0 0-.285.014c-.725.091-1.231.594-1.684 1.197.51.798.99 1.824 1.125 3.043.12 1.08.052 1.97-.082 2.666.214-.006.427.024.64.11 1.641.655 2.24 3.297 3.874 3.689 1.734.416 3.268-1.37 5.117-.709 3.356 1.2 1.98 4.596-.277 6.008v.277c2.023 1.542 3.241 3.374 3.873 5.809h.138c.808-2.482 1.754-5.084 1.497-7.744-.205-2.111-1.15-4.323-2.51-5.948-.526-.627-1.255-1.037-1.764-1.672-.896-1.116-1.351-2.485-2.617-3.289-.98-.622-2.252-.758-3.318-1.209-1.21-.511-2.32-2.194-3.727-2.242m-1.418 8.698c-.049 0-.096.01-.145.013.003.004.888 1.763 1.698 4.856.89.533 1.77 2.026 1.793 3.006l-1.274-.713c.568 2.865.96 6.475.719 10.65-.584 10.09-6.19 13.172-8.68 14.346 1.325.36 2.606.345 3.979.334-.69.654-1.98.79-2.904.83v.138c2.838 1.425 9.05-.86 9.404-4.289-.978.402-1.965.926-3.043.692 1.332-1.133 2.877-1.959 4.144-3.194 1.01-.982 1.693-2.307 2.706-3.261.588-.555 1.684-.3 2.417-.653 1.472-.707 2.396-2.505 1.872-4.093-.224-.677-.75-1.162-1.041-1.8l.966.278c-.155-1.55-1.435-3.276-2.455-4.414-.578-.645-1.413-1.04-1.554-1.947 2.137.709 3.257 3.237 4.148 5.117.375-.701-.125-1.416-.416-2.076-.733-1.665-2.182-3.914-3.871-4.701.512-.868 1.34.214 1.785.691 1.266 1.359 1.997 2.912 2.78 4.565h.138c-.038-1.85-.775-3.648-2.088-4.967-.593-.596-1.873-1.183-2.21-1.955-.245-.558.923-1.066 1.24-1.389.862-.88.945-2.217.105-3.154-1.666-1.86-4.033.432-5.899-.278-1.441-.548-2.071-2.187-3.734-2.568a2.6 2.6 0 0 0-.58-.064m8.814 13.119c.265-.007.589.235.752.361.754.58 1.29 1.473 1.387 2.416-.787-.402-1.393-1.35-2.06-1.953-.165-.149-.55-.47-.315-.72a.32.32 0 0 1 .236-.104m-.49 2.086c.98.15 1.36.866 1.383 1.796h-.553z"
     style="opacity:1;mix-blend-mode:normal;fill:#f0d9bc;fill-opacity:1;stroke-width:2;stroke-linecap:round;stroke-linejoin:round;paint-order:stroke fill markers"
     id="path6" /><path
     d="M34.084 10.281a1.8 1.8 0 0 0-.576.076q-.05.016-.098.036a1.9 1.9 0 0 0-.54.298l-.026.022c-.267.21-.503.479-.725.773l-.004.006c.51.798.99 1.824 1.125 3.043.12 1.08.052 1.97-.082 2.666q.147-.005.293.018l.028.002h.003q.159.026.317.09.153.06.295.144l.002.002c.189.11.364.249.529.404.248.235.474.51.69.801v.002c.287.387.558.8.845 1.17.144.185.292.36.447.516.312.313.656.552 1.065.65q.162.038.322.053c.321.03.637-.008.95-.082q.31-.077.62-.188.312-.111.624-.23c.31-.117.624-.23.943-.307q.16-.039.322-.064a3 3 0 0 1 .656-.034c.223.016.449.06.68.143.411.147.75.328 1.025.533l.018.012h.002l.02.018q.196.15.35.316.16.176.275.367a2.2 2.2 0 0 1 .292.81c.153.99-.325 2.096-1.109 2.975v.002a5.3 5.3 0 0 1-1.15.975v.277c1.012.771 1.822 1.614 2.459 2.569v.001c.317.478.591.982.826 1.52q.351.806.588 1.719h.138c.303-.931.626-1.879.897-2.84.27-.961.49-1.937.588-2.922q.05-.492.054-.988.005-.495-.042-.994a10 10 0 0 0-.288-1.592q-.104-.397-.238-.79a12 12 0 0 0-.646-1.527 11 11 0 0 0-1.338-2.039 4.5 4.5 0 0 0-.426-.437q-.227-.204-.463-.397a8 8 0 0 1-.674-.611 4 4 0 0 1-.2-.227 10 10 0 0 1-.61-.873c-.189-.297-.369-.597-.56-.888-.289-.437-.603-.852-1.009-1.201a4 4 0 0 0-.44-.327 4.6 4.6 0 0 0-.782-.388c-.548-.215-1.136-.358-1.705-.53a8 8 0 0 1-.83-.29 3 3 0 0 1-.442-.239l-.014-.008c-.058-.037-.117-.083-.175-.125-.105-.073-.21-.146-.315-.228l-.01-.008c-.286-.227-.574-.476-.867-.713q-.113-.089-.228-.176a7 7 0 0 0-.264-.191 4.4 4.4 0 0 0-.51-.307q-.056-.029-.113-.054-.059-.024-.117-.045-.075-.031-.15-.057l-.008-.002a2 2 0 0 0-.237-.059h-.004a2 2 0 0 0-.273-.03"
     style="fill:#d6d266;fill-opacity:1;stroke:none"
     id="path7" /></svg>
