<?xml version="1.0" encoding="UTF-8" standalone="no"?>
<svg
   xml:space="preserve"
   width="64"
   height="64"
   version="1.1"
   id="svg2"
   sodipodi:docname="far-cry-6.svg"
   inkscape:version="1.4.2 (ebf0e940d0, 2025-05-08)"
   xmlns:inkscape="http://www.inkscape.org/namespaces/inkscape"
   xmlns:sodipodi="http://sodipodi.sourceforge.net/DTD/sodipodi-0.dtd"
   xmlns="http://www.w3.org/2000/svg"
   xmlns:svg="http://www.w3.org/2000/svg"><sodipodi:namedview
     id="namedview2"
     pagecolor="#505050"
     bordercolor="#eeeeee"
     borderopacity="1"
     inkscape:showpageshadow="0"
     inkscape:pageopacity="0"
     inkscape:pagecheckerboard="0"
     inkscape:deskcolor="#505050"
     inkscape:zoom="5.984375"
     inkscape:cx="17.712794"
     inkscape:cy="35.926893"
     inkscape:window-width="1920"
     inkscape:window-height="1003"
     inkscape:window-x="0"
     inkscape:window-y="0"
     inkscape:window-maximized="1"
     inkscape:current-layer="svg2" /><defs
     id="defs2"><linearGradient
       id="a"
       x1="7.937"
       x2="7.937"
       y1="15.081"
       y2="1.852"
       gradientTransform="matrix(3.7796,0,0,3.7796,-4.0659989,-8.3270004)"
       gradientUnits="userSpaceOnUse"><stop
         offset="0"
         stop-color="#363636"
         style="stop-color:#171717;stop-opacity:1"
         id="stop1" /><stop
         offset="1"
         stop-color="#6c6c6c"
         style="stop-color:#2c2c2c;stop-opacity:1"
         id="stop2" /></linearGradient><filter
       id="filter1057"
       x="-0.026999999"
       y="-0.026999999"
       width="1.054"
       height="1.054"
       color-interpolation-filters="sRGB"><feGaussianBlur
         stdDeviation="0.61875"
         id="feGaussianBlur3" /></filter><linearGradient
       id="linearGradient1053-6"
       x1="-127"
       x2="-72"
       y1="60"
       y2="5"
       gradientTransform="translate(219.48001,-13.524956)"
       gradientUnits="userSpaceOnUse"><stop
         stop-color="#0a0a0a"
         offset="0"
         id="stop3-3" /><stop
         stop-color="#323232"
         stop-opacity=".99608"
         offset="1"
         id="stop4-6" /></linearGradient></defs><g
     id="g2"
     transform="translate(-87.985001,13.014999)"><rect
       x="92.485001"
       y="-8.5149994"
       width="55"
       height="55"
       ry="15"
       fill="#141414"
       filter="url(#filter1057)"
       opacity="0.3"
       stroke-linecap="round"
       stroke-width="2.7444"
       id="rect8" /><rect
       x="92.485001"
       y="-8.5149994"
       width="55"
       height="55"
       ry="15"
       fill="url(#linearGradient1053)"
       stroke-linecap="round"
       stroke-width="2.7444"
       id="rect9"
       style="fill:url(#linearGradient1053-6)" /></g><path
     d="M32.092 42.406a32 32 0 0 0-.695-.1c-2.556-.34-5.161-1.784-6.851-3.799-.419-.499-.915-1.198-1.148-1.616-.266-.48-.48-.902-.567-1.123-.05-.127-.122-.3-.16-.386-.181-.407-.42-1.241-.538-1.879l-.106-.566c-.104-.538-.167-1.72-.109-2.03.032-.168.058-.428.058-.577 0-.15.02-.382.046-.518s.075-.41.11-.608c.122-.705.496-1.892.8-2.539a7 7 0 0 0 .177-.396c0-.04.523-.918.725-1.218.545-.808 1.467-1.805 2.26-2.443 1.201-.966 2.541-1.637 4.098-2.054.96-.257 1.429-.291 4.333-.315l2.69-.023-.013 4.34-.013 4.34h-4.685l-.026-1.751-.025-1.75-.126-.018c-.126-.018-.589.06-.93.156-1.194.336-2.599 1.552-3.177 2.75-.27.557-.581 1.668-.581 2.07 0 .137-.026.386-.057.554-.058.313.002 1.132.117 1.592.07.276.238.884.307 1.107.107.346.468 1.007.755 1.382.8 1.044 1.95 1.832 3.31 2.266.126.04.927.059 2.582.059 1.32 0 2.435.014 2.48.031.073.028.082.303.082 2.574v2.543l-2.433-.007c-1.338-.004-2.548-.025-2.69-.048m14.055-.019c-1.379-.279-2.92-1.174-4.172-2.423-.759-.757-1.251-1.406-1.616-2.128-.195-.387-.467-1.197-.467-1.39 0-.076-.04-.3-.089-.498-.079-.322-.09-.795-.106-4.453-.013-3-.002-4.189.043-4.453.269-1.578 1.49-3.548 2.984-4.814.183-.155.345-.297.36-.314.092-.11 1.054-.706 1.408-.872.77-.361 1.42-.472 2.813-.482l.747-.005.013 2.767c.01 2.196 0 2.768-.051 2.77-.036.002-.371 0-.745-.002-.529-.004-.716.013-.838.077-.275.142-.627.563-.87 1.04-.096.192-.11.303-.11.963v.746l3.309.016c3.248.016 3.317.019 3.822.136 2.273.527 3.432 1.41 3.969 3.02.236.71.329 1.537.33 2.95 0 1.168-.024 1.47-.187 2.378-.262 1.454-.976 2.64-2.131 3.54a9.3 9.3 0 0 1-1.44.87c-.28.13-1.06.393-1.416.478l-.463.111c-.114.028-.772.043-1.468.035l-1.261-.015v-4.942l.54-.031c.602-.034.681-.052 1.07-.239.746-.357 1.161-1.398.92-2.304-.182-.684-.524-1.136-.992-1.311-.265-.1-.394-.105-2.39-.105h-2.108v.754c0 .414-.027.955-.06 1.201-.076.57-.007.842.303 1.187.367.41 1.254.77 1.89.77.168 0 .296.028.332.07.042.052.055.752.045 2.51l-.013 2.44-.798.007c-.454.005-.931-.02-1.107-.055m-39.272-.012c-.02-.019-.035-5.011-.035-11.094V20.22h15.033v5.045h-9.37v3.604h3.212c2.882 0 3.216.008 3.244.081.017.045.031 1.167.031 2.493 0 2.124-.01 2.422-.08 2.493-.073.072-.438.08-3.244.08h-3.163v4.135c0 3.147-.014 4.149-.061 4.196s-.739.061-2.798.061c-1.504 0-2.75-.015-2.77-.034m44.343-14.7c0-.37-.19-.791-.47-1.044-.38-.344-.907-.522-1.718-.581l-.515-.038v-5.457l1.442-.016c.928-.01 1.542.005 1.724.042 1.552.318 3.231 1.526 4.256 3.063.653.978.942 1.841.943 2.816 0 .303-.02.564-.047.58-.026.016-.23.054-.45.084-.42.056-.756.104-1.407.2l-.72.104a111 111 0 0 0-1.39.206c-.67.104-1.047.156-1.352.189l-.296.031z"
     style="fill:#d8823d;fill-opacity:1;stroke-width:1.03151"
     id="path2" /></svg>
