<?xml version="1.0" encoding="UTF-8" standalone="no"?>
<svg
   xml:space="preserve"
   width="64"
   height="64"
   version="1.1"
   id="svg2"
   sodipodi:docname="far-cry.svg"
   inkscape:version="1.4.2 (ebf0e940d0, 2025-05-08)"
   xmlns:inkscape="http://www.inkscape.org/namespaces/inkscape"
   xmlns:sodipodi="http://sodipodi.sourceforge.net/DTD/sodipodi-0.dtd"
   xmlns="http://www.w3.org/2000/svg"
   xmlns:svg="http://www.w3.org/2000/svg"><sodipodi:namedview
     id="namedview2"
     pagecolor="#505050"
     bordercolor="#eeeeee"
     borderopacity="1"
     inkscape:showpageshadow="0"
     inkscape:pageopacity="0"
     inkscape:pagecheckerboard="0"
     inkscape:deskcolor="#505050"
     inkscape:zoom="5.984375"
     inkscape:cx="43.947781"
     inkscape:cy="25.232376"
     inkscape:window-width="1920"
     inkscape:window-height="1003"
     inkscape:window-x="0"
     inkscape:window-y="0"
     inkscape:window-maximized="1"
     inkscape:current-layer="svg2" /><defs
     id="defs2"><linearGradient
       id="a"
       x1="7.937"
       x2="7.937"
       y1="15.081"
       y2="1.852"
       gradientTransform="scale(3.7796)"
       gradientUnits="userSpaceOnUse"><stop
         offset="0"
         stop-color="#363636"
         style="stop-color:#171717;stop-opacity:1"
         id="stop1" /><stop
         offset="1"
         stop-color="#6c6c6c"
         style="stop-color:#2c2c2c;stop-opacity:1"
         id="stop2" /></linearGradient><filter
       id="filter1057-2"
       x="-0.026999999"
       y="-0.026999999"
       width="1.054"
       height="1.054"
       color-interpolation-filters="sRGB"><feGaussianBlur
         stdDeviation="0.61875"
         id="feGaussianBlur1" /></filter><linearGradient
       id="linearGradient1053"
       x1="-127"
       x2="-72"
       y1="60"
       y2="5"
       gradientTransform="translate(191.485,-0.5250011)"
       gradientUnits="userSpaceOnUse"><stop
         stop-color="#1d2123"
         offset="0"
         id="stop1-3" /><stop
         stop-color="#33393e"
         stop-opacity=".99608"
         offset="1"
         id="stop2-6" /></linearGradient><filter
       id="filter1057"
       x="-0.026999999"
       y="-0.026999999"
       width="1.054"
       height="1.054"
       color-interpolation-filters="sRGB"><feGaussianBlur
         stdDeviation="0.61875"
         id="feGaussianBlur3" /></filter><linearGradient
       id="linearGradient1053-6"
       x1="-127"
       x2="-72"
       y1="60"
       y2="5"
       gradientTransform="translate(219.48001,-13.524956)"
       gradientUnits="userSpaceOnUse"><stop
         stop-color="#0a0a0a"
         offset="0"
         id="stop3-3" /><stop
         stop-color="#323232"
         stop-opacity=".99608"
         offset="1"
         id="stop4-6" /></linearGradient></defs><g
     id="g2"
     transform="translate(-87.985001,13.014999)"><rect
       x="92.485001"
       y="-8.5149994"
       width="55"
       height="55"
       ry="15"
       fill="#141414"
       filter="url(#filter1057)"
       opacity="0.3"
       stroke-linecap="round"
       stroke-width="2.7444"
       id="rect8" /><rect
       x="92.485001"
       y="-8.5149994"
       width="55"
       height="55"
       ry="15"
       fill="url(#linearGradient1053)"
       stroke-linecap="round"
       stroke-width="2.7444"
       id="rect9"
       style="fill:url(#linearGradient1053-6)" /></g><path
     d="M44.247 48.715c-.965-.187-2.2-.48-2.744-.652-6.676-2.11-11.02-7.073-11.783-13.46-.072-.603-.1-1.148-.064-1.212.114-.198 6.61-.095 6.813.108a.46.46 0 0 0 .395.12c.16-.042.15-.002-.038.15-.14.115-.256.316-.256.448 0 .14-.118.24-.283.24-.412 0-.5.245-.123.343.176.046.27.135.207.197-.062.063.204.18.592.263.46.098.704.225.704.368 0 .12-.082.202-.183.182s-.183.037-.183.128c0 .105.161.132.448.074.398-.08.438-.057.356.202-.057.178-.025.29.082.29.134 0 .134.048-.001.21-.096.117-.264.177-.372.136-.109-.042-.27.06-.36.228-.157.293-.13.304.77.304h.931l.682.877c2.15 2.768 5.964 4.138 10.837 3.894l1.919-.097.035.902c.03.758-.015.956-.287 1.245-.177.189-.467.343-.644.343-.548 0-1.34.41-1.426.736a.6.6 0 0 1-.384.389c-.625.163-.292.403.72.516.616.069.45.473-.217.527-.32.026-.665.116-.766.2a.46.46 0 0 1-.416.061c-.128-.049-.374.01-.546.13-.278.195-.283.22-.047.22.146 0 .453.11.681.245.356.21.5.22 1.013.066.7-.21 1.071-.08.65.228-.233.171-.244.224-.065.334.181.112.183.185.011.506l-.2.375-2.352-.012c-1.822-.01-2.746-.088-4.106-.352m6.653-5.923c0-.08-.099-.147-.22-.147-.12 0-.219.066-.219.147s.099.146.22.146c.12 0 .219-.066.219-.146m1.093 5.988c-.094-.151.439-.46.57-.33.167.168.096.301-.2.379-.161.042-.328.02-.37-.049m-37.47-1.273-2.82-.043.042-1.715.041-1.714.731.04c.707.039 1.265-.14 1.064-.342-.054-.053-.283-.11-.508-.125s-.627-.163-.892-.33l-.483-.302.527-.312c.406-.24.788-.315 1.653-.326a44 44 0 0 0 2.44-.124l1.317-.107-1.39-.042a63 63 0 0 0-2.12-.03c-.402.006-1.109-.126-1.571-.292l-.841-.303V16.033l.621-.02c1.834-.057 17.559.033 17.67.102.21.13.169 6.257-.043 6.469-.13.13-1.43.175-4.946.175h-4.772l-.708-.358c-.39-.197-.757-.328-.817-.291s-.276.003-.48-.075c-.37-.14-.68.03-.386.211.082.05.148.281.148.512 0 .323.076.43.328.467.455.064.512.526.085.69l-.34.129.386.1q.386.102.407.418c.01.175.053 1.107.093 2.072.041.965.103 1.837.138 1.938.049.14.924.183 3.706.183 3.06 0 3.672.035 3.824.219.1.12.273.22.384.22.153 0 .201.262.201 1.096 0 1.051-.014 1.096-.34 1.096-.318 0-.339.05-.298.731.039.647 0 .76-.33.976-.205.134-.609.283-.897.33-.288.046-.55.166-.584.266-.078.235.755.088 1.314-.233.374-.214.415-.21.62.057.279.361.162.932-.261 1.282-.295.244-.566.258-3.471.173-1.733-.051-3.329-.048-3.546.007-.35.088-.395.168-.395.712 0 .337-.079.691-.176.788-.136.136-.136.175 0 .175.133 0 .176 1.182.176 4.88 0 5.346-.004 5.368-.807 5.062-.454-.172-.65-.082-.39.18.346.345.052.961-.387.812-.054-.019-1.366-.053-2.917-.077m12.371-17.631c.052-.269-.086-.308-.395-.112-.23.146-.078.497.178.412.094-.031.191-.166.217-.3m23.421 17.391c0-.032.099-.095.22-.142.12-.046.219-.02.219.058s-.099.141-.22.141c-.12 0-.219-.025-.219-.057m1.507-1.003c.441-.746.742-.8.805-.146.039.4-.016.5-.338.622-.772.293-.865.199-.467-.476m-.776-.402c-.188-.121-.184-.142.032-.144.138 0 .32-.134.407-.294.115-.216.298-.29.7-.28l.543.011-.457.2c-.251.11-.496.303-.544.427-.099.257-.36.288-.68.08m-39.772-2.047c0-.08.103-.146.228-.146.126 0 .188.066.138.146s-.152.146-.228.146-.138-.065-.138-.146m0-1.38c0-.167.596-.374 1.071-.374.29 0-.12.291-.605.43-.354.102-.466.088-.466-.057m35.76-.71c-.634-.155-.338-.178 2.454-.187 2.267-.008 3.13.033 3.017.146-.228.228-4.57.26-5.47.04m-1.288-.346c.1-.04.265-.04.365 0s.019.074-.183.074c-.2 0-.283-.034-.182-.074M29.64 32.884c-.048-.047-.086-.437-.086-.866 0-.708.03-.78.329-.79l.329-.01-.34-.163c-.309-.149-.33-.227-.244-.904.17-1.334.778-3.52 1.285-4.626 1.352-2.946 3.63-5.727 5.806-7.086 1.724-1.078 4.334-2.093 6.506-2.53 1.502-.301 4.171-.478 6.58-.434l2.486.045.046.475c.026.267-.022.475-.11.475-.085 0-.155-.066-.155-.146s-.099-.146-.22-.146c-.345 0-.257.563.147.937l.365.339v6.088c0 4.916-.037 6.088-.191 6.088-.105 0-.402-.3-.66-.665s-.534-.626-.613-.577c-.24.148-.162.49.148.657.161.086.293.253.293.37 0 .182-.463.215-2.995.215h-2.995l-.04-3.4-.039-3.4-.438.045c-2.198.224-4.72 2.037-5.892 4.235-.524.984-1.054 2.844-1.054 3.703 0 1.44-.711 1.798-3.874 1.954-3.918.192-4.289.202-4.374.117m21.847-7.705c0-.036-.066-.105-.146-.155s-.147-.02-.147.064c0 .086.066.155.147.155s.146-.029.146-.064M29.27 29.254c.007-.17.042-.205.088-.088.042.105.037.231-.011.28-.049.049-.083-.038-.077-.192m-9.662-.937c0-.095 1.201-.147 3.387-.147 1.863 0 3.354.034 3.312.075-.153.153-6.7.224-6.7.072m9.954-.525c.007-.17.042-.205.089-.088.042.105.037.231-.012.28-.048.048-.083-.038-.077-.192m.135-.512c0-.245.469-1.665.84-2.547.685-1.621 2.979-4.553 4.634-5.921 2.542-2.103 6.172-3.417 10.496-3.8 2.47-.219 6.88-.196 6.804.034-.045.137-.999.206-3.777.273-4.217.101-5.86.32-8.128 1.078-3.558 1.19-6.028 2.996-8.132 5.945-.92 1.289-2.075 3.4-2.307 4.22-.199.7-.43 1.086-.43.718m15.072-1.828c.007-.17.042-.205.089-.088.042.106.037.232-.012.28s-.083-.037-.077-.192m-33.423-9.857c.06-.095 3.392-.147 9.522-.147 6.25 0 9.4.05 9.34.147-.058.095-3.391.146-9.52.146-6.251 0-9.402-.05-9.342-.146"
     style="fill:#fff;fill-opacity:1;stroke-width:.385447"
     id="path2" /></svg>
