<?xml version="1.0" encoding="UTF-8" standalone="no"?>
<svg
   xml:space="preserve"
   width="64"
   height="64"
   version="1.1"
   id="svg4"
   sodipodi:docname="far-cry-5.svg"
   inkscape:version="1.4.2 (ebf0e940d0, 2025-05-08)"
   xmlns:inkscape="http://www.inkscape.org/namespaces/inkscape"
   xmlns:sodipodi="http://sodipodi.sourceforge.net/DTD/sodipodi-0.dtd"
   xmlns="http://www.w3.org/2000/svg"
   xmlns:svg="http://www.w3.org/2000/svg"><sodipodi:namedview
     id="namedview4"
     pagecolor="#505050"
     bordercolor="#eeeeee"
     borderopacity="1"
     inkscape:showpageshadow="0"
     inkscape:pageopacity="0"
     inkscape:pagecheckerboard="0"
     inkscape:deskcolor="#505050"
     inkscape:zoom="8.4631843"
     inkscape:cx="30.48498"
     inkscape:cy="32.021044"
     inkscape:window-width="1920"
     inkscape:window-height="1003"
     inkscape:window-x="0"
     inkscape:window-y="0"
     inkscape:window-maximized="1"
     inkscape:current-layer="svg4" /><defs
     id="defs2"><linearGradient
       id="a"
       x1="7.937"
       x2="7.937"
       y1="15.081"
       y2="1.852"
       gradientTransform="matrix(3.7796,0,0,3.7796,-5.8949989,-6.7800004)"
       gradientUnits="userSpaceOnUse"><stop
         offset="0"
         stop-color="#363636"
         style="stop-color:#171717;stop-opacity:1"
         id="stop1" /><stop
         offset="1"
         stop-color="#6c6c6c"
         style="stop-color:#2c2c2c;stop-opacity:1"
         id="stop2" /></linearGradient><filter
       id="filter1057"
       x="-0.026999999"
       y="-0.026999999"
       width="1.054"
       height="1.054"
       color-interpolation-filters="sRGB"><feGaussianBlur
         stdDeviation="0.61875"
         id="feGaussianBlur3" /></filter><linearGradient
       id="linearGradient1053-6"
       x1="-127"
       x2="-72"
       y1="60"
       y2="5"
       gradientTransform="translate(219.48001,-13.524956)"
       gradientUnits="userSpaceOnUse"><stop
         stop-color="#0a0a0a"
         offset="0"
         id="stop3-3" /><stop
         stop-color="#323232"
         stop-opacity=".99608"
         offset="1"
         id="stop4-6" /></linearGradient></defs><g
     id="g2"
     transform="translate(-87.985001,13.014999)"><rect
       x="92.485001"
       y="-8.5149994"
       width="55"
       height="55"
       ry="15"
       fill="#141414"
       filter="url(#filter1057)"
       opacity="0.3"
       stroke-linecap="round"
       stroke-width="2.7444"
       id="rect8" /><rect
       x="92.485001"
       y="-8.5149994"
       width="55"
       height="55"
       ry="15"
       fill="url(#linearGradient1053)"
       stroke-linecap="round"
       stroke-width="2.7444"
       id="rect9"
       style="fill:url(#linearGradient1053-6)" /></g><path
     d="M20.677 44.31c-.049.015-.108.163-.339.831-.059.17-.143.406-.187.526l-.079.216-.8.015c-.475.008-.805.035-.815.066-.009.028.206.214.478.412s.563.417.647.489l.152.13-.237.72c-.248.757-.267.848-.183.848.029 0 .325-.198.661-.438s.643-.438.682-.438c.038 0 .36.208.714.462.354.253.66.442.681.42.021-.02-.006-.163-.06-.318a27 27 0 0 1-.225-.692c-.07-.226-.145-.45-.163-.496-.027-.065.124-.203.64-.588.372-.277.656-.521.633-.544s-.4-.047-.837-.055l-.797-.015-.258-.784c-.142-.431-.28-.776-.308-.767m11.321-.004c-.015 0-.028.02-.048.04-.038.041-.169.363-.29.716-.12.354-.237.684-.263.733-.04.077-.15.09-.826.103-.461.008-.787.035-.797.066-.009.028.187.195.434.37.248.174.542.394.652.49l.202.176-.267.775a18 18 0 0 0-.266.806c0 .072.105.01.72-.43.354-.254.681-.461.727-.462.046 0 .362.207.703.461.554.414.731.521.731.438 0-.033-.29-.946-.418-1.313l-.097-.282.211-.181c.116-.1.41-.318.654-.488.243-.17.443-.332.445-.36.002-.032-.32-.062-.82-.077l-.823-.026-.207-.617c-.257-.767-.312-.937-.357-.938m-22.693-.002q-.03-.005-.046.046c-.013.038-.082.255-.152.482-.153.49-.301.902-.357.99-.03.047-.256.065-.836.065-.612 0-.795.015-.795.066 0 .036.29.28.643.542s.644.504.643.538c0 .034-.115.392-.254.795-.176.508-.234.735-.187.735.037 0 .343-.197.68-.436.336-.24.64-.437.677-.438.066-.001.543.31 1.092.712.155.115.299.21.32.211.07.003.04-.117-.212-.86l-.25-.733.145-.15c.08-.084.365-.308.636-.499.27-.19.493-.376.493-.414 0-.055-.164-.07-.792-.07-.571 0-.805-.017-.842-.063-.055-.069-.188-.443-.376-1.055-.087-.285-.174-.454-.23-.464m33.979-.002q-.074-.013-.145.233c-.055.196-.277.928-.392 1.288-.015.047-.231.064-.846.064-.626 0-.825.015-.824.064 0 .035.204.208.45.384s.536.397.642.49l.19.168-.254.745c-.14.41-.254.776-.255.812-.002.128.137.051.744-.401.34-.254.65-.462.686-.462.074 0 .307.152.975.634.234.169.44.292.458.275.017-.017-.018-.153-.077-.303a9 9 0 0 1-.214-.632 20 20 0 0 0-.158-.514c-.048-.144-.038-.168.16-.34.116-.103.406-.323.642-.49.237-.167.424-.325.416-.353-.009-.03-.344-.062-.802-.077-.631-.02-.796-.041-.826-.103a4 4 0 0 1-.258-.696c-.218-.718-.239-.772-.312-.786m11.358-.016c-.089.037-.27.476-.47 1.148l-.133.449-.804.015c-.478.008-.813.035-.822.066-.01.028.207.214.48.412.272.198.563.418.646.489l.15.13-.241.745c-.134.41-.252.761-.264.782-.064.112.173.011.458-.194.684-.492.911-.64.976-.64.037.002.343.199.68.439.336.24.64.436.675.436.074 0 .059-.061-.258-1.002l-.19-.566.146-.12c.08-.065.373-.284.649-.486.275-.203.5-.399.5-.435 0-.05-.196-.068-.81-.078l-.81-.015-.254-.773c-.14-.424-.262-.78-.271-.793q-.014-.018-.033-.01"
     style="fill:#4d7fde;fill-opacity:1;stroke-width:1.00172"
     id="path2" /><path
     d="m42.685 20.418-.03.167a247 247 0 0 0-.294 1.66l-.1.565c-.056.3-.09.487-.2 1.132l-.11.618c-.056.3-.088.492-.198 1.132l-.11.617c-.055.3-.09.493-.2 1.132-.029.17-.078.447-.11.617-.055.3-.09.493-.2 1.132-.028.17-.078.45-.109.619-.055.3-.088.493-.198 1.132-.029.17-.079.447-.11.617l-.11.617c-.086.499-.13.757-.172.99l-.04.22h4.991l.293-.385c.468-.61.929-.962 1.52-1.156.264-.087.456-.107 1-.106 1.039 0 1.562.189 2.143.769.371.37.704.976.82 1.494.036.156.084.35.109.433.07.234.053.893-.035 1.317-.164.785-.498 1.398-1.037 1.904a2.8 2.8 0 0 1-1.928.772c-.415 0-1.202-.17-1.506-.323-.518-.262-1.25-1-1.438-1.45-.068-.164-.18-.826-.2-1.185l-.01-.207h-5.248l.013.773c.02 1.129.188 1.953.559 2.747.879 1.881 2.35 3.198 4.366 3.91.46.163 1.185.349 1.621.414.212.032.502.077.643.101.437.074 2.117.06 2.599-.02.779-.13.98-.178 1.537-.365 2.578-.862 4.493-2.81 5.326-5.412.379-1.184.48-2.713.258-3.949-.124-.695-.163-.857-.324-1.348-.323-.985-.753-1.786-1.353-2.524-.375-.46-.425-.514-.84-.868-.824-.705-1.761-1.15-2.972-1.416-.714-.156-2.571-.173-3.165-.03-.542.132-1.093.325-1.354.473a1.5 1.5 0 0 1-.265.13c-.063.001-.044-.203.066-.747.057-.282.127-.652.157-.822s.076-.413.101-.54l.075-.372.028-.141h3.538c2.753 0 3.56-.016 3.625-.066s1.634-4.608 1.634-4.744c0-.015-2.938-.028-6.528-.028z"
     style="fill:#d31717;fill-opacity:1;stroke-width:1.00172"
     id="path3" /><path
     d="m14.497 20.38-7.454.013-.013 11.01c-.008 6.055-.003 11.04.01 11.075.02.051.61.062 2.818.051l2.793-.012.025-4.193.026-4.194 3.204-.013 3.203-.013-.015-2.535-.012-2.533-3.204-.013-3.202-.013v-3.549h4.627c4.138 0 4.635-.009 4.707-.08.071-.072.08-.37.08-2.49 0-1.965-.012-2.42-.069-2.467-.051-.043-2.057-.054-7.524-.044m20.177-.002c-1.338.01-2.728.04-2.987.084l-.695.116c-.518.084-1.71.455-2.304.718-.861.381-1.735.91-2.352 1.421-.677.562-1.106.974-1.57 1.511-.74.859-1.264 1.7-1.761 2.828-.132.299-.592 1.754-.65 2.057a13.3 13.3 0 0 0-.264 2.572c0 .752.021.92.286 2.29.261 1.357 1.031 2.986 2.033 4.301 1.24 1.63 3.183 3.017 5.22 3.726.652.227 1.403.393 2.21.489.283.034.609.08.722.102.113.023 1.216.043 2.45.046 1.839.005 2.255-.006 2.303-.064.042-.05.054-.765.044-2.56l-.013-2.49-2.469-.025-2.47-.026-.41-.143a6.5 6.5 0 0 1-2.501-1.575c-.776-.777-1.19-1.47-1.445-2.423l-.097-.36c-.255-.938-.27-2.077-.04-3.113.094-.425.348-1.164.514-1.492.376-.746 1.097-1.525 1.896-2.052.765-.505.992-.59 2.178-.819.045-.008.067.44.087 1.764.016.976.033 1.78.039 1.788.006.007 1.073.013 2.372.013 2.106 0 2.364-.008 2.392-.08.017-.046.031-1.976.031-4.29 0-3.59-.01-4.218-.073-4.27-.05-.042-1.338-.054-2.676-.044"
     style="fill:#fff;stroke-width:1.00172"
     id="path4" /></svg>
