<?xml version="1.0" encoding="UTF-8" standalone="no"?>
<svg
   width="64"
   height="64"
   version="1.1"
   id="svg4"
   sodipodi:docname="far-cry-4.svg"
   inkscape:version="1.4.2 (ebf0e940d0, 2025-05-08)"
   xmlns:inkscape="http://www.inkscape.org/namespaces/inkscape"
   xmlns:sodipodi="http://sodipodi.sourceforge.net/DTD/sodipodi-0.dtd"
   xmlns="http://www.w3.org/2000/svg"
   xmlns:svg="http://www.w3.org/2000/svg">
  <sodipodi:namedview
     id="namedview4"
     pagecolor="#505050"
     bordercolor="#eeeeee"
     borderopacity="1"
     inkscape:showpageshadow="0"
     inkscape:pageopacity="0"
     inkscape:pagecheckerboard="0"
     inkscape:deskcolor="#505050"
     inkscape:zoom="5.984375"
     inkscape:cx="9.0234987"
     inkscape:cy="19.049608"
     inkscape:window-width="1920"
     inkscape:window-height="1003"
     inkscape:window-x="0"
     inkscape:window-y="0"
     inkscape:window-maximized="1"
     inkscape:current-layer="svg4" />
  <defs
     id="defs4">
    <linearGradient
       id="a"
       x1="7.937"
       x2="7.937"
       y1="15.081"
       y2="1.852"
       gradientTransform="scale(3.7796)"
       gradientUnits="userSpaceOnUse">
      <stop
         offset="0"
         stop-color="#171717"
         id="stop1" />
      <stop
         offset="1"
         stop-color="#2c2c2c"
         id="stop2" />
    </linearGradient>
    <linearGradient
       id="c"
       x1="5.409"
       x2="58.593"
       y1="31.921"
       y2="31.921"
       gradientUnits="userSpaceOnUse">
      <stop
         offset=".612"
         stop-color="#fff"
         id="stop3" />
      <stop
         offset=".612"
         stop-color="#fb7400"
         id="stop4" />
    </linearGradient>
    <filter
       id="filter1057"
       x="-0.026999999"
       y="-0.026999999"
       width="1.054"
       height="1.054"
       color-interpolation-filters="sRGB">
      <feGaussianBlur
         stdDeviation="0.61875"
         id="feGaussianBlur3" />
    </filter>
    <linearGradient
       id="linearGradient1053-6"
       x1="-127"
       x2="-72"
       y1="60"
       y2="5"
       gradientTransform="translate(219.48001,-13.524956)"
       gradientUnits="userSpaceOnUse">
      <stop
         stop-color="#0a0a0a"
         offset="0"
         id="stop3-3" />
      <stop
         stop-color="#323232"
         stop-opacity=".99608"
         offset="1"
         id="stop4-6" />
    </linearGradient>
  </defs>
  <g
     id="g2"
     transform="translate(-87.985001,13.014999)">
    <rect
       x="92.485001"
       y="-8.5149994"
       width="55"
       height="55"
       ry="15"
       fill="#141414"
       filter="url(#filter1057)"
       opacity="0.3"
       stroke-linecap="round"
       stroke-width="2.7444"
       id="rect8" />
    <rect
       x="92.485001"
       y="-8.5149994"
       width="55"
       height="55"
       ry="15"
       fill="url(#linearGradient1053)"
       stroke-linecap="round"
       stroke-width="2.7444"
       id="rect9"
       style="fill:url(#linearGradient1053-6)" />
  </g>
  <path
     fill="url(#c)"
     d="M49.435 42.813c-.699-.537 2.276-1.133 1.763-1.591-.649.8-2.737 1.102-1.078-.195 1.417-.757.568-3.192 2.425-2.787-1.83-.583.487-1.413.496-.284-.034 1.011.07 2.765-1.14 2.959 1.602-.668 1.08 2.712-.529 1.78-.648-.005-1.274.336-1.937.118m-42.062-.271c-.118-1.08-.152-3.035.521-3.129-1.003-.378-.254-.949.331-1.207-1.2.03-.846-.956-.885-1.778V21.267l14.377.025c-.011 1.597.068 3.198-.03 4.791-2.968.131-5.948.041-8.921.067v3.402l6.14.026c-.01 1.613.067 3.23-.03 4.84-2.029.133-4.074.04-6.11.067-.033 2.67.08 5.351-.078 8.011-1.754.155-3.548.062-5.315.045m1.151-3.027c-.245-.247-.386.243 0 .001m22.761 3.013c-3.65-.378-6.932-2.764-8.555-6.036-1.636.442.424-.428-.446-1.25.512-1.637.314-3.529.409-5.352-.713-1.796.45-3.47 1.545-4.8 2.215-2.784 5.883-4.104 9.381-3.815l2.746.018v8.335h-4.488l-.026-3.428c-2.49.173-4.368 2.44-4.652 4.827-.658.772-4.192.522-2.1.694 1.384-.443 2.21.58 1.22 1.187 1.545.246.325 1.307 1.354 1.369.926 2.17 3.245 3.702 5.633 3.364 1.458.056 3.902-.603 3.133 1.77-.043 1.484.59 3.897-1.75 3.16-1.134-.006-2.27.007-3.404-.043m17.262-.341c-1.247-1.145.701-4.027-1.065-3.843-2.554-.228-5.124-.053-7.674-.15-1.455-.466-1.016-2.739-.4-3.761.378-.881 3.982-.833 1.478-.906-.927-.176-2.325 1.805-1.793-.195.463-1.592 1.673-2.729 2.27-4.214.646-1.541 1.606-2.927 2.117-4.537.596-.488.833-.395 1.434-.76.683.694 3.305-.18 1.108.09-1.713.085-.341-1.915.182-2.436.51.213 1.608.844.602.037 1.706-.588 3.67-.603 5.429-.419 1.774.517.436 2.503.814 3.895a126 126 0 0 0-.085 3.891c.377 1.58-.217 3.613.537 4.955.848-.245 1.89-.02 1.145 1.083.344.52.536-1.165 1.058.082.487.858 1.402-.683.66.873-.716 1.746-1.533.56-1.849-.33-.518.88-.358 1.616.424.994.518 1.147-.532 2.03-1.496 1.107-.96-.993-4.397-1.301-4.139-.615 1.259-.776 3.013.381 1.679 1.635.524 1.619-2.087 2.753-2.039 3.184.074.207-.138.64-.397.34m.32-.932c-.312-1.143-.572-.628 0 0m-.136-3.514c.459-1.295-.727 1.211 0 0m-4.815-4.426c.13-.388-.838.375 0 0m3.293.011c.94-.56.069-2.407.78-3.23-.051-.487.02-3.278-.453-2.454-.718 1.482-1.904 2.522-2.466 4.23-.407.97-1.632 1.579.053 1.369.697.066 1.386.195 2.087.085m1.772-7.864c.753-.745-1.017.445 0 0m3.268-.468c.23-.27-.444.233 0 0m-4.195-.816c-.36-.187-.165.196 0 0m-.444-2.268c-.19-.179-.126.184 0-.001m2.762-.494c-.128-.18-.187.178 0 0m2.786 16.67c.457-.183.457.185 0 0m3.16-3.203c-.09-.678.42-.095.001 0m-.193-.754c-.589-1.49.362-.12 0 0m-12.73-10.192c-.09-.45.582-.22 0 0m.202-.505c.404-.676.188.478 0 .001m.61-.138c-.034-.754.388.114 0 0m-.345-.492c.206-.519.578-.09 0 0m.95-.238c-1.106-.373 0-.99.406-.305.018.166-.362.796-.406.305"
     id="path4" />
</svg>
