<?xml version="1.0" encoding="UTF-8" standalone="no"?>
<svg
   xml:space="preserve"
   width="64"
   height="64"
   version="1.1"
   id="svg4"
   sodipodi:docname="far-cry-3.svg"
   inkscape:version="1.4.2 (ebf0e940d0, 2025-05-08)"
   xmlns:inkscape="http://www.inkscape.org/namespaces/inkscape"
   xmlns:sodipodi="http://sodipodi.sourceforge.net/DTD/sodipodi-0.dtd"
   xmlns:xlink="http://www.w3.org/1999/xlink"
   xmlns="http://www.w3.org/2000/svg"
   xmlns:svg="http://www.w3.org/2000/svg"><sodipodi:namedview
     id="namedview4"
     pagecolor="#505050"
     bordercolor="#eeeeee"
     borderopacity="1"
     inkscape:showpageshadow="0"
     inkscape:pageopacity="0"
     inkscape:pagecheckerboard="0"
     inkscape:deskcolor="#505050"
     inkscape:zoom="5.984375"
     inkscape:cx="15.54047"
     inkscape:cy="39.603133"
     inkscape:window-width="1920"
     inkscape:window-height="1003"
     inkscape:window-x="0"
     inkscape:window-y="0"
     inkscape:window-maximized="1"
     inkscape:current-layer="svg4" /><defs
     id="defs4"><linearGradient
       id="a"><stop
         offset=".576"
         style="stop-color:#fff;stop-opacity:1"
         id="stop1" /><stop
         offset=".576"
         style="stop-color:#ff0116;stop-opacity:1"
         id="stop2" /></linearGradient><linearGradient
       id="b"
       x1="7.937"
       x2="7.937"
       y1="15.081"
       y2="1.852"
       gradientTransform="scale(3.7796)"
       gradientUnits="userSpaceOnUse"><stop
         offset="0"
         stop-color="#363636"
         style="stop-color:#171717;stop-opacity:1"
         id="stop3" /><stop
         offset="1"
         stop-color="#6c6c6c"
         style="stop-color:#2c2c2c;stop-opacity:1"
         id="stop4" /></linearGradient><linearGradient
       xlink:href="#a"
       id="c"
       x1="-23.057"
       x2="86.158"
       y1="-39.005"
       y2="-39.005"
       gradientUnits="userSpaceOnUse" /><filter
       id="filter1057"
       x="-0.026999999"
       y="-0.026999999"
       width="1.054"
       height="1.054"
       color-interpolation-filters="sRGB"><feGaussianBlur
         stdDeviation="0.61875"
         id="feGaussianBlur3" /></filter><linearGradient
       id="linearGradient1053-6"
       x1="-127"
       x2="-72"
       y1="60"
       y2="5"
       gradientTransform="translate(219.48001,-13.524956)"
       gradientUnits="userSpaceOnUse"><stop
         stop-color="#0a0a0a"
         offset="0"
         id="stop3-3" /><stop
         stop-color="#323232"
         stop-opacity=".99608"
         offset="1"
         id="stop4-6" /></linearGradient></defs><g
     id="g2"
     transform="translate(-87.985001,13.014999)"><rect
       x="92.485001"
       y="-8.5149994"
       width="55"
       height="55"
       ry="15"
       fill="#141414"
       filter="url(#filter1057)"
       opacity="0.3"
       stroke-linecap="round"
       stroke-width="2.7444"
       id="rect8" /><rect
       x="92.485001"
       y="-8.5149994"
       width="55"
       height="55"
       ry="15"
       fill="url(#linearGradient1053)"
       stroke-linecap="round"
       stroke-width="2.7444"
       id="rect9"
       style="fill:url(#linearGradient1053-6)" /></g><path
     d="M46.182 43.393a3 3 0 0 0-.408-.08c-2.011-.3-3.473-.918-4.778-2.021-.654-.553-.611-.334-.611-3.138 0-2.158.008-2.398.082-2.413.084-.016.283.127 1.1.788 1.018.823 3.02 1.885 4.052 2.147.882.225 2.184.287 2.734.132.513-.146.59-.174.902-.334 1.049-.537 1.783-1.736 1.711-2.792-.053-.793-.246-1.253-.727-1.735-.322-.323-.89-.65-1.297-.748-.714-.171-1.022-.202-2.008-.202-1.507 0-2.56.16-3.842.58-.613.202-.57.366-.555-2.148l.014-2.118.315-.233c.305-.226.575-.415 2.212-1.549.425-.295.973-.676 1.218-.848l.925-.647.481-.335-.616-.032a78 78 0 0 0-2.427-.038c-1.526-.006-1.822-.02-1.875-.083-.072-.087-.142.042 1.635-2.993.482-.822.945-1.611 1.03-1.753l.152-.258 4.993-.013c4.709-.013 4.997-.008 5.062.077.097.128.102 4.72.005 4.913-.067.134-.28.284-1.532 1.081-1.326.845-4.278 2.811-4.28 2.851 0 .021.095.039.212.039.558 0 1.929.297 2.598.563.313.125 1.025.49 1.302.67.618.4 1.328 1.153 1.753 1.861.636 1.06.961 2.669.785 3.884-.074.506-.15.912-.201 1.067a8 8 0 0 0-.106.36c-.291 1.062-.913 2.135-1.73 2.987-.561.584-.908.849-1.607 1.225a10 10 0 0 1-2.371.92c-.634.149-.76.177-1.074.235-.17.031-.407.079-.526.105-.208.045-2.658.07-2.702.026m-38.636-.344c-.082-.048-.09-.174-.09-1.457 0-1.656-.006-1.633.441-1.633.284 0 .358-.059.189-.15a.5.5 0 0 1-.162-.179c-.052-.096-.119-.134-.256-.146-.172-.014-.187-.029-.2-.196-.014-.164.007-.195.231-.346.136-.09.342-.186.457-.211.116-.026.25-.069.299-.096.08-.044.076-.055-.03-.108-.315-.158-.549-.243-.737-.268l-.206-.028-.013-8.703-.013-8.703h15.06l-.013 2.54-.014 2.54-4.654.014-4.655.013v3.557l3.21.013 3.211.013.014 2.502c.012 2.305.006 2.506-.075 2.565-.068.05-.801.065-3.249.065h-3.162l-.013 4.216-.013 4.216-2.733.011c-1.793.008-2.765-.006-2.824-.04m1.2-3.143c0-.097-.162-.118-.248-.032-.078.079-.072.085.081.085.092 0 .166-.024.166-.053m23.697 3.14c-.142-.026-.42-.073-.62-.105a11 11 0 0 1-1.598-.4c-.17-.062-.414-.148-.541-.192-.67-.228-1.853-.882-2.632-1.454-1.344-.986-2.695-2.609-3.37-4.048l-.093-.198-.116.109c-.134.125-.426.222-.552.182-.073-.024-.145-.166-.147-.295 0-.021.079-.038.176-.038.129 0 .185-.027.208-.098.017-.054.088-.113.158-.13.125-.032.172-.151.082-.207-.025-.015-.057-.08-.072-.145a6 6 0 0 0-.16-.477c-.2-.532-.184-.672.128-1.147l.264-.4-.04-.62c-.043-.64-.048-1.6-.016-3.068.015-.678 0-.93-.072-1.238-.128-.55-.119-1.152.023-1.502.727-1.794 2.396-3.801 4.087-4.915.25-.165.83-.481 1.286-.703 1.145-.554 2.034-.842 3.024-.978.24-.033.55-.081.685-.107.137-.026 1.396-.046 2.799-.046h2.55l-.013 4.37-.013 4.371h-4.693l-.014-1.792-.013-1.792-.116.001c-.1.001-.862.18-1.22.287-.47.141-1.173.597-1.769 1.149-.746.691-1.36 1.785-1.581 2.817-.203.95-.16.859-.45.957-.239.081-.325.12-.613.276-.098.053-.374.079-1.715.164-1.016.064-.643.13.678.121.692-.005 1.284.007 1.315.026.031.02.057.09.057.155 0 .077.037.13.103.147.13.034.133.165.007.253a.25.25 0 0 0-.09.191c.005.103-.034.137-.227.201-.327.11-.425.269-.165.269.08 0 .17.024.199.054.03.03.176.063.325.074.3.022.312.028.338.163.01.053.022.095.028.095s.015.07.02.155a.3.3 0 0 1-.085.24c-.092.081-.089.085.068.077.233-.01.241.096.022.297l-.188.172.14.027c.101.02.165-.002.223-.074.11-.135.233-.08.342.155.532 1.143 1.012 1.758 1.896 2.425.664.501 1.309.83 1.969 1.003.122.032 1.23.066 2.707.084l2.502.03.013 2.565.013 2.566-2.592-.006c-1.425-.004-2.708-.027-2.85-.053m-4.977-15.774a.05.05 0 0 0-.052-.052.05.05 0 0 0-.051.052c0 .028.023.052.051.052a.05.05 0 0 0 .052-.052"
     style="fill:url(#c);stroke-width:.449489"
     id="path4" /></svg>
