<?xml version="1.0" encoding="UTF-8" standalone="no"?>
<svg
   xml:space="preserve"
   width="64"
   height="64"
   version="1.1"
   id="svg4"
   sodipodi:docname="far-cry-2.svg"
   inkscape:version="1.4.2 (ebf0e940d0, 2025-05-08)"
   xmlns:inkscape="http://www.inkscape.org/namespaces/inkscape"
   xmlns:sodipodi="http://sodipodi.sourceforge.net/DTD/sodipodi-0.dtd"
   xmlns:xlink="http://www.w3.org/1999/xlink"
   xmlns="http://www.w3.org/2000/svg"
   xmlns:svg="http://www.w3.org/2000/svg"><sodipodi:namedview
     id="namedview4"
     pagecolor="#505050"
     bordercolor="#eeeeee"
     borderopacity="1"
     inkscape:showpageshadow="0"
     inkscape:pageopacity="0"
     inkscape:pagecheckerboard="0"
     inkscape:deskcolor="#505050"
     inkscape:zoom="5.984375"
     inkscape:cx="10.861619"
     inkscape:cy="40.104439"
     inkscape:window-width="1920"
     inkscape:window-height="1003"
     inkscape:window-x="0"
     inkscape:window-y="0"
     inkscape:window-maximized="1"
     inkscape:current-layer="svg4" /><defs
     id="defs4"><linearGradient
       id="a"><stop
         offset=".637"
         style="stop-color:#fffef7;stop-opacity:1"
         id="stop1" /><stop
         offset=".637"
         style="stop-color:#c92f14;stop-opacity:1"
         id="stop2" /></linearGradient><linearGradient
       id="b"
       x1="7.937"
       x2="7.937"
       y1="15.081"
       y2="1.852"
       gradientTransform="scale(3.7796)"
       gradientUnits="userSpaceOnUse"><stop
         offset="0"
         stop-color="#363636"
         style="stop-color:#171717;stop-opacity:1"
         id="stop3" /><stop
         offset="1"
         stop-color="#6c6c6c"
         style="stop-color:#2c2c2c;stop-opacity:1"
         id="stop4" /></linearGradient><linearGradient
       xlink:href="#a"
       id="c"
       x1="4.835"
       x2="59.953"
       y1="-12.287"
       y2="-12.287"
       gradientUnits="userSpaceOnUse" /><filter
       id="filter1057"
       x="-0.026999999"
       y="-0.026999999"
       width="1.054"
       height="1.054"
       color-interpolation-filters="sRGB"><feGaussianBlur
         stdDeviation="0.61875"
         id="feGaussianBlur3" /></filter><linearGradient
       id="linearGradient1053-6"
       x1="-127"
       x2="-72"
       y1="60"
       y2="5"
       gradientTransform="translate(219.48001,-13.524956)"
       gradientUnits="userSpaceOnUse"><stop
         stop-color="#0a0a0a"
         offset="0"
         id="stop3-3" /><stop
         stop-color="#323232"
         stop-opacity=".99608"
         offset="1"
         id="stop4-6" /></linearGradient></defs><g
     id="g2"
     transform="translate(-87.985001,13.014999)"><rect
       x="92.485001"
       y="-8.5149994"
       width="55"
       height="55"
       ry="15"
       fill="#141414"
       filter="url(#filter1057)"
       opacity="0.3"
       stroke-linecap="round"
       stroke-width="2.7444"
       id="rect8" /><rect
       x="92.485001"
       y="-8.5149994"
       width="55"
       height="55"
       ry="15"
       fill="url(#linearGradient1053)"
       stroke-linecap="round"
       stroke-width="2.7444"
       id="rect9"
       style="fill:url(#linearGradient1053-6)" /></g><path
     d="M41.785 42.255c0-1.143.016-1.521.066-1.561.037-.029.28-.067.54-.084.261-.018.498-.056.527-.085.077-.077-.043-.2-.312-.32-.267-.117-.396-.325-.396-.635 0-.241.116-.36.526-.542l.243-.107-.398-.215c-.837-.453-.846-.422.556-1.855.501-.511 1.27-1.302 1.707-1.758s.833-.85.878-.877.14-.134.211-.236c.449-.65 4.033-4.332 4.39-4.51.167-.084.266-.194.426-.471.115-.2.341-.5.504-.668.29-.302.299-.307.595-.307.165 0 .314-.024.333-.053.037-.06-.188-.16-.363-.16-.191 0-.633-.377-.873-.745-.37-.566-.382-.58-.642-.709-.338-.168-.622-.232-1.313-.295l-1.172-.11c-.898-.084-.908-.083-.976.113a1.3 1.3 0 0 0-.059.347c0 .099-.06.298-.133.442-.16.318-.161.32-.019.32.196 0 .255.15.257.65.003.922-.099 1.066-1.303 1.836l-.26.17c-.225.148-.539.173-1.96.153-1.427-.02-1.364 0-1.369-.443a3 3 0 0 0-.088-.585c-.141-.53-.171-1.19-.204-4.52-.025-2.483-.016-3.309.038-3.722l.07-.532 1.033-.015c.815-.011 1.084.003 1.277.067.223.074.273.074.536-.005.253-.076.495-.083 1.86-.054l2.977.061c1.803.037 2.18.11 2.18.429 0 .106.237.341.345.341.067 0 .534.339.808.587.237.214.315.253.575.283.445.053.648.154.738.37.05.121.16.234.317.326.325.19.574.51.883 1.13a8.1 8.1 0 0 1 .748 2.33c.035.204.086.486.112.627.082.44.057.996-.059 1.313-.058.16-.106.363-.106.451 0 .45-.304 1.433-.691 2.234-.321.665-.784 1.23-2.157 2.633-1.674 1.71-3.906 4.047-4.18 4.375-.38.457-.399.506-.22.575.095.036 1.331.076 3.393.109 1.784.028 3.351.068 3.483.089.238.036.239.037.256.27.015.217-.002.253-.24.497-.324.332-.416.37-.996.408-.496.033-.615.101-.393.226.068.038.264.081.437.096.435.04.494.143.236.412-.234.245-.312.55-.231.904.043.188.031.198-.436.336-.302.09-.6.342-.6.509 0 .198.2.25.676.179.376-.057.403-.054.654.077.144.075.298.137.343.137q.079.002.114.214c.024.15.079.246.182.32a.7.7 0 0 0 .186.104c.061 0 .18.177.182.271.001.047-.049.13-.11.186-.108.098-.25.102-3.922.102-2.891 0-3.837-.016-3.922-.065a.38.38 0 0 1-.145-.226l-.032-.161h-.376c-.329 0-.374-.012-.36-.093.036-.219-.572-.045-.703.2-.057.105-.329.25-.686.366-.118.038-.846.058-2.087.058h-1.906Zm-33.94 1.133c-.085-.05-.093-.18-.093-1.532 0-1.705-.014-1.654.47-1.654.275 0 .379-.09.168-.145-.059-.015-.106-.057-.106-.093 0-.105-.174-.23-.346-.25-.141-.016-.161-.04-.176-.212-.015-.179.004-.21.228-.363a1.3 1.3 0 0 1 .441-.198c.11-.017.24-.052.293-.079.082-.042.084-.058.017-.125a.28.28 0 0 0-.166-.077.54.54 0 0 1-.233-.103.84.84 0 0 0-.354-.12l-.21-.017-.013-8.973-.013-8.974H23.28l-.014 2.62-.013 2.618-4.813.027-4.812.026v3.616l3.27.014c3 .012 3.276.02 3.337.103.05.069.066.67.066 2.575 0 2.189-.01 2.495-.083 2.569s-.452.083-3.35.083H13.6v4.306c0 4.202-.002 4.307-.103 4.36-.14.075-5.524.073-5.653-.002zm1.183-3.266c-.036-.044-.096-.08-.133-.08s-.096.036-.133.08c-.057.068-.038.08.133.08s.19-.012.133-.08m24.488 3.266-.638-.105a10 10 0 0 1-1.702-.436c-.965-.324-2.014-.83-2.765-1.334-1.53-1.026-3.056-2.744-3.85-4.33-.092-.182-.195-.331-.229-.331s-.112.044-.172.099c-.121.11-.402.18-.49.123-.056-.036-.178-.242-.178-.299 0-.016.096-.03.213-.03.155 0 .212-.022.212-.08 0-.045.062-.105.137-.134.122-.046.133-.072.1-.223a1.2 1.2 0 0 0-.083-.252 5 5 0 0 1-.181-.502c-.168-.516-.151-.61.199-1.143l.266-.404-.039-.479c-.087-1.088-.103-1.787-.055-2.34.083-.948.067-1.649-.048-2.127-.15-.625-.142-1.247.021-1.648.606-1.486 1.754-3.019 3.229-4.308.596-.521 1.159-.894 1.986-1.315 1.27-.647 2.234-.978 3.349-1.152 1.008-.158 1.337-.171 3.775-.155l2.526.017.014 4.403c.009 2.975-.005 4.437-.042 4.507-.054.1-.132.103-2.446.103h-2.391v-1.836c0-1.647-.01-1.84-.087-1.87-.145-.055-1.257.235-1.721.45-.613.283-1.575 1.1-2.08 1.765-.308.405-.619 1.022-.82 1.624-.125.378-.174.584-.276 1.17-.04.222-.089.27-.36.346-.131.036-.265.099-.299.14a.22.22 0 0 1-.148.072.4.4 0 0 0-.193.073c-.064.044-.334.086-.69.107l-1.13.067c-.3.018-.545.056-.545.083 0 .03.52.045 1.3.038 1.374-.013 1.505.008 1.436.225-.024.074-.004.099.079.099.153 0 .156.263.003.303-.12.032-.14.102-.04.136.107.035-.028.164-.26.248-.312.113-.439.27-.218.27.066.001.225.038.354.083s.266.07.305.054c.176-.067.34.136.366.453.008.098-.029.164-.128.227l-.14.09.2-.034c.171-.03.2-.02.198.065a.35.35 0 0 1-.225.3c-.111.042-.124.144-.017.144.041 0 .11.014.152.03.048.019.088-.011.106-.08.029-.11.127-.14.225-.068.029.021.178.29.33.597a5.4 5.4 0 0 0 1.227 1.658c.75.716 1.693 1.264 2.547 1.48.383.096.605.104 2.838.105 1.854 0 2.444.016 2.514.067.083.062.089.268.076 2.646l-.014 2.579-2.659.007c-1.462.004-2.778-.013-2.924-.038M28.358 27.12c.018-.029.007-.053-.024-.053-.03 0-.056.024-.056.053 0 .03.01.053.023.053s.039-.023.057-.053"
     style="fill:url(#c);stroke-width:.879874"
     id="path4" /></svg>
