<?xml version="1.0" encoding="UTF-8" standalone="no"?>
<svg
   width="64"
   height="64"
   version="1.1"
   id="svg3"
   sodipodi:docname="ferdium.svg"
   inkscape:version="1.4.2 (ebf0e940d0, 2025-05-08)"
   xmlns:inkscape="http://www.inkscape.org/namespaces/inkscape"
   xmlns:sodipodi="http://sodipodi.sourceforge.net/DTD/sodipodi-0.dtd"
   xmlns="http://www.w3.org/2000/svg"
   xmlns:svg="http://www.w3.org/2000/svg">
  <sodipodi:namedview
     id="namedview3"
     pagecolor="#505050"
     bordercolor="#eeeeee"
     borderopacity="1"
     inkscape:showpageshadow="0"
     inkscape:pageopacity="0"
     inkscape:pagecheckerboard="0"
     inkscape:deskcolor="#505050"
     inkscape:zoom="2.9921875"
     inkscape:cx="69.180157"
     inkscape:cy="32.751958"
     inkscape:window-width="1920"
     inkscape:window-height="1003"
     inkscape:window-x="0"
     inkscape:window-y="0"
     inkscape:window-maximized="1"
     inkscape:current-layer="svg3" />
  <defs
     id="defs2">
    <linearGradient
       id="a"
       x1="9.696"
       x2="9.696"
       y1="1.05"
       y2="15.867"
       gradientTransform="matrix(3.7796,0,0,3.7796,2.4390011,-29.971)"
       gradientUnits="userSpaceOnUse">
      <stop
         offset="0"
         stop-color="#a743ff"
         id="stop1" />
      <stop
         offset="1"
         stop-color="#7158e0"
         id="stop2" />
    </linearGradient>
    <filter
       id="b"
       width="1.195998"
       height="1.5880053"
       x="-0.097999022"
       y="-0.29400267"
       color-interpolation-filters="sRGB">
      <feGaussianBlur
         stdDeviation="1.715"
         id="feGaussianBlur2" />
    </filter>
    <filter
       id="filter1057"
       x="-0.026999999"
       y="-0.026999999"
       width="1.054"
       height="1.054"
       color-interpolation-filters="sRGB">
      <feGaussianBlur
         stdDeviation="0.61875"
         id="feGaussianBlur1" />
    </filter>
    <linearGradient
       id="linearGradient1053"
       x1="-127"
       x2="-72"
       y1="60"
       y2="5"
       gradientTransform="matrix(1.0000071,0,0,1.0000071,131.49954,-0.51035953)"
       gradientUnits="userSpaceOnUse">
      <stop
         stop-color="#8926f7"
         offset="0"
         id="stop1-3" />
      <stop
         stop-color="#ba7dff"
         offset="1"
         id="stop2-6" />
    </linearGradient>
  </defs>
  <rect
     transform="matrix(1.0000071,0,0,1.0000071,-2.2781468e-4,-2.2781468e-4)"
     x="4.5"
     y="4.5"
     width="55"
     height="55"
     ry="15"
     fill="#141414"
     filter="url(#filter1057)"
     opacity="0.3"
     stroke-linecap="round"
     stroke-width="2.7444"
     id="rect2-5" />
  <rect
     x="4.4996166"
     y="4.4996166"
     width="55.000767"
     height="55.000767"
     ry="15.000106"
     fill="url(#linearGradient1053)"
     stroke-linecap="round"
     stroke-width="2.74437"
     id="rect3"
     style="fill:url(#linearGradient1053)" />
  <path
     d="M22.579 39.883c1.092-.313 3.584-1.588 5.71-2.922 1.78-1.116 3.485-2.066 3.709-2.066s1.265.58 3.77 2.1c2.692 1.636 4.706 2.656 5.767 2.92.613.153 1.04.105 1.608-.182 1.107-.558 2.636-1.786 4.55-3.657 2.586-2.526 4.967-5.49 5.27-6.559.103-.363.013-.436-.54-.423-.885.02-2.016.327-6.648 1.8-1.933.614-3.306.994-3.597.994-.456 0-2.059-.925-4.332-2.5-1.1-.763-3.356-2.233-4.053-2.643-.985-.58-1.497-.778-1.903-.74-.689.064-1.922.798-6.267 3.728-2.076 1.4-3.204 2.059-3.66 2.135-.38.064-.905-.083-5.99-1.68-1.632-.512-2.881-.86-3.587-.997-.502-.098-1.2-.132-1.308-.062-.385.245.682 1.974 2.506 4.063 3.014 3.45 6.223 6.253 7.735 6.753.258.086.846.057 1.26-.062"
     filter="url(#b)"
     opacity=".1"
     id="path2" />
  <path
     fill="#fff"
     d="M22.579 38.883c1.092-.313 3.584-1.588 5.71-2.922 1.78-1.116 3.485-2.066 3.709-2.066s1.265.58 3.77 2.1c2.692 1.636 4.706 2.656 5.767 2.92.613.153 1.04.105 1.608-.182 1.107-.558 2.636-1.786 4.55-3.657 2.586-2.526 4.967-5.49 5.27-6.559.103-.363.013-.436-.54-.423-.885.02-2.016.327-6.648 1.8-1.933.614-3.306.994-3.597.994-.456 0-2.059-.925-4.332-2.5-1.1-.763-3.356-2.233-4.053-2.643-.985-.58-1.497-.778-1.903-.74-.689.064-1.922.798-6.267 3.728-2.076 1.4-3.204 2.059-3.66 2.135-.38.064-.905-.083-5.99-1.68-1.632-.512-2.881-.86-3.587-.997-.502-.098-1.2-.132-1.308-.062-.385.245.682 1.974 2.506 4.063 3.014 3.45 6.223 6.253 7.735 6.753.258.086.846.057 1.26-.062"
     id="path3" />
</svg>
