<?xml version="1.0" encoding="UTF-8" standalone="no"?>
<svg
   width="64"
   height="64"
   version="1.1"
   id="svg2"
   sodipodi:docname="firewatch.svg"
   xml:space="preserve"
   inkscape:version="1.4.2 (ebf0e940d0, 2025-05-08)"
   xmlns:inkscape="http://www.inkscape.org/namespaces/inkscape"
   xmlns:sodipodi="http://sodipodi.sourceforge.net/DTD/sodipodi-0.dtd"
   xmlns="http://www.w3.org/2000/svg"
   xmlns:svg="http://www.w3.org/2000/svg"><sodipodi:namedview
     id="namedview2"
     pagecolor="#505050"
     bordercolor="#eeeeee"
     borderopacity="1"
     inkscape:showpageshadow="0"
     inkscape:pageopacity="0"
     inkscape:pagecheckerboard="0"
     inkscape:deskcolor="#505050"
     inkscape:zoom="4.2315921"
     inkscape:cx="47.499852"
     inkscape:cy="21.504908"
     inkscape:window-width="1920"
     inkscape:window-height="1003"
     inkscape:window-x="0"
     inkscape:window-y="0"
     inkscape:window-maximized="1"
     inkscape:current-layer="svg2" /><defs
     id="defs2"><linearGradient
       id="a"
       x1="7.937"
       x2="7.937"
       y1="15.081"
       y2="1.852"
       gradientTransform="matrix(3.7796,0,0,3.7796,-28.001999,-20.971)"
       gradientUnits="userSpaceOnUse"><stop
         offset="0"
         stop-color="#ee3e1c"
         id="stop1" /><stop
         offset="1"
         stop-color="#ff8d52"
         id="stop2" /></linearGradient><filter
       id="filter2076-3"
       x="-0.048000001"
       y="-0.048000001"
       width="1.096"
       height="1.096"
       color-interpolation-filters="sRGB"><feGaussianBlur
         stdDeviation="1.1"
         id="feGaussianBlur1041" /></filter><linearGradient
       id="linearGradient2070-6"
       x1="145"
       x2="200"
       y1="59"
       y2="4"
       gradientTransform="translate(-140.5,0.4999987)"
       gradientUnits="userSpaceOnUse"><stop
         stop-color="#ffc841"
         offset="0"
         id="stop1034" /><stop
         stop-color="#ffbe37"
         offset=".4925"
         id="stop1036" /><stop
         stop-color="#ffc841"
         offset="1"
         id="stop1038" /></linearGradient><filter
       color-interpolation-filters="sRGB"
       height="1.184088"
       width="1.184088"
       y="-0.092043995"
       x="-0.092043995"
       id="filter1091"><feGaussianBlur
         id="feGaussianBlur22"
         stdDeviation="0.30215974" /></filter><filter
       color-interpolation-filters="sRGB"
       height="1.184088"
       width="1.184088"
       y="-0.092043996"
       x="-0.092043996"
       id="filter1"><feGaussianBlur
         id="feGaussianBlur1"
         stdDeviation="0.30215974" /></filter><linearGradient
       gradientUnits="userSpaceOnUse"
       y2="-13.703"
       y1="-5.5948"
       x2="16.465"
       x1="8.5858002"
       id="linearGradient1063"
       gradientTransform="matrix(3.7796021,0,0,3.7796021,53.244802,82.143189)"><stop
         id="stop12"
         offset="0"
         stop-color="#f5f5f5" /><stop
         id="stop14"
         offset="1"
         stop-color="#fff" /></linearGradient><linearGradient
       gradientUnits="userSpaceOnUse"
       y2="-11.992"
       y1="-5.3551998"
       x2="15.926"
       x1="8.9222002"
       id="linearGradient1071"
       gradientTransform="matrix(3.7796021,0,0,3.7796021,53.244802,82.143189)"><stop
         id="stop17"
         offset="0"
         stop-color="#ffdc96" /><stop
         id="stop19"
         offset="1"
         stop-color="#fff" /></linearGradient></defs><rect
     id="rect1050"
     opacity="0.3"
     filter="url(#filter2076)"
     ry="13.002"
     rx="13.002"
     height="55"
     width="55"
     y="4.5000014"
     x="4.5000014"
     style="filter:url(#filter2076-3)" /><rect
     id="rect1052"
     fill="url(#linearGradient2070)"
     ry="13.002"
     rx="13.002"
     height="55.000004"
     width="55.000004"
     y="4.4999981"
     x="4.4999981"
     style="fill:url(#linearGradient2070-6);stroke-width:0.999999" /><path
     fill="#fff"
     d="M30.978 52.576c-.404-.234-.862-.49-1.018-.571-.382-.2-2.045-1.395-3.146-2.263-1.329-1.047-4.348-4.19-5.48-5.704-3.573-4.776-6.082-9.888-8.072-16.454-.847-2.793-1.912-7.986-1.683-8.21.055-.053.532-.128 1.061-.166 2.68-.195 4.05-.435 5.944-1.045 3.9-1.255 8.644-3.734 12.171-6.362.591-.442 1.152-.802 1.245-.802s.655.36 1.246.802c3.526 2.628 8.272 5.108 12.17 6.362 1.895.61 3.264.85 5.945 1.045.528.038 1.006.113 1.06.166.229.224-.835 5.417-1.682 8.21-1.99 6.565-4.499 11.678-8.071 16.454-1.133 1.514-4.153 4.657-5.48 5.704-1.102.868-2.765 2.065-3.148 2.263-.156.08-.613.337-1.017.571S32.158 53 32 53s-.618-.19-1.022-.424m1.954-4.897c2.794-1.926 5.673-4.93 7.86-8.208 2.643-3.961 5.053-9.65 6.5-15.341.267-1.051.267-1.132.013-1.132-.351 0-2.74-.645-3.949-1.067-3.38-1.18-7.612-3.317-10.706-5.407l-.65-.44-.651.44c-3.094 2.09-7.326 4.227-10.706 5.407-1.21.422-3.598 1.067-3.95 1.067-.254 0-.253.08.015 1.133 1.254 4.937 2.985 9.301 5.278 13.314 2.414 4.226 5.527 7.744 9.05 10.225.437.307.857.562.933.567s.51-.247.962-.558m-3.066-5.697c-.08-.096-.136-1.006-.156-2.52-.03-2.29-.038-2.368-.257-2.346-.125.012-.66.072-1.19.135a48 48 0 0 1-2.346.19c-1.2.067-1.393.055-1.454-.1-.04-.11.243-.67.739-1.457.907-1.441 2.55-4.667 2.455-4.82-.034-.056-.33-.063-.661-.016-.955.136-1.676.12-1.676-.035 0-.076.451-.828 1.002-1.67.55-.843 1.207-1.863 1.457-2.268a224 224 0 0 0 2.979-4.949c.63-1.078 1.142-1.834 1.242-1.834s.612.756 1.243 1.834a222 222 0 0 0 2.979 4.949c.25.404.906 1.425 1.456 2.267.55.843 1.002 1.602 1.002 1.687 0 .123-.2.138-1.021.077-.56-.044-1.096-.107-1.188-.142-.101-.038-.169 0-.169.098 0 .278 1.722 3.597 2.53 4.877.477.755.747 1.291.705 1.402-.06.155-.25.168-1.453.1a48 48 0 0 1-2.348-.19c-.53-.063-1.064-.123-1.189-.135-.219-.022-.227.055-.257 2.346-.02 1.515-.076 2.423-.155 2.52-.096.114-.603.15-2.135.15s-2.04-.035-2.135-.15"
     id="path2"
     style="fill:#2f0b1d;fill-opacity:1" /></svg>
