<?xml version="1.0" encoding="UTF-8" standalone="no"?>
<svg
   width="64"
   height="64"
   version="1.1"
   id="svg2"
   sodipodi:docname="fishing-planet.svg"
   xml:space="preserve"
   inkscape:version="1.4.2 (ebf0e940d0, 2025-05-08)"
   xmlns:inkscape="http://www.inkscape.org/namespaces/inkscape"
   xmlns:sodipodi="http://sodipodi.sourceforge.net/DTD/sodipodi-0.dtd"
   xmlns="http://www.w3.org/2000/svg"
   xmlns:svg="http://www.w3.org/2000/svg"><sodipodi:namedview
     id="namedview2"
     pagecolor="#505050"
     bordercolor="#eeeeee"
     borderopacity="1"
     inkscape:showpageshadow="0"
     inkscape:pageopacity="0"
     inkscape:pagecheckerboard="0"
     inkscape:deskcolor="#505050"
     inkscape:zoom="2.9921875"
     inkscape:cx="56.814621"
     inkscape:cy="12.365535"
     inkscape:window-width="1920"
     inkscape:window-height="1003"
     inkscape:window-x="0"
     inkscape:window-y="0"
     inkscape:window-maximized="1"
     inkscape:current-layer="svg2" /><defs
     id="defs2"><linearGradient
       id="a"
       x1="30.326"
       x2="30.326"
       y1="58.034"
       y2="7.459"
       gradientUnits="userSpaceOnUse"
       gradientTransform="translate(-10.02611,-9.3577023)"><stop
         offset="0"
         stop-color="#152128"
         id="stop1" /><stop
         offset="1"
         stop-color="#38464d"
         id="stop2" /></linearGradient><filter
       id="filter1057-2"
       x="-0.026999999"
       y="-0.026999999"
       width="1.054"
       height="1.054"
       color-interpolation-filters="sRGB"><feGaussianBlur
         stdDeviation="0.61875"
         id="feGaussianBlur51" /></filter><linearGradient
       id="linearGradient1053-0"
       x1="-127"
       x2="-72"
       y1="60"
       y2="5"
       gradientTransform="translate(131.5,-0.51000061)"
       gradientUnits="userSpaceOnUse"><stop
         stop-color="#1d2123"
         offset="0"
         id="stop51" /><stop
         stop-color="#33393e"
         stop-opacity=".99608"
         offset="1"
         id="stop52" /></linearGradient></defs><rect
     x="4.4999995"
     y="4.4999995"
     width="55"
     height="55"
     ry="15"
     fill="#141414"
     filter="url(#filter1057-2)"
     opacity="0.3"
     stroke-linecap="round"
     stroke-width="2.7444"
     id="rect52" /><rect
     x="4.5"
     y="4.5"
     width="55"
     height="55"
     ry="15"
     fill="url(#linearGradient1053-0)"
     stroke-linecap="round"
     stroke-width="2.7444"
     id="rect53"
     style="fill:url(#linearGradient1053-0)" /><path
     fill="#fff"
     d="M30.857 13q-.375 0-.751.037c-2.393.23-6.105 2.307-5.793 3.242.1.3 1.273 1.115 2.608 1.812 3.347 1.748 6.122 1.56 9.263-.624 1.179-.82 1.216-.815 2.263.299.962 1.024 2.283 1.53 2.283.874 0-.143-.617-.778-1.372-1.413l-1.372-1.155 1.373-1.154c.755-.636 1.255-1.35 1.108-1.585-.145-.237-.897.102-1.668.75s-1.53 1.109-1.688 1.022C34.39 13.611 32.609 13 30.857 13m.018 1.055a9.3 9.3 0 0 1 3.997 1.008c1.642.837 1.593 1.282-.23 2.128-3.012 1.398-5.64 1.249-8.388-.474-.909-.57-.91-.577-.01-1.272 1.238-.957 2.9-1.426 4.63-1.39m-15.18.906c-.166-.003-.315.04-.417.142-.532.532-.265 1.532.486 1.82.419.161 4.09 3.67 8.159 7.797l7.397 7.505-7.699 7.688c-4.234 4.23-7.699 7.496-7.699 7.259s-.234-.198-.52.088-.396.846-.244 1.242c.397 1.035 1.18.886 1.656-.314.228-.569 3.687-4.29 7.69-8.27l7.279-7.236 7.398 7.466c4.07 4.106 7.524 7.827 7.676 8.27.293.85 1.453 1.088 1.887.385.143-.23-3.47-4.097-8.029-8.593l-8.286-8.175 7.476-7.486c4.113-4.118 7.726-7.488 8.029-7.488.876 0 1.197-.896.586-1.633-.426-.512-.712-.549-1.189-.154-.345.287-.627.758-.627 1.046s-3.309 3.826-7.351 7.863L32 31.523l-7.58-7.571c-4.169-4.163-7.58-7.808-7.58-8.1 0-.456-.649-.88-1.146-.892m.372 10.9q-.118 0-.245.016c-1.505.226-2.085 1.525-1.144 2.564.947 1.048 1.122 6.935.233 7.825-.845.844-2.576.655-3.108-.338-.653-1.22-.597-1.553.213-1.243.98.376.853-.28-.234-1.212-1.25-1.069-1.373-1.013-1.373.618 0 1.816.724 3.142 1.965 3.601 2.63.974 4.002-.81 4.021-5.227.01-2.068.251-3.54.671-4.096.817-1.079.193-2.501-.998-2.509m-.13.959c.485.02.908.429.653.84-.145.237-.447.429-.67.429-.642 0-.981-.827-.466-1.144a.85.85 0 0 1 .483-.125m31.913.35c-5.524 0-5.743.037-5.743.963 0 1.667 1.539 3.724 3.445 4.609 1.99.922 3.807.787 5.645-.417 1.232-.807 2.395-2.853 2.395-4.213 0-.9-.26-.942-5.742-.942m0 .919c2.652 0 4.823.118 4.823.26 0 .64-1.112 2.337-2.006 3.06-.563.458-1.76.795-2.817.795-1.949 0-3.447-.9-4.312-2.591-.282-.552-.512-1.12-.512-1.264s2.17-.26 4.824-.26m3.498.459c-.223 0-.518.43-.655.954s-.677 1.064-1.202 1.202-.952.432-.952.654c0 .746.948.418 2.088-.722 1.139-1.139 1.467-2.088.721-2.088m-3.424 6.877-.982.922c-.74.697-1.113.794-1.511.395-.399-.398-.703-.384-1.238.06-.39.323-.709.77-.709.99 0 .561.802.507 1.163-.078.203-.327.512-.303.967.074.54.45.81.352 1.413-.509l.744-1.064.862 1.065c.642.794.992.93 1.383.54.385-.384.683-.386 1.141-.007.34.282.768.364.952.18.554-.553-1.35-1.684-1.97-1.169-.373.31-.805.16-1.378-.474zm-11.509 9.745a3 3 0 0 0-.295 0c-.284.017-.63.07-1.073.15-2.397.427-4.154.428-6.534.003-1.711-.306-1.973-.219-2.913.977-.569.723-1.222 1.34-1.452 1.372s-.727.084-1.106.115c-1.2.1-.744.976.508.976.742 0 1.554.455 2.14 1.2.858 1.09 1.137 1.171 3.053.877 2.675-.41 4.084-.412 5.66-.002 1.746.453 3.453-.066 3.8-1.157.203-.642.695-.918 1.638-.918.83 0 1.347-.239 1.347-.625 0-.4-.371-.555-1.038-.427-.763.146-1.325-.188-2.12-1.265-.664-.897-.977-1.238-1.615-1.276m-8.492.875q.21-.009.436.002c.4.02.831.086 1.276.201l1.217.317-1.15.443c-.631.242-1.728.517-2.439.61-1.011.131-1.26 0-1.144-.607.111-.581.824-.928 1.804-.966m7.778.06c1.113.006 1.899.392 2.134 1.098.218.655-1.707.637-3.537-.033l-1.609-.589 1.797-.353a6.2 6.2 0 0 1 1.214-.123m-3.856 1.024c.423.011.862.14 1.456.389l1.486.625-1.185.54c-1.481.674-2.015.66-3.37-.09l-1.079-.599 1.33-.552c.53-.219.939-.324 1.362-.314m5.68 1.671c.515.03.369.208-.242.883-.968 1.069-.925 1.067-3.445.13-.854-.318.956-.935 2.942-1.004a9 9 0 0 1 .743-.008m-10.443.038q.594 0 1.508.137c1.179.176 1.964.484 1.743.684-.836.76-2.793.91-3.655.282-.968-.71-.777-1.104.404-1.103"
     id="path2" /></svg>
