<?xml version="1.0" encoding="UTF-8" standalone="no"?>
<svg
   width="64"
   height="64"
   version="1.1"
   id="svg5"
   sodipodi:docname="flatsweep.svg"
   xml:space="preserve"
   inkscape:version="1.4.2 (ebf0e940d0, 2025-05-08)"
   xmlns:inkscape="http://www.inkscape.org/namespaces/inkscape"
   xmlns:sodipodi="http://sodipodi.sourceforge.net/DTD/sodipodi-0.dtd"
   xmlns:xlink="http://www.w3.org/1999/xlink"
   xmlns="http://www.w3.org/2000/svg"
   xmlns:svg="http://www.w3.org/2000/svg"><sodipodi:namedview
     id="namedview5"
     pagecolor="#505050"
     bordercolor="#eeeeee"
     borderopacity="1"
     inkscape:showpageshadow="0"
     inkscape:pageopacity="0"
     inkscape:pagecheckerboard="0"
     inkscape:deskcolor="#505050"
     inkscape:zoom="4.5859375"
     inkscape:cx="30.746167"
     inkscape:cy="6.1056218"
     inkscape:window-width="2560"
     inkscape:window-height="1411"
     inkscape:window-x="0"
     inkscape:window-y="0"
     inkscape:window-maximized="1"
     inkscape:current-layer="svg5" /><defs
     id="defs2"><linearGradient
       id="a"
       x1="7.937"
       x2="7.937"
       y1="15.081"
       y2="1.852"
       gradientTransform="matrix(3.7796,0,0,3.7796,-4.7972743,-34.017036)"
       gradientUnits="userSpaceOnUse"><stop
         offset="0"
         stop-color="#f54800"
         style="stop-color:#fb2e2e;stop-opacity:1"
         id="stop1" /><stop
         offset="1"
         stop-color="#ffb200"
         style="stop-color:#fb7878;stop-opacity:1"
         id="stop2" /></linearGradient><filter
       id="b"
       width="1.3100079"
       height="1.2796"
       x="-0.15500394"
       y="-0.1398"
       style="color-interpolation-filters:sRGB"><feGaussianBlur
         stdDeviation="4.66"
         id="feGaussianBlur2" /></filter><filter
       inkscape:collect="always"
       style="color-interpolation-filters:sRGB"
       id="filter1057"
       x="-0.026999999"
       width="1.054"
       y="-0.026999999"
       height="1.054"><feGaussianBlur
         inkscape:collect="always"
         stdDeviation="0.61875"
         id="feGaussianBlur1059" /></filter><linearGradient
       inkscape:collect="always"
       xlink:href="#linearGradient1051"
       id="linearGradient1053"
       x1="-127"
       y1="60"
       x2="-72"
       y2="5"
       gradientUnits="userSpaceOnUse"
       gradientTransform="translate(131.5,-0.5099957)" /><linearGradient
       inkscape:collect="always"
       id="linearGradient1051"><stop
         style="stop-color:#df2a2a;stop-opacity:1"
         offset="0"
         id="stop1047" /><stop
         style="stop-color:#f83f3f;stop-opacity:1"
         offset="1"
         id="stop1049" /></linearGradient></defs><rect
     style="opacity:0.3;fill:#141414;fill-opacity:1;stroke-width:2.74436;stroke-linecap:round;filter:url(#filter1057)"
     id="rect1055"
     width="55"
     height="55"
     x="4.4999995"
     y="4.4999995"
     ry="15" /><rect
     ry="14.999999"
     y="4.5000019"
     x="4.5000019"
     height="54.999996"
     width="54.999996"
     id="rect1045"
     style="fill:url(#linearGradient1053);fill-opacity:1;stroke-width:2.74436;stroke-linecap:round" /><g
     style="opacity:.15;fill:#050000;fill-opacity:1;filter:url(#b)"
     transform="translate(-5.22 -4.479)scale(.56998)"
     id="g3"><path
       d="M64 24v40l34.64-20Zm0 40L29.36 44v40L64 104Z"
       style="display:inline;fill:#050000;fill-opacity:1;stroke:none;stroke-width:.1;stroke-linecap:square;stroke-linejoin:round"
       id="path2" /><path
       d="M83.721 65.11c-.89.514-1.78 1.944-1.78 2.861v2.75l-6.226 3.596c-.493.284-.89.922-.89 1.43v1.834c0 .508.397.687.89.403l2.669-1.54v17.418c0 .917.89 1.32 1.779.806l16.012-9.244c.89-.514 1.78-1.944 1.78-2.861V65.144l2.668-1.54c.493-.285.89-.923.89-1.431v-1.834c0-.508-.397-.687-.89-.403l-6.227 3.595v-2.75c0-.917-.89-1.32-1.78-.807zm1.78 1.724 5.337-3.082c.446-.258.89-.052.89.403v.917l-7.117 4.109v-.917c0-.46.445-1.174.89-1.43m-3.56 7.555 12.455-7.19v15.585l-12.454 7.19Zm4.004.439c-.74.427-1.334 1.384-1.334 2.145v7.335c0 .762.595 1.031 1.334.605.74-.427 1.334-1.384 1.334-2.146v-7.334c0-.762-.595-1.032-1.334-.605m4.448-2.568c-.74.427-1.335 1.384-1.335 2.146v7.334c0 .762.596 1.031 1.335.605.739-.427 1.334-1.384 1.334-2.146v-7.334c0-.762-.595-1.032-1.334-.605"
       style="display:inline;fill:#050000;fill-opacity:1;stroke-width:.143847;stroke-linecap:square;stroke-linejoin:round"
       id="path3" /></g><path
     d="M64 24v40l34.64-20Zm0 40L29.36 44v40L64 104Z"
     style="display:inline;fill:#fff;stroke:none;stroke-width:.1;stroke-linecap:square;stroke-linejoin:round"
     transform="translate(-5.22 -4.479)scale(.56998)"
     id="path4" /><path
     d="M83.721 65.11c-.89.514-1.78 1.944-1.78 2.861v2.75l-6.226 3.596c-.493.284-.89.922-.89 1.43v1.834c0 .508.397.687.89.403l2.669-1.54v17.418c0 .917.89 1.32 1.779.806l16.012-9.244c.89-.514 1.78-1.944 1.78-2.861V65.144l2.668-1.54c.493-.285.89-.923.89-1.431v-1.834c0-.508-.397-.687-.89-.403l-6.227 3.595v-2.75c0-.917-.89-1.32-1.78-.807zm1.78 1.724 5.337-3.082c.446-.258.89-.052.89.403v.917l-7.117 4.109v-.917c0-.46.445-1.174.89-1.43m-3.56 7.555 12.455-7.19v15.585l-12.454 7.19Zm4.004.439c-.74.427-1.334 1.384-1.334 2.145v7.335c0 .762.595 1.031 1.334.605.74-.427 1.334-1.384 1.334-2.146v-7.334c0-.762-.595-1.032-1.334-.605m4.448-2.568c-.74.427-1.335 1.384-1.335 2.146v7.334c0 .762.596 1.031 1.335.605.739-.427 1.334-1.384 1.334-2.146v-7.334c0-.762-.595-1.032-1.334-.605"
     style="display:inline;fill:#fff;stroke-width:.143847;stroke-linecap:square;stroke-linejoin:round"
     transform="translate(-5.22 -4.479)scale(.56998)"
     id="path5" /></svg>
