<?xml version="1.0" encoding="UTF-8" standalone="no"?>
<svg
   xml:space="preserve"
   width="64"
   height="64"
   version="1.1"
   id="svg6"
   sodipodi:docname="floorp.svg"
   inkscape:version="1.4.2 (ebf0e940d0, 2025-05-08)"
   xmlns:inkscape="http://www.inkscape.org/namespaces/inkscape"
   xmlns:sodipodi="http://sodipodi.sourceforge.net/DTD/sodipodi-0.dtd"
   xmlns:xlink="http://www.w3.org/1999/xlink"
   xmlns="http://www.w3.org/2000/svg"
   xmlns:svg="http://www.w3.org/2000/svg"><sodipodi:namedview
     id="namedview6"
     pagecolor="#505050"
     bordercolor="#eeeeee"
     borderopacity="1"
     inkscape:showpageshadow="0"
     inkscape:pageopacity="0"
     inkscape:pagecheckerboard="0"
     inkscape:deskcolor="#505050"
     inkscape:zoom="6.485495"
     inkscape:cx="25.133008"
     inkscape:cy="12.181029"
     inkscape:window-width="2560"
     inkscape:window-height="1411"
     inkscape:window-x="0"
     inkscape:window-y="0"
     inkscape:window-maximized="1"
     inkscape:current-layer="svg6" /><defs
     id="defs4"><linearGradient
       id="b"><stop
         offset="0"
         style="stop-color:#2d118b;stop-opacity:1"
         id="stop1" /><stop
         offset="1"
         style="stop-color:#1b046b;stop-opacity:1"
         id="stop2" /></linearGradient><linearGradient
       id="a"
       x1="7.937"
       x2="7.937"
       y1="15.081"
       y2="1.852"
       gradientTransform="translate(0 .032)scale(3.7795)"
       gradientUnits="userSpaceOnUse"><stop
         offset="0"
         stop-color="#262626"
         style="stop-color:#040fd9;stop-opacity:1"
         id="stop3" /><stop
         offset="1"
         stop-color="#505050"
         style="stop-color:#7104e8;stop-opacity:1"
         id="stop4" /></linearGradient><linearGradient
       xlink:href="#a"
       id="c"
       x1="8.711"
       x2="8.711"
       y1="17.849"
       y2=".668"
       gradientTransform="matrix(3.80894,0,0,3.80894,-68.246894,-39.99908)"
       gradientUnits="userSpaceOnUse" /><linearGradient
       xlink:href="#b"
       id="d"
       x1="-20.826"
       x2="-20.826"
       y1="-144.507"
       y2="-101.351"
       gradientTransform="translate(52.522 157.246)scale(1.00001)"
       gradientUnits="userSpaceOnUse" /><filter
       id="filter1057-9"
       x="-0.026999999"
       y="-0.026999999"
       width="1.054"
       height="1.054"
       color-interpolation-filters="sRGB"><feGaussianBlur
         stdDeviation="0.61875"
         id="feGaussianBlur1-1" /></filter><linearGradient
       id="linearGradient1053-2"
       x1="-127"
       x2="-127"
       y1="60"
       y2="5.7709513"
       gradientTransform="translate(131.4999,-0.50846061)"
       gradientUnits="userSpaceOnUse"><stop
         stop-color="#2e55e7"
         offset="0"
         id="stop1-3-7" /><stop
         stop-color="#0d7eef"
         offset="1"
         id="stop2-6-0"
         style="stop-color:#6c05e7;stop-opacity:1" /></linearGradient></defs><rect
     x="4.4999995"
     y="4.4999995"
     width="55"
     height="55"
     ry="15"
     fill="#141414"
     filter="url(#filter1057)"
     opacity="0.3"
     stroke-linecap="round"
     stroke-width="2.7444"
     id="rect3-9"
     style="filter:url(#filter1057-9)" /><rect
     x="4.4995003"
     y="4.4995003"
     width="55.000999"
     height="55.000999"
     ry="15"
     fill="url(#linearGradient1053)"
     stroke-linecap="round"
     stroke-width="2.7444"
     id="rect4-7"
     style="fill:url(#linearGradient1053-2)" /><path
     d="M16.726 12.728a2.57 2.57 0 0 0-2.569 2.568v33.408a2.57 2.57 0 0 0 2.569 2.568h25.623c4.75 0 7.494-2.544 7.494-7.494V15.296a2.57 2.57 0 0 0-2.569-2.568H22.081Z"
     style="fill:url(#d);fill-opacity:1;stroke-width:.891743"
     id="path5" /><path
     d="M-34.238-135.941v23.893a5.055 5.055 45 0 0 5.054 5.054h.031a1.905 1.905 135 0 0 1.905-1.905v-8.542a1.905 1.905 135 0 1 1.905-1.905h20.68a1.905 1.905 135 0 0 1.905-1.904v-3.18a1.905 1.905 45 0 0-1.905-1.904h-20.68a1.905 1.905 45 0 1-1.905-1.905v-3.864a1.905 1.905 135 0 1 1.905-1.905h20.68a1.905 1.905 135 0 0 1.905-1.905v-.028a5.055 5.055 45 0 0-5.055-5.055h-21.371a5.055 5.055 135 0 0-5.054 5.055"
     style="fill:#fff;fill-opacity:1;stroke-width:.968738"
     transform="translate(54.78 184.695)scale(1.23146)"
     id="path6" /></svg>
