<?xml version="1.0" encoding="UTF-8" standalone="no"?>
<svg
   width="64"
   height="64"
   version="1.1"
   id="svg9"
   sodipodi:docname="fluid.svg"
   inkscape:version="1.4.2 (ebf0e940d0, 2025-05-08)"
   xmlns:inkscape="http://www.inkscape.org/namespaces/inkscape"
   xmlns:sodipodi="http://sodipodi.sourceforge.net/DTD/sodipodi-0.dtd"
   xmlns="http://www.w3.org/2000/svg"
   xmlns:svg="http://www.w3.org/2000/svg">
  <sodipodi:namedview
     id="namedview9"
     pagecolor="#505050"
     bordercolor="#eeeeee"
     borderopacity="1"
     inkscape:showpageshadow="0"
     inkscape:pageopacity="0"
     inkscape:pagecheckerboard="0"
     inkscape:deskcolor="#505050"
     inkscape:zoom="4.5859375"
     inkscape:cx="59.311755"
     inkscape:cy="11.993186"
     inkscape:window-width="2560"
     inkscape:window-height="1411"
     inkscape:window-x="0"
     inkscape:window-y="0"
     inkscape:window-maximized="1"
     inkscape:current-layer="svg9" />
  <defs
     id="defs6">
    <linearGradient
       id="d"
       x1="16.348"
       x2="47.652"
       y1="40.479"
       y2="40.479"
       gradientUnits="userSpaceOnUse">
      <stop
         offset="0"
         stop-color="#3d9ade"
         id="stop1" />
      <stop
         offset="1"
         stop-color="#4ae0e8"
         id="stop2" />
    </linearGradient>
    <linearGradient
       id="c"
       x1="16.343"
       x2="47.652"
       y1="32.01"
       y2="32.01"
       gradientUnits="userSpaceOnUse">
      <stop
         offset="0"
         stop-color="#99c7ff"
         id="stop3" />
      <stop
         offset="1"
         stop-color="#b8e8ff"
         id="stop4" />
    </linearGradient>
    <linearGradient
       id="a"
       x1="7.937"
       x2="7.937"
       y1="15.081"
       y2="1.852"
       gradientTransform="matrix(3.7796,0,0,3.7796,-0.87223169,-17.444634)"
       gradientUnits="userSpaceOnUse">
      <stop
         offset="0"
         stop-color="#f1efeb"
         id="stop5" />
      <stop
         offset="1"
         stop-color="#fdfcfc"
         id="stop6" />
    </linearGradient>
    <filter
       id="b"
       width="1.2341052"
       height="1.2005747"
       x="-0.1170526"
       y="-0.10028733"
       color-interpolation-filters="sRGB">
      <feGaussianBlur
         stdDeviation="1.527"
         id="feGaussianBlur6" />
    </filter>
    <filter
       id="filter1057-5"
       x="-0.026999999"
       y="-0.026999999"
       width="1.054"
       height="1.054"
       color-interpolation-filters="sRGB">
      <feGaussianBlur
         stdDeviation="0.61875"
         id="feGaussianBlur1" />
    </filter>
    <linearGradient
       id="linearGradient1053-6"
       x1="-127"
       x2="-72"
       y1="60"
       y2="5"
       gradientTransform="matrix(1.0000071,0,0,1.0000071,131.50143,-0.51054797)"
       gradientUnits="userSpaceOnUse">
      <stop
         stop-color="#dee0e2"
         offset="0"
         id="stop1-3" />
      <stop
         stop-color="#f1f3f5"
         stop-opacity=".99608"
         offset="1"
         id="stop2-6" />
    </linearGradient>
    <linearGradient
       id="linearGradient1250-3"
       x1="4.7624002"
       x2="4.7624002"
       y1="12.435"
       y2="3.7040999"
       gradientTransform="matrix(0,0.86897,-0.86897,0,20.424,6.9743)"
       gradientUnits="userSpaceOnUse">
      <stop
         stop-color="#db2f2f"
         offset="0"
         id="stop3-7" />
      <stop
         stop-color="#e54243"
         offset="1"
         id="stop4-5" />
    </linearGradient>
    <linearGradient
       id="linearGradient1242-5"
       x1="4.7624002"
       x2="4.7624002"
       y1="12.435"
       y2="3.7040999"
       gradientTransform="matrix(0.43449,0.75255,-0.75255,0.43449,17.086,2.4463)"
       gradientUnits="userSpaceOnUse">
      <stop
         stop-color="#f36d01"
         offset="0"
         id="stop5-3" />
      <stop
         stop-color="#f69901"
         offset="1"
         id="stop6-5" />
    </linearGradient>
    <linearGradient
       id="linearGradient1234-6"
       x1="4.7624002"
       x2="4.7624002"
       y1="12.171"
       y2="3.7040999"
       gradientTransform="matrix(0.75255,0.43449,-0.43449,0.75255,11.745,0.29929)"
       gradientUnits="userSpaceOnUse">
      <stop
         stop-color="#fcaa00"
         offset="0"
         id="stop7" />
      <stop
         stop-color="#fdc500"
         offset="1"
         id="stop8" />
    </linearGradient>
    <linearGradient
       id="linearGradient1226-1"
       x1="4.7624002"
       x2="4.7624002"
       y1="12.725"
       y2="3.9686999"
       gradientTransform="matrix(0.86897,0,0,0.86897,6.1162,0.99661)"
       gradientUnits="userSpaceOnUse">
      <stop
         stop-color="#4dae33"
         offset="0"
         id="stop9" />
      <stop
         stop-color="#6fc84a"
         offset="1"
         id="stop10" />
    </linearGradient>
  </defs>
  <rect
     transform="matrix(1.0000071,0,0,1.0000071,-2.2781468e-4,-2.2781468e-4)"
     x="4.5"
     y="4.5"
     width="55"
     height="55"
     ry="15"
     fill="#141414"
     filter="url(#filter1057-5)"
     opacity="0.3"
     stroke-width="2.7444"
     id="rect10"
     style="stroke-linecap:round" />
  <rect
     x="4.4996166"
     y="4.4996166"
     width="55.000767"
     height="55.000767"
     ry="15.000484"
     fill="url(#linearGradient1053-6)"
     stroke-width="2.74444"
     id="rect11"
     style="fill:url(#linearGradient1053-6);stroke-linecap:round" />
  <path
     d="M25.04 15c1.737 1.748 1.727 3.138 1.727 5.244v4.35c-6.078 2.04-10.424 7.527-10.424 14.002 0 5.554 3.22 10.4 7.979 12.947h15.352c4.758-2.548 7.978-7.393 7.978-12.947 0-6.46-4.361-11.943-10.435-14.001v-4.351c0-2.094-.01-3.49 1.727-5.244h-13.91"
     filter="url(#b)"
     opacity=".15"
     id="path6" />
  <path
     fill="url(#c)"
     d="M25.04 13.739c1.737 1.748 1.727 3.138 1.727 5.244v4.35c-6.078 2.04-10.424 7.527-10.424 14.002 0 5.554 3.22 10.4 7.979 12.947h15.352c4.758-2.548 7.978-7.393 7.978-12.947 0-6.46-4.361-11.943-10.435-14.001v-4.351c0-2.094-.01-3.49 1.727-5.244h-13.91"
     id="path7" />
  <path
     fill="url(#d)"
     d="M17.978 30.696a14.1 14.1 0 0 0-1.63 6.604c0 5.549 3.23 10.414 7.989 12.963h15.326c4.758-2.547 7.989-7.414 7.989-12.963a14.14 14.14 0 0 0-1.63-6.604"
     id="path8" />
  <path
     fill="#f9f9f9"
     d="M35.913 47a.65.65 0 0 1-.652.652.654.654 0 0 1-.652-.652.65.65 0 0 1 .652-.652.65.65 0 0 1 .652.652m-1.956-2.935a.979.979 0 1 1-1.957 0 .979.979 0 0 1 1.957 0m1.956-4.239c0 .719-.586 1.304-1.304 1.304s-1.305-.585-1.305-1.304a1.303 1.303 0 1 1 2.609 0m0-9.783a1.957 1.957 0 1 1-3.914-.001 1.957 1.957 0 0 1 3.914.001m-3.261 5.544a1.63 1.63 0 1 1-3.26 0 1.63 1.63 0 1 1 3.26 0"
     opacity=".5"
     id="path9" />
</svg>
