<?xml version="1.0" encoding="UTF-8" standalone="no"?>
<svg
   xml:space="preserve"
   width="64"
   height="64"
   version="1.1"
   id="svg4"
   sodipodi:docname="football-manager.svg"
   inkscape:version="1.4.2 (ebf0e940d0, 2025-05-08)"
   xmlns:inkscape="http://www.inkscape.org/namespaces/inkscape"
   xmlns:sodipodi="http://sodipodi.sourceforge.net/DTD/sodipodi-0.dtd"
   xmlns:xlink="http://www.w3.org/1999/xlink"
   xmlns="http://www.w3.org/2000/svg"
   xmlns:svg="http://www.w3.org/2000/svg"><sodipodi:namedview
     id="namedview4"
     pagecolor="#505050"
     bordercolor="#eeeeee"
     borderopacity="1"
     inkscape:showpageshadow="0"
     inkscape:pageopacity="0"
     inkscape:pagecheckerboard="0"
     inkscape:deskcolor="#505050"
     inkscape:zoom="4.5859375"
     inkscape:cx="31.836457"
     inkscape:cy="33.798978"
     inkscape:window-width="2560"
     inkscape:window-height="1411"
     inkscape:window-x="0"
     inkscape:window-y="0"
     inkscape:window-maximized="1"
     inkscape:current-layer="svg4" /><defs
     id="defs4"><linearGradient
       id="a"><stop
         offset="0"
         style="stop-color:#321b51;stop-opacity:1"
         id="stop1" /><stop
         offset="1"
         style="stop-color:#c61a2d;stop-opacity:1"
         id="stop2" /></linearGradient><linearGradient
       id="b"
       x1="7.937"
       x2="7.937"
       y1="15.081"
       y2="1.852"
       gradientTransform="scale(3.7796)"
       gradientUnits="userSpaceOnUse"><stop
         offset="0"
         stop-color="#363636"
         style="stop-color:#000;stop-opacity:1"
         id="stop3" /><stop
         offset="1"
         stop-color="#6c6c6c"
         style="stop-color:#57200f;stop-opacity:1"
         id="stop4" /></linearGradient><linearGradient
       xlink:href="#a"
       id="c"
       x1="46.919"
       x2="46.919"
       y1="3.969"
       y2="59.971"
       gradientUnits="userSpaceOnUse"
       gradientTransform="translate(-88.313458,-14.173765)" /><filter
       id="filter1057-9"
       x="-0.026999999"
       y="-0.026999999"
       width="1.054"
       height="1.054"
       color-interpolation-filters="sRGB"><feGaussianBlur
         stdDeviation="0.61875"
         id="feGaussianBlur1" /></filter><linearGradient
       id="linearGradient1053-2"
       x1="-127"
       x2="-127"
       y1="60"
       y2="4.5638871"
       gradientTransform="matrix(1.0000071,0,0,1.0000071,131.50105,-0.51062401)"
       gradientUnits="userSpaceOnUse"><stop
         stop-color="#df2a2a"
         offset="0"
         id="stop1-3" /><stop
         stop-color="#f83f3f"
         offset="1"
         id="stop2-6"
         style="stop-color:#351b50;stop-opacity:1" /></linearGradient><linearGradient
       id="c-7"
       x1="11"
       x2="11.326"
       y1="1030.9"
       y2="1056.2"
       gradientTransform="matrix(1.8890073,0,0,-1.8890073,80.206425,1993.4511)"
       gradientUnits="userSpaceOnUse"><stop
         stop-color="#c52828"
         offset="0"
         id="stop3-5" /><stop
         stop-color="#ff5454"
         offset="1"
         id="stop4-3" /></linearGradient></defs><rect
     transform="matrix(1.0000071,0,0,1.0000071,-2.2781468e-4,-2.2781468e-4)"
     x="4.5"
     y="4.5"
     width="55"
     height="55"
     ry="15"
     fill="#141414"
     filter="url(#filter1057-9)"
     opacity="0.3"
     stroke-linecap="round"
     stroke-width="2.7444"
     id="rect4-5" /><rect
     x="4.4996166"
     y="4.4996166"
     width="55.000767"
     height="55.000767"
     ry="15.000484"
     fill="url(#linearGradient1053-2)"
     stroke-linecap="round"
     stroke-width="2.74444"
     id="rect5"
     style="fill:url(#linearGradient1053-2)" /><path
     d="M49.796 41.792c-1.817-.017-3.325-.05-3.35-.075-.053-.053-.12-.459-.195-1.19a174 174 0 0 0-.449-3.943c-.05-.388-.115-.957-.145-1.265s-.095-.89-.147-1.294a100 100 0 0 1-.32-2.88c-.017-.207-1.273 3.349-1.912 5.41a384 384 0 0 1-1.611 4.817c-.062.173-.15.338-.194.367s-1.077.051-2.295.052c-1.703 0-2.227-.016-2.27-.073-.08-.104-.133-.257-.635-1.839-.247-.776-.51-1.597-.587-1.824-.076-.226-.448-1.365-.826-2.53l-.823-2.53c-.074-.227-.249-.776-.39-1.22-.14-.446-.284-.81-.32-.81-.04 0-.083.172-.106.427-.021.234-.064.572-.094.75s-.098.668-.15 1.088c-.05.421-.117.924-.147 1.118s-.096.684-.147 1.089-.117.894-.147 1.088-.096.671-.147 1.06c-.05.388-.118.891-.15 1.117l-.205 1.53c-.2 1.515-.195 1.485-.298 1.524-.05.02-1.569.036-3.375.036-2.742 0-3.294-.014-3.351-.083-.05-.06-.052-.154-.01-.338.124-.544.412-2.104.656-3.551.027-.162.12-.678.205-1.147l.205-1.118c.19-1.043.252-1.377.327-1.766.047-.242.112-.609.144-.814s.082-.484.111-.618c.03-.135.081-.39.114-.568.18-.97.374-2.03.451-2.471.219-1.244.364-2.055.439-2.442.03-.162.098-.533.149-.824s.116-.649.145-.794c.047-.237.14-.748.296-1.619.168-.947.258-1.361.31-1.427.045-.058.88-.07 3.947-.059l3.889.016.157.47c.086.26.203.63.26.824s.161.538.234.765c.072.226.19.61.263.853s.208.68.301.97c.208.655.222.7.522 1.678.134.437.267.86.295.941s.121.386.207.677c.572 1.926.565 1.915.762 1.236.057-.195.124-.42.15-.5.027-.081.132-.426.235-.765l.24-.795.289-1c.13-.453.292-.996.362-1.206s.146-.462.17-.56c.025-.096.182-.626.35-1.176s.327-1.08.354-1.177c.167-.613.326-1.073.402-1.162.082-.097.326-.103 3.915-.089l3.828.016.073.147c.04.08.14.53.224 1s.177.985.208 1.147.097.52.146.795.155.857.236 1.294c.082.437.177.953.211 1.147.057.32.122.668.288 1.53.032.162.138.771.237 1.354.1.582.193 1.098.207 1.147.023.078.286 1.507.363 1.971.085.517.307 1.733.46 2.53.05.26.116.617.145.795.03.178.097.548.15.823.274 1.407.386 2.017.442 2.383.029.195.094.552.143.795.116.566.113.691-.013.748-.057.025-1.59.033-3.408.017m-39.018-.071c-.103-.103-.103-19.409 0-19.511.054-.055 1.891-.07 7.912-.07 7.407 0 7.844.005 7.896.102.032.06.034.224.005.397-.104.61-.41 2.312-.494 2.736-.048.243-.129.693-.18 1-.053.308-.12.67-.15.806s-.056.308-.057.383a.8.8 0 0 1-.075.283l-.074.147-4 .03-4 .028-.015 1.516c-.012 1.191 0 1.515.06 1.516h3.663c1.987 0 3.625.023 3.67.052.069.043.07.123.01.485-.11.676-.165.982-.267 1.521-.052.275-.119.646-.147.824a55 55 0 0 1-.416 2.244c-.041.158-.096.225-.206.252-.083.021-1.525.035-3.205.032s-3.083.01-3.116.03c-.039.025-.06.924-.06 2.582 0 1.9-.017 2.562-.07 2.615-.102.102-6.582.102-6.684 0"
     style="fill:#fff;fill-opacity:1;stroke-width:1.31562"
     id="path4" /></svg>
