<?xml version="1.0" encoding="UTF-8" standalone="no"?>
<svg
   width="64"
   height="64"
   version="1.1"
   id="svg16"
   sodipodi:docname="formatlab.svg"
   inkscape:version="1.4.2 (ebf0e940d0, 2025-05-08)"
   xmlns:inkscape="http://www.inkscape.org/namespaces/inkscape"
   xmlns:sodipodi="http://sodipodi.sourceforge.net/DTD/sodipodi-0.dtd"
   xmlns="http://www.w3.org/2000/svg"
   xmlns:svg="http://www.w3.org/2000/svg">
  <sodipodi:namedview
     id="namedview16"
     pagecolor="#505050"
     bordercolor="#eeeeee"
     borderopacity="1"
     inkscape:showpageshadow="0"
     inkscape:pageopacity="0"
     inkscape:pagecheckerboard="0"
     inkscape:deskcolor="#505050"
     inkscape:zoom="9.171875"
     inkscape:cx="31.50937"
     inkscape:cy="30.637138"
     inkscape:window-width="2560"
     inkscape:window-height="1411"
     inkscape:window-x="0"
     inkscape:window-y="0"
     inkscape:window-maximized="1"
     inkscape:current-layer="svg16" />
  <defs
     id="defs2">
    <linearGradient
       id="a"
       x1="7.937"
       x2="7.937"
       y1="15.081"
       y2="1.852"
       gradientTransform="scale(3.7796)"
       gradientUnits="userSpaceOnUse">
      <stop
         offset="0"
         stop-color="#f1efeb"
         id="stop1" />
      <stop
         offset="1"
         stop-color="#fdfcfc"
         id="stop2" />
    </linearGradient>
    <filter
       id="filter1057-5"
       x="-0.026999999"
       y="-0.026999999"
       width="1.054"
       height="1.054"
       color-interpolation-filters="sRGB">
      <feGaussianBlur
         stdDeviation="0.61875"
         id="feGaussianBlur1" />
    </filter>
    <linearGradient
       id="linearGradient1053-6"
       x1="-127"
       x2="-72"
       y1="60"
       y2="5"
       gradientTransform="matrix(1.0000071,0,0,1.0000071,131.50144,-0.51054765)"
       gradientUnits="userSpaceOnUse">
      <stop
         stop-color="#dee0e2"
         offset="0"
         id="stop1-3" />
      <stop
         stop-color="#f1f3f5"
         stop-opacity=".99608"
         offset="1"
         id="stop2-6" />
    </linearGradient>
  </defs>
  <rect
     transform="matrix(1.0000071,0,0,1.0000071,-2.2781468e-4,-2.2781468e-4)"
     x="4.5"
     y="4.5"
     width="55"
     height="55"
     ry="15"
     fill="#141414"
     filter="url(#filter1057-5)"
     opacity="0.3"
     stroke-width="2.7444"
     id="rect10-3"
     style="stroke-linecap:round" />
  <rect
     x="4.4996166"
     y="4.4996166"
     width="55.000767"
     height="55.000767"
     ry="15.000484"
     fill="url(#linearGradient1053-6)"
     stroke-width="2.74444"
     id="rect11-6"
     style="fill:url(#linearGradient1053-6);stroke-linecap:round" />
  <rect
     width="40"
     height="29"
     x="12"
     y="16"
     fill="#5aaae7"
     rx="4"
     ry="4"
     style="paint-order:stroke fill markers"
     id="rect3" />
  <path
     fill="#acabb1"
     d="M25 53h14l-2-9H27z"
     style="paint-order:stroke fill markers"
     id="path3" />
  <path
     fill="#c6c5ca"
     d="M12 38v3c0 2.216 1.784 4 4 4h32c2.216 0 4-1.784 4-4v-3z"
     style="paint-order:stroke fill markers"
     id="path4" />
  <rect
     width="18"
     height="3"
     x="23"
     y="51"
     fill="#898890"
     rx="1.5"
     ry="1.5"
     style="paint-order:stroke fill markers"
     id="rect4" />
  <circle
     cx="23.463"
     cy="28"
     r="7"
     fill="#e6e7e8"
     style="paint-order:stroke fill markers"
     id="circle4" />
  <path
     fill="#ff9811"
     d="M25 9c-1.108 0-2 .892-2 2v5h1v-5c0-.554.446-1 1-1h14c.554 0 1 .446 1 1v5h1v-5c0-1.108-.892-2-2-2z"
     style="paint-order:stroke fill markers"
     id="path5" />
  <rect
     width="5"
     height="9"
     x="21"
     y="16"
     fill="#e6e7e8"
     rx="1.5"
     ry="1.5"
     style="paint-order:stroke fill markers"
     id="rect5" />
  <rect
     width="7"
     height="3"
     x="20"
     y="15"
     fill="#d1d3d4"
     rx="1.5"
     ry="1.5"
     style="paint-order:stroke fill markers"
     id="rect6" />
  <path
     fill="#00ccb3"
     d="M25.547 24.648c-2.534-.037-2.339.702-5.318 1.082-1.258.16-2.344-.126-3.182-.508A7 7 0 0 0 16.463 28a7 7 0 0 0 7 7 7 7 0 0 0 7-7 7 7 0 0 0-.367-2.228c-1.212-.275-2.393-1.091-4.549-1.123"
     style="paint-order:stroke fill markers"
     id="path6" />
  <rect
     width="1.472"
     height="1.472"
     x="22.021"
     y="20.957"
     opacity=".15"
     rx="0"
     ry="0"
     style="paint-order:stroke fill markers"
     id="rect7" />
  <rect
     width="1.472"
     height="1.472"
     x="19.793"
     y="27.096"
     opacity=".15"
     rx="0"
     ry="0"
     style="paint-order:stroke fill markers"
     id="rect8" />
  <rect
     width="1.472"
     height="1.472"
     x="24.351"
     y="25.602"
     opacity=".15"
     rx="0"
     ry="0"
     style="paint-order:stroke fill markers"
     id="rect9" />
  <rect
     width="1.472"
     height="1.472"
     x="23.576"
     y="29.281"
     opacity=".15"
     rx="0"
     ry="0"
     style="paint-order:stroke fill markers"
     id="rect10" />
  <path
     fill="#e6e7e8"
     d="M39.322 20.971a1 1 0 0 0-.916.596l-4.879 11.02a1 1 0 0 0 .912 1.407l12.002.012a1 1 0 0 0 .93-1.368l-4.352-11.035a1 1 0 0 0-.93-.632z"
     color="#000"
     style="-inkscape-stroke:none;paint-order:stroke fill markers"
     id="path10" />
  <path
     fill="#ffd422"
     d="m36 27-2.473 5.588a1 1 0 0 0 .912 1.406l12.002.012a1 1 0 0 0 .93-1.367l-2.223-5.64z"
     style="paint-order:stroke fill markers"
     id="path11" />
  <rect
     width="1.472"
     height="1.472"
     x="39.528"
     y="30.264"
     opacity=".15"
     rx="0"
     ry="0"
     style="paint-order:stroke fill markers"
     id="rect11" />
  <rect
     width="5"
     height="9"
     x="38"
     y="16"
     fill="#e6e7e8"
     rx="1.5"
     ry="1.5"
     style="paint-order:stroke fill markers"
     id="rect12" />
  <rect
     width="7"
     height="3"
     x="37"
     y="15"
     fill="#d1d3d4"
     rx="1.5"
     ry="1.5"
     style="paint-order:stroke fill markers"
     id="rect13" />
  <rect
     width="1.472"
     height="1.472"
     x="40.264"
     y="23"
     opacity=".15"
     rx="0"
     ry="0"
     style="paint-order:stroke fill markers"
     id="rect14" />
  <rect
     width="1.472"
     height="1.472"
     x="36.791"
     y="28.264"
     opacity=".15"
     rx="0"
     ry="0"
     style="paint-order:stroke fill markers"
     id="rect15" />
  <rect
     width="1.472"
     height="1.472"
     x="42.791"
     y="29.264"
     opacity=".15"
     rx="0"
     ry="0"
     style="paint-order:stroke fill markers"
     id="rect16" />
  <path
     fill="#898890"
     d="M45 40h2v2h-2z"
     style="paint-order:stroke fill markers"
     id="path16" />
</svg>
