<?xml version="1.0" encoding="UTF-8" standalone="no"?>
<svg
   xml:space="preserve"
   width="64"
   height="64"
   version="1.1"
   id="svg3"
   sodipodi:docname="fortnite.svg"
   inkscape:version="1.4.2 (ebf0e940d0, 2025-05-08)"
   xmlns:inkscape="http://www.inkscape.org/namespaces/inkscape"
   xmlns:sodipodi="http://sodipodi.sourceforge.net/DTD/sodipodi-0.dtd"
   xmlns="http://www.w3.org/2000/svg"
   xmlns:svg="http://www.w3.org/2000/svg"><sodipodi:namedview
     id="namedview3"
     pagecolor="#505050"
     bordercolor="#eeeeee"
     borderopacity="1"
     inkscape:showpageshadow="0"
     inkscape:pageopacity="0"
     inkscape:pagecheckerboard="0"
     inkscape:deskcolor="#505050"
     inkscape:zoom="4.5859375"
     inkscape:cx="88.531516"
     inkscape:cy="10.030664"
     inkscape:window-width="2560"
     inkscape:window-height="1411"
     inkscape:window-x="0"
     inkscape:window-y="0"
     inkscape:window-maximized="1"
     inkscape:current-layer="svg3" /><defs
     id="defs2"><linearGradient
       id="a"
       x1="7.937"
       x2="7.937"
       y1="15.081"
       y2="1.852"
       gradientTransform="matrix(3.7796,0,0,3.7796,0,-11.775128)"
       gradientUnits="userSpaceOnUse"><stop
         offset="0"
         stop-color="#363636"
         style="stop-color:#75defb;stop-opacity:1"
         id="stop1" /><stop
         offset="1"
         stop-color="#6c6c6c"
         style="stop-color:#2c9bde;stop-opacity:1"
         id="stop2" /></linearGradient><filter
       id="b"
       width="1.5144104"
       height="1.2057579"
       x="-0.25720522"
       y="-0.10287894"
       style="color-interpolation-filters:sRGB"><feGaussianBlur
         stdDeviation="1.938"
         id="feGaussianBlur2" /></filter><filter
       id="filter1057"
       x="-0.026999999"
       y="-0.026999999"
       width="1.054"
       height="1.054"
       color-interpolation-filters="sRGB"><feGaussianBlur
         stdDeviation="0.61875"
         id="feGaussianBlur2-3" /></filter><linearGradient
       id="linearGradient1053"
       x1="-127"
       x2="-72"
       y1="60"
       y2="5"
       gradientTransform="matrix(1.0000071,0,0,1.0000071,131.50331,-0.51039728)"
       gradientUnits="userSpaceOnUse"><stop
         stop-color="#32d7ff"
         offset="0"
         id="stop3" /><stop
         stop-color="#329bff"
         offset="1"
         id="stop4" /></linearGradient></defs><rect
     transform="matrix(1.0000071,0,0,1.0000071,-2.2781468e-4,-2.2781468e-4)"
     x="4.5"
     y="4.5"
     width="55"
     height="55"
     ry="15"
     fill="#141414"
     filter="url(#filter1057)"
     opacity="0.3"
     stroke-linecap="round"
     stroke-width="2.7444"
     id="rect4" /><rect
     x="4.4996166"
     y="4.4996166"
     width="55.000767"
     height="55.000767"
     ry="15.000484"
     fill="url(#linearGradient1053)"
     stroke-linecap="round"
     stroke-width="2.74444"
     id="rect5"
     style="fill:url(#linearGradient1053)" /><path
     d="M22.998 54.506c-.057-.091-.048-44.746.008-44.972l.043-.17 8.997.018 8.997.018-.006.311c-.007.363-.14 2.041-.234 2.938-.068.655-.1 1.01-.385 4.183-.097 1.083-.205 2.04-.24 2.125l-.065.155-3.649.018-3.648.018-.018 3.625c-.014 2.854 0 3.636.07 3.68.047.03 1.494.056 3.214.056l3.129.001-.001 2.61c0 3.212-.112 6.713-.217 6.84-.06.072-.682.09-3.11.09-1.667 0-3.036.008-3.04.018s-.019 3.714-.032 8.233-.043 8.275-.066 8.348c-.027.086-.107.132-.228.133-.102.001-.403.06-.669.13s-.717.165-1.002.21c-.592.093-.87.143-2.074.379a65 65 0 0 1-1.556.282c-.38.063-.816.142-.968.176s-.805.157-1.451.274c-.647.117-1.271.243-1.388.28-.271.084-.357.082-.411-.007"
     style="fill:#000;fill-opacity:1;stroke-width:.681868;filter:url(#b);opacity:.25"
     id="path2" /><path
     d="M22.998 54.506c-.057-.091-.048-44.746.008-44.972l.043-.17 8.997.018 8.997.018-.006.311c-.007.363-.14 2.041-.234 2.938-.068.655-.1 1.01-.385 4.183-.097 1.083-.205 2.04-.24 2.125l-.065.155-3.649.018-3.648.018-.018 3.625c-.014 2.854 0 3.636.07 3.68.047.03 1.494.056 3.214.056l3.129.001-.001 2.61c0 3.212-.112 6.713-.217 6.84-.06.072-.682.09-3.11.09-1.667 0-3.036.008-3.04.018s-.019 3.714-.032 8.233-.043 8.275-.066 8.348c-.027.086-.107.132-.228.133-.102.001-.403.06-.669.13s-.717.165-1.002.21c-.592.093-.87.143-2.074.379a65 65 0 0 1-1.556.282c-.38.063-.816.142-.968.176s-.805.157-1.451.274c-.647.117-1.271.243-1.388.28-.271.084-.357.082-.411-.007"
     style="fill:#fff;fill-opacity:1;stroke-width:.681868"
     id="path3" /></svg>
