<?xml version="1.0" encoding="UTF-8" standalone="no"?>
<svg
   width="64"
   height="64"
   version="1.1"
   id="svg2"
   sodipodi:docname="foxit-reader.svg"
   xml:space="preserve"
   inkscape:version="1.4.2 (ebf0e940d0, 2025-05-08)"
   xmlns:inkscape="http://www.inkscape.org/namespaces/inkscape"
   xmlns:sodipodi="http://sodipodi.sourceforge.net/DTD/sodipodi-0.dtd"
   xmlns:xlink="http://www.w3.org/1999/xlink"
   xmlns="http://www.w3.org/2000/svg"
   xmlns:svg="http://www.w3.org/2000/svg"><sodipodi:namedview
     id="namedview2"
     pagecolor="#505050"
     bordercolor="#eeeeee"
     borderopacity="1"
     inkscape:showpageshadow="0"
     inkscape:pageopacity="0"
     inkscape:pagecheckerboard="0"
     inkscape:deskcolor="#505050"
     inkscape:zoom="4.5859375"
     inkscape:cx="26.821124"
     inkscape:cy="21.369676"
     inkscape:window-width="2560"
     inkscape:window-height="1411"
     inkscape:window-x="0"
     inkscape:window-y="0"
     inkscape:window-maximized="1"
     inkscape:current-layer="svg2" /><defs
     id="defs2"><linearGradient
       id="a"
       x1="7.937"
       x2="7.937"
       y1="15.081"
       y2="1.852"
       gradientTransform="scale(3.7796)"
       gradientUnits="userSpaceOnUse"><stop
         offset="0"
         stop-color="#f54800"
         id="stop1" /><stop
         offset="1"
         stop-color="#ffb200"
         id="stop2" /></linearGradient><filter
       inkscape:collect="always"
       style="color-interpolation-filters:sRGB"
       id="filter1057"
       x="-0.026999999"
       width="1.054"
       y="-0.026999999"
       height="1.054"><feGaussianBlur
         inkscape:collect="always"
         stdDeviation="0.61875"
         id="feGaussianBlur1059" /></filter><linearGradient
       inkscape:collect="always"
       xlink:href="#linearGradient1051"
       id="linearGradient1053"
       x1="-127"
       y1="60"
       x2="-72"
       y2="5"
       gradientUnits="userSpaceOnUse"
       gradientTransform="translate(131.5,-0.51000076)" /><linearGradient
       inkscape:collect="always"
       id="linearGradient1051"><stop
         style="stop-color:#ff8228;stop-opacity:1"
         offset="0"
         id="stop1047" /><stop
         id="stop963"
         offset="0.50054371"
         style="stop-color:#ff5a1e;stop-opacity:0.99607843" /><stop
         style="stop-color:#ff8c55;stop-opacity:0.99607843"
         offset="1"
         id="stop1049" /></linearGradient></defs><rect
     ry="15"
     y="4.4999995"
     x="4.4999995"
     height="55"
     width="55"
     id="rect1055"
     style="opacity:0.3;fill:#141414;fill-opacity:1;stroke-width:2.74436;stroke-linecap:round;filter:url(#filter1057)" /><rect
     style="fill:url(#linearGradient1053);fill-opacity:1;stroke-width:2.74436;stroke-linecap:round"
     id="rect1045"
     width="54.999996"
     height="54.999996"
     x="4.5000019"
     y="4.5000019"
     ry="14.999999" /><g
     id="g7064"
     transform="matrix(0.64982564,0,0,0.64982564,-129.44462,54.143268)"><path
       id="path7061"
       style="fill:#ffffff;fill-opacity:1;stroke:none;stroke-width:1;stroke-linecap:round;stroke-linejoin:bevel;stroke-dasharray:none"
       d="m 238.70846,-62.046875 -21.04297,0.216797 9.75977,17.33789 c 0.12568,-0.136599 0.25244,-0.271623 0.3789,-0.40625 4.6411,-4.940626 9.60136,-8.681897 14.34766,-11.185546 z m 8.57617,14.855469 c -3.79098,1.972021 -8.34373,5.042665 -12.1914,9.138672 -0.84479,0.899313 -1.66536,1.841527 -2.45117,2.828125 l 6.99609,12.429687 h 0.002 c 3.90201,-0.68622 10.9752,-2.863178 17.01758,-6.539062 0.23215,-0.141229 0.4618,-0.284311 0.68945,-0.429688 l -10.06054,-17.427734 z m 15.06641,26.09375 c -0.16535,0.103073 -0.3305,0.205899 -0.49609,0.30664 -5.94972,3.619512 -12.13074,5.887032 -17.08008,7.119141 l 4.26758,7.5820312 h 21.97265 z" /><path
       style="baseline-shift:baseline;display:inline;overflow:visible;vector-effect:none;fill:#ffffff;fill-opacity:1;stroke-linecap:round;stroke-linejoin:bevel;enable-background:accumulate;stop-color:#000000"
       d="m 278.87897,-62.06157 c 0,0 -15.03355,6.090515 -25.3643,7.324037 -10.33074,1.233521 -37.09219,18.103802 -34.25743,48.0867664 m 0,0 c 0,0 0.29704,0.4446096 1.56911,-0.634722 1.27206,-1.0793317 10.26053,-9.0143414 19.41896,-10.5407464 9.15843,-1.526406 30.31005,-9.212947 33.68995,-25.67632 0,0 -1.11755,-1.063033 -3.46167,-0.109029 -2.34412,0.954003 -4.96082,1.008518 -4.79727,-0.735946 0.16354,-1.744463 2.26235,-1.989778 4.66098,-3.65247 2.39864,-1.662692 10.65063,-7.162322 8.54167,-14.06157"
       id="path7063" /></g></svg>
