<?xml version="1.0" encoding="UTF-8" standalone="no"?>
<svg
   width="64"
   height="64"
   version="1.1"
   id="svg5"
   sodipodi:docname="fr.dwightstudio.JArmEmu.svg"
   inkscape:version="1.4.2 (ebf0e940d0, 2025-05-08)"
   xmlns:inkscape="http://www.inkscape.org/namespaces/inkscape"
   xmlns:sodipodi="http://sodipodi.sourceforge.net/DTD/sodipodi-0.dtd"
   xmlns:xlink="http://www.w3.org/1999/xlink"
   xmlns="http://www.w3.org/2000/svg"
   xmlns:svg="http://www.w3.org/2000/svg">
  <sodipodi:namedview
     id="namedview5"
     pagecolor="#505050"
     bordercolor="#eeeeee"
     borderopacity="1"
     inkscape:showpageshadow="0"
     inkscape:pageopacity="0"
     inkscape:pagecheckerboard="0"
     inkscape:deskcolor="#505050"
     inkscape:zoom="9.171875"
     inkscape:cx="26.385009"
     inkscape:cy="29.437819"
     inkscape:window-width="2560"
     inkscape:window-height="1411"
     inkscape:window-x="0"
     inkscape:window-y="0"
     inkscape:window-maximized="1"
     inkscape:current-layer="svg5" />
  <defs
     id="defs2">
    <linearGradient
       id="a"
       x1="7.937"
       x2="7.937"
       y1="15.081"
       y2="1.852"
       gradientTransform="matrix(3.7795,0,0,3.7795,-31.836457,-35.293383)"
       gradientUnits="userSpaceOnUse">
      <stop
         offset="0"
         stop-color="#1fe0aa"
         id="stop1" />
      <stop
         offset="1"
         stop-color="#b2ff85"
         id="stop2" />
    </linearGradient>
    <filter
       id="b"
       width="1.3018923"
       height="1.286511"
       x="-0.15094615"
       y="-0.14325552"
       style="color-interpolation-filters:sRGB">
      <feGaussianBlur
         stdDeviation="19.623"
         id="feGaussianBlur2" />
    </filter>
    <filter
       inkscape:collect="always"
       style="color-interpolation-filters:sRGB"
       id="filter1057"
       x="-0.026999999"
       width="1.054"
       y="-0.026999999"
       height="1.054">
      <feGaussianBlur
         inkscape:collect="always"
         stdDeviation="0.61875"
         id="feGaussianBlur1059" />
    </filter>
    <linearGradient
       inkscape:collect="always"
       xlink:href="#linearGradient1051"
       id="linearGradient1053"
       x1="-127"
       y1="60"
       x2="-72"
       y2="5"
       gradientUnits="userSpaceOnUse"
       gradientTransform="translate(131.5,-0.50999847)" />
    <linearGradient
       inkscape:collect="always"
       id="linearGradient1051">
      <stop
         style="stop-color:#02db96;stop-opacity:1"
         offset="0"
         id="stop1047" />
      <stop
         style="stop-color:#13d39b;stop-opacity:1"
         offset="1"
         id="stop1049" />
    </linearGradient>
  </defs>
  <rect
     ry="15"
     y="4.4999995"
     x="4.4999995"
     height="55"
     width="55"
     id="rect1055"
     style="opacity:0.3;fill:#141414;fill-opacity:1;stroke-width:2.74436;stroke-linecap:round;filter:url(#filter1057)" />
  <rect
     style="fill:url(#linearGradient1053);fill-opacity:1;stroke-width:2.74436;stroke-linecap:round"
     id="rect1045"
     width="54.999996"
     height="54.999996"
     x="4.5000019"
     y="4.5000019"
     ry="14.999999" />
  <g
     style="opacity:.25;fill:#000;fill-opacity:1;filter:url(#b)"
     transform="translate(-2.72 2.087)scale(.13563)"
     id="g3" />
  <g
     id="g5"
     transform="matrix(0.89709576,0,0,0.89709576,3.2917874,3.4363536)">
    <path
       d="m 174.491,314.574 c -2.519,-4.318 -6.477,-7.737 -11.515,-10.436 -5.218,-2.519 -10.796,-3.958 -16.734,-3.958 -13.495,0 -24.65,3.958 -33.287,12.055 -8.637,8.277 -12.955,19.613 -12.955,34.367 0,15.114 4.138,26.81 12.595,35.087 8.457,8.276 19.433,12.235 33.107,12.055 q 8.097,0 16.734,-4.318 8.367,-4.05 11.875,-11.336 v 12.955 h 21.772 V 302.34 h -21.772 z m -26.45,5.218 c 6.658,0 12.236,1.98 16.734,5.578 4.498,3.779 7.197,8.277 8.277,13.495 1.08,5.398 1.08,10.616 0,15.834 -1.08,5.218 -3.779,9.716 -8.277,13.315 -4.498,3.778 -10.076,5.578 -16.733,5.578 -7.558,0 -13.675,-2.34 -18.713,-7.197 -5.038,-4.859 -7.557,-11.516 -7.557,-19.793 0,-8.277 2.519,-14.754 7.557,-19.612 5.038,-4.679 11.155,-7.198 18.713,-7.198 M 261.759,300 c -5.398,0 -10.256,0.9 -14.215,2.519 -4.138,1.8 -7.737,5.038 -10.795,10.076 V 302.34 h -21.952 v 88.706 h 21.952 v -46.782 c 0,-7.557 2.519,-13.135 7.557,-16.913 5.038,-3.6 10.796,-5.578 17.453,-5.578 z m 92.485,91.045 v -47.502 c 0,-6.117 1.619,-11.155 5.218,-15.474 q 5.397,-6.477 14.034,-6.477 c 5.578,0 9.717,2.159 12.415,6.117 2.88,3.959 4.139,9.177 4.139,15.474 v 47.862 H 412 v -47.862 c 0,-13.494 -3.058,-23.93 -9.356,-31.128 -6.298,-7.197 -15.654,-10.975 -28.25,-10.975 q -19.431,0 -29.688,16.193 c -4.498,-10.975 -13.315,-16.553 -26.27,-16.553 -4.678,0 -9.356,1.08 -13.674,3.059 q -6.478,2.969 -9.717,9.176 l 0.18,-10.796 h -22.131 v 88.886 h 21.951 v -47.502 c 0,-6.117 1.8,-11.335 5.218,-15.654 3.418,-4.319 7.917,-6.657 13.675,-6.657 q 8.637,0 13.495,6.477 c 3.239,4.319 4.678,9.717 4.678,15.834 v 47.502 z"
       aria-label="arm"
       style="font-weight:700;font-size:179.931px;line-height:10;font-family:'Vice City Sans Bold';-inkscape-font-specification:'Vice City Sans Bold, Bold';text-align:center;text-anchor:middle;fill:#ffffff;stroke-width:0.499278;stroke-linecap:round;stroke-linejoin:round"
       transform="matrix(0.13563,0,0,0.13563,-2.72,0.73)"
       id="path4" />
    <path
       d="m 294.486,261.914 c 8.473,2.26 17.511,3.39 27.397,3.39 q 39.823,0 63.548,-24.572 c 15.534,-16.382 23.442,-37.565 23.442,-63.831 V 63.644 H 371.592 V 176.9 c 0,15.816 -4.237,28.808 -12.71,38.694 -8.473,9.885 -20.9,14.686 -37,14.686 -11.014,0 -20.052,-1.694 -27.396,-5.366 v 37.564 -0.282 z"
       aria-label="J"
       style="font-weight:700;font-size:282.437px;line-height:10;font-family:'Vice City Sans Bold';-inkscape-font-specification:'Vice City Sans Bold, Bold';text-align:center;text-anchor:middle;fill:#ffffff;stroke-width:6.76508;stroke-linecap:round;stroke-linejoin:round"
       transform="matrix(0.1328,0,0,0.13852,-2.72,0.73)"
       id="path5" />
  </g>
</svg>
