<?xml version="1.0" encoding="UTF-8" standalone="no"?>
<svg
   width="64"
   height="64"
   enable-background="new 0 0 1024 1024"
   image-rendering="optimizeSpeed"
   version="1.1"
   id="svg19"
   sodipodi:docname="freemind.svg"
   inkscape:version="1.4.2 (ebf0e940d0, 2025-05-08)"
   xmlns:inkscape="http://www.inkscape.org/namespaces/inkscape"
   xmlns:sodipodi="http://sodipodi.sourceforge.net/DTD/sodipodi-0.dtd"
   xmlns:xlink="http://www.w3.org/1999/xlink"
   xmlns="http://www.w3.org/2000/svg"
   xmlns:svg="http://www.w3.org/2000/svg">
  <sodipodi:namedview
     id="namedview19"
     pagecolor="#505050"
     bordercolor="#eeeeee"
     borderopacity="1"
     inkscape:showpageshadow="0"
     inkscape:pageopacity="0"
     inkscape:pagecheckerboard="0"
     inkscape:deskcolor="#505050"
     inkscape:zoom="6.485495"
     inkscape:cx="-10.484936"
     inkscape:cy="37.005656"
     inkscape:window-width="2560"
     inkscape:window-height="1411"
     inkscape:window-x="0"
     inkscape:window-y="0"
     inkscape:window-maximized="1"
     inkscape:current-layer="svg19" />
  <defs
     id="defs2">
    <linearGradient
       id="a"
       x1="7.937"
       x2="7.937"
       y1="15.081"
       y2="1.852"
       gradientTransform="matrix(3.7796,0,0,3.7796,-5.669506,-15.264054)"
       gradientUnits="userSpaceOnUse">
      <stop
         offset="0"
         stop-color="#f1efeb"
         id="stop1" />
      <stop
         offset="1"
         stop-color="#fdfcfc"
         id="stop2" />
    </linearGradient>
    <filter
       id="b"
       width="1.8147498"
       height="2.0168439"
       x="-0.4073749"
       y="-0.50842195"
       color-interpolation-filters="sRGB">
      <feGaussianBlur
         stdDeviation="6.261"
         id="feGaussianBlur2" />
    </filter>
    <filter
       inkscape:collect="always"
       style="color-interpolation-filters:sRGB"
       id="filter1057"
       x="-0.026999999"
       width="1.054"
       y="-0.026999999"
       height="1.054">
      <feGaussianBlur
         inkscape:collect="always"
         stdDeviation="0.61875"
         id="feGaussianBlur1059" />
    </filter>
    <linearGradient
       inkscape:collect="always"
       xlink:href="#linearGradient1051"
       id="linearGradient1053"
       x1="-127"
       y1="60"
       x2="-72"
       y2="5"
       gradientUnits="userSpaceOnUse"
       gradientTransform="translate(131.5,-0.5099993)" />
    <linearGradient
       inkscape:collect="always"
       id="linearGradient1051">
      <stop
         style="stop-color:#dee0e2;stop-opacity:1"
         offset="0"
         id="stop1047" />
      <stop
         style="stop-color:#f1f3f5;stop-opacity:0.99607843"
         offset="1"
         id="stop1049" />
    </linearGradient>
  </defs>
  <rect
     ry="15"
     y="4.4999995"
     x="4.4999995"
     height="55"
     width="55"
     id="rect1055"
     style="opacity:0.3;fill:#141414;fill-opacity:1;stroke-width:2.74436;stroke-linecap:round;filter:url(#filter1057)" />
  <rect
     style="fill:url(#linearGradient1053);fill-opacity:1;stroke-width:2.74436;stroke-linecap:round"
     id="rect1045"
     width="54.999996"
     height="54.999996"
     x="4.5000019"
     y="4.5000019"
     ry="14.999999" />
  <g
     transform="matrix(0.07031,0,0,0.08529,46.862163,-5.4414641)"
     id="g19">
    <path
       fill="#ffaa41"
       d="m -216.34,437.3 -138.48,3.862 c 0,0 -26.17,11.532 -41.931,30.897 -12.874,15.816 -21.333,58.115 8.828,97.103 27.007,34.91 82.759,44.69 105.93,35.31 25.877,-10.473 70.622,-123.58 70.622,-123.58 z"
       id="path3" />
    <path
       fill="#be824b"
       d="m -214.38,454.53 -1.963,-17.231 -138.48,3.862 c 0,0 -3.384,1.502 -8.414,4.288 44.426,4.43 107.35,22.117 148.86,9.08 z"
       id="path4" />
    <path
       fill="#594759"
       d="m -447.42,270.15 c -3.79,0 -7.267,0.512 -10.4,1.594 -4.067,1.408 -9.561,6.254 -9.561,15.08 0,26.874 34.464,102.23 51.916,138.67 5.886,12.29 18.236,20.085 31.839,20.085 l 0.386,-0.002 c 39.686,-0.431 139.02,-2.113 171.86,-8.68 0,0 -167.73,-166.74 -236.04,-166.74 z"
       id="path5" />
    <path
       fill="#ffaa41"
       d="m -383.624,427.918 c -6.847,0 -12.946,-3.853 -15.916,-10.057 l -0.072,-0.15 a 116.7,116.7 0 0 1 -10.157,-33.102 c -2.994,-19.975 -4.004,-39.335 -0.898,-43.373 5.103,-6.635 28.043,-6.187 53.258,-2.03 5.798,0.957 11.29,3.253 15.948,6.836 27.488,21.148 55.873,45.468 80.948,68.438 3.719,3.406 1.553,9.622 -3.481,9.913 -30.48,1.766 -71.61,3.004 -119.63,3.525"
       id="path6" />
    <circle
       cx="-427.66"
       cy="308.75"
       r="16.552"
       fill="#be824b"
       id="circle6" />
    <g
       fill="#908490"
       transform="translate(-467.38,182.99)"
       id="g8">
      <circle
         cx="75.123001"
         cy="132.64999"
         r="8.6359997"
         id="circle7" />
      <circle
         cx="36.887001"
         cy="160.39999"
         r="6.9520001"
         id="circle8" />
    </g>
    <path
       fill="#594759"
       d="m -376.9,527.78 c -13.277,-26.87 -3.913,-41.025 -16.1,-59.976 -1.298,1.376 -2.567,2.783 -3.762,4.252 -12.874,15.816 -21.333,58.115 8.828,97.103 27.007,34.91 82.759,44.69 105.93,35.31 5.82,-2.356 12.596,-9.928 19.6,-20.211 -45.233,7.254 -94.164,-15.33 -114.5,-56.478 z"
       id="path8" />
    <path
       fill="#be824b"
       d="m -341.461,346.04 c -4.658,-3.582 -10.15,-5.878 -15.948,-6.834 -21.9,-3.612 -42.046,-4.41 -50.32,-0.214 48.13,23.41 109.625,65.795 137.632,85.727 2.036,-0.11 4.152,-0.213 6.102,-0.327 5.035,-0.291 7.2,-6.506 3.48,-9.913 -25.072,-22.97 -53.458,-47.29 -80.946,-68.438 z"
       id="path9" />
    <path
       fill="#ffaa41"
       d="m -206.41,437.3 138.48,3.862 c 0,0 26.169,11.531 41.93,30.897 12.875,15.816 21.334,58.115 -8.827,97.103 -27.007,34.91 -82.76,44.69 -105.93,35.31 -25.876,-10.473 -70.621,-123.58 -70.621,-123.58 z"
       id="path10" />
    <path
       fill="#be824b"
       d="m -208.38,454.53 1.963,-17.231 138.48,3.862 c 0,0 3.384,1.502 8.414,4.288 -44.426,4.43 -107.35,22.117 -148.86,9.08 z"
       id="path11" />
    <path
       fill="#594759"
       d="m -211.38,436.89 c 32.834,6.568 132.173,8.249 171.86,8.68 q 0.193,0.003 0.386,0.003 c 13.603,0 25.953,-7.795 31.839,-20.085 17.452,-36.435 51.915,-111.792 51.915,-138.666 0,-8.828 -5.494,-13.674 -9.564,-15.081 -3.132,-1.082 -6.61,-1.594 -10.4,-1.594 -68.304,0 -236.036,166.744 -236.036,166.744 z"
       id="path12" />
    <path
       fill="#ffaa41"
       d="m -158.762,424.394 c -5.035,-0.291 -7.2,-6.507 -3.481,-9.913 25.074,-22.97 53.46,-47.292 80.948,-68.438 4.658,-3.583 10.15,-5.88 15.948,-6.835 25.215,-4.158 48.154,-4.606 53.258,2.029 3.106,4.039 2.095,23.399 -0.898,43.373 a 116.7,116.7 0 0 1 -10.157,33.103 l -0.072,0.149 c -2.97,6.204 -9.07,10.057 -15.916,10.057 -48.022,-0.522 -89.153,-1.76 -119.63,-3.525"
       id="path13" />
    <circle
       cx="4.8969998"
       cy="308.75"
       r="16.552"
       fill="#be824b"
       id="circle13" />
    <g
       fill="#908490"
       transform="translate(-467.38,182.99)"
       id="g15">
      <circle
         cx="436.88"
         cy="132.64999"
         r="8.6359997"
         id="circle14" />
      <circle
         cx="475.10999"
         cy="160.39999"
         r="6.9520001"
         id="circle15" />
    </g>
    <path
       fill="#594759"
       d="m -45.862,527.78 c 13.277,-26.87 3.913,-41.025 16.099,-59.976 1.299,1.376 2.568,2.783 3.763,4.252 12.874,15.816 21.333,58.115 -8.828,97.103 -27.007,34.91 -82.76,44.69 -105.93,35.31 -5.82,-2.356 -12.595,-9.928 -19.6,-20.211 45.234,7.254 94.165,-15.33 114.5,-56.478 z"
       id="path15" />
    <path
       fill="#be824b"
       d="m -81.297,346.04 c 4.658,-3.582 10.15,-5.878 15.948,-6.834 21.899,-3.612 42.046,-4.41 50.319,-0.214 -48.13,23.41 -109.624,65.795 -137.631,85.727 -2.036,-0.11 -4.152,-0.213 -6.102,-0.327 -5.035,-0.291 -7.2,-6.506 -3.481,-9.913 25.073,-22.97 53.459,-47.29 80.947,-68.438 z"
       id="path16" />
    <path
       fill="#908490"
       d="m -211.38,423.5 a 4.4,4.4 0 0 1 -3.741,-2.073 l -44.138,-70.621 a 4.41,4.41 0 0 1 1.405,-6.082 c 2.05,-1.29 4.793,-0.672 6.078,1.4 l 40.397,64.635 40.396,-64.633 c 1.302,-2.073 4.043,-2.69 6.078,-1.401 a 4.41,4.41 0 0 1 1.405,6.082 l -44.138,70.62 a 4.4,4.4 0 0 1 -3.741,2.073 z"
       id="path17" />
    <path
       fill="#463246"
       d="m -211.38,569.16 a 8.826,8.826 0 0 1 -8.828,-8.828 v -88.276 a 8.826,8.826 0 0 1 8.828,-8.828 8.826,8.826 0 0 1 8.828,8.828 v 88.276 a 8.826,8.826 0 0 1 -8.828,8.828 m 0,-119.17 c -7.31,0 -13.241,-5.927 -13.241,-13.241 v -17.655 c 0,-7.315 5.931,-13.241 13.241,-13.241 7.31,0 13.241,5.927 13.241,13.241 v 17.655 c 0,7.315 -5.931,13.241 -13.241,13.241"
       id="path18" />
    <path
       fill="#594759"
       d="m -211.38,480.88 c -9.75,0 -17.654,-7.904 -17.654,-17.655 V 445.57 c 0,-9.751 7.904,-17.655 17.655,-17.655 9.75,0 17.655,7.904 17.655,17.655 v 17.655 c 0,9.75 -7.904,17.655 -17.655,17.655 z"
       id="path19" />
  </g>
</svg>
