<?xml version="1.0" encoding="UTF-8" standalone="no"?>
<svg
   width="64"
   height="64"
   version="1.1"
   id="svg9"
   sodipodi:docname="freetube.svg"
   inkscape:version="1.4.2 (ebf0e940d0, 2025-05-08)"
   xmlns:inkscape="http://www.inkscape.org/namespaces/inkscape"
   xmlns:sodipodi="http://sodipodi.sourceforge.net/DTD/sodipodi-0.dtd"
   xmlns:xlink="http://www.w3.org/1999/xlink"
   xmlns="http://www.w3.org/2000/svg"
   xmlns:svg="http://www.w3.org/2000/svg">
  <sodipodi:namedview
     id="namedview9"
     pagecolor="#505050"
     bordercolor="#eeeeee"
     borderopacity="1"
     inkscape:showpageshadow="0"
     inkscape:pageopacity="0"
     inkscape:pagecheckerboard="0"
     inkscape:deskcolor="#505050"
     inkscape:zoom="6.485495"
     inkscape:cx="18.040257"
     inkscape:cy="29.912906"
     inkscape:window-width="2560"
     inkscape:window-height="1411"
     inkscape:window-x="0"
     inkscape:window-y="0"
     inkscape:window-maximized="1"
     inkscape:current-layer="svg9" />
  <defs
     id="defs6">
    <linearGradient
       id="a"
       x1="7.937"
       x2="7.937"
       y1="15.081"
       y2="1.852"
       gradientTransform="matrix(3.7796,0,0,3.7796,3.3921852,-13.10617)"
       gradientUnits="userSpaceOnUse">
      <stop
         offset="0"
         stop-color="#f1efeb"
         id="stop1" />
      <stop
         offset="1"
         stop-color="#fdfcfc"
         id="stop2" />
    </linearGradient>
    <linearGradient
       id="c"
       x1="30"
       x2="30"
       y1="13"
       y2="50"
       gradientUnits="userSpaceOnUse">
      <stop
         offset="0"
         stop-color="#ff6033"
         id="stop3" />
      <stop
         offset="1"
         stop-color="#f51414"
         id="stop4" />
    </linearGradient>
    <linearGradient
       id="d"
       x1="33"
       x2="33"
       y1="43"
       y2="26"
       gradientUnits="userSpaceOnUse">
      <stop
         offset="0"
         stop-color="#1371c3"
         id="stop5" />
      <stop
         offset="1"
         stop-color="#33c4ff"
         id="stop6" />
    </linearGradient>
    <filter
       id="b"
       width="1.2134244"
       height="1.21876"
       x="-0.10671219"
       y="-0.10938"
       color-interpolation-filters="sRGB">
      <feGaussianBlur
         stdDeviation="1.823"
         id="feGaussianBlur6" />
    </filter>
    <filter
       inkscape:collect="always"
       style="color-interpolation-filters:sRGB"
       id="filter1057"
       x="-0.026999999"
       width="1.054"
       y="-0.026999999"
       height="1.054">
      <feGaussianBlur
         inkscape:collect="always"
         stdDeviation="0.61875"
         id="feGaussianBlur1059" />
    </filter>
    <linearGradient
       inkscape:collect="always"
       xlink:href="#linearGradient1051"
       id="linearGradient1053"
       x1="-127"
       y1="60"
       x2="-72"
       y2="5"
       gradientUnits="userSpaceOnUse"
       gradientTransform="translate(131.5,-0.50999927)" />
    <linearGradient
       inkscape:collect="always"
       id="linearGradient1051">
      <stop
         style="stop-color:#dee0e2;stop-opacity:1"
         offset="0"
         id="stop1047" />
      <stop
         style="stop-color:#f1f3f5;stop-opacity:0.99607843"
         offset="1"
         id="stop1049" />
    </linearGradient>
  </defs>
  <rect
     ry="15"
     y="4.4999995"
     x="4.4999995"
     height="55"
     width="55"
     id="rect1055"
     style="opacity:0.3;fill:#141414;fill-opacity:1;stroke-width:2.74436;stroke-linecap:round;filter:url(#filter1057)" />
  <rect
     style="fill:url(#linearGradient1053);fill-opacity:1;stroke-width:2.74436;stroke-linecap:round"
     id="rect1045"
     width="54.999996"
     height="54.999996"
     x="4.5000019"
     y="4.5000019"
     ry="14.999999" />
  <rect
     width="64"
     height="64"
     fill="none"
     rx="0"
     ry="0"
     style="paint-order:stroke fill markers"
     id="rect6" />
  <path
     fill="url(#c)"
     d="M14.75 12C13.226 12 12 13.275 12 14.857v30C12 49.143 17.5 52 20.25 52H23V14.857C23 13.274 21.774 12 20.25 12zm14.092 0C27.267 12 26 13.226 26 14.75v5.5c0 1.524 1.267 2.75 2.842 2.75h17.053C50.158 23 53 17.5 53 14.75V12z"
     id="path8" />
  <path
     fill="url(#d)"
     d="M27.321 26A1.291 1.141 0 0 0 26 27.143V41.86a1.291 1.141 0 0 0 1.936.987l14.419-7.36a1.291 1.141 0 0 0 0-1.975l-14.42-7.36a1.291 1.141 0 0 0-.614-.153z"
     id="path9" />
</svg>
