<?xml version="1.0" encoding="UTF-8" standalone="no"?>
<svg
   width="64"
   height="64"
   viewBox="0 0 16.933 16.933"
   version="1.1"
   id="svg6"
   sodipodi:docname="ftl.svg"
   inkscape:version="1.4.2 (ebf0e940d0, 2025-05-08)"
   xmlns:inkscape="http://www.inkscape.org/namespaces/inkscape"
   xmlns:sodipodi="http://sodipodi.sourceforge.net/DTD/sodipodi-0.dtd"
   xmlns:xlink="http://www.w3.org/1999/xlink"
   xmlns="http://www.w3.org/2000/svg"
   xmlns:svg="http://www.w3.org/2000/svg">
  <sodipodi:namedview
     id="namedview6"
     pagecolor="#505050"
     bordercolor="#eeeeee"
     borderopacity="1"
     inkscape:showpageshadow="0"
     inkscape:pageopacity="0"
     inkscape:pagecheckerboard="0"
     inkscape:deskcolor="#505050"
     inkscape:zoom="6.485495"
     inkscape:cx="-17.423497"
     inkscape:cy="26.674911"
     inkscape:window-width="2560"
     inkscape:window-height="1411"
     inkscape:window-x="0"
     inkscape:window-y="0"
     inkscape:window-maximized="1"
     inkscape:current-layer="svg6" />
  <defs
     id="defs4">
    <linearGradient
       id="linearGradient12"
       inkscape:collect="always">
      <stop
         style="stop-color:#141519;stop-opacity:1"
         offset="0"
         id="stop12" />
      <stop
         style="stop-color:#37343d;stop-opacity:1"
         offset="1"
         id="stop13" />
    </linearGradient>
    <linearGradient
       id="linearGradient9"
       inkscape:collect="always">
      <stop
         style="stop-color:#6f5f5b;stop-opacity:1"
         offset="0"
         id="stop9" />
      <stop
         style="stop-color:#111110;stop-opacity:1"
         offset="1"
         id="stop10" />
    </linearGradient>
    <linearGradient
       id="linearGradient8"
       x1="-127"
       x2="-72"
       y1="60"
       y2="5"
       gradientTransform="matrix(0.26457812,0,0,0.26457812,34.792023,-0.1349349)"
       gradientUnits="userSpaceOnUse">
      <stop
         stop-color="#1d2123"
         offset="0"
         id="stop7" />
      <stop
         stop-color="#33393e"
         stop-opacity=".99608"
         offset="1"
         id="stop8"
         style="stop-color:#111110;stop-opacity:1" />
    </linearGradient>
    <linearGradient
       id="a"
       x1="2.955"
       x2="14.374"
       y1="3.008"
       y2="14.316"
       gradientUnits="userSpaceOnUse"
       gradientTransform="translate(-18.202254)">
      <stop
         offset="0"
         stop-color="#3b3741"
         id="stop1" />
      <stop
         offset="1"
         stop-color="#101215"
         id="stop2" />
    </linearGradient>
    <linearGradient
       id="b"
       x1="-2.381"
       x2="6.879"
       y1="7.144"
       y2="-1.587"
       gradientUnits="userSpaceOnUse"
       gradientTransform="translate(-8.996,-8.3222541)">
      <stop
         offset="0"
         stop-color="#7d6b66"
         id="stop3" />
      <stop
         offset="1"
         stop-color="#0b0c0b"
         id="stop4" />
    </linearGradient>
    <filter
       id="filter1057-2"
       x="-0.026999999"
       y="-0.026999999"
       width="1.054"
       height="1.054"
       color-interpolation-filters="sRGB">
      <feGaussianBlur
         stdDeviation="0.61875"
         id="feGaussianBlur51" />
    </filter>
    <linearGradient
       id="linearGradient1053-0"
       x1="-127"
       x2="-72"
       y1="60"
       y2="5"
       gradientTransform="matrix(0.26457812,0,0,0.26457812,34.792023,-0.1349349)"
       gradientUnits="userSpaceOnUse"
       xlink:href="#linearGradient8">
      <stop
         stop-color="#1d2123"
         offset="0"
         id="stop51"
         style="stop-color:#101215;stop-opacity:1" />
      <stop
         stop-color="#33393e"
         stop-opacity=".99608"
         offset="1"
         id="stop52"
         style="stop-color:#3b3741;stop-opacity:1" />
    </linearGradient>
    <linearGradient
       inkscape:collect="always"
       xlink:href="#linearGradient9"
       id="linearGradient10"
       x1="1.1906016"
       y1="9.026145"
       x2="8.9961729"
       y2="1.1906016"
       gradientUnits="userSpaceOnUse" />
    <linearGradient
       inkscape:collect="always"
       xlink:href="#linearGradient12"
       id="linearGradient13"
       x1="1.1906015"
       y1="15.742398"
       x2="15.742398"
       y2="1.1906016"
       gradientUnits="userSpaceOnUse" />
  </defs>
  <rect
     x="4.4999995"
     y="4.5"
     width="55"
     height="55"
     ry="15"
     fill="#141414"
     filter="url(#filter1057-2)"
     opacity="0.3"
     stroke-linecap="round"
     stroke-width="2.7444"
     id="rect52"
     transform="scale(0.26457812)" />
  <rect
     x="1.1906016"
     y="1.1906016"
     width="14.551797"
     height="14.551797"
     ry="3.9686718"
     fill="url(#linearGradient1053-0)"
     stroke-linecap="round"
     stroke-width="0.726108"
     id="rect53"
     style="fill:url(#linearGradient13);fill-opacity:1" />
  <path
     id="rect6"
     style="fill:url(#linearGradient10);opacity:1;fill-opacity:1"
     d="M 5.1592734 1.1906016 C 2.9606293 1.1906016 1.1906016 2.9606293 1.1906016 5.1592734 L 1.1906016 8.8457975 A 6.4 6.4 0 0 0 2.6457812 9.0261447 A 6.35 6.35 0 0 0 8.996173 2.675753 A 6.4 6.4 0 0 0 8.8184096 1.1906016 L 5.1592734 1.1906016 z " />
  <path
     fill="#ffffff"
     d="M 4.8001333,1.191321 C 4.7221943,1.186451 4.6841991,1.205934 4.6578947,1.261466 l -0.00292,0.00585 h 0.357545 A 0.09742372,0.09742372 0 0 0 4.9521167,1.259526 C 4.9248377,1.268296 4.9034047,1.257576 4.9043787,1.236144 4.9053529,1.214711 4.8595637,1.195226 4.8001353,1.191329 M 5.012519,1.267319 Q 5.028107,1.274139 5.038823,1.28583 C 5.066102,1.317006 5.075844,1.312134 5.078767,1.268294 Z m 0.066248,0 H 5.3262232 C 5.3155062,1.232246 5.2804342,1.220556 5.2054178,1.215684 5.1138398,1.209834 5.0816897,1.223474 5.078767,1.267319 m 0.2474562,0 a 0.19484745,0.19484745 0 0 1 -0.00195,0.085733 0.06819661,0.06819661 0 0 0 0.02533,0.0643 c 0.01851,0.012665 0.022407,0.045789 0.00974,0.073068 -0.011691,0.028253 -0.00487,0.051635 0.016562,0.053583 0.021433,9.742e-4 0.040918,-0.022407 0.041892,-0.052609 0.00195,-0.030201 0.019485,-0.044815 0.037021,-0.031176 0.019485,0.012665 0.035073,0.00877 0.036047,-0.00974 C 5.4918395,1.431968 5.4694322,1.406637 5.4421532,1.393972 5.4129262,1.380333 5.3924672,1.337466 5.3944152,1.297522 q 9.743e-4,-0.017536 0.00682,-0.029227 z m 0.075016,0 h 0.5114745 l -0.048712,-0.0039 C 5.4947658,1.234192 5.4197495,1.229321 5.401239,1.267319 m 0.5114745,0 0.4159993,0.035073 0.0039,0.11496 c 0.00292,0.085733 0.019485,0.11496 0.0643,0.1100888 q 0.058454,-0.00487 0.056506,0.0643 a 0.29227117,0.29227117 0 0 0 0.021433,0.1169084 c 0.03897,0.073068 -0.014614,0.1178828 -0.087681,0.073068 q -0.1227539,-0.074042 -0.087681,-0.00585 c 0.010717,0.019485 -0.012665,0.035073 -0.052609,0.03215 -0.03897,-0.00195 -0.072094,-0.019485 -0.070145,-0.038969 0.00195,-0.044815 -0.038969,-0.047738 -0.1617233,-0.00974 -0.091578,0.029227 -0.094501,0.036047 -0.044815,0.092553 0.048712,0.054557 0.048712,0.0643 -0.0039,0.097424 -0.031176,0.019485 -0.063325,0.083784 -0.072094,0.1422387 a 0.48711862,0.48711862 0 0 1 -0.043841,0.1461356 c -0.015588,0.022407 -0.012665,0.063325 0.00682,0.08963 0.019485,0.026304 0.022407,0.058454 0.00682,0.074042 -0.014614,0.014614 -0.00292,0.019485 0.026304,0.013639 0.029227,-0.00779 0.072094,-0.046763 0.093527,-0.087681 0.021433,-0.040918 0.055531,-0.074042 0.075016,-0.073068 0.019485,0 -0.00292,-0.024356 -0.048712,-0.054557 l -0.085733,-0.055532 0.1227539,0.00974 c 0.068197,0.00585 0.1471098,0.00682 0.1763369,9.742e-4 q 0.054557,-0.011691 0.058454,0.096449 c 0.0039,0.058454 0.016562,0.1227539 0.029227,0.1422386 0.036047,0.056506 0.021433,0.1003465 -0.061377,0.1948475 -0.076965,0.085733 -0.2591471,0.1363932 -0.2883742,0.080862 -0.020459,-0.037995 -0.1782854,0.00682 -0.168543,0.047738 0.0039,0.015588 0.049686,0.034098 0.1032691,0.039944 0.052609,0.00585 0.1344448,0.029227 0.1812081,0.053583 0.080862,0.040918 0.081836,0.044815 0.013639,0.062351 a 0.97423724,0.97423724 0 0 0 -0.139316,0.051635 C 5.8854343,2.9537218 5.82698,2.9089068 5.8299027,2.8309678 c 0,-0.013639 -0.014614,-0.026304 -0.033124,-0.027279 q -0.034098,-0.00195 -0.00585,0.08963 c 0.026304,0.081836 0.021433,0.090604 -0.044815,0.076965 -0.060403,-0.013639 -0.075991,0.0039 -0.08963,0.097424 -0.022407,0.1568522 0.034098,0.1821824 0.1510067,0.066248 0.2221261,-0.2211518 0.4247675,-0.2903227 0.5095261,-0.1734142 0.036047,0.048712 0.034098,0.0643 -0.00974,0.090604 -0.044815,0.027279 -0.044815,0.030201 9.743e-4,0.019485 0.097424,-0.021433 0.1812081,0.055532 0.1539294,0.1422386 -0.021433,0.067222 -0.00974,0.08281 0.08281,0.1071661 0.1656203,0.043841 0.1948475,0.03897 0.2182292,-0.03215 0.016562,-0.048712 0.05066,-0.065274 0.1324962,-0.058454 0.077939,0.00779 0.1042434,0.024356 0.08963,0.05748 -0.011691,0.026304 0.00292,0.046763 0.033124,0.048712 0.085733,0.00585 0.056506,-0.1539294 -0.029227,-0.1617233 A 0.58454234,0.58454234 0 0 1 6.7846546,3.0686761 C 6.7106125,3.0141188 6.6404675,2.981969 6.6297509,2.9965826 c -0.00974,0.014613 -0.062351,0.020459 -0.11496,0.014613 -0.078913,-0.00974 -0.098398,-0.03215 -0.1100888,-0.1266508 -0.00877,-0.067222 -0.040918,-0.1237281 -0.078913,-0.1383417 -0.055531,-0.021433 -0.058454,-0.035073 -0.016562,-0.097424 A 0.68196607,0.68196607 0 0 1 6.4426973,2.5123867 C 6.5031,2.468546 6.5177136,2.4393189 6.4923834,2.411066 c -0.056506,-0.0643 -0.035072,-0.131522 0.040918,-0.1266508 0.03897,0.00195 0.071119,-0.019485 0.073068,-0.048712 a 0.05163457,0.05163457 0 0 0 -0.046763,-0.055531 c -0.027279,-0.00195 -0.055532,-0.015588 -0.062351,-0.030201 q -0.011691,-0.021433 -0.00585,0.015588 A 0.06819661,0.06819661 0 0 1 6.462182,2.2288836 C 6.4047021,2.2600592 6.3384539,2.1753006 6.3540417,2.0885935 l 0.018511,-0.1110631 c 0.00195,-0.017536 0.014614,-0.020459 0.026304,-0.00779 0.011691,0.012665 0.046763,0.00682 0.077939,-0.015588 0.043841,-0.03215 0.05748,-0.031176 0.067222,0.0039 0.00682,0.02533 0.068197,0.048712 0.1363932,0.052609 0.077939,0.00487 0.1412644,0.03215 0.168543,0.072094 0.024356,0.037021 0.043841,0.046763 0.046763,0.022407 0.00195,-0.023382 -0.027279,-0.075016 -0.0643,-0.1130115 -0.063326,-0.068197 -0.052609,-0.2104353 0.012665,-0.1636719 0.026304,0.017536 0.079887,-0.042866 0.1178827,-0.1354189 0.00779,-0.019485 0.026304,-0.029227 0.039944,-0.024356 0.048712,0.019485 0.1743884,-0.1022949 0.1782854,-0.1734142 0.00292,-0.053583 -0.019485,-0.076965 -0.08963,-0.086707 -0.052609,-0.00779 -0.1100888,-0.03215 -0.1295736,-0.054557 -0.024356,-0.029227 0.00292,-0.034098 0.097424,-0.018511 0.071119,0.012665 0.1305478,0.00974 0.1315221,-0.00487 9.742e-4,-0.015588 0.065274,-0.024356 0.1432128,-0.019485 0.1130116,0.00682 0.139316,0.020459 0.1363933,0.073068 -0.00292,0.05066 0.015588,0.063326 0.083784,0.054557 0.05066,-0.00682 0.081836,-0.029227 0.071119,-0.052609 -0.00974,-0.022407 0.00585,-0.00974 0.034098,0.029227 0.028253,0.039944 0.05066,0.087681 0.048712,0.1042434 0,0.018511 0.021433,0.02533 0.048712,0.016562 0.029227,-0.00974 0.070145,0.00877 0.092553,0.038969 q 0.03897,0.055532 0.077939,0.020459 c 0.038969,-0.035073 0.019485,-0.055532 -0.017536,-0.1022949 -0.099372,-0.1237281 -0.063325,-0.151981 0.1792597,-0.1363932 0.1256766,0.00682 0.2269973,0.02533 0.2269973,0.03897 -0.00195,0.045789 0.1841308,0.2679152 0.2250488,0.2708379 0.051634,0.00292 0.048712,0.047738 -0.00682,0.096449 -0.033124,0.029227 -0.030201,0.044815 0.013639,0.065274 0.061377,0.027279 0.074042,0.1247024 0.015588,0.1208054 -0.019485,-9.742e-4 -0.037021,0.024356 -0.038969,0.056506 -0.00292,0.051635 -0.011691,0.048712 -0.075016,-0.013639 -0.043841,-0.043841 -0.076965,-0.05748 -0.087681,-0.034098 -0.00779,0.021433 -0.055531,0.029227 -0.1061918,0.015588 q -0.092553,-0.02339 -0.068197,0.019477 c 0.012665,0.022407 0.038969,0.041892 0.058454,0.042867 0.03897,0.00292 0.1588007,0.1510067 0.1578264,0.1967959 0,0.014614 0.029227,0.063325 0.065274,0.1071661 0.036047,0.043841 0.065274,0.096449 0.0643,0.1169084 -0.0039,0.058454 0.1656203,0.063326 0.1909505,0.00585 0.013639,-0.029227 0.00585,-0.077939 -0.017536,-0.1100888 -0.034098,-0.048712 -0.031176,-0.053583 0.016562,-0.031176 0.05066,0.021433 0.05748,0.0039 0.052609,-0.1295736 A 5.8454234,5.8454234 0 0 0 8.675649,1.4436484 c -0.00877,-0.029227 -0.00779,-0.051635 0.00195,-0.05066 L 8.706826,1.2673118 Z m 1.8091586,4.9257434 c -0.045789,-0.040918 -0.081836,-0.097424 -0.080862,-0.1247023 0.00195,-0.028253 -0.012665,-0.05066 -0.03215,-0.052609 -0.043841,-0.00195 -0.047738,0.043841 -0.00585,0.090604 0.051635,0.058454 -0.010717,0.1909505 -0.088656,0.1851051 -0.056506,-0.00292 -0.067222,0.012665 -0.054557,0.08281 0.019485,0.098398 -0.015588,0.1958217 -0.068197,0.1928989 A 0.48711862,0.48711862 0 0 0 7.229881,6.6626373 0.48711862,0.48711862 0 0 1 7.0623122,6.7581125 C 7.0399047,6.7571383 6.9775535,6.7931851 6.9239705,6.838 Z M 4.4094642,1.2712084 c 0.00585,-0.079887 -0.011691,-0.071119 -0.422819,-0.0039 z m 0,0 -0.00292,0.033124 c -0.00292,0.056506 -0.02533,0.1100888 -0.05066,0.1188569 -0.036047,0.011691 -0.036047,0.015588 -9.742e-4,0.019485 0.023382,0.00292 0.041892,0.029227 0.039944,0.058454 -0.0039,0.073068 0.0643,0.070145 0.092553,-0.00292 A 0.97423724,0.97423724 0 0 1 4.5409862,1.3861684 Q 4.5702133,1.3355081 4.5049394,1.26926 l -9.742e-4,-9.743e-4 q -0.048712,0 -0.094501,0.00292 m 0.094501,-0.00292 h 0.1169085 c -0.0039,-0.036047 -0.031176,-0.054557 -0.090604,-0.058454 -0.090604,-0.00585 -0.091578,-0.00487 -0.026304,0.058454 m 0.1169085,0 0.00195,0.00974 q -0.00487,0.068197 0.03215,-0.00974 z m 3.568631,4.467852 Q 8.2703664,5.5870794 8.3122586,5.4779648 c 0.185105,-0.226023 0.010717,-0.2484305 -0.00779,-0.3098074 -0.1208055,0.00974 -0.1636719,0.068197 -0.05748,0.077939 0.055531,0.0039 0.054557,0.00877 -0.00974,0.051635 q -0.076965,0.048712 -0.020459,0.051635 0.056506,0.00292 -0.013639,0.036047 c -0.035073,0.017536 -0.079887,0.021433 -0.097424,0.00877 -0.019485,-0.013639 -0.035073,-0.00682 -0.036047,0.013639 -0.00195,0.023382 -0.037021,0.027279 -0.088656,0.010717 -0.054557,-0.016562 -0.087681,-0.012665 -0.08963,0.011691 -9.743e-4,0.022407 0.036047,0.060403 0.083784,0.085733 0.060403,0.03215 0.081836,0.071119 0.075991,0.1363932 l -0.00974,0.090604 -0.03215,-0.099372 C 7.9917345,5.5890279 7.9634816,5.5442129 7.9469196,5.5432387 7.9303576,5.5422645 7.9254864,5.5578523 7.936203,5.577337 A 0.38969489,0.38969489 0 0 1 7.96543,5.6884001 c 0.00487,0.039944 0.015588,0.1081403 0.023382,0.1510067 0.00682,0.042866 0.00585,0.05748 -0.0039,0.03215 C 7.946917,5.7731588 7.894308,5.8257678 7.906973,5.9494958 L 7.919638,6.0771209 7.856312,5.9943109 A 0.29227117,0.29227117 0 0 1 7.7939643,5.8842217 c 9.743e-4,-0.014614 -0.030201,-0.019485 -0.070145,-0.012665 -0.039944,0.00682 -0.070145,-0.00292 -0.068197,-0.02533 0,-0.021433 -0.021433,-0.039944 -0.05066,-0.041892 -0.029227,-0.00195 -0.053583,0.012665 -0.055532,0.031176 a 0.03507254,0.03507254 0 0 0 0.034098,0.037995 c 0.019485,0 0.033124,0.026304 0.031176,0.055532 -0.00195,0.029227 0.019485,0.0643 0.045789,0.076965 0.027279,0.011691 0.038969,0.043841 0.027279,0.071119 q -0.026304,0.052609 0.041892,0.029227 c 0.049686,-0.016562 0.058454,-0.00779 0.037995,0.037021 -0.019485,0.042866 -0.00682,0.058454 0.054557,0.061377 0.05748,0.0039 0.1052177,-0.034098 0.1714658,-0.1383417 Q 8.1096172,5.8861702 8.1895047,5.7361377 M 6.6969732,1.306281 a 0.03604678,0.03604678 0 0 1 0.034098,0.037995 c -9.742e-4,0.019485 -0.00974,0.035073 -0.017536,0.034098 -0.00877,0 -0.023382,-0.017536 -0.035073,-0.037995 -0.00974,-0.019485 -0.00195,-0.035073 0.018511,-0.034098 M 6.2634377,1.325766 q -0.00585,-0.00585 -0.027279,0.024356 c -0.043841,0.061377 -0.048712,0.1013207 -0.012665,0.1042434 0.015588,0 0.033124,-0.034098 0.038969,-0.076965 q 0.00682,-0.045789 0,-0.051635 m 0.1588007,0.00487 q 0.00682,-0.00292 0.023382,0.026304 c 0.014614,0.028253 0.045789,0.040918 0.068197,0.029227 0.021433,-0.011691 0.068197,9.743e-4 0.1042434,0.029227 0.063325,0.05066 0.063325,0.053583 -0.00682,0.1344448 -0.038969,0.044815 -0.074042,0.070145 -0.07599,0.055531 l -0.00974,-0.062351 -0.00974,-0.071119 c 0,-0.019485 -0.02533,-0.037021 -0.054557,-0.03897 -0.029227,-9.742e-4 -0.05066,-0.030201 -0.048712,-0.0643 q 0.00292,-0.036047 0.00974,-0.038969 M 7.30782,1.4134471 c -0.029227,-9.743e-4 -0.053583,0.012665 -0.054557,0.03215 -9.743e-4,0.019485 0.03897,0.037995 0.087681,0.040918 0.05066,0.00292 0.086707,-0.012665 0.080862,-0.033124 -0.00585,-0.020459 -0.021433,-0.038969 -0.035073,-0.037995 z m -0.2727865,0.037995 q 0.00682,0 0.012665,0.00292 a 0.03896949,0.03896949 0 0 1 0.00585,0.051635 q -0.044815,0.068197 -0.038969,-0.020459 0.00292,-0.033124 0.021433,-0.034098 m -2.9227117,0.013639 c -0.019485,-9.742e-4 -0.029227,0.014614 -0.017536,0.034098 0.011691,0.019485 0.026304,0.037021 0.035073,0.037995 0.00779,0 0.016562,-0.014614 0.017536,-0.034098 a 0.03604678,0.03604678 0 0 0 -0.035073,-0.037995 m 1.445768,0.036047 c -0.013639,-9.742e-4 -0.036047,0.012665 -0.056506,0.037995 -0.027279,0.033124 -0.041892,0.074042 -0.033124,0.090604 0.00877,0.015588 0.03897,0.00195 0.065274,-0.031176 0.028253,-0.033124 0.042866,-0.074042 0.034098,-0.08963 a 0.00974237,0.00974237 0 0 0 -0.00974,-0.00779 m 0.4861444,0.011691 q -0.035073,0 0.00292,0.053583 c 0.044815,0.061377 0.088656,0.05066 0.054557,-0.012665 a 0.09742372,0.09742372 0 0 0 -0.058454,-0.040918 m 1.527604,0.043841 q -0.034098,-0.00487 -0.022407,0.034098 c 0.017536,0.054557 0.1130115,0.075991 0.1169085,0.02533 0,-0.016562 -0.029227,-0.040918 -0.065274,-0.052609 z M 6.3686553,1.569325 C 6.33066,1.5664023 6.256618,1.6433671 6.2751285,1.6764911 q 0.020459,0.034098 0.071119,-0.022407 c 0.028253,-0.034098 0.043841,-0.069171 0.036047,-0.078913 a 0.01948474,0.01948474 0 0 0 -0.013639,-0.00585 m -1.5909294,0.00682 c -0.019485,0 -0.037021,0.022407 -0.03897,0.05066 -0.00195,0.029227 0.012665,0.053583 0.03215,0.054557 0.019485,9.742e-4 0.036047,-0.021433 0.03897,-0.049686 9.742e-4,-0.029227 -0.012665,-0.054557 -0.03215,-0.055532 m 0.5241396,0.024356 c -0.023382,-0.0039 -0.056506,0.019485 -0.1256766,0.080862 -0.11496,0.099372 -0.1363932,0.1578264 -0.060403,0.1626976 0.018511,0 0.034098,-0.01851 0.036047,-0.042866 0.0039,-0.065274 0.1266508,-0.1490583 0.185105,-0.1256766 0.041892,0.016562 0.043841,0.011691 0.00585,-0.039944 q -0.020459,-0.031176 -0.040918,-0.035073 m 0.2922712,0.037021 q -0.010717,0.00195 -0.011691,0.037021 c -0.00195,0.031176 0.019485,0.058454 0.048712,0.060403 0.029227,9.742e-4 0.052609,-0.00292 0.053583,-0.00974 0,-0.00779 -0.021433,-0.035073 -0.048712,-0.061377 q -0.029227,-0.029227 -0.041892,-0.026304 m 2.3790873,0 a 0.02922712,0.02922712 0 0 0 -0.01851,0.00682 c -0.03215,0.029227 0.080862,0.131522 0.1480841,0.135419 0.02533,0.00195 0.046763,-0.013639 0.048712,-0.033124 C 8.1534579,1.704744 8.0287555,1.6336247 7.973224,1.6375216 m -1.9319124,0.016562 a 0.03507254,0.03507254 0 0 0 -0.037021,0.03215 0.03507254,0.03507254 0 0 0 0.033124,0.037995 0.03507254,0.03507254 0 0 0 0.037021,-0.033124 0.03507254,0.03507254 0 0 0 -0.033124,-0.037021 m -1.8851491,0.00682 q -0.00974,0.00292 -0.00195,0.019485 c 0.019485,0.034098 0.084759,0.054557 0.086707,0.026304 0,-0.00779 -0.023382,-0.02533 -0.052609,-0.038969 q -0.023382,-0.010717 -0.03215,-0.00682 m 0.2484305,0.0039 -0.00877,0.00585 c -0.037021,0.033124 0.085733,0.1695173 0.1568522,0.1743885 0.035073,0.00195 0.072093,0.019485 0.08281,0.040918 0.010717,0.019485 0.037021,0.027279 0.059429,0.015588 0.02533,-0.013639 0.012665,-0.046763 -0.036047,-0.090604 A 0.29227117,0.29227117 0 0 0 4.499094,1.7359196 C 4.453305,1.7329996 4.416284,1.7125376 4.418232,1.6901306 q 0,-0.026304 -0.013639,-0.02533 m 3.2140086,0.019485 c -0.022407,0.00292 -0.034098,0.027279 -0.014614,0.062351 0.011691,0.022408 0.037021,0.031176 0.058454,0.019485 q 0.037021,-0.019485 9.743e-4,-0.058454 -0.024356,-0.027279 -0.044815,-0.023382 m -1.0034643,0.00974 c 0.020459,-0.00195 0.039944,0.00195 0.048712,0.011691 0.00974,0.012665 -0.010717,0.019485 -0.048712,0.015588 q -0.061377,-0.00682 -0.019485,-0.022407 z m 0.3809268,0.037021 q -0.011691,-9.742e-4 -0.021433,0.011691 c -0.014614,0.020459 -0.017536,0.054557 -0.00682,0.074042 0.022407,0.042866 0.084759,0.052609 0.086707,0.014614 0.00195,-0.046763 -0.029227,-0.094501 -0.056506,-0.099372 m -1.318143,0.07599 c -0.019485,0 -0.034098,0.014614 -0.036047,0.034098 0,0.019485 0.023382,0.036047 0.053583,0.038969 0.029227,9.743e-4 0.045789,-0.013639 0.035073,-0.034098 -0.010717,-0.019485 -0.035073,-0.037021 -0.052609,-0.03897 m -0.7258067,0.073068 q -0.017536,0.00292 -0.019485,0.014614 A 0.97423724,0.97423724 0 0 1 4.9082737,2.008706 c -0.023382,0.079887 -0.020459,0.081836 0.029227,0.026304 0.048712,-0.05066 0.058454,-0.05066 0.073068,-0.0039 0.00974,0.030201 0.03215,0.056506 0.049686,0.05748 0.05066,0.00292 0.081836,-0.1334705 0.03897,-0.1646461 A 0.24355931,0.24355931 0 0 0 4.9530886,1.8810809 m 0.2932454,0.041892 c -0.041892,-0.00195 -0.055531,0.017536 -0.045789,0.068197 0.00779,0.038969 0.033124,0.072094 0.055531,0.073068 0.022407,9.743e-4 0.042866,-0.029227 0.045789,-0.067222 0.00195,-0.041892 -0.019485,-0.071119 -0.055531,-0.074042 m -0.4218447,0.044815 c -0.019485,-9.743e-4 -0.036047,0.022407 -0.038969,0.05066 0,0.029227 0.013639,0.053583 0.033124,0.054557 0.019485,9.742e-4 0.036047,-0.021433 0.038969,-0.049686 9.743e-4,-0.029227 -0.013639,-0.054557 -0.033124,-0.055532 m 2.7863184,0.029227 c -0.021433,-9.743e-4 -0.038969,0.013639 -0.038969,0.033124 -0.00195,0.019485 0.0039,0.035073 0.012665,0.036047 0.00779,0 0.02533,-0.013639 0.03897,-0.033124 0.012665,-0.01851 0.00682,-0.034098 -0.013639,-0.036047 m -1.3931592,0.033124 0.013639,0.00585 c 0.018511,0.012665 0.033124,0.031176 0.03215,0.038969 0,0.00974 -0.016562,0.014614 -0.036047,0.013639 A 0.03896949,0.03896949 0 0 1 6.1932926,2.049624 q 0.00292,-0.023382 0.023382,-0.019485 M 6.6014983,2.04183 c -0.00779,0 -0.02533,0.013639 -0.03897,0.03215 -0.012665,0.019485 -0.00682,0.035073 0.013639,0.036047 A 0.03896949,0.03896949 0 0 0 6.6151363,2.076903 C 6.6161105,2.057418 6.6102663,2.04183 6.6014973,2.04183 M 6.1211983,2.0467 c 0.019485,0.00195 0.036047,0.019485 0.035073,0.038969 -9.743e-4,0.018511 -0.00974,0.034098 -0.017536,0.033124 -0.00877,0 -0.024356,-0.017536 -0.035073,-0.037021 -0.010717,-0.020459 -0.00292,-0.036047 0.017536,-0.035073 m 1.03464,0.029227 c -0.075016,-0.00487 -0.058454,0.080862 0.024356,0.1295735 l 0.083784,0.048712 A 0.29227117,0.29227117 0 0 0 7.2376749,2.1684809 C 7.2181901,2.1187948 7.1821434,2.0769026 7.155839,2.0749541 m 1.4564846,0.034098 a 0.09742372,0.09742372 0 0 1 0.033124,0.031175 c 0.066248,0.074042 0.016562,0.1987444 -0.073068,0.1870536 -0.037995,-0.00585 -0.068197,-0.021433 -0.066248,-0.037021 0.00195,-0.015588 0.027279,-0.026304 0.058454,-0.024356 0.041892,0.00292 0.053583,-0.019485 0.044815,-0.087681 q -0.011691,-0.075991 0.00292,-0.069171 m -0.1373674,0.015588 q 0.019485,-0.00292 0.044815,0.023382 0.035073,0.039944 -9.742e-4,0.059429 C 8.498335,2.2181677 8.472031,2.2094007 8.46034,2.1879657 8.440855,2.1528927 8.45255,2.1275627 8.474954,2.1246407 m -3.6066263,0.0039 q -0.016562,0 -0.063325,0.031176 c -0.03897,0.024356 -0.058454,0.0643 -0.046763,0.099372 0.02533,0.079887 0.040918,0.075016 0.087681,-0.030201 q 0.048712,-0.1003464 0.022407,-0.1003464 m 0.6517647,0.022408 c -0.019485,0 -0.037021,0.022407 -0.03897,0.051635 -0.00195,0.029227 0.012665,0.053583 0.03215,0.054557 0.019485,9.743e-4 0.037021,-0.022407 0.038969,-0.05066 9.742e-4,-0.029227 -0.012665,-0.053583 -0.03215,-0.055531 m 1.3990047,0.01851 q -0.051635,-0.00195 0,0.019485 c 0.066248,0.03215 -0.01851,0.1402902 -0.1266508,0.1607492 q -0.092553,0.017536 -0.084759,0.077939 c 0.010717,0.080862 0.1285993,0.1100888 0.1324963,0.034098 q 0.00585,-0.056506 0.0643,-0.041892 c 0.036047,0.00974 0.054557,0.041892 0.046763,0.077939 -0.00974,0.042866 0.0039,0.059429 0.048712,0.054557 q 0.0643,-0.00682 0.11496,0.1130115 c 0.068197,0.1607492 0.087681,0.1782854 0.1305478,0.118857 q 0.034098,-0.044815 0.033124,-0.00682 a 0.07793898,0.07793898 0 0 1 -0.038969,0.061377 c -0.056506,0.030201 -0.045789,0.084759 0.019485,0.088656 0.031176,0.00195 0.046763,0.013639 0.033124,0.02533 -0.013639,0.011691 0.00195,0.044815 0.034098,0.075016 0.041892,0.038969 0.045789,0.05748 0.012665,0.068197 a 0.07793898,0.07793898 0 0 0 -0.047738,0.060403 q -0.00292,0.043841 -0.08963,0.023382 c -0.1237281,-0.03215 -0.1169085,0.051634 0.015588,0.1753627 0.1247024,0.1178827 0.1734142,0.1198312 0.1967959,0.00974 0.00974,-0.043841 0.03897,-0.085733 0.068197,-0.094501 0.073068,-0.023382 0.071119,-0.1753627 -0.00292,-0.2211518 A 0.38969489,0.38969489 0 0 1 7.3643257,2.8835711 0.48711862,0.48711862 0 0 0 7.2844383,2.7374355 C 7.2552112,2.7160023 7.2649535,2.6263724 7.3234078,2.4061948 7.3516606,2.2990287 7.3467895,2.2892863 7.2863867,2.3116938 7.1236891,2.3681996 7.0701061,2.3584572 7.016523,2.2629819 6.9872959,2.2113474 6.942481,2.1694552 6.9190993,2.1694552 m -1.1359606,0.033124 c -0.00877,0 -0.026304,0.014614 -0.03897,0.033124 -0.012665,0.018511 -0.00779,0.035073 0.012665,0.036047 0.020459,9.742e-4 0.038969,-0.013639 0.038969,-0.033124 0.00195,-0.019485 -0.0039,-0.035073 -0.012665,-0.036047 M 4.7144004,2.259085 c -0.011691,-0.00195 -0.029227,0.022407 -0.063325,0.077939 -0.059428,0.097424 -0.061377,0.1100888 -0.013639,0.1130115 a 0.08768135,0.08768135 0 0 0 0.077939,-0.045789 0.24355931,0.24355931 0 0 0 0.012665,-0.1139857 q -0.0039,-0.029227 -0.013639,-0.031176 m 1.3931593,0.034098 c -0.019485,-9.742e-4 -0.027279,0.014614 -0.016562,0.034098 0.010717,0.019485 0.026304,0.037021 0.035073,0.037021 0.00779,9.742e-4 0.015588,-0.014613 0.017536,-0.034098 a 0.03604678,0.03604678 0 0 0 -0.035073,-0.037021 m 0.1061919,0.00682 c -0.020459,-9.743e-4 -0.029227,0.013639 -0.017536,0.034098 0.00974,0.019485 0.026304,0.037021 0.035073,0.037021 0.00877,0 0.016562,-0.014614 0.017536,-0.034098 9.743e-4,-0.019485 -0.014614,-0.036047 -0.035073,-0.037021 m 0.7764671,0.087681 q 0.011691,0 0.08963,0.048712 c 0.061377,0.036047 0.1091146,0.08963 0.1071661,0.1169084 -0.0039,0.063325 -0.010717,0.063325 -0.074042,0.0039 A 0.97423724,0.97423724 0 0 1 7.016523,2.4402931 Q 6.98145,2.3886581 6.991193,2.3886581 m -1.1836983,0.043841 c -0.033124,-0.0039 -0.020459,0.019485 0.033124,0.091578 0.068197,0.091578 0.075016,0.091578 0.079887,0.00974 0.00195,-0.037021 -0.027279,-0.076965 -0.065274,-0.088656 a 0.29227117,0.29227117 0 0 0 -0.048712,-0.012665 m 1.6094399,0.016562 q -0.00877,0 -0.023382,0.019485 c -0.014614,0.020459 0.021433,0.071119 0.083784,0.1169085 0.1422386,0.1042433 0.246482,0.1130115 0.131522,0.011691 A 0.34098303,0.34098303 0 0 0 7.4831827,2.5192063 c -0.022408,-9.742e-4 -0.045789,-0.022407 -0.052609,-0.045789 q -0.00585,-0.023382 -0.014614,-0.024356 m 1.1856467,0.068197 c -0.017536,-0.00195 -0.043841,0.012665 -0.056506,0.03215 -0.013639,0.01851 0,0.034098 0.031176,0.036047 0.029227,0.00195 0.055532,-0.011691 0.056506,-0.031176 9.742e-4,-0.019485 -0.012665,-0.036047 -0.031176,-0.037995 m -0.6196149,0.042867 q -0.016562,-0.00682 -0.056506,0.053583 c -0.024356,0.03897 -0.029227,0.072094 -0.010717,0.073068 0.017536,0 0.043841,-0.023382 0.058454,-0.054557 0.019485,-0.042866 0.019485,-0.068197 0.00974,-0.072093 M 4.490322,2.5825343 c -0.00974,0 -0.026304,0.013639 -0.03897,0.03215 -0.012665,0.018511 -0.00779,0.035073 0.012665,0.037021 0.019485,0 0.037995,-0.013639 0.038969,-0.033124 9.742e-4,-0.019485 -0.00487,-0.036047 -0.012665,-0.036047 m 3.6485184,0.029227 -0.00974,0.127625 c -0.00974,0.11496 0.017536,0.159775 0.1013206,0.1743885 0.014614,0.00195 0.023382,-0.02533 0.019485,-0.062351 A 0.48711862,0.48711862 0 0 0 8.1914531,2.698466 Z m 0.6020786,0.016562 c -0.014613,0.00195 -0.031175,0.014614 -0.039944,0.036047 -0.00974,0.023382 0.00195,0.036047 0.026304,0.029227 0.023382,-0.00487 0.042867,-0.021433 0.041892,-0.036047 0,-0.020459 -0.013639,-0.030201 -0.028253,-0.029227 M 8.753588,2.772508 C 8.734103,2.770558 8.727284,2.800761 8.736052,2.837782 8.746769,2.8787 8.733132,2.91085 8.702928,2.920592 8.674675,2.929362 8.638628,2.988789 8.623041,3.052114 8.584071,3.2001981 8.4165027,3.3521791 8.3736363,3.2761886 A 0.24355931,0.24355931 0 0 1 8.3483063,3.1690225 0.25330168,0.25330168 0 0 0 8.3093363,3.048217 C 8.2713413,2.989763 8.2615983,2.988789 8.2187323,3.034578 a 0.29227117,0.29227117 0 0 0 -0.058454,0.095475 0.29227117,0.29227117 0 0 1 -0.03897,0.087681 c -0.017536,0.023382 -0.021433,0.058454 -0.010717,0.078913 0.00974,0.019485 0,0.036047 -0.022407,0.034098 -0.023382,-9.742e-4 -0.035073,0.027279 -0.027279,0.069171 a 0.14613559,0.14613559 0 0 1 -0.039944,0.1208054 c -0.042866,0.03897 -0.045789,0.05066 -0.00974,0.053583 0.034098,0.00292 0.029227,0.014614 -0.012665,0.042866 a 0.29227117,0.29227117 0 0 0 -0.087681,0.1169085 c -0.016562,0.042866 -0.046763,0.07599 -0.068197,0.075016 -0.021433,-9.742e-4 -0.019485,0.024356 0.00682,0.062351 0.023382,0.035073 0.030201,0.052609 0.014614,0.037021 -0.015588,-0.014613 -0.070145,0.00292 -0.1227539,0.038969 -0.084759,0.058454 -0.099372,0.059429 -0.1324962,0.00974 -0.019485,-0.03215 -0.046763,-0.047738 -0.060403,-0.036047 -0.013639,0.011691 -0.021433,-0.013639 -0.019485,-0.056506 0.00292,-0.042867 -0.010717,-0.070145 -0.031176,-0.058454 q -0.031176,0.012665 -0.011691,-0.034098 c 0.013639,-0.029227 0.00585,-0.054557 -0.016562,-0.056506 -0.022407,-9.743e-4 -0.030201,-0.017536 -0.017536,-0.036047 0.012665,-0.01851 0.00779,-0.035073 -0.012665,-0.036047 -0.020459,-9.742e-4 -0.035073,-0.034098 -0.033124,-0.072094 0.00292,-0.038969 -0.012665,-0.071119 -0.034098,-0.073068 -0.021433,-9.743e-4 -0.048712,0.029227 -0.061377,0.067222 -0.019485,0.061377 -0.080862,0.084759 -0.1685431,0.063325 -0.016562,-0.00487 -0.021433,0.018511 -0.010717,0.05066 0.010717,0.03215 0.015588,0.087681 0.013639,0.1247023 -0.00195,0.037021 0.00974,0.068197 0.026304,0.070145 0.016562,0 0.024356,-0.038969 0.018511,-0.087681 -0.00682,-0.051635 0.00487,-0.087681 0.028253,-0.085733 0.040918,0.00292 0.048712,0.038969 0.035073,0.1695173 -0.00487,0.047738 0.012665,0.079887 0.044815,0.081836 0.028253,0.00195 0.059429,0.029227 0.069171,0.059428 0.012665,0.039944 0.044815,0.051635 0.1052177,0.040918 0.052609,-0.00974 0.077939,-0.0039 0.0643,0.016562 a 0.0418922,0.0418922 0 0 0 0.011691,0.05748 c 0.019485,0.013639 0.023382,0.041892 0.00974,0.0643 q -0.022407,0.034098 0,0.017536 c 0.015588,-0.011691 0.056506,0.010717 0.090604,0.05066 0.093527,0.1042434 0.1324963,0.090604 0.1412644,-0.049686 0.00487,-0.074042 0.021433,-0.11496 0.040918,-0.1013206 0.019485,0.013639 0.026304,0 0.017536,-0.026304 -0.00779,-0.028253 0.00974,-0.068197 0.041892,-0.091578 0.03215,-0.023382 0.058454,-0.0643 0.059429,-0.090604 9.742e-4,-0.026304 0.017536,-0.047738 0.036047,-0.045789 0.017536,0 0.040918,-0.039944 0.049686,-0.091578 0.00974,-0.051635 0.037021,-0.098398 0.061377,-0.1042433 0.033124,-0.00974 0.029227,0.022407 -0.015588,0.127625 -0.040918,0.097424 -0.046763,0.1412644 -0.019485,0.1432129 0.021433,0 0.028253,0.011691 0.014614,0.023382 -0.013639,0.011691 -0.00779,0.044815 0.012665,0.073068 0.029227,0.039944 0.028253,0.048712 -0.00877,0.03897 -0.02533,-0.00779 -0.054557,0.012665 -0.0643,0.046763 -0.012665,0.044815 -9.742e-4,0.055531 0.044815,0.039944 0.048712,-0.014614 0.054557,-0.00779 0.029227,0.029227 -0.028253,0.039944 -0.023382,0.040918 0.029227,0.00292 0.068197,-0.048712 0.09645,-0.209461 0.03897,-0.2143322 -0.019485,0 -0.034098,-0.03215 -0.03215,-0.070145 q 0.00487,-0.068197 0.051635,-0.048712 c 0.047738,0.022407 0.095475,-0.071119 0.1052176,-0.2075125 0.00292,-0.038969 0.079887,-0.1266509 0.1714658,-0.196796 0.091578,-0.069171 0.1675688,-0.1558779 0.1695173,-0.1899762 0.00195,-0.034098 0.019485,-0.073068 0.03897,-0.08281 0.019485,-0.00974 0.027279,-0.042866 0.01851,-0.072093 q -0.014614,-0.05066 0.042866,-0.048712 0.058454,0.0039 0.043841,-0.049686 c -0.00974,-0.029227 -0.00487,-0.053583 0.011691,-0.052609 0.015588,0 0.024356,-0.038969 0.01851,-0.087681 -0.00585,-0.048712 -0.027279,-0.088656 -0.044815,-0.08963 m -2.1949565,0.047738 -0.011691,0.00487 c -0.026304,0.024356 0.013639,0.094501 0.054557,0.097424 a 0.03312407,0.03312407 0 0 0 0.036047,-0.030201 c 0.00195,-0.037021 -0.048712,-0.077939 -0.078913,-0.072094 M 5.2083387,2.9429995 c -0.00974,0 -0.026304,0.014614 -0.038969,0.033124 -0.012665,0.01851 -0.00779,0.035072 0.012665,0.036047 0.020459,9.742e-4 0.03897,-0.013639 0.03897,-0.033124 0.00195,-0.019485 -0.00487,-0.035072 -0.012665,-0.036047 m 3.1954982,0.03215 q -0.00585,0.00585 -0.00877,0.036047 c -0.0039,0.037021 0.00292,0.058454 0.015588,0.048712 0.012665,-0.011691 0.015588,-0.042866 0.00682,-0.068197 q -0.00779,-0.021433 -0.013639,-0.016562 m -2.233926,0.062351 c -0.019485,-9.742e-4 -0.037021,0.021433 -0.038969,0.05066 -0.00195,0.029227 0.012665,0.053583 0.03215,0.054557 0.019485,9.742e-4 0.037021,-0.021433 0.038969,-0.05066 9.742e-4,-0.029227 -0.012665,-0.053583 -0.03215,-0.054557 M 6.0296207,3.1836361 q -0.00877,0.00292 -0.011691,0.019485 a 0.03896949,0.03896949 0 0 0 0.034098,0.038969 c 0.019485,0 0.035073,-0.00487 0.035073,-0.013639 0,-0.00877 -0.013639,-0.026304 -0.03215,-0.03897 q -0.014614,-0.010717 -0.02533,-0.00682 m -0.1208054,0.015588 c -0.017536,0.00195 -0.03215,0.015588 -0.034098,0.043841 -0.00292,0.058454 0.029227,0.095475 0.085733,0.098398 0.02533,0.00195 0.037021,-0.02533 0.029227,-0.068197 -0.00974,-0.049686 -0.05066,-0.077939 -0.080862,-0.074042 m 1.9543199,0.0039 c -0.1188569,-0.00292 -0.1675688,0.05748 -0.075016,0.1169085 0.042867,0.027279 0.047738,0.048712 0.017536,0.079887 -0.031176,0.033124 -0.019485,0.039944 0.048712,0.031176 0.048712,-0.00682 0.080862,-0.027279 0.070145,-0.046763 -0.00974,-0.019485 0.015588,-0.040918 0.056506,-0.048712 0.1295736,-0.02533 0.090604,-0.1032692 -0.063325,-0.1276251 z m 0.4286644,0.070145 c 0.00779,0 0.010717,0.047738 0.00779,0.1052176 -0.0039,0.058454 -0.019485,0.1052177 -0.036047,0.1042434 -0.016562,-9.742e-4 -0.019485,-0.048712 -0.00682,-0.1071661 0.011691,-0.056506 0.027279,-0.1032691 0.035073,-0.1022949 m -1.4818149,0.029227 q -0.020459,0 -0.023382,0.035073 c -0.00195,0.029227 0.011691,0.055531 0.031176,0.056506 a 0.0340983,0.0340983 0 0 0 0.037021,-0.031176 0.07793898,0.07793898 0 0 0 -0.03215,-0.056506 0.01948474,0.01948474 0 0 0 -0.012665,-0.00487 M 6.38814,3.36387 A 0.15587796,0.15587796 0 0 0 6.256618,3.445706 c -0.055531,0.1052177 -0.00974,0.3156529 0.051635,0.2318685 0.019485,-0.027279 0.035073,-0.036047 0.034098,-0.019485 -9.743e-4,0.016562 0.021433,0.014613 0.048712,-0.00585 0.03897,-0.028253 0.061377,-0.024356 0.091578,0.01851 0.03215,0.043841 0.03215,0.055532 -0.00195,0.053583 -0.024356,-0.00195 -0.035073,0.021433 -0.026305,0.049686 0.00974,0.029227 -0.011691,0.068197 -0.045789,0.084759 -0.054557,0.028253 -0.055531,0.037021 -0.011691,0.071119 q 0.1188569,0.087681 0.097424,-0.026304 c -0.00974,-0.05066 0.00195,-0.063325 0.043841,-0.046763 q 0.0643,0.027279 0.00974,-0.014614 C 6.520632,3.8188335 6.513813,3.7769415 6.530375,3.7331009 6.546937,3.6902349 6.537195,3.6249606 6.505045,3.5684548 Q 6.452436,3.4759018 6.493354,3.4778508 C 6.515761,3.478825 6.525504,3.4642118 6.514787,3.4437528 6.50407,3.4232938 6.479714,3.4145258 6.461204,3.4242678 6.442693,3.4340078 6.42808,3.4262178 6.429054,3.4057568 6.4310065,3.3784836 6.4134702,3.3648443 6.38814,3.36387 M 5.5444506,3.404788 c -0.043841,0.023382 -0.054557,0.2240745 -0.012665,0.226023 0.018511,9.743e-4 0.043841,-0.012665 0.056506,-0.029227 0.03215,-0.047738 -0.00585,-0.2172549 -0.043841,-0.1967959 m 0.3994372,0.0643 a 0.19484745,0.19484745 0 0 0 -0.0039,0.045789 c 0,0.048712 -0.029227,0.11496 -0.065274,0.1471098 -0.077939,0.068197 -0.054557,0.1412644 0.037995,0.1227539 a 0.16562033,0.16562033 0 0 1 0.1091146,0.020459 c 0.068197,0.049686 0.1412644,0.046763 0.1266509,-0.0039 -0.00584,-0.024353 -0.05358,-0.048709 -0.1052143,-0.054555 Q 5.8367217,3.7262863 6.0237753,3.6561412 c 0.1081403,-0.039944 0.1500325,-0.091578 0.076965,-0.096449 -0.020459,-9.742e-4 -0.027279,-0.017536 -0.013639,-0.036047 0.012665,-0.01851 0.00682,-0.034098 -0.013639,-0.036047 -0.019485,0 -0.037995,0.013639 -0.03897,0.033124 -0.0039,0.058454 -0.066248,0.035073 -0.081836,-0.031176 q -0.00585,-0.027279 -0.00974,-0.019485 m 1.9406806,0.023382 c -0.029227,-0.00195 -0.045789,0.013639 -0.035073,0.033124 0.00974,0.019485 0.035073,0.037021 0.052609,0.038969 a 0.0340983,0.0340983 0 0 0 0.035073,-0.033124 c 0.00195,-0.019485 -0.022407,-0.037021 -0.052609,-0.038969 M 5.2648445,3.6863425 c -0.031176,-0.00195 -0.047738,0.012665 -0.037021,0.033124 0.010717,0.019485 0.026304,0.036047 0.033124,0.037021 0.00779,0 0.024356,-0.014613 0.037995,-0.033124 0.013639,-0.018511 -0.00195,-0.035073 -0.034098,-0.037021 m 1.3541897,0.011691 c -0.019485,0 -0.028253,0.014614 -0.017536,0.035073 0.010717,0.020459 0.027279,0.036047 0.036047,0.037021 0.00779,0 0.016562,-0.015588 0.017536,-0.034098 9.743e-4,-0.018511 -0.014614,-0.036047 -0.035073,-0.037995 m 0.1432129,0.00974 a 0.03507254,0.03507254 0 0 0 -0.037021,0.03215 0.03507254,0.03507254 0 0 0 0.033124,0.037995 0.03507254,0.03507254 0 0 0 0.037021,-0.034098 0.03507254,0.03507254 0 0 0 -0.033124,-0.037021 m -0.4481492,0.048712 -0.019485,0.0039 q -0.042866,0.015588 0.019485,0.022407 c 0.037021,0.0039 0.058454,-0.00292 0.046763,-0.015588 -0.00779,-0.00974 -0.027279,-0.013639 -0.046763,-0.011691 m -0.8738908,0.024356 q -0.020459,9.742e-4 -0.024356,0.036047 c -0.0039,0.061377 0.016562,0.072093 0.049686,0.02533 0.012665,-0.017536 0.00682,-0.042866 -0.011691,-0.056506 z m 0.2922712,0.038969 a 0.03507254,0.03507254 0 0 0 -0.037021,0.034098 0.03507254,0.03507254 0 0 0 0.033124,0.037021 0.03507254,0.03507254 0 0 0 0.037995,-0.033124 0.03507254,0.03507254 0 0 0 -0.033124,-0.037021 m 0.2679153,0.052609 c -0.034098,-0.00292 -0.05748,0.00877 -0.05066,0.023382 a 0.97423724,0.97423724 0 0 1 0.031176,0.08963 c 0.026304,0.092553 0.072094,0.079888 0.077939,-0.021433 q 0.00682,-0.090604 -0.058454,-0.091578 m 1.1525226,0.035073 c -0.029227,-0.00195 -0.044815,0.012665 -0.034098,0.033124 a 0.07793898,0.07793898 0 0 0 0.051635,0.038969 c 0.019485,0 0.034098,-0.014613 0.036047,-0.034098 0,-0.019485 -0.023382,-0.036047 -0.053583,-0.038969 m -1.0200264,0.00292 c -0.017536,-9.742e-4 -0.03897,0.014614 -0.048712,0.035073 -0.00779,0.019485 0.011691,0.03897 0.043841,0.039944 0.03215,9.742e-4 0.054557,-0.013639 0.048712,-0.035073 -0.00585,-0.021433 -0.02533,-0.038969 -0.043841,-0.039944 m 0.4841959,0.081836 c -0.017536,0.00195 -0.044815,0.020459 -0.071119,0.048712 -0.036047,0.036047 -0.085733,0.056506 -0.111063,0.044815 -0.02533,-0.011691 -0.047738,-0.00487 -0.048712,0.014614 -9.742e-4,0.019485 0.016562,0.043841 0.040918,0.054557 0.047738,0.019485 0.2318684,-0.1266509 0.2016671,-0.1597749 q -0.0039,-0.00487 -0.011691,-0.00292 M 5.8844594,4.086754 a 0.04871186,0.04871186 0 0 0 -0.029227,0.00682 c -0.041892,0.021433 -0.046763,0.1169085 -0.00682,0.1198312 0.017536,9.742e-4 0.040918,-0.019485 0.053583,-0.045789 0.019485,-0.041892 0.00779,-0.076965 -0.017536,-0.080862 m -0.1461356,0.060403 c -0.030201,9.742e-4 -0.060403,0.03215 -0.063325,0.080862 -0.00195,0.031176 -0.012665,0.046763 -0.024356,0.034098 -0.010717,-0.012665 -0.044815,-0.00195 -0.074042,0.024356 a 0.19484745,0.19484745 0 0 1 -0.1130115,0.043841 c -0.040918,-0.00195 -0.063325,0.030201 -0.073068,0.1052176 -0.011691,0.084759 -0.00292,0.1042434 0.040918,0.090604 a 0.29227117,0.29227117 0 0 1 0.087681,-0.015588 c 0.049686,0.00292 0.044815,-0.1032691 -0.00487,-0.1071661 -0.023382,-0.00195 0.033124,-0.03215 0.1276251,-0.067222 0.1802339,-0.066248 0.189002,-0.076965 0.1451613,-0.1578265 q -0.020459,-0.033124 -0.048712,-0.031175 m 1.026846,0.1217796 a 0.03507254,0.03507254 0 0 0 -0.037021,0.033124 0.03507254,0.03507254 0 0 0 0.033124,0.037021 0.03507254,0.03507254 0 0 0 0.037021,-0.03215 0.03507254,0.03507254 0 0 0 -0.033124,-0.037995 m -0.357545,0.019485 q -0.029227,-0.00974 -0.087681,0.1032691 c -0.031176,0.061377 -0.05748,0.091578 -0.05748,0.068197 0,-0.048712 -0.068197,-0.067222 -0.072093,-0.019485 0,0.016562 0.028253,0.068197 0.063325,0.11496 0.035072,0.046763 0.0643,0.1071661 0.063325,0.1324962 -0.00195,0.027279 0.034098,0.049686 0.084759,0.052609 0.048712,0.00292 0.087681,-0.00974 0.08963,-0.029227 9.742e-4,-0.019485 -0.019485,-0.037021 -0.046763,-0.03897 -0.026304,-9.742e-4 -0.056506,-0.027279 -0.065274,-0.056506 -0.00877,-0.029227 -0.00585,-0.053583 0.00779,-0.052609 0.013639,9.742e-4 0.03215,-0.061377 0.03897,-0.1383417 q 0.00974,-0.1266509 -0.019485,-0.1363932 m 0.7608793,0.040918 c -0.029227,-0.00195 -0.055531,0.012665 -0.056506,0.031176 -9.742e-4,0.01851 0.012665,0.037021 0.031176,0.037995 0.018511,0 0.043841,-0.013639 0.056506,-0.03215 0.012665,-0.01851 0,-0.035073 -0.031176,-0.037021 m 0.8622,0.017536 C 7.982965,4.3439562 7.9069741,4.473527 7.930356,4.5173677 c 0.03215,0.060403 0.075991,0.043841 0.1032691,-0.038969 0.036047,-0.1071661 0.035073,-0.1295735 -0.0039,-0.131522 m -0.348777,0.013639 c -0.016562,-9.742e-4 -0.030201,0.021433 -0.03215,0.05066 -0.00195,0.029227 0.00974,0.053583 0.026304,0.054557 0.015588,9.743e-4 0.030201,-0.021433 0.03215,-0.05066 0.00195,-0.029227 -0.00974,-0.053583 -0.026304,-0.054557 m -1.80721,0.00974 c -0.019485,0.0039 -0.024356,0.02533 -0.028253,0.075016 -0.00292,0.054557 0.00682,0.075991 0.023382,0.051635 0.021433,-0.029227 0.045789,-0.020459 0.090604,0.03215 0.090604,0.1071661 0.1626977,0.1247024 0.1812082,0.046763 a 0.29227117,0.29227117 0 0 0 0,-0.1169084 c -0.00877,-0.026304 -0.043841,-0.048712 -0.078913,-0.048712 A 0.48711862,0.48711862 0 0 1 5.9244031,4.3809737 q -0.034098,-0.013639 -0.05066,-0.010717 m 0.9771599,0.027279 q -0.02533,-0.00487 -0.061377,0.03215 c -0.035073,0.037021 -0.036047,0.05066 -0.00487,0.052609 0.022407,0 0.029227,0.018511 0.016562,0.037995 -0.035073,0.048712 9.742e-4,0.1480841 0.045789,0.1237281 0.019485,-0.00974 0.038969,-0.0643 0.042866,-0.1208054 0.0039,-0.075016 -0.010717,-0.1198312 -0.03897,-0.1256766 m 0.9060406,0.087681 q -0.010717,-9.743e-4 -0.037021,0.018511 c -0.030201,0.021433 -0.047738,0.054557 -0.037995,0.072093 0.00974,0.017536 -0.00195,0.062351 -0.02533,0.099372 -0.046763,0.07599 -0.00974,0.095475 0.061377,0.033124 0.024356,-0.021433 0.046763,-0.085733 0.05066,-0.1422386 0.00292,-0.054557 9.742e-4,-0.077939 -0.011691,-0.080862 M 6.6541068,4.6995493 q -0.020459,0 -0.023382,0.035073 c -0.00195,0.030201 0.011691,0.056506 0.031176,0.05748 0.019485,9.742e-4 0.036047,-0.013639 0.037021,-0.031176 9.742e-4,-0.017536 -0.013639,-0.043841 -0.03215,-0.05748 a 0.01948474,0.01948474 0 0 0 -0.012665,-0.0039 m 1.1359606,0.02533 q -0.00487,-0.00682 -0.039944,0.019485 c -0.070145,0.05066 -0.055531,0.2192034 0.016562,0.1967959 0.028253,-0.00974 0.05066,-0.029227 0.052609,-0.046763 0,-0.017536 -0.015588,-0.033124 -0.036047,-0.034098 -0.023382,-9.742e-4 -0.026304,-0.03215 -0.00779,-0.079887 q 0.019485,-0.048712 0.014614,-0.055532 m -1.3152203,0.058454 a 0.07793898,0.07793898 0 0 0 -0.045789,0.033124 q -0.027279,0.03897 -0.053583,-0.011691 c -0.020459,-0.036047 -0.029227,-0.029227 -0.033124,0.029227 -0.00292,0.053583 0.021433,0.085733 0.081836,0.1052176 0.046763,0.014614 0.084759,0.042866 0.083784,0.062351 -9.742e-4,0.019485 0.021433,0.027279 0.05066,0.01851 0.029227,-0.00877 0.060403,-0.00195 0.070145,0.016562 0.036047,0.066248 0.1266509,0.00195 0.1071661,-0.077939 -0.023382,-0.098398 -0.023382,-0.098398 -0.092553,-0.077939 -0.03215,0.010717 -0.048712,0.038969 -0.037021,0.061377 0.011691,0.022407 -0.0039,0.01851 -0.034098,-0.00974 -0.031176,-0.029227 -0.055532,-0.074042 -0.053583,-0.1003465 0.00195,-0.037021 -0.019485,-0.054557 -0.044815,-0.048712 m 1.1671362,0.068197 c -0.037995,-0.0039 -0.097424,0.022407 -0.1441871,0.071119 -0.038969,0.040918 -0.070145,0.056506 -0.068197,0.034098 0,-0.021433 -0.023382,-0.05066 -0.052609,-0.063325 -0.097424,-0.044815 -0.046763,0.1451613 0.074042,0.2776576 0.1480841,0.1617234 0.1753627,0.1646461 0.1665946,0.013639 -0.00487,-0.097424 0.00585,-0.1227539 0.053583,-0.1198312 0.03215,0.00195 0.068197,0.030201 0.077939,0.063325 0.00974,0.03215 0.028253,0.049686 0.039944,0.03897 0.011691,-0.010717 -0.00877,-0.068197 -0.045789,-0.1266508 A 0.38969489,0.38969489 0 0 1 7.6770559,4.8924482 q 0,-0.037021 -0.036047,-0.040918 m -1.5753416,0.00974 c -0.019485,-9.742e-4 -0.054557,0.019485 -0.078913,0.044815 -0.035073,0.037995 -0.03215,0.056506 0.016562,0.087681 q 0.1237281,0.081836 0.053583,0.00195 c -0.029227,-0.03215 -0.027279,-0.055531 0.00292,-0.087681 q 0.03897,-0.041892 0.00585,-0.046763 m -0.2104371,0.109115 c -0.00585,-0.00292 -0.011691,0.017536 -0.013639,0.053583 -0.00292,0.048712 0.0039,0.068197 0.014614,0.044815 a 0.13639321,0.13639321 0 0 0 0.00585,-0.087681 q -0.0039,-0.00974 -0.00682,-0.00974 m 1.359061,0.019485 c -0.071119,0.00292 -0.2172549,0.076965 -0.2201776,0.1178827 -9.743e-4,0.019485 -0.038969,-0.00585 -0.084759,-0.053583 -0.068197,-0.073068 -0.08281,-0.077939 -0.085733,-0.029227 -0.00292,0.035073 -0.03215,0.05748 -0.074042,0.054557 -0.080862,-0.00487 -0.085733,0.00779 -0.040918,0.1052176 0.042866,0.092553 0.058454,0.08963 0.1071661,-0.015588 0.035073,-0.079887 0.043841,-0.08281 0.090604,-0.029227 0.076965,0.085733 0.1402902,0.07599 0.2153065,-0.036047 0.061377,-0.090604 0.071119,-0.093527 0.1091145,-0.037021 0.03897,0.058454 0.041892,0.058454 0.046763,0.0039 0.00195,-0.03215 -0.014614,-0.067222 -0.03897,-0.077939 z m 0.2172549,0.040918 a 0.04871186,0.04871186 0 0 1 0.042866,0.024356 c 0.029227,0.053583 0.00195,0.070145 -0.052609,0.03215 q -0.043841,-0.031176 -0.00682,-0.051635 z m -1.281122,0.046763 a 0.03507254,0.03507254 0 0 0 -0.037995,0.033124 0.03507254,0.03507254 0 0 0 0.033124,0.037995 0.03507254,0.03507254 0 0 0 0.037021,-0.033124 0.03507254,0.03507254 0 0 0 -0.03215,-0.037995 m 0.1851051,0.083784 c -0.013639,9.742e-4 -0.040918,0.016562 -0.073068,0.044815 q -0.11496,0.1013206 0.029227,0.072094 c 0.047738,-0.00877 0.095475,9.743e-4 0.1071661,0.022407 0.026304,0.049686 0.1237282,0.016562 0.1276251,-0.043841 0.00195,-0.035073 -0.027279,-0.043841 -0.1091146,-0.033124 -0.079887,0.011691 -0.1042433,0.00487 -0.084759,-0.023382 0.019485,-0.027279 0.017536,-0.039944 0.0039,-0.038969 m 1.7019925,0.05066 c -0.00974,-0.00292 -0.03215,0.012665 -0.058454,0.049686 q -0.044815,0.0643 -0.010717,0.068197 c 0.019485,0.00195 0.046763,-0.021433 0.060403,-0.05066 q 0.026304,-0.060403 0.00974,-0.067222 m -0.6517647,0.011691 c -0.03897,-0.00195 -0.03897,0.015588 0,0.1032692 0.035073,0.080862 0.036047,0.1091146 0.00195,0.1188569 -0.03215,0.00877 -0.027279,0.035073 0.017536,0.091578 0.075016,0.095475 0.073068,0.094501 0.08281,0.019485 C 7.5036417,5.4467892 7.4364193,5.2275858 7.3877074,5.2246631 m -0.5202427,0.0039 c -0.00877,0 -0.026304,0.013639 -0.03897,0.03215 -0.012665,0.01851 -0.00779,0.035073 0.012665,0.037021 0.020459,0 0.038969,-0.013639 0.038969,-0.033124 0.00195,-0.019485 -0.0039,-0.036047 -0.012665,-0.036047 m -0.2552501,0.02533 -0.019485,0.0039 q -0.042866,0.015588 0.019485,0.023382 c 0.037021,0.00292 0.058454,-0.0039 0.047738,-0.016562 q -0.015587,-0.01462 -0.047737,-0.010723 M 6.1475034,5.326958 C 6.1250964,5.325008 6.0802814,5.346443 6.0481314,5.37567 6.0159814,5.402949 5.9896774,5.444841 5.9887034,5.468223 5.9877291,5.49063 6.0042914,5.483811 6.0257244,5.451661 A 0.29227117,0.29227117 0 0 1 6.127045,5.362031 C 6.161143,5.344495 6.170886,5.328907 6.147504,5.326958 m 1.4282318,0.05066 q -0.029227,0 -0.034098,0.031176 c -0.00195,0.033124 0.1061919,0.1178827 0.1266508,0.1003464 0.00585,-0.00585 0.00195,-0.036047 -0.00779,-0.068197 a 0.09742372,0.09742372 0 0 0 -0.084759,-0.063325 m 0.00487,0.1821823 -0.019485,0.0039 q -0.042867,0.015588 0.019485,0.022408 c 0.037021,0.0039 0.058454,-0.00292 0.047738,-0.015588 Q 7.6127562,5.556878 7.5806064,5.5598007 M 6.9931413,5.9787228 a 0.29227117,0.29227117 0 0 0 -0.08963,0.029227 c -0.1032691,0.046763 -0.08963,0.1032691 0.019485,0.08281 0.07599,-0.013639 0.087681,-0.00779 0.061377,0.029227 -0.037021,0.052609 -0.063325,0.2075125 -0.041892,0.2494047 0.024356,0.048712 0.081836,0.034098 0.1091146,-0.026304 0.014614,-0.03215 0.00877,-0.065274 -0.014614,-0.074042 -0.079887,-0.03215 -0.03215,-0.1139858 0.081836,-0.1363933 L 7.2357264,6.1092705 7.1032301,6.0761465 C 7.0311366,6.0566617 6.9824247,6.0274346 6.9960641,6.0098983 q 0.020459,-0.031175 -0.00292,-0.03215 m 0.2269973,0.011691 c -0.019485,-0.00195 -0.026304,0.013639 -0.015588,0.034098 0.010717,0.019485 0.035073,0.037021 0.054557,0.038969 0.019485,0 0.026304,-0.014614 0.015588,-0.035073 -0.010717,-0.020459 -0.035073,-0.037021 -0.054557,-0.03897 m 0.062351,0.2143322 c -0.068197,-0.00292 -0.075016,0.00877 -0.058454,0.1120373 0.016562,0.1071661 0.058454,0.168543 0.1198311,0.1734142 0.014614,0.00195 0.026304,-0.012665 0.028253,-0.030201 0,-0.018511 -0.013639,-0.043841 -0.03215,-0.05748 -0.018511,-0.013639 -0.022408,-0.061377 -0.00779,-0.1071661 0.022407,-0.071119 0.014614,-0.085733 -0.048712,-0.08963"
     opacity="0.45"
     id="path5"
     style="stroke-width:0.974237" />
  <path
     fill="#fff"
     d="M3.694 14.023h1.007v-1.47h1.618v-.87H4.701v-.76h1.824v-.869H3.694zm4.26 0h.973v-3.1h1.235v-.869H6.731v.87h1.224zm2.654 0h2.631v-.875h-1.641v-3.094h-.99z"
     id="path6" />
</svg>
