<?xml version="1.0" encoding="UTF-8" standalone="no"?>
<svg
   width="64"
   height="64"
   version="1.1"
   id="svg2"
   sodipodi:docname="gang-beasts.svg"
   inkscape:version="1.4.2 (ebf0e940d0, 2025-05-08)"
   xmlns:inkscape="http://www.inkscape.org/namespaces/inkscape"
   xmlns:sodipodi="http://sodipodi.sourceforge.net/DTD/sodipodi-0.dtd"
   xmlns="http://www.w3.org/2000/svg"
   xmlns:svg="http://www.w3.org/2000/svg">
  <defs
     id="defs2">
    <filter
       id="filter1057"
       x="-0.026999999"
       y="-0.026999999"
       width="1.054"
       height="1.054"
       color-interpolation-filters="sRGB">
      <feGaussianBlur
         stdDeviation="0.61875"
         id="feGaussianBlur2" />
    </filter>
    <linearGradient
       id="linearGradient1053"
       x1="-127"
       x2="-72"
       y1="60"
       y2="5"
       gradientTransform="translate(131.5,-0.51)"
       gradientUnits="userSpaceOnUse">
      <stop
         stop-color="#dee0e2"
         offset="0"
         id="stop2" />
      <stop
         stop-color="#f1f3f5"
         stop-opacity=".99608"
         offset="1"
         id="stop3" />
    </linearGradient>
  </defs>
  <sodipodi:namedview
     id="namedview2"
     pagecolor="#505050"
     bordercolor="#eeeeee"
     borderopacity="1"
     inkscape:showpageshadow="0"
     inkscape:pageopacity="0"
     inkscape:pagecheckerboard="0"
     inkscape:deskcolor="#505050"
     inkscape:zoom="6.485495"
     inkscape:cx="38.701749"
     inkscape:cy="39.16432"
     inkscape:window-width="2560"
     inkscape:window-height="1411"
     inkscape:window-x="0"
     inkscape:window-y="0"
     inkscape:window-maximized="1"
     inkscape:current-layer="svg2" />
  <rect
     x="4.4999995"
     y="4.4999995"
     width="55"
     height="55"
     ry="15"
     fill="#141414"
     filter="url(#filter1057)"
     opacity="0.3"
     stroke-linecap="round"
     stroke-width="2.7444"
     id="rect4" />
  <rect
     x="4.5"
     y="4.5"
     width="55"
     height="55"
     ry="15"
     fill="url(#linearGradient1053)"
     stroke-linecap="round"
     stroke-width="2.7444"
     id="rect5"
     style="fill:url(#linearGradient1053)" />
  <path
     fill="#a24562"
     d="M42.857 5.951c-2.19-.003-3.678 3.356-5.082 3.047-1.08-2.48-4.837-1.453-5.228.979-.632 1.633.599 5.6-2.126 3.517-1.722-.468-3.122 2.375-4.076-.207-1.642-.976-3.223-1.411-3.71-3.54-1.954-2.495-5.787-1.544-7.385.845-2.542 3.434-3.433 7.865-3.54 12.066.158 2.555.025 5.538 1.819 7.568.719 1.775 5.386-.488 3.52 1.578-2.943.719-5.975 2.006-7.895 4.434-1.653 2.42 1.398 3.829 2.039 5.465.14 2 .226 4.002.33 6.004-1.835 1.405-2.213 4.482.057 5.7.648 2.39 4.037 4.334 5.5 1.337.16-1.938 1.629-2.413 3.203-3.082 2.232-1.259 5.07-2.538 7.183-.514 3.43.465 3.266-3.52 3.291-5.812 1.253 2.418.382 5.324 1.397 7.69.886 2.933 5.553 2.713 5.533-.516.503-1.044-1.015-3.815.865-3.553 3.204-1.007 1.373 3.77 2.358 5.49-.167 2.661 2.15 5.888 5.002 3.922 1.886-1.975.367-4.943.687-7.348 2.286 1.001 5.041.734 6.791-1.187 2.973-2.646 3.24-7.706.362-10.527-.943-1.025-2.072-1.878-2.936-2.971 2.245.339 4.332-1.835 3.541-4.086 1.477-.718 4.81-1.593 3.281-4.318-1.245-2.358-4.198-2.857-6.515-1.965-1.111-.237-4.058 1.459-4.002-.201-.045-2.261.377-5.168-2.01-6.418-.567-2.938 2.1-6.611 1.566-10.004-.066-1.764-1.584-3.337-3.373-3.346a2 2 0 0 0-.447-.047m2.145 51.29c-.06.023-.106.036-.163.058l.006-.01c.068-.02.077-.026.157-.049m-.418.152c-.43.144-.621.174-.159.025.05-.004.106-.017.159-.025"
     id="path1" />
  <path
     fill="#fc91af"
     d="M43.31 7.528c-2.65.385-4.026 3.12-5.232 5.222-.747 1.082-.843 3.147-1.642 3.84-.767-2.25-.044-4.499-.098-6.762-1.317-2.326-3.14 1.43-2.445 2.995-.108 2.655.508 5.28.795 7.882-1.881-1.492-2.561-4.029-4.301-5.645-3.169-.528-.65 4.258-2.785 4.935-1.237-1.72-.85-4.918-3.04-6.13-1.485-.877-2.473 3.185-2.365.432.43-2.431-1.454-5.734-4.18-4.147-3.194 2.15-3.962 6.27-4.609 9.811-.123 2.992-.502 6.298 1.01 9.01 1.934 2.238 3.14-2.28 4.183-2.144.54 2.362.1 5.503 2.327 7.069 2.779-.272 1.044-3.833.621-5.488-.418-.93-.51-4.838.082-1.9 2.01 1.869 1.858-1.48 2.376-2.52 2.459-1.298 1.642 3.308 2.434 4.688-.066 1.451.946 2.254 1.808 2.818-.94 2.408-1.025 5.013-1.461 7.53-1.595 1.581-4.407 1.457-3.127-1.323 1.282-.676 5.234-2.259 2.297-3.518-1.933.797-5.31 1.094-5.014 3.904-.036 1.07-.058 2.14-.088 3.21-2.036.332-3.07-1.883-1.048-2.95 1.587-1.59 1.021-5.383-1.742-5.016-2.835.219-5.641 1.578-7.55 3.68-1.176 1.71 1.208 2.298 2.09 2.193.198 3.338.484 6.689.41 10.034-2.587.282-1.265 3.08.38 3.432-.409 2.418 2.808 2.777 2.649.233.323-2.335 3.964-2.105 5.514-3.688 2.047.145 4.996-2.76 5.687.263 1.476.83 2.1-.842 1.788-1.985.038-2.028-.243-4.123.135-6.097 1.283-.908 3.158-1.233 2.832.999.508 2.774 1.014 5.55 1.496 8.329-1.199.974.515 2.324 1.301 2.93 2.594-.346.942-3.962.925-5.75-.205-1.18-.916-4.325.366-1.728 1.371 2.217 4.78 1.242 5.48-1.04.637 1.68.226 5.201.626 7.53.384 1.603.065 5.332 2.612 4.69 1.2-1.784-.035-4.393.095-6.48-.116-1.353-.64-5.635 1.133-2.633 1.678 2.525 5.435 2.431 6.976-.205 2.052-2.496 1.468-6.376-1-8.368-1.297-1.286-4.947-3.357-2.25-5.086 1.174-.526 3.568.93 3.124-1.6-.225-1.566-3.666-1.553-3.436-2.065 2.211-.677 4.6-.314 6.781-1.054.707-2.896-3.186-3.054-5.05-2.325-1.794-.27-4.658 1.665-5.78.461-.176-2.315.948-5.234-.747-7.11-2.06-1.46-4.074 2.531-5.47 1.482-.305-3.79.033-8.073 2.74-11 1.356.515-.785 4.5-.641 5.59-1.52 1.794 1.325 3.815 1.966 1.403 1.042-2.846 2-5.86 1.902-8.918-.086-.966-.758-1.987-1.84-1.92zM19.097 12.7c1.172 1.847.272 4.608.145 6.771-.93 1.76 1.87 2.738 2.271.825.403 1.5-.462 3.328-2.012 1.781-1.807-.558-3.622 4.998-3.515 1.452.042-3.547.183-7.506 2.467-10.42l.367-.329.277-.079zm5.031 6.641c1.53.935-.526 3.363-.283.994.063-.3-.053-.85.283-.994m6.64 1.647c1.734 1.502 2.71 3.935 4.952 4.834 1.296-1.042 2.01.831 3.375.414 1.56-.354 4.6-3.604 3.842-.127.277 2.063-.432 3.993-2.768 3.949-1.155.728-1.673-.681-2.632-1.07-2.386-1.147-4.046 1.67-3.441 3.766.216 3.015 3.156 4.568 4.64 6.876 1.23 1.164-.642 6.356-1.51 3.25-.938-1.526-2.81 1.302-2.547-1.12-.712-1.614-.1-2.475 1.25-3.193.844-2.77-3.406-.97-2.586-3.992-.529-1.96-.723-4.156-1.991-5.788-1.172-.915-2.653 1.615-2.496-.928.054-1.647-1.627-4.495-.475-5.461-.225 1.533 1.386 3.915 2.514 1.901-.004-1.096-.266-2.278-.128-3.31m1.526 4.35c-1.06.766-2.371 1.646-.268 2.02.718 1.541 2.456 1.048 2.76-.218-.936-.451-1.638-1.232-2.492-1.801m8.715 1.912c-1.325-.05-2.51 1.423-.585 1.104.479-.006 1.1-.761.585-1.104m-16.484.723c-2.485.557-.007 3.621-.207 4.999 3.46-.002.188-3.102.295-4.989zm23.529 3.314c-2.123 1.006-3.785 4.006-1.893 6.08 1.501 2.294 5.228 3.335 4.975 6.564-.245 2.492-3.574 4.314-4.215.925-.414-1.989-2.957.986-2.23-1.673-.058-3.663-.027-7.327-.035-10.99a17.5 17.5 0 0 1 3.398-.906zm-6.713 1.578c.755 1.87.303 4.417.419 6.553-.22 1.52-1.238-2.017-2.119-2.466-.614-.982-3.73-3.134-2.213-3.77 1.147 1.662 2.466-.564 3.913-.317m-11.246 1.158c1.097 1.178 1.18 5.345-.742 3.708.173-1.21.13-2.654.743-3.707M17.362 35.71c1.953.611-1.371 3.202-1.873 3.15-.481-1.55.061-3.053 1.873-3.15M37 40.12c-1.926.537 1.236 1 0 0m9.541.137c-1.204 1.95 1.526 3.226 2.47 4.388 1.688-1.664-1.157-3.734-2.47-4.388m-20.13 2.017c.908 1.908-.573 4.01-2.626 3.397-.632-2.303.463-3.116 2.625-3.396m-10.538.797c1.916.135 6.811 1.166 4.076 3.742-1.2 1.025-4.7 3.41-4.108.066.046-1.223-.37-2.71.032-3.808m1.887 2.024c-1.29.86.967 1.838.935.269-.286-.165-.612-.232-.935-.27"
     id="path2" />
</svg>
