<?xml version="1.0" encoding="UTF-8" standalone="no"?>
<svg
   width="64"
   height="64"
   enable-background="new 0 0 1024 1024"
   image-rendering="optimizeSpeed"
   version="1.1"
   id="svg5"
   sodipodi:docname="genymotion-player.svg"
   inkscape:version="1.4.3 (0d15f75042, 2025-12-25)"
   xmlns:inkscape="http://www.inkscape.org/namespaces/inkscape"
   xmlns:sodipodi="http://sodipodi.sourceforge.net/DTD/sodipodi-0.dtd"
   xmlns:xlink="http://www.w3.org/1999/xlink"
   xmlns="http://www.w3.org/2000/svg"
   xmlns:svg="http://www.w3.org/2000/svg">
  <sodipodi:namedview
     id="namedview5"
     pagecolor="#505050"
     bordercolor="#eeeeee"
     borderopacity="1"
     inkscape:showpageshadow="0"
     inkscape:pageopacity="0"
     inkscape:pagecheckerboard="0"
     inkscape:deskcolor="#505050"
     inkscape:zoom="6.485495"
     inkscape:cx="21.124062"
     inkscape:cy="26.05815"
     inkscape:window-width="2560"
     inkscape:window-height="1411"
     inkscape:window-x="0"
     inkscape:window-y="0"
     inkscape:window-maximized="1"
     inkscape:current-layer="svg5" />
  <defs
     id="defs4">
    <linearGradient
       id="c"
       x1="12.434"
       x2="51.566"
       y1="32"
       y2="32"
       gradientTransform="translate(11.135 -1.478)scale(1.0827)"
       gradientUnits="userSpaceOnUse">
      <stop
         offset="0"
         stop-color="#eb474d"
         id="stop1"
         style="stop-color:#fc50a7;stop-opacity:1" />
      <stop
         offset="1"
         stop-color="#e72a6a"
         id="stop2"
         style="stop-color:#4b2c7d;stop-opacity:1" />
    </linearGradient>
    <linearGradient
       id="a"
       x1="7.937"
       x2="7.937"
       y1="15.081"
       y2="1.852"
       gradientTransform="scale(3.7796)"
       gradientUnits="userSpaceOnUse">
      <stop
         offset="0"
         stop-color="#f1efeb"
         id="stop3" />
      <stop
         offset="1"
         stop-color="#fdfcfc"
         id="stop4" />
    </linearGradient>
    <filter
       id="b"
       width="1.0919951"
       height="1.1724964"
       x="-0.045997572"
       y="-0.086248203"
       color-interpolation-filters="sRGB">
      <feGaussianBlur
         stdDeviation=".75"
         id="feGaussianBlur4" />
    </filter>
    <filter
       id="filter1057"
       x="-0.026999999"
       y="-0.026999999"
       width="1.054"
       height="1.054"
       color-interpolation-filters="sRGB">
      <feGaussianBlur
         stdDeviation="0.61875"
         id="feGaussianBlur2-7" />
    </filter>
    <linearGradient
       id="linearGradient1053"
       x1="-127"
       x2="-72"
       y1="36.754265"
       y2="36.754265"
       gradientTransform="translate(202.53781,-11.148509)"
       gradientUnits="userSpaceOnUse">
      <stop
         stop-color="#dee0e2"
         offset="0"
         id="stop2-3"
         style="stop-color:#492c7d;stop-opacity:1" />
      <stop
         stop-color="#f1f3f5"
         stop-opacity=".99608"
         offset="1"
         id="stop3-3"
         style="stop-color:#ff51a8;stop-opacity:1" />
    </linearGradient>
    <filter
       id="b-6"
       width="1.0919951"
       height="1.1724964"
       x="-0.045997573"
       y="-0.086248203"
       color-interpolation-filters="sRGB">
      <feGaussianBlur
         stdDeviation=".75"
         id="feGaussianBlur2" />
    </filter>
    <linearGradient
       inkscape:collect="always"
       xlink:href="#linearGradient1051"
       id="linearGradient1053-5"
       x1="-127"
       y1="60"
       x2="-72"
       y2="5"
       gradientUnits="userSpaceOnUse"
       gradientTransform="translate(131.5,-0.50999909)" />
    <linearGradient
       inkscape:collect="always"
       id="linearGradient1051">
      <stop
         style="stop-color:#dee0e2;stop-opacity:1"
         offset="0"
         id="stop1047" />
      <stop
         style="stop-color:#f1f3f5;stop-opacity:0.99607843"
         offset="1"
         id="stop1049" />
    </linearGradient>
  </defs>
  <rect
     style="fill:url(#linearGradient1053-5);fill-opacity:1;stroke-width:2.74436;stroke-linecap:round"
     id="rect1045"
     width="54.999996"
     height="54.999996"
     x="4.5000019"
     y="4.5000019"
     ry="14.999999" />
  <path
     d="M41.129 21.565c-5.763 0-10.435 4.667-10.435 10.435 0 5.763 4.667 10.435 10.435 10.435 5.763 0 10.437-4.667 10.437-10.435 0-5.763-4.67-10.435-10.437-10.435m0 2.606a7.825 7.825 0 1 1 .002 15.65 7.825 7.825 0 0 1-.002-15.65m-20.872 1.302a7.825 7.825 0 1 0 .003 15.65 7.825 7.825 0 0 0-.003-15.65m0 2.609a5.22 5.22 0 0 1 5.22 5.217 5.22 5.22 0 0 1-10.437 0 5.217 5.217 0 0 1 5.217-5.217"
     filter="url(#b)"
     opacity=".15"
     id="path4" />
  <path
     fill="url(#c)"
     d="M41.129 21.565c-5.763 0-10.435 4.667-10.435 10.435 0 5.763 4.667 10.435 10.435 10.435 5.763 0 10.437-4.667 10.437-10.435 0-5.763-4.67-10.435-10.437-10.435m0 2.606a7.825 7.825 0 1 1 .002 15.65 7.825 7.825 0 0 1-.002-15.65m-20.872 1.302a7.825 7.825 0 1 0 .003 15.65 7.825 7.825 0 0 0-.003-15.65m0 2.609a5.22 5.22 0 0 1 5.22 5.217 5.22 5.22 0 0 1-10.437 0 5.217 5.217 0 0 1 5.217-5.217"
     id="path5" />
</svg>
