<?xml version="1.0" encoding="UTF-8" standalone="no"?>
<svg
   width="64"
   height="64"
   enable-background="new 0 0 1024 1024"
   image-rendering="optimizeSpeed"
   version="1.1"
   id="svg3"
   sodipodi:docname="genymotion.svg"
   xml:space="preserve"
   inkscape:version="1.4.2 (ebf0e940d0, 2025-05-08)"
   xmlns:inkscape="http://www.inkscape.org/namespaces/inkscape"
   xmlns:sodipodi="http://sodipodi.sourceforge.net/DTD/sodipodi-0.dtd"
   xmlns="http://www.w3.org/2000/svg"
   xmlns:svg="http://www.w3.org/2000/svg"><sodipodi:namedview
     id="namedview3"
     pagecolor="#505050"
     bordercolor="#eeeeee"
     borderopacity="1"
     inkscape:showpageshadow="0"
     inkscape:pageopacity="0"
     inkscape:pagecheckerboard="0"
     inkscape:deskcolor="#505050"
     inkscape:zoom="1.1464844"
     inkscape:cx="-91.584327"
     inkscape:cy="-154.38501"
     inkscape:window-width="2560"
     inkscape:window-height="1411"
     inkscape:window-x="0"
     inkscape:window-y="0"
     inkscape:window-maximized="1"
     inkscape:current-layer="svg3" /><defs
     id="defs2"><linearGradient
       id="a"
       x1="7.937"
       x2="7.937"
       y1="15.081"
       y2="1.852"
       gradientTransform="matrix(3.7796,0,0,3.7796,-1.3083475,-3.9690001)"
       gradientUnits="userSpaceOnUse"><stop
         offset="0"
         stop-color="#eb464e"
         id="stop1" /><stop
         offset="1"
         stop-color="#f73b77"
         id="stop2" /></linearGradient><filter
       id="b"
       width="1.0919951"
       height="1.1724964"
       x="-0.045997572"
       y="-0.086248203"
       color-interpolation-filters="sRGB"><feGaussianBlur
         stdDeviation=".75"
         id="feGaussianBlur2" /></filter><filter
       id="filter1057"
       x="-0.026999999"
       y="-0.026999999"
       width="1.054"
       height="1.054"
       color-interpolation-filters="sRGB"><feGaussianBlur
         stdDeviation="0.61875"
         id="feGaussianBlur2-7" /></filter><linearGradient
       id="linearGradient1053"
       x1="-127"
       x2="-72"
       y1="36.754265"
       y2="36.754265"
       gradientTransform="translate(131.5,-0.5100003)"
       gradientUnits="userSpaceOnUse"><stop
         stop-color="#dee0e2"
         offset="0"
         id="stop2-3"
         style="stop-color:#492c7d;stop-opacity:1" /><stop
         stop-color="#f1f3f5"
         stop-opacity=".99608"
         offset="1"
         id="stop3"
         style="stop-color:#ff51a8;stop-opacity:1" /></linearGradient></defs><rect
     x="4.4999995"
     y="4.4999995"
     width="55"
     height="55"
     ry="15"
     fill="#141414"
     filter="url(#filter1057)"
     opacity="0.3"
     stroke-linecap="round"
     stroke-width="2.7444"
     id="rect4" /><rect
     x="4.5"
     y="4.5"
     width="55"
     height="55"
     ry="15"
     fill="url(#linearGradient1053)"
     stroke-linecap="round"
     stroke-width="2.7444"
     id="rect5"
     style="fill:url(#linearGradient1053)" /><path
     d="M41.129 21.565c-5.763 0-10.435 4.667-10.435 10.435 0 5.763 4.667 10.435 10.435 10.435 5.763 0 10.437-4.667 10.437-10.435 0-5.763-4.67-10.435-10.437-10.435m0 2.606a7.825 7.825 0 1 1 .002 15.65 7.825 7.825 0 0 1-.002-15.65m-20.872 1.302a7.825 7.825 0 1 0 .003 15.65 7.825 7.825 0 0 0-.003-15.65m0 2.609a5.22 5.22 0 0 1 5.22 5.217 5.22 5.22 0 0 1-10.437 0 5.217 5.217 0 0 1 5.217-5.217"
     filter="url(#b)"
     opacity=".15"
     id="path2" /><path
     fill="#f9f9f9"
     d="M41.129 21.565c-5.763 0-10.435 4.667-10.435 10.435 0 5.763 4.667 10.435 10.435 10.435 5.763 0 10.437-4.667 10.437-10.435 0-5.763-4.67-10.435-10.437-10.435m0 2.606a7.825 7.825 0 1 1 .002 15.65 7.825 7.825 0 0 1-.002-15.65m-20.872 1.302a7.825 7.825 0 1 0 .003 15.65 7.825 7.825 0 0 0-.003-15.65m0 2.609a5.22 5.22 0 0 1 5.22 5.217 5.22 5.22 0 0 1-10.437 0 5.217 5.217 0 0 1 5.217-5.217"
     id="path3" /></svg>
