<?xml version="1.0" encoding="UTF-8" standalone="no"?>
<svg
   width="64"
   height="64"
   version="1.1"
   id="svg8"
   sodipodi:docname="geogebra.svg"
   inkscape:version="1.4.3 (0d15f75042, 2025-12-25)"
   xmlns:inkscape="http://www.inkscape.org/namespaces/inkscape"
   xmlns:sodipodi="http://sodipodi.sourceforge.net/DTD/sodipodi-0.dtd"
   xmlns:xlink="http://www.w3.org/1999/xlink"
   xmlns="http://www.w3.org/2000/svg"
   xmlns:svg="http://www.w3.org/2000/svg">
  <sodipodi:namedview
     id="namedview8"
     pagecolor="#505050"
     bordercolor="#eeeeee"
     borderopacity="1"
     inkscape:showpageshadow="0"
     inkscape:pageopacity="0"
     inkscape:pagecheckerboard="0"
     inkscape:deskcolor="#505050"
     inkscape:zoom="9.171875"
     inkscape:cx="43.611584"
     inkscape:cy="31.073254"
     inkscape:window-width="2560"
     inkscape:window-height="1411"
     inkscape:window-x="0"
     inkscape:window-y="0"
     inkscape:window-maximized="1"
     inkscape:current-layer="svg8" />
  <defs
     id="defs6">
    <linearGradient
       id="a"
       x1="7.937"
       x2="7.937"
       y1="15.081"
       y2="1.852"
       gradientTransform="scale(3.7796)"
       gradientUnits="userSpaceOnUse">
      <stop
         offset="0"
         stop-color="#f1efeb"
         id="stop1" />
      <stop
         offset="1"
         stop-color="#fdfcfc"
         id="stop2" />
    </linearGradient>
    <linearGradient
       id="c"
       x1="32.942"
       x2="32.942"
       y1="48.406"
       y2="15.664"
       gradientUnits="userSpaceOnUse">
      <stop
         offset="0"
         stop-color="#8467ea"
         id="stop3" />
      <stop
         offset="1"
         stop-color="#99acff"
         id="stop4" />
    </linearGradient>
    <linearGradient
       id="b"
       x1="32.942"
       x2="32.942"
       y1="48.406"
       y2="15.741"
       gradientUnits="userSpaceOnUse">
      <stop
         offset="0"
         stop-color="#525252"
         id="stop5" />
      <stop
         offset="1"
         stop-color="gray"
         id="stop6" />
    </linearGradient>
    <linearGradient
       inkscape:collect="always"
       xlink:href="#linearGradient1051"
       id="linearGradient1053-5"
       x1="-127"
       y1="60"
       x2="-72"
       y2="5"
       gradientUnits="userSpaceOnUse"
       gradientTransform="translate(131.5,-0.50999909)" />
    <linearGradient
       inkscape:collect="always"
       id="linearGradient1051">
      <stop
         style="stop-color:#dee0e2;stop-opacity:1"
         offset="0"
         id="stop1047" />
      <stop
         style="stop-color:#f1f3f5;stop-opacity:0.99607843"
         offset="1"
         id="stop1049" />
    </linearGradient>
  </defs>
  <rect
     style="fill:url(#linearGradient1053-5);fill-opacity:1;stroke-width:2.74436;stroke-linecap:round"
     id="rect1045"
     width="54.999996"
     height="54.999996"
     x="4.5000019"
     y="4.5000019"
     ry="14.999999" />
  <g
     stroke-width="1.538"
     id="g8">
    <path
       fill="url(#b)"
       d="M27.078 17.048c-9.946 3.619-15.415 13.288-12.182 21.554 3.238 8.27 13.969 12.049 23.912 8.43 9.94-3.618 15.415-13.293 12.175-21.568-3.238-8.27-13.969-12.043-23.912-8.426m1.119 2.843c8.101-2.951 16.755.097 19.388 6.821 2.632 6.719-1.773 14.525-9.88 17.475s-16.766-.101-19.392-6.828c-2.633-6.718 1.778-14.52 9.886-17.468"
       id="path7" />
    <path
       fill="url(#c)"
       d="M31.23 13.539a3.85 3.85 0 0 0-3.846 3.846 3.85 3.85 0 0 0 3.846 3.845 3.85 3.85 0 0 0 3.846-3.845 3.85 3.85 0 0 0-3.846-3.846m16.924 6.152c-2.122 0-3.846 1.726-3.846 3.848s1.724 3.846 3.846 3.846S52 25.66 52 23.539s-1.725-3.848-3.846-3.848m-32.309 7.694a3.85 3.85 0 0 0-3.846 3.845 3.85 3.85 0 0 0 3.846 3.846 3.85 3.85 0 0 0 3.846-3.846 3.85 3.85 0 0 0-3.846-3.845m29.23 9.23c-2.122 0-3.846 1.724-3.846 3.846s1.725 3.848 3.846 3.848 3.848-1.726 3.848-3.848-1.726-3.846-3.848-3.846m-20 6.154a3.85 3.85 0 0 0-3.846 3.846 3.85 3.85 0 0 0 3.846 3.846 3.85 3.85 0 0 0 3.848-3.846 3.85 3.85 0 0 0-3.848-3.846"
       id="path8" />
  </g>
</svg>
