<?xml version="1.0" encoding="UTF-8" standalone="no"?>
<svg
   width="64"
   height="64"
   version="1.1"
   id="svg3"
   sodipodi:docname="giada.svg"
   xml:space="preserve"
   inkscape:version="1.4.3 (0d15f75042, 2025-12-25)"
   xmlns:inkscape="http://www.inkscape.org/namespaces/inkscape"
   xmlns:sodipodi="http://sodipodi.sourceforge.net/DTD/sodipodi-0.dtd"
   xmlns="http://www.w3.org/2000/svg"
   xmlns:svg="http://www.w3.org/2000/svg"><sodipodi:namedview
     id="namedview3"
     pagecolor="#505050"
     bordercolor="#eeeeee"
     borderopacity="1"
     inkscape:showpageshadow="0"
     inkscape:pageopacity="0"
     inkscape:pagecheckerboard="0"
     inkscape:deskcolor="#505050"
     inkscape:zoom="6.485495"
     inkscape:cx="37.314037"
     inkscape:cy="30.221286"
     inkscape:window-width="2560"
     inkscape:window-height="1411"
     inkscape:window-x="0"
     inkscape:window-y="0"
     inkscape:window-maximized="1"
     inkscape:current-layer="svg3" /><defs
     id="defs2"><linearGradient
       id="a"
       x1="7.937"
       x2="7.937"
       y1="15.081"
       y2="1.852"
       gradientTransform="matrix(3.7796,0,0,3.7796,0,64.605708)"
       gradientUnits="userSpaceOnUse"><stop
         offset="0"
         stop-color="#363636"
         id="stop1" /><stop
         offset="1"
         stop-color="#6c6c6c"
         id="stop2" /></linearGradient><filter
       id="b"
       width="1.2939567"
       height="1.2939567"
       x="-0.14697836"
       y="-0.14697836"
       style="color-interpolation-filters:sRGB"><feGaussianBlur
         stdDeviation="2.955"
         id="feGaussianBlur2" /></filter><filter
       id="filter1057"
       x="-0.026999999"
       y="-0.026999999"
       width="1.054"
       height="1.054"
       color-interpolation-filters="sRGB"><feGaussianBlur
         stdDeviation="0.61875"
         id="feGaussianBlur3" /></filter><linearGradient
       id="linearGradient1053"
       x1="-127"
       x2="-72"
       y1="60"
       y2="5"
       gradientTransform="translate(214.09557,-17.10221)"
       gradientUnits="userSpaceOnUse"><stop
         stop-color="#0a0a0a"
         offset="0"
         id="stop3-3" /><stop
         stop-color="#323232"
         stop-opacity=".99608"
         offset="1"
         id="stop4-6" /></linearGradient></defs><g
     id="g1"
     transform="translate(-82.600564,16.592253)"><rect
       x="87.100563"
       y="-12.092254"
       width="55"
       height="55"
       ry="15"
       fill="#141414"
       filter="url(#filter1057)"
       opacity="0.3"
       stroke-linecap="round"
       stroke-width="2.7444"
       id="rect8" /><rect
       x="87.100563"
       y="-12.092254"
       width="55"
       height="55"
       ry="15"
       fill="url(#linearGradient1053)"
       stroke-linecap="round"
       stroke-width="2.7444"
       id="rect9"
       style="fill:url(#linearGradient1053)" /></g><path
     fill="#fefefe"
     d="M32.02 17.637c7.915 0 14.343 6.428 14.343 14.383v.08h.442a11.15 11.15 0 0 1 8.92 4.42c.281-1.446.401-2.973.401-4.5 0-13.339-10.807-24.146-24.106-24.146-13.339 0-24.146 10.807-24.146 24.146 0 13.299 10.807 24.106 24.146 24.106a24.2 24.2 0 0 0 10.085-2.21 9.9 9.9 0 0 0 3.455.603h.683c5.062-.361 9.12-4.58 9.12-9.763 0-1.928-.562-3.696-1.486-5.223-1.768-2.732-4.822-4.58-8.317-4.58a9.79 9.79 0 0 0-9.803 9.803c0 .362 0 .723.04 1.085-1.206.322-2.491.522-3.777.522-7.955 0-14.383-6.428-14.383-14.343 0-7.955 6.428-14.383 14.383-14.383m6.067 10.566c-1.286-2.009-3.536-3.375-6.067-3.375a7.185 7.185 0 0 0-7.192 7.192c0 3.937 3.215 7.152 7.192 7.152.16 0 .322 0 .482-.04a7.124 7.124 0 0 0 6.67-7.112 7.2 7.2 0 0 0-1.085-3.817"
     class="fil2"
     style="fill:#fefefe;stroke-width:.0401773"
     id="path3" /></svg>
