<?xml version="1.0" encoding="UTF-8" standalone="no"?>
<svg
   width="64"
   height="64"
   version="1.1"
   viewBox="0 0 64 64"
   id="svg5"
   sodipodi:docname="qtdesigner.svg"
   inkscape:version="1.4.2 (ebf0e940d0, 2025-05-08)"
   xmlns:inkscape="http://www.inkscape.org/namespaces/inkscape"
   xmlns:sodipodi="http://sodipodi.sourceforge.net/DTD/sodipodi-0.dtd"
   xmlns="http://www.w3.org/2000/svg"
   xmlns:svg="http://www.w3.org/2000/svg">
  <sodipodi:namedview
     id="namedview5"
     pagecolor="#505050"
     bordercolor="#eeeeee"
     borderopacity="1"
     inkscape:showpageshadow="0"
     inkscape:pageopacity="0"
     inkscape:pagecheckerboard="0"
     inkscape:deskcolor="#505050"
     inkscape:zoom="11.96875"
     inkscape:cx="32"
     inkscape:cy="32"
     inkscape:window-width="1920"
     inkscape:window-height="1003"
     inkscape:window-x="0"
     inkscape:window-y="0"
     inkscape:window-maximized="1"
     inkscape:current-layer="svg5" />
  <defs
     id="defs4">
    <linearGradient
       id="linearGradient862-3"
       x1="7.9373"
       x2="7.9373"
       y1="15.081"
       y2="1.852"
       gradientTransform="scale(3.7796)"
       gradientUnits="userSpaceOnUse">
      <stop
         stop-color="#4ab203"
         offset="0"
         id="stop1" />
      <stop
         stop-color="#89d754"
         offset="1"
         id="stop2" />
    </linearGradient>
    <linearGradient
       id="c-3"
       x1="32"
       x2="32"
       y1="16.002"
       y2="47.998"
       gradientUnits="userSpaceOnUse">
      <stop
         stop-color="#fff"
         offset="0"
         id="stop3" />
      <stop
         stop-color="#daffd8"
         offset="1"
         id="stop4" />
    </linearGradient>
    <filter
       id="filter1057-2"
       x="-0.026999999"
       y="-0.026999999"
       width="1.054"
       height="1.054"
       color-interpolation-filters="sRGB">
      <feGaussianBlur
         stdDeviation="0.61875"
         id="feGaussianBlur1" />
    </filter>
    <linearGradient
       id="linearGradient1053-7"
       x1="-127"
       x2="-72"
       y1="60"
       y2="5"
       gradientTransform="matrix(0.26459,0,0,0.26459,19.948,-0.13496)"
       gradientUnits="userSpaceOnUse">
      <stop
         stop-color="#8cd750"
         offset="0"
         id="stop1-3" />
      <stop
         stop-color="#7dcd32"
         stop-opacity=".99608"
         offset=".49585"
         id="stop2-6" />
      <stop
         stop-color="#87d241"
         stop-opacity=".99608"
         offset="1"
         id="stop3-7" />
    </linearGradient>
  </defs>
  <g
     transform="matrix(3.779602,0,0,3.779602,56.106754,-0.00120931)"
     stroke-linecap="round"
     id="g4">
    <rect
       transform="matrix(0.26459,0,0,0.26459,-14.845,-6.0294e-5)"
       x="4.5"
       y="4.5"
       width="55"
       height="55"
       ry="15"
       fill="#141414"
       filter="url(#filter1057-2)"
       opacity="0.3"
       stroke-width="2.7444"
       id="rect3" />
    <rect
       x="-13.654"
       y="1.1906"
       width="14.552"
       height="14.552"
       ry="3.9688001"
       fill="url(#linearGradient1053-7)"
       stroke-width="0.72612"
       id="rect4-3"
       style="fill:url(#linearGradient1053-7)" />
  </g>
  <path
     d="m50.643 11.784c-0.69465 0.02888-1.3641 0.37773-1.781 0.99253-0.4194 0.61833-10.283 15.168-11.553 17.357-0.63501 1.095-1.3515 2.8721-1.9468 4.4972l5.1263 3.0052c1.1164-1.3244 2.3081-2.8363 2.9521-3.9468 1.2848-2.2154 9.0004-17.978 9.3281-18.648 0.52263-1.0678 0.13148-2.3581-0.89689-2.9542-0.38553-0.22358-0.81164-0.32125-1.2284-0.30393zm-37.021 17.328c-0.04743-0.0059-0.09877 0.0059-0.14028 0.03613-1.5395 1.1154-2.5584 3.1424-2.4781 4.9286 0.04283 0.95257 0.40892 2.2755 1.9128 3.171 0.80954 0.48194 2.1195 0.58196 3.3856 0.68011 1.2456 0.09649 2.5339 0.19795 2.9309 0.68223 0.104 0.12692 0.14446 0.28049 0.12115 0.47395-0.08663 0.88564-0.51732 1.7582-0.93302 2.6014-0.78506 1.5929-1.5965 3.239-0.1934 5.0667 1.2322 1.6049 2.8676 1.6057 4.5482 1.5939 0.13756-9.62e-4 0.27669-0.0022 0.41444-0.0022 0.73315 0 1.5784 0.02153 2.3463 0.28904 0.54652 0.2118 0.82144 0.65045 0.95002 1.5196 0.09844 0.53286 0.33611 0.95292 0.65036 1.2688 0.04595-0.24497 0.1538-0.47849 0.32092-0.67585 0.82516-0.97423 0.66308-1.8854 0.25079-3.6895-0.19141-0.83852-0.40368-1.7691-0.45694-2.782-0.43883-0.14653-0.86695-0.23266-1.3007-0.25929-0.07288-0.0045-0.1503-0.0064-0.23166-0.0064-0.65267 0-1.4724 0.14434-2.2656 0.28267-0.70682 0.12341-1.3747 0.23804-1.8405 0.23804-0.3277 0-0.44161-0.05805-0.4782-0.08927-0.396-0.49706 0.17797-1.8468 0.42294-2.425 0.06264-0.14751 0.11179-0.26534 0.14028-0.34855 0.39726-1.1689 0.68818-2.4129 0.13814-3.5939-0.45726-0.98193-1.5257-1.7635-2.714-1.9893-0.34614-0.08176-0.74277-0.11902-1.2497-0.11902-0.41726 0-0.86456 0.02536-1.2964 0.051-0.44292 0.02635-0.90033 0.05526-1.339 0.05526-1.5086 0-2.3781-0.34582-2.9032-1.1498-0.97481-1.5478 0.19624-4.3204 1.3985-5.4748 0.07395-0.07102 0.08064-0.18694 0.01487-0.26567-0.03293-0.03937-0.07796-0.06209-0.12539-0.06801zm21.13 6.6396c-0.27951 0.03366-0.56088 0.09032-0.8395 0.17003-1.3382 0.38409-3.2723 1.4851-4.8946 4.5525-1.288 2.4352-0.81259 4.5194-0.39319 6.359 0.40077 1.7583 0.71654 3.1483-0.4612 4.5376-0.1158 0.13649-0.14786 0.32402-0.08289 0.49095 0.04089 0.10498 0.11655 0.19191 0.21041 0.24654 0.0557 0.0322 0.11905 0.05324 0.1849 0.06164 2.979 0.37424 7.4369-1.3837 10.187-6.1252 1.249-2.1535 1.7855-4.2231 1.5515-5.9871-0.06087-0.46019-0.17482-0.89534-0.3358-1.3007l-5.1262-3.0052z"
     opacity=".15"
     stroke-width=".07101"
     id="path4" />
  <path
     d="m25.598 16.002c-3.2289 0-5.6349 1.1557-7.2227 3.4688-1.5838 2.2917-2.375 5.6077-2.375 9.9512 0 4.4368 0.79253 7.8056 2.375 10.139 1.1039 1.6251 2.587 2.6794 4.4414 3.166 0 0 0.37425-0.01463 0.40625 0.36133 0.63992 4.9061 3.8858 4.9102 7.584 4.9102 0 0 0.47852 6.78e-4 0.47852-0.44727v-2.7031c0-0.45328-0.47852-0.45312-0.47852-0.45312-1.8491 0-2.3291 0.11568-2.8184-1.6348 0.63592-0.14532 1.2039-0.34355 1.7559-0.60352 1.2185-0.59859 2.2232-1.4706 3.0098-2.6211 0.79723-1.1559 1.3798-2.5822 1.7598-4.2793 0.39595-1.6931 0.58789-3.6369 0.58789-5.834 0-4.3901-0.80155-7.7277-2.416-9.998-1.6091-2.281-3.9789-3.4219-7.0879-3.4219zm-0.02734 2.1875v0.0098c0.68258 0 1.1936 0.22408 1.6309 0.69336 0.25464 0.2653 0.47872 0.61006 0.69336 1.0273 0.11465 0.30263 0.23428 0.63071 0.32227 1 0.25464 0.99454 0.43312 2.1958 0.53711 3.6289 0.10399 1.4318 0.14453 3.0579 0.14453 4.875 0 1.8278-0.04055 3.4726-0.14453 4.9258-0.10399 1.4478-0.28781 2.6663-0.53711 3.6875-0.09332 0.37995-0.20228 0.72958-0.32227 1.0469-0.02666 0.036-0.0353 0.08367-0.05664 0.125-0.19731 0.36395-0.40208 0.67648-0.63672 0.92578-0.43195 0.48927-0.95361 0.71875-1.6309 0.71875-0.67192 0-1.1971-0.22948-1.625-0.71875-0.42661-0.49994-0.77466-1.2221-1.0293-2.1953-0.25464-0.98921-0.43312-2.1946-0.53711-3.6211-0.09865-1.4372-0.16602-3.078-0.16602-4.9004 0-1.8064 0.0567-3.4162 0.16602-4.832 0.10399-1.4118 0.28248-2.604 0.53711-3.5625 0.25463-0.95855 0.60802-1.6727 1.0293-2.1406 0.42662-0.46394 0.94775-0.69336 1.625-0.69336zm14.791 1.8398c-1.4318 5.406-0.48011 5.4062-3.3438 5.4062v3.1543h1.9121v9.4629h-2e-3s-0.47826 2.7016 1.9121 4.0508c2.4584 1.3905 7.0668 0.06799 7.1602 0v-3.1504s-1.0414 0.3551-1.8066 0.28711c-0.60392 0-1.095-0.21934-1.459-0.64062-0.36929-0.42795-0.55664-1.0565-0.55664-1.9004v-8.1094h3.8223v-3.1543h-3.8223v-5.4062h-3.8164z"
     fill="url(#c-3)"
     id="path5" />
</svg>
