<?xml version="1.0" encoding="UTF-8" standalone="no"?>
<svg
   width="64"
   height="64"
   version="1.1"
   viewBox="0 0 64 64"
   id="svg5"
   sodipodi:docname="qtlinguistic.svg"
   inkscape:version="1.4.2 (ebf0e940d0, 2025-05-08)"
   xmlns:inkscape="http://www.inkscape.org/namespaces/inkscape"
   xmlns:sodipodi="http://sodipodi.sourceforge.net/DTD/sodipodi-0.dtd"
   xmlns="http://www.w3.org/2000/svg"
   xmlns:svg="http://www.w3.org/2000/svg">
  <sodipodi:namedview
     id="namedview5"
     pagecolor="#505050"
     bordercolor="#eeeeee"
     borderopacity="1"
     inkscape:showpageshadow="0"
     inkscape:pageopacity="0"
     inkscape:pagecheckerboard="0"
     inkscape:deskcolor="#505050"
     inkscape:zoom="5.984375"
     inkscape:cx="20.553525"
     inkscape:cy="40.438642"
     inkscape:window-width="1920"
     inkscape:window-height="1003"
     inkscape:window-x="0"
     inkscape:window-y="0"
     inkscape:window-maximized="1"
     inkscape:current-layer="svg5" />
  <defs
     id="defs4">
    <linearGradient
       id="linearGradient862-3"
       x1="7.9373"
       x2="7.9373"
       y1="15.081"
       y2="1.852"
       gradientTransform="scale(3.7796)"
       gradientUnits="userSpaceOnUse">
      <stop
         stop-color="#4ab203"
         offset="0"
         id="stop1" />
      <stop
         stop-color="#89d754"
         offset="1"
         id="stop2" />
    </linearGradient>
    <linearGradient
       id="c-5"
       x1="32"
       x2="32"
       y1="16.002"
       y2="47.998"
       gradientUnits="userSpaceOnUse">
      <stop
         stop-color="#fff"
         offset="0"
         id="stop3" />
      <stop
         stop-color="#daffd8"
         offset="1"
         id="stop4" />
    </linearGradient>
    <filter
       id="filter1057-2"
       x="-0.026999999"
       y="-0.026999999"
       width="1.054"
       height="1.054"
       color-interpolation-filters="sRGB">
      <feGaussianBlur
         stdDeviation="0.61875"
         id="feGaussianBlur1" />
    </filter>
    <linearGradient
       id="linearGradient1053-7"
       x1="-127"
       x2="-72"
       y1="60"
       y2="5"
       gradientTransform="matrix(0.26459,0,0,0.26459,19.948,-0.13496)"
       gradientUnits="userSpaceOnUse">
      <stop
         stop-color="#8cd750"
         offset="0"
         id="stop1-3" />
      <stop
         stop-color="#7dcd32"
         stop-opacity=".99608"
         offset=".49585"
         id="stop2-6" />
      <stop
         stop-color="#87d241"
         stop-opacity=".99608"
         offset="1"
         id="stop3-7" />
    </linearGradient>
  </defs>
  <g
     transform="matrix(3.779602,0,0,3.779602,56.106754,-0.00120931)"
     stroke-linecap="round"
     id="g4">
    <rect
       transform="matrix(0.26459,0,0,0.26459,-14.845,-6.0294e-5)"
       x="4.5"
       y="4.5"
       width="55"
       height="55"
       ry="15"
       fill="#141414"
       filter="url(#filter1057-2)"
       opacity="0.3"
       stroke-width="2.7444"
       id="rect3" />
    <rect
       x="-13.654"
       y="1.1906"
       width="14.552"
       height="14.552"
       ry="3.9688001"
       fill="url(#linearGradient1053-7)"
       stroke-width="0.72612"
       id="rect4-3"
       style="fill:url(#linearGradient1053-7)" />
  </g>
  <path
     d="m31.997 11.028c-11.597 0-20.997 9.0761-20.997 20.274 0 6.7525 3.4392 12.696 8.694 16.36-0.19177 0.77687-0.43813 1.5915-0.82026 2.444-1.3074 2.8919-2.6246 2.8919-2.6246 2.8919s3.9375 0 6.5621-1.4488c0.55711-0.30655 1.0386-0.80906 1.4824-1.3998 2.3894 0.91265 4.9594 1.3998 7.7099 1.3998 11.597 1e-6 20.996-9.0761 20.996-20.274 0-11.193-9.3994-20.274-20.996-20.274"
     opacity=".15"
     id="path4" />
  <path
     d="m25.598 16.002c-3.2289 0-5.6349 1.1557-7.2227 3.4688-1.5838 2.2917-2.375 5.6077-2.375 9.9512 0 4.4368 0.79253 7.8056 2.375 10.139 1.1039 1.6251 2.587 2.6794 4.4414 3.166 0 0 0.37425-0.01463 0.40625 0.36133 0.63992 4.9061 3.8858 4.9102 7.584 4.9102 0 0 0.47852 6.78e-4 0.47852-0.44727v-2.7031c0-0.45328-0.47852-0.45312-0.47852-0.45312-1.8491 0-2.3291 0.11568-2.8184-1.6348 0.63592-0.14532 1.2039-0.34355 1.7559-0.60352 1.2185-0.59859 2.2232-1.4706 3.0098-2.6211 0.79723-1.1559 1.3798-2.5822 1.7598-4.2793 0.39595-1.6931 0.58789-3.6369 0.58789-5.834 0-4.3901-0.80155-7.7277-2.416-9.998-1.6091-2.281-3.9789-3.4219-7.0879-3.4219zm-0.02734 2.1875v0.0098c0.68258 0 1.1936 0.22408 1.6309 0.69336 0.25464 0.2653 0.47872 0.61006 0.69336 1.0273 0.11465 0.30263 0.23428 0.63071 0.32227 1 0.25464 0.99454 0.43312 2.1958 0.53711 3.6289 0.10399 1.4318 0.14453 3.0579 0.14453 4.875 0 1.8278-0.04055 3.4726-0.14453 4.9258-0.10399 1.4478-0.28781 2.6663-0.53711 3.6875-0.09332 0.37995-0.20228 0.72958-0.32227 1.0469-0.02666 0.036-0.0353 0.08367-0.05664 0.125-0.19731 0.36395-0.40208 0.67648-0.63672 0.92578-0.43195 0.48927-0.95361 0.71875-1.6309 0.71875-0.67192 0-1.1971-0.22948-1.625-0.71875-0.42661-0.49994-0.77466-1.2221-1.0293-2.1953-0.25464-0.98921-0.43312-2.1946-0.53711-3.6211-0.09865-1.4372-0.16602-3.078-0.16602-4.9004 0-1.8064 0.0567-3.4162 0.16602-4.832 0.10399-1.4118 0.28248-2.604 0.53711-3.5625 0.25463-0.95855 0.60802-1.6727 1.0293-2.1406 0.42662-0.46394 0.94775-0.69336 1.625-0.69336zm14.791 1.8398c-1.4318 5.406-0.48011 5.4062-3.3438 5.4062v3.1543h1.9121v9.4629h-2e-3s-0.47826 2.7016 1.9121 4.0508c2.4584 1.3905 7.0668 0.06799 7.1602 0v-3.1504s-1.0414 0.3551-1.8066 0.28711c-0.60392 0-1.095-0.21934-1.459-0.64062-0.36929-0.42795-0.55664-1.0565-0.55664-1.9004v-8.1094h3.8223v-3.1543h-3.8223v-5.4062h-3.8164z"
     fill="url(#c-5)"
     id="path5" />
</svg>
